<svg xmlns="http://www.w3.org/2000/svg" xmlns:svg="http://www.w3.org/2000/svg" id="el_RNqXtvzO2" version="1.1" viewBox="0 0 520 124" xml:space="preserve"><style id="style1268">@-webkit-keyframes kf_el_YlY_bAevdKS_an_U_mPDcai-{0%{opacity:0}40%{opacity:1}}@keyframes kf_el_YlY_bAevdKS_an_U_mPDcai-{0%{opacity:0}40%{opacity:1}}@-webkit-keyframes kf_el_YlY_bAevdKS_an_YPgqm21FV{0%{-webkit-transform:translate(411.4091796875px,677.7159423828125px) translate(-411.4091796875px,-677.7159423828125px) translate(-170px,77px);transform:translate(411.4091796875px,677.7159423828125px) translate(-411.4091796875px,-677.7159423828125px) translate(-170px,77px)}40%{-webkit-transform:translate(411.4091796875px,677.7159423828125px) translate(-411.4091796875px,-677.7159423828125px) translate(0,0);transform:translate(411.4091796875px,677.7159423828125px) translate(-411.4091796875px,-677.7159423828125px) translate(0,0)}}@keyframes kf_el_YlY_bAevdKS_an_YPgqm21FV{0%{-webkit-transform:translate(411.4091796875px,677.7159423828125px) translate(-411.4091796875px,-677.7159423828125px) translate(-170px,77px);transform:translate(411.4091796875px,677.7159423828125px) translate(-411.4091796875px,-677.7159423828125px) translate(-170px,77px)}40%{-webkit-transform:translate(411.4091796875px,677.7159423828125px) translate(-411.4091796875px,-677.7159423828125px) translate(0,0);transform:translate(411.4091796875px,677.7159423828125px) translate(-411.4091796875px,-677.7159423828125px) translate(0,0)}}@-webkit-keyframes kf_el_gzTN-R-7QOC_an_IxftLN52i{0%{-webkit-transform:translate(362.70916748046875px,677.7159423828125px) translate(-362.70916748046875px,-677.7159423828125px) translate(-120px,77px);transform:translate(362.70916748046875px,677.7159423828125px) translate(-362.70916748046875px,-677.7159423828125px) translate(-120px,77px)}40%{-webkit-transform:translate(362.70916748046875px,677.7159423828125px) translate(-362.70916748046875px,-677.7159423828125px) translate(0,0);transform:translate(362.70916748046875px,677.7159423828125px) translate(-362.70916748046875px,-677.7159423828125px) translate(0,0)}}@keyframes kf_el_gzTN-R-7QOC_an_IxftLN52i{0%{-webkit-transform:translate(362.70916748046875px,677.7159423828125px) translate(-362.70916748046875px,-677.7159423828125px) translate(-120px,77px);transform:translate(362.70916748046875px,677.7159423828125px) translate(-362.70916748046875px,-677.7159423828125px) translate(-120px,77px)}40%{-webkit-transform:translate(362.70916748046875px,677.7159423828125px) translate(-362.70916748046875px,-677.7159423828125px) translate(0,0);transform:translate(362.70916748046875px,677.7159423828125px) translate(-362.70916748046875px,-677.7159423828125px) translate(0,0)}}@-webkit-keyframes kf_el_gzTN-R-7QOC_an_Rdo7W-MnU{0%{opacity:0}40%{opacity:1}}@keyframes kf_el_gzTN-R-7QOC_an_Rdo7W-MnU{0%{opacity:0}40%{opacity:1}}@-webkit-keyframes kf_el_7vGxl09CA7m_an_pz2VJOr4I{0%{opacity:0}40%{opacity:1}}@keyframes kf_el_7vGxl09CA7m_an_pz2VJOr4I{0%{opacity:0}40%{opacity:1}}@-webkit-keyframes kf_el_7vGxl09CA7m_an_CkONIfE-F{0%{-webkit-transform:translate(313.89715576171875px,677.7159423828125px) translate(-313.89715576171875px,-677.7159423828125px) translate(-73px,77px);transform:translate(313.89715576171875px,677.7159423828125px) translate(-313.89715576171875px,-677.7159423828125px) translate(-73px,77px)}40%{-webkit-transform:translate(313.89715576171875px,677.7159423828125px) translate(-313.89715576171875px,-677.7159423828125px) translate(0,0);transform:translate(313.89715576171875px,677.7159423828125px) translate(-313.89715576171875px,-677.7159423828125px) translate(0,0)}}@keyframes kf_el_7vGxl09CA7m_an_CkONIfE-F{0%{-webkit-transform:translate(313.89715576171875px,677.7159423828125px) translate(-313.89715576171875px,-677.7159423828125px) translate(-73px,77px);transform:translate(313.89715576171875px,677.7159423828125px) translate(-313.89715576171875px,-677.7159423828125px) translate(-73px,77px)}40%{-webkit-transform:translate(313.89715576171875px,677.7159423828125px) translate(-313.89715576171875px,-677.7159423828125px) translate(0,0);transform:translate(313.89715576171875px,677.7159423828125px) translate(-313.89715576171875px,-677.7159423828125px) translate(0,0)}}@-webkit-keyframes kf_el_xE4Map0R4JA_an_UpCAuTwCj{0%{opacity:0}40%{opacity:1}}@keyframes kf_el_xE4Map0R4JA_an_UpCAuTwCj{0%{opacity:0}40%{opacity:1}}@-webkit-keyframes kf_el_xE4Map0R4JA_an_mMSHbCYep{0%{-webkit-transform:translate(265.19818115234375px,677.7159423828125px) translate(-265.19818115234375px,-677.7159423828125px) translate(-25px,77px);transform:translate(265.19818115234375px,677.7159423828125px) translate(-265.19818115234375px,-677.7159423828125px) translate(-25px,77px)}40%{-webkit-transform:translate(265.19818115234375px,677.7159423828125px) translate(-265.19818115234375px,-677.7159423828125px) translate(0,0);transform:translate(265.19818115234375px,677.7159423828125px) translate(-265.19818115234375px,-677.7159423828125px) translate(0,0)}}@keyframes kf_el_xE4Map0R4JA_an_mMSHbCYep{0%{-webkit-transform:translate(265.19818115234375px,677.7159423828125px) translate(-265.19818115234375px,-677.7159423828125px) translate(-25px,77px);transform:translate(265.19818115234375px,677.7159423828125px) translate(-265.19818115234375px,-677.7159423828125px) translate(-25px,77px)}40%{-webkit-transform:translate(265.19818115234375px,677.7159423828125px) translate(-265.19818115234375px,-677.7159423828125px) translate(0,0);transform:translate(265.19818115234375px,677.7159423828125px) translate(-265.19818115234375px,-677.7159423828125px) translate(0,0)}}@-webkit-keyframes kf_el_VVBFEEAzL5b_an_H1yvM9smR{0%{opacity:0}40%{opacity:1}}@keyframes kf_el_VVBFEEAzL5b_an_H1yvM9smR{0%{opacity:0}40%{opacity:1}}@-webkit-keyframes kf_el_VVBFEEAzL5b_an_PWHJJ_E92{0%{-webkit-transform:translate(216.41319274902344px,677.7159423828125px) translate(-216.41319274902344px,-677.7159423828125px) translate(25px,77px);transform:translate(216.41319274902344px,677.7159423828125px) translate(-216.41319274902344px,-677.7159423828125px) translate(25px,77px)}40%{-webkit-transform:translate(216.41319274902344px,677.7159423828125px) translate(-216.41319274902344px,-677.7159423828125px) translate(0,0);transform:translate(216.41319274902344px,677.7159423828125px) translate(-216.41319274902344px,-677.7159423828125px) translate(0,0)}}@keyframes kf_el_VVBFEEAzL5b_an_PWHJJ_E92{0%{-webkit-transform:translate(216.41319274902344px,677.7159423828125px) translate(-216.41319274902344px,-677.7159423828125px) translate(25px,77px);transform:translate(216.41319274902344px,677.7159423828125px) translate(-216.41319274902344px,-677.7159423828125px) translate(25px,77px)}40%{-webkit-transform:translate(216.41319274902344px,677.7159423828125px) translate(-216.41319274902344px,-677.7159423828125px) translate(0,0);transform:translate(216.41319274902344px,677.7159423828125px) translate(-216.41319274902344px,-677.7159423828125px) translate(0,0)}}@-webkit-keyframes kf_el_3yXceMUOuhF_an_A_TeyZ9fU{0%{opacity:0}40%{opacity:1}}@keyframes kf_el_3yXceMUOuhF_an_A_TeyZ9fU{0%{opacity:0}40%{opacity:1}}@-webkit-keyframes kf_el_3yXceMUOuhF_an_DRqCKpqaD{0%{-webkit-transform:translate(167.7141876220703px,677.7159423828125px) translate(-167.7141876220703px,-677.7159423828125px) translate(75px,77px);transform:translate(167.7141876220703px,677.7159423828125px) translate(-167.7141876220703px,-677.7159423828125px) translate(75px,77px)}40%{-webkit-transform:translate(167.7141876220703px,677.7159423828125px) translate(-167.7141876220703px,-677.7159423828125px) translate(0,0);transform:translate(167.7141876220703px,677.7159423828125px) translate(-167.7141876220703px,-677.7159423828125px) translate(0,0)}}@keyframes kf_el_3yXceMUOuhF_an_DRqCKpqaD{0%{-webkit-transform:translate(167.7141876220703px,677.7159423828125px) translate(-167.7141876220703px,-677.7159423828125px) translate(75px,77px);transform:translate(167.7141876220703px,677.7159423828125px) translate(-167.7141876220703px,-677.7159423828125px) translate(75px,77px)}40%{-webkit-transform:translate(167.7141876220703px,677.7159423828125px) translate(-167.7141876220703px,-677.7159423828125px) translate(0,0);transform:translate(167.7141876220703px,677.7159423828125px) translate(-167.7141876220703px,-677.7159423828125px) translate(0,0)}}@-webkit-keyframes kf_el_uCPzwxXnZ72_an_3dBofir3i{0%{opacity:0}40%{opacity:1}}@keyframes kf_el_uCPzwxXnZ72_an_3dBofir3i{0%{opacity:0}40%{opacity:1}}@-webkit-keyframes kf_el_uCPzwxXnZ72_an_62uWPNQuy{0%{-webkit-transform:translate(118.90217590332031px,677.7159423828125px) translate(-118.90217590332031px,-677.7159423828125px) translate(120px,77px);transform:translate(118.90217590332031px,677.7159423828125px) translate(-118.90217590332031px,-677.7159423828125px) translate(120px,77px)}40%{-webkit-transform:translate(118.90217590332031px,677.7159423828125px) translate(-118.90217590332031px,-677.7159423828125px) translate(0,0);transform:translate(118.90217590332031px,677.7159423828125px) translate(-118.90217590332031px,-677.7159423828125px) translate(0,0)}}@keyframes kf_el_uCPzwxXnZ72_an_62uWPNQuy{0%{-webkit-transform:translate(118.90217590332031px,677.7159423828125px) translate(-118.90217590332031px,-677.7159423828125px) translate(120px,77px);transform:translate(118.90217590332031px,677.7159423828125px) translate(-118.90217590332031px,-677.7159423828125px) translate(120px,77px)}40%{-webkit-transform:translate(118.90217590332031px,677.7159423828125px) translate(-118.90217590332031px,-677.7159423828125px) translate(0,0);transform:translate(118.90217590332031px,677.7159423828125px) translate(-118.90217590332031px,-677.7159423828125px) translate(0,0)}}@-webkit-keyframes kf_el_6dZSgI6VXmX_an_OP-2X51PF{0%{opacity:0}40%{opacity:1}}@keyframes kf_el_6dZSgI6VXmX_an_OP-2X51PF{0%{opacity:0}40%{opacity:1}}@-webkit-keyframes kf_el_6dZSgI6VXmX_an_qbTjiasCz{0%{-webkit-transform:translate(70.08917999267578px,677.7159423828125px) translate(-70.08917999267578px,-677.7159423828125px) translate(171px,77px);transform:translate(70.08917999267578px,677.7159423828125px) translate(-70.08917999267578px,-677.7159423828125px) translate(171px,77px)}40%{-webkit-transform:translate(70.08917999267578px,677.7159423828125px) translate(-70.08917999267578px,-677.7159423828125px) translate(0,0);transform:translate(70.08917999267578px,677.7159423828125px) translate(-70.08917999267578px,-677.7159423828125px) translate(0,0)}}@keyframes kf_el_6dZSgI6VXmX_an_qbTjiasCz{0%{-webkit-transform:translate(70.08917999267578px,677.7159423828125px) translate(-70.08917999267578px,-677.7159423828125px) translate(171px,77px);transform:translate(70.08917999267578px,677.7159423828125px) translate(-70.08917999267578px,-677.7159423828125px) translate(171px,77px)}40%{-webkit-transform:translate(70.08917999267578px,677.7159423828125px) translate(-70.08917999267578px,-677.7159423828125px) translate(0,0);transform:translate(70.08917999267578px,677.7159423828125px) translate(-70.08917999267578px,-677.7159423828125px) translate(0,0)}}#el_RNqXtvzO2 *{-webkit-animation-duration:5s;animation-duration:5s;-webkit-animation-iteration-count:infinite;animation-iteration-count:infinite;-webkit-animation-play-state:paused;animation-play-state:paused;-webkit-animation-timing-function:cubic-bezier(0,0,1,1);animation-timing-function:cubic-bezier(0,0,1,1)}#el_S7l8JfeZXR{-webkit-transform:matrix(1.3333333,0,0,-1.3333333,-75.477331,1018.7706);transform:matrix(1.3333333,0,0,-1.3333333,-75.477331,1018.7706)}#el_f4Gm8Ob7Ja,#el_lMSczNyiLm{fill-opacity:1;fill-rule:evenodd;stroke:none}#el_lMSczNyiLm{fill:#e8f2a1}#el_f4Gm8Ob7Ja{fill:#ffb66c}#el_51SJ7gic37_,#el_5TZUixjPHOb,#el_7YfKyATozP,#el_R_fI2or-lte,#el_Vsp9GLRzDz6,#el_WhcNef6X2O,#el_XJ3pZyFwJH,#el_dcUf4GWqb4M,#el_eb-xm7lD8u,#el_gCHugCwki3k,#el_oVwvB9KFeN,#el_orMvU4588vg,#el_pnjI-Jf6bdP,#el_rzpLBY9ITQM,#el_wrpoQt10WfU,#el_xEHj5L0A0Gk{fill:none;stroke:#000;stroke-width:.09999;stroke-linecap:butt;stroke-linejoin:round;stroke-miterlimit:10;stroke-dasharray:none;stroke-opacity:1}#el_1w2bpO2sTga,#el_5lAqCHsu5Z6,#el_GKO4EfV3R2l{font-variant:normal;font-weight:400;font-size:10.00599957px;font-family:Lato;-inkscape-font-specification:Lato-Regular;-webkit-writing-mode:lr-tb;-ms-writing-mode:lr-tb;writing-mode:lr-tb;fill:#000;fill-opacity:1;fill-rule:nonzero;stroke:none}#el_R_kIqltGE75{-webkit-transform:matrix(1,0,0,-1,240.491,754.497);transform:matrix(1,0,0,-1,240.491,754.497)}#el_R_kIqltGE75,#el_Y2LHuCSR-bW,#el_Z71thJuuDtC,#el_r214D3_zGEI,#el_tDkzEGqHE_Z,#el_wNwv7tV-hDG{font-variant:normal;font-weight:400;font-size:10.00599957px;font-family:Lato;-inkscape-font-specification:Lato-Regular;-webkit-writing-mode:lr-tb;-ms-writing-mode:lr-tb;writing-mode:lr-tb;fill:#000;fill-opacity:1;fill-rule:nonzero;stroke:none}#el_wNwv7tV-hDG{-webkit-transform:matrix(1,0,0,-1,69.789,677.791);transform:matrix(1,0,0,-1,69.789,677.791)}#el_GKO4EfV3R2l{-webkit-transform:matrix(1,0,0,-1,118.602,677.791);transform:matrix(1,0,0,-1,118.602,677.791)}#el_5lAqCHsu5Z6{-webkit-transform:matrix(1,0,0,-1,167.414,677.791);transform:matrix(1,0,0,-1,167.414,677.791)}#el_Z71thJuuDtC{-webkit-transform:matrix(1,0,0,-1,216.113,677.791);transform:matrix(1,0,0,-1,216.113,677.791)}#el_1w2bpO2sTga{-webkit-transform:matrix(1,0,0,-1,264.898,677.791);transform:matrix(1,0,0,-1,264.898,677.791)}#el_Y2LHuCSR-bW{-webkit-transform:matrix(1,0,0,-1,313.597,677.791);transform:matrix(1,0,0,-1,313.597,677.791)}#el_tDkzEGqHE_Z{-webkit-transform:matrix(1,0,0,-1,362.409,677.791);transform:matrix(1,0,0,-1,362.409,677.791)}#el_r214D3_zGEI{-webkit-transform:matrix(1,0,0,-1,411.109,677.791);transform:matrix(1,0,0,-1,411.109,677.791)}#el_3yXceMUOuhF,#el_3yXceMUOuhF_an_DRqCKpqaD,#el_6dZSgI6VXmX{-webkit-animation-fill-mode:forwards;animation-fill-mode:forwards;-webkit-animation-timing-function:cubic-bezier(0,0,1,1);animation-timing-function:cubic-bezier(0,0,1,1)}#el_6dZSgI6VXmX_an_qbTjiasCz{-webkit-animation-name:kf_el_6dZSgI6VXmX_an_qbTjiasCz;animation-name:kf_el_6dZSgI6VXmX_an_qbTjiasCz}#el_6dZSgI6VXmX_an_qbTjiasCz,#el_VVBFEEAzL5b,#el_VVBFEEAzL5b_an_PWHJJ_E92,#el_uCPzwxXnZ72,#el_uCPzwxXnZ72_an_62uWPNQuy{-webkit-animation-fill-mode:forwards;animation-fill-mode:forwards;-webkit-animation-timing-function:cubic-bezier(0,0,1,1);animation-timing-function:cubic-bezier(0,0,1,1)}#el_6dZSgI6VXmX{-webkit-animation-name:kf_el_6dZSgI6VXmX_an_OP-2X51PF;animation-name:kf_el_6dZSgI6VXmX_an_OP-2X51PF}#el_uCPzwxXnZ72_an_62uWPNQuy{-webkit-animation-name:kf_el_uCPzwxXnZ72_an_62uWPNQuy;animation-name:kf_el_uCPzwxXnZ72_an_62uWPNQuy}#el_uCPzwxXnZ72{-webkit-animation-name:kf_el_uCPzwxXnZ72_an_3dBofir3i;animation-name:kf_el_uCPzwxXnZ72_an_3dBofir3i}#el_3yXceMUOuhF_an_DRqCKpqaD{-webkit-animation-name:kf_el_3yXceMUOuhF_an_DRqCKpqaD;animation-name:kf_el_3yXceMUOuhF_an_DRqCKpqaD}#el_3yXceMUOuhF{-webkit-animation-name:kf_el_3yXceMUOuhF_an_A_TeyZ9fU;animation-name:kf_el_3yXceMUOuhF_an_A_TeyZ9fU}#el_VVBFEEAzL5b_an_PWHJJ_E92{-webkit-animation-name:kf_el_VVBFEEAzL5b_an_PWHJJ_E92;animation-name:kf_el_VVBFEEAzL5b_an_PWHJJ_E92}#el_VVBFEEAzL5b{-webkit-animation-name:kf_el_VVBFEEAzL5b_an_H1yvM9smR;animation-name:kf_el_VVBFEEAzL5b_an_H1yvM9smR}#el_7vGxl09CA7m,#el_7vGxl09CA7m_an_CkONIfE-F,#el_YlY_bAevdKS,#el_YlY_bAevdKS_an_YPgqm21FV,#el_gzTN-R-7QOC,#el_gzTN-R-7QOC_an_IxftLN52i,#el_xE4Map0R4JA,#el_xE4Map0R4JA_an_mMSHbCYep{-webkit-animation-fill-mode:forwards;animation-fill-mode:forwards;-webkit-animation-timing-function:cubic-bezier(0,0,1,1);animation-timing-function:cubic-bezier(0,0,1,1)}#el_xE4Map0R4JA_an_mMSHbCYep{-webkit-animation-name:kf_el_xE4Map0R4JA_an_mMSHbCYep;animation-name:kf_el_xE4Map0R4JA_an_mMSHbCYep}#el_xE4Map0R4JA{-webkit-animation-name:kf_el_xE4Map0R4JA_an_UpCAuTwCj;animation-name:kf_el_xE4Map0R4JA_an_UpCAuTwCj}#el_7vGxl09CA7m_an_CkONIfE-F{-webkit-animation-name:kf_el_7vGxl09CA7m_an_CkONIfE-F;animation-name:kf_el_7vGxl09CA7m_an_CkONIfE-F}#el_7vGxl09CA7m{-webkit-animation-name:kf_el_7vGxl09CA7m_an_pz2VJOr4I;animation-name:kf_el_7vGxl09CA7m_an_pz2VJOr4I}#el_gzTN-R-7QOC{-webkit-animation-name:kf_el_gzTN-R-7QOC_an_Rdo7W-MnU;animation-name:kf_el_gzTN-R-7QOC_an_Rdo7W-MnU}#el_gzTN-R-7QOC_an_IxftLN52i{-webkit-animation-name:kf_el_gzTN-R-7QOC_an_IxftLN52i;animation-name:kf_el_gzTN-R-7QOC_an_IxftLN52i}#el_YlY_bAevdKS_an_YPgqm21FV{-webkit-animation-name:kf_el_YlY_bAevdKS_an_YPgqm21FV;animation-name:kf_el_YlY_bAevdKS_an_YPgqm21FV}#el_YlY_bAevdKS{-webkit-animation-name:kf_el_YlY_bAevdKS_an_U_mPDcai-;animation-name:kf_el_YlY_bAevdKS_an_U_mPDcai-}#el_RNqXtvzO2:hover *{-webkit-animation-play-state:running;animation-play-state:running}</style><metadata id="metadata3736"/><defs id="defs3734"><clipPath id="clipPath3746" clipPathUnits="userSpaceOnUse"><path id="path3744" d="M 0,0.028 H 595.275 V 841.889 H 0 Z" clip-rule="evenodd"/></clipPath><clipPath id="clipPath3754" clipPathUnits="userSpaceOnUse"><path id="path3752" d="m 56.7,771.089 h 481.85 v 14.099 H 56.7 Z" clip-rule="evenodd"/></clipPath><clipPath id="clipPath3772" clipPathUnits="userSpaceOnUse"><path id="path3770" d="M 56.7,56.789 H 538.55 V 70.888 H 56.7 Z" clip-rule="evenodd"/></clipPath></defs><g id="el_S7l8JfeZXR"><path id="el_lMSczNyiLm" d="m 227.225,751.265 h 48.784 v 12.813 h -48.784 z"/><path id="el_f4Gm8Ob7Ja" d="m 56.693,674.56 h 389.962 v 12.813 H 56.693 Z"/><g id="el_lhIMNu8fCI"><path id="el_WhcNef6X2O" d="m 227.254,763.993 h 48.869"/></g><g id="el__NgVrtJ9M7"><path id="el_eb-xm7lD8u" d="M 227.31,764.05 V 751.152"/></g><g id="el_HDE-O9bf72"><path id="el_7YfKyATozP" d="M 276.066,764.05 V 751.152"/></g><g id="el_UkrpuD3ric"><path id="el_XJ3pZyFwJH" d="m 227.254,751.209 h 48.869"/></g><g id="el_b4G2bd4cT1"><path id="el_oVwvB9KFeN" d="M 56.608,687.287 H 446.769"/></g><g id="el_RZkGV8ieB6x"><path id="el_orMvU4588vg" d="M 56.665,687.344 V 674.446"/></g><g id="el_3rcip7tyuDp"><path id="el_5TZUixjPHOb" d="M 105.42,687.344 V 674.446"/></g><g id="el_k89rlU_Wg5h"><path id="el_gCHugCwki3k" d="M 154.176,687.344 V 674.446"/></g><g id="el_Nx2pHO4THn6"><path id="el_Vsp9GLRzDz6" d="M 202.932,687.344 V 674.446"/></g><g id="el_lNhPe75oOMv"><path id="el_rzpLBY9ITQM" d="M 251.688,687.344 V 674.446"/></g><g id="el_-NxUg02kreA"><path id="el_dcUf4GWqb4M" d="M 300.444,687.344 V 674.446"/></g><g id="el_WPh_ZlypSFA"><path id="el_51SJ7gic37_" d="M 349.2,687.344 V 674.446"/></g><g id="el_iRSGLX_puzD"><path id="el_pnjI-Jf6bdP" d="M 397.956,687.344 V 674.446"/></g><g id="el_fBWttemDcG2"><path id="el_wrpoQt10WfU" d="M 446.712,687.344 V 674.446"/></g><g id="el_dJ9X0ukBOEC"><path id="el_R_fI2or-lte" d="M 446.712,687.344 V 674.446"/></g><g id="el_nMagfby1qgf"><path id="el_xEHj5L0A0Gk" d="M 56.608,674.503 H 446.769"/></g><g id="el_d-lBMLDbybz"><g id="el_R_kIqltGE75" aria-label="0x42"><path id="el_Qs7i__-k-ok" d="m 5.5032998,-3.5821478 q 0,0.9405639 -0.205123,1.6309779 -0.20012,0.685411 -0.55033,1.13568094 -0.35021,0.45026998 -0.830498,0.67040197 Q 3.4420639,0.075045 2.8967369,0.075045 q -0.55033,0 -1.025615,-0.22013199 Q 1.4008399,-0.36521898 1.05063,-0.81548896 0.70041997,-1.2657589 0.50029998,-1.9511699 0.30017999,-2.6415839 0.30017999,-3.5821478 q 0,-0.940564 0.20011999,-1.630978 0.20011999,-0.6904139 0.55033002,-1.1406839 0.3502099,-0.455273 0.8204919,-0.675405 0.475285,-0.220132 1.025615,-0.220132 0.545327,0 1.0206119,0.220132 0.480288,0.220132 0.830498,0.675405 0.35021,0.45027 0.55033,1.1406839 0.205123,0.690414 0.205123,1.630978 z m -0.925555,0 q 0,-0.820492 -0.140084,-1.375825 -0.135081,-0.560336 -0.370222,-0.9005399 -0.230138,-0.340204 -0.535321,-0.485291 -0.3051829,-0.15009 -0.6353809,-0.15009 -0.330198,0 -0.635381,0.15009 -0.305183,0.145087 -0.535321,0.485291 -0.230138,0.3402039 -0.370222,0.9005399 -0.135081,0.555333 -0.135081,1.375825 0,0.8204919 0.135081,1.3758249 0.140084,0.555333 0.370222,0.895537 0.230138,0.34020394 0.535321,0.49029394 0.305183,0.14508699 0.635381,0.14508699 0.330198,0 0.6353809,-0.14508699 0.305183,-0.15009 0.535321,-0.49029394 0.235141,-0.340204 0.370222,-0.895537 0.140084,-0.555333 0.140084,-1.3758249 z"/><path id="el_HpRoI1S8QL0" d="m 7.6946141,-2.5965569 -1.706023,-2.4714819 h 0.855513 q 0.110066,0 0.160096,0.035021 0.05003,0.035021 0.090054,0.10006 l 1.2407439,1.9011399 q 0.045027,-0.140084 0.130078,-0.280168 L 9.55573,-4.9129458 q 0.045027,-0.070042 0.095057,-0.110066 0.055033,-0.045027 0.130078,-0.045027 h 0.820492 L 8.895334,-2.6465869 10.671399,0 H 9.815886 Q 9.70582,0 9.640781,-0.055033 9.580745,-0.11506899 9.540721,-0.18511099 L 8.264956,-2.1713019 q -0.035021,0.145087 -0.105063,0.260156 l -1.1807079,1.72603491 q -0.05003,0.070042 -0.110066,0.13007799 Q 6.8140861,0 6.7140261,0 h -0.795477 z"/><path id="el_qxp7Q3gwBau" d="m 15.229132,-2.5865509 h 1.085651 v 0.510306 q 0,0.080048 -0.05003,0.135081 -0.04503,0.055033 -0.145087,0.055033 H 15.229132 V 0 h -0.780468 v -1.8861309 h -3.181908 q -0.10006,0 -0.175105,-0.055033 -0.07004,-0.060036 -0.09005,-0.145087 l -0.09005,-0.455273 3.487091,-4.6277748 h 0.830498 z m -0.780468,-2.9567729 q 0,-0.130078 0.005,-0.2801679 0.01001,-0.155093 0.03502,-0.315189 l -2.611566,3.5521298 h 2.571542 z"/><path id="el_OVLo8hbhSmD" d="m 19.556727,-7.2493467 q 0.455273,0 0.85051,0.135081 0.395237,0.135081 0.685411,0.395237 0.290174,0.255153 0.455273,0.625375 0.165099,0.3702219 0.165099,0.8405039 0,0.40024 -0.120072,0.745447 -0.120072,0.340204 -0.325195,0.65039 -0.205123,0.310186 -0.475285,0.6053629 -0.265159,0.295177 -0.565339,0.595357 l -1.891133,1.93115793 q 0.20012,-0.055033 0.405243,-0.085051 0.205123,-0.035021 0.395236,-0.035021 h 2.40144 q 0.145087,0 0.230138,0.085051 0.08505,0.085051 0.08505,0.22013199 V 0 h -4.782867 v -0.30518299 q 0,-0.095057 0.04002,-0.19511699 0.04002,-0.10005999 0.125075,-0.18511099 l 2.296376,-2.30638293 q 0.285171,-0.290174 0.520312,-0.5553329 0.235141,-0.270162 0.40024,-0.540324 0.165099,-0.270162 0.255153,-0.545327 0.09005,-0.280168 0.09005,-0.595357 0,-0.315189 -0.10006,-0.5503299 -0.10006,-0.240144 -0.275165,-0.395237 -0.170102,-0.155093 -0.405243,-0.230138 -0.235141,-0.080048 -0.505303,-0.080048 -0.275165,0 -0.505302,0.080048 -0.230138,0.080048 -0.410246,0.225135 -0.175105,0.140084 -0.295177,0.335201 -0.120072,0.1951169 -0.170102,0.4302579 -0.06004,0.175105 -0.165099,0.235141 -0.10006,0.055033 -0.285171,0.030018 l -0.465279,-0.080048 q 0.07004,-0.490294 0.270162,-0.8655189 0.205123,-0.380228 0.510306,-0.635381 0.310186,-0.255153 0.705423,-0.385231 0.395236,-0.135081 0.855512,-0.135081 z"/></g></g><g id="el_6dZSgI6VXmX_an_qbTjiasCz" data-animator-group="true" data-animator-type="0"><g id="el_6dZSgI6VXmX"><g id="el_wNwv7tV-hDG" aria-label="0x42"><path id="el_8HKlGv8StRB" d="m 5.5032998,-3.5821478 q 0,0.9405639 -0.205123,1.6309779 -0.20012,0.685411 -0.55033,1.13568094 -0.35021,0.45026998 -0.830498,0.67040197 Q 3.4420639,0.075045 2.8967369,0.075045 q -0.55033,0 -1.025615,-0.22013199 Q 1.4008399,-0.36521898 1.05063,-0.81548896 0.70041997,-1.2657589 0.50029998,-1.9511699 0.30017999,-2.6415839 0.30017999,-3.5821478 q 0,-0.940564 0.20011999,-1.630978 0.20011999,-0.6904139 0.55033002,-1.1406839 0.3502099,-0.455273 0.8204919,-0.675405 0.475285,-0.220132 1.025615,-0.220132 0.545327,0 1.0206119,0.220132 0.480288,0.220132 0.830498,0.675405 0.35021,0.45027 0.55033,1.1406839 0.205123,0.690414 0.205123,1.630978 z m -0.925555,0 q 0,-0.820492 -0.140084,-1.375825 -0.135081,-0.560336 -0.370222,-0.9005399 -0.230138,-0.340204 -0.535321,-0.485291 -0.3051829,-0.15009 -0.6353809,-0.15009 -0.330198,0 -0.635381,0.15009 -0.305183,0.145087 -0.535321,0.485291 -0.230138,0.3402039 -0.370222,0.9005399 -0.135081,0.555333 -0.135081,1.375825 0,0.8204919 0.135081,1.3758249 0.140084,0.555333 0.370222,0.895537 0.230138,0.34020394 0.535321,0.49029394 0.305183,0.14508699 0.635381,0.14508699 0.330198,0 0.6353809,-0.14508699 0.305183,-0.15009 0.535321,-0.49029394 0.235141,-0.340204 0.370222,-0.895537 0.140084,-0.555333 0.140084,-1.3758249 z"/><path id="el_OKWkfbNCThS" d="m 7.6946141,-2.5965569 -1.706023,-2.4714819 h 0.855513 q 0.110066,0 0.160096,0.035021 0.05003,0.035021 0.090054,0.10006 l 1.2407439,1.9011399 q 0.045027,-0.140084 0.130078,-0.280168 L 9.55573,-4.9129458 q 0.045027,-0.070042 0.095057,-0.110066 0.055033,-0.045027 0.130078,-0.045027 h 0.820492 L 8.895334,-2.6465869 10.671399,0 H 9.815886 Q 9.70582,0 9.640781,-0.055033 9.580745,-0.11506899 9.540721,-0.18511099 L 8.264956,-2.1713019 q -0.035021,0.145087 -0.105063,0.260156 l -1.1807079,1.72603491 q -0.05003,0.070042 -0.110066,0.13007799 Q 6.8140861,0 6.7140261,0 h -0.795477 z"/><path id="el_U-CQW5-qijI" d="m 15.229132,-2.5865509 h 1.085651 v 0.510306 q 0,0.080048 -0.05003,0.135081 -0.04503,0.055033 -0.145087,0.055033 H 15.229132 V 0 h -0.780468 v -1.8861309 h -3.181908 q -0.10006,0 -0.175105,-0.055033 -0.07004,-0.060036 -0.09005,-0.145087 l -0.09005,-0.455273 3.487091,-4.6277748 h 0.830498 z m -0.780468,-2.9567729 q 0,-0.130078 0.005,-0.2801679 0.01001,-0.155093 0.03502,-0.315189 l -2.611566,3.5521298 h 2.571542 z"/><path id="el_x1csRkfXtez" d="m 19.556727,-7.2493467 q 0.455273,0 0.85051,0.135081 0.395237,0.135081 0.685411,0.395237 0.290174,0.255153 0.455273,0.625375 0.165099,0.3702219 0.165099,0.8405039 0,0.40024 -0.120072,0.745447 -0.120072,0.340204 -0.325195,0.65039 -0.205123,0.310186 -0.475285,0.6053629 -0.265159,0.295177 -0.565339,0.595357 l -1.891133,1.93115793 q 0.20012,-0.055033 0.405243,-0.085051 0.205123,-0.035021 0.395236,-0.035021 h 2.40144 q 0.145087,0 0.230138,0.085051 0.08505,0.085051 0.08505,0.22013199 V 0 h -4.782867 v -0.30518299 q 0,-0.095057 0.04002,-0.19511699 0.04002,-0.10005999 0.125075,-0.18511099 l 2.296376,-2.30638293 q 0.285171,-0.290174 0.520312,-0.5553329 0.235141,-0.270162 0.40024,-0.540324 0.165099,-0.270162 0.255153,-0.545327 0.09005,-0.280168 0.09005,-0.595357 0,-0.315189 -0.10006,-0.5503299 -0.10006,-0.240144 -0.275165,-0.395237 -0.170102,-0.155093 -0.405243,-0.230138 -0.235141,-0.080048 -0.505303,-0.080048 -0.275165,0 -0.505302,0.080048 -0.230138,0.080048 -0.410246,0.225135 -0.175105,0.140084 -0.295177,0.335201 -0.120072,0.1951169 -0.170102,0.4302579 -0.06004,0.175105 -0.165099,0.235141 -0.10006,0.055033 -0.285171,0.030018 l -0.465279,-0.080048 q 0.07004,-0.490294 0.270162,-0.8655189 0.205123,-0.380228 0.510306,-0.635381 0.310186,-0.255153 0.705423,-0.385231 0.395236,-0.135081 0.855512,-0.135081 z"/></g></g></g><g id="el_uCPzwxXnZ72_an_62uWPNQuy" data-animator-group="true" data-animator-type="0"><g id="el_uCPzwxXnZ72"><g id="el_GKO4EfV3R2l" aria-label="0x42"><path id="el_dkDL8xyU10O" d="m 5.5032998,-3.5821478 q 0,0.9405639 -0.205123,1.6309779 -0.20012,0.685411 -0.55033,1.13568094 -0.35021,0.45026998 -0.830498,0.67040197 Q 3.4420639,0.075045 2.8967369,0.075045 q -0.55033,0 -1.025615,-0.22013199 Q 1.4008399,-0.36521898 1.05063,-0.81548896 0.70041997,-1.2657589 0.50029998,-1.9511699 0.30017999,-2.6415839 0.30017999,-3.5821478 q 0,-0.940564 0.20011999,-1.630978 0.20011999,-0.6904139 0.55033002,-1.1406839 0.3502099,-0.455273 0.8204919,-0.675405 0.475285,-0.220132 1.025615,-0.220132 0.545327,0 1.0206119,0.220132 0.480288,0.220132 0.830498,0.675405 0.35021,0.45027 0.55033,1.1406839 0.205123,0.690414 0.205123,1.630978 z m -0.925555,0 q 0,-0.820492 -0.140084,-1.375825 -0.135081,-0.560336 -0.370222,-0.9005399 -0.230138,-0.340204 -0.535321,-0.485291 -0.3051829,-0.15009 -0.6353809,-0.15009 -0.330198,0 -0.635381,0.15009 -0.305183,0.145087 -0.535321,0.485291 -0.230138,0.3402039 -0.370222,0.9005399 -0.135081,0.555333 -0.135081,1.375825 0,0.8204919 0.135081,1.3758249 0.140084,0.555333 0.370222,0.895537 0.230138,0.34020394 0.535321,0.49029394 0.305183,0.14508699 0.635381,0.14508699 0.330198,0 0.6353809,-0.14508699 0.305183,-0.15009 0.535321,-0.49029394 0.235141,-0.340204 0.370222,-0.895537 0.140084,-0.555333 0.140084,-1.3758249 z"/><path id="el_7jaa-2WC3mR" d="m 7.6946141,-2.5965569 -1.706023,-2.4714819 h 0.855513 q 0.110066,0 0.160096,0.035021 0.05003,0.035021 0.090054,0.10006 l 1.2407439,1.9011399 q 0.045027,-0.140084 0.130078,-0.280168 L 9.55573,-4.9129458 q 0.045027,-0.070042 0.095057,-0.110066 0.055033,-0.045027 0.130078,-0.045027 h 0.820492 L 8.895334,-2.6465869 10.671399,0 H 9.815886 Q 9.70582,0 9.640781,-0.055033 9.580745,-0.11506899 9.540721,-0.18511099 L 8.264956,-2.1713019 q -0.035021,0.145087 -0.105063,0.260156 l -1.1807079,1.72603491 q -0.05003,0.070042 -0.110066,0.13007799 Q 6.8140861,0 6.7140261,0 h -0.795477 z"/><path id="el_BtaQtMfG0NU" d="m 15.229132,-2.5865509 h 1.085651 v 0.510306 q 0,0.080048 -0.05003,0.135081 -0.04503,0.055033 -0.145087,0.055033 H 15.229132 V 0 h -0.780468 v -1.8861309 h -3.181908 q -0.10006,0 -0.175105,-0.055033 -0.07004,-0.060036 -0.09005,-0.145087 l -0.09005,-0.455273 3.487091,-4.6277748 h 0.830498 z m -0.780468,-2.9567729 q 0,-0.130078 0.005,-0.2801679 0.01001,-0.155093 0.03502,-0.315189 l -2.611566,3.5521298 h 2.571542 z"/><path id="el_FPS6tftcN2N" d="m 19.556727,-7.2493467 q 0.455273,0 0.85051,0.135081 0.395237,0.135081 0.685411,0.395237 0.290174,0.255153 0.455273,0.625375 0.165099,0.3702219 0.165099,0.8405039 0,0.40024 -0.120072,0.745447 -0.120072,0.340204 -0.325195,0.65039 -0.205123,0.310186 -0.475285,0.6053629 -0.265159,0.295177 -0.565339,0.595357 l -1.891133,1.93115793 q 0.20012,-0.055033 0.405243,-0.085051 0.205123,-0.035021 0.395236,-0.035021 h 2.40144 q 0.145087,0 0.230138,0.085051 0.08505,0.085051 0.08505,0.22013199 V 0 h -4.782867 v -0.30518299 q 0,-0.095057 0.04002,-0.19511699 0.04002,-0.10005999 0.125075,-0.18511099 l 2.296376,-2.30638293 q 0.285171,-0.290174 0.520312,-0.5553329 0.235141,-0.270162 0.40024,-0.540324 0.165099,-0.270162 0.255153,-0.545327 0.09005,-0.280168 0.09005,-0.595357 0,-0.315189 -0.10006,-0.5503299 -0.10006,-0.240144 -0.275165,-0.395237 -0.170102,-0.155093 -0.405243,-0.230138 -0.235141,-0.080048 -0.505303,-0.080048 -0.275165,0 -0.505302,0.080048 -0.230138,0.080048 -0.410246,0.225135 -0.175105,0.140084 -0.295177,0.335201 -0.120072,0.1951169 -0.170102,0.4302579 -0.06004,0.175105 -0.165099,0.235141 -0.10006,0.055033 -0.285171,0.030018 l -0.465279,-0.080048 q 0.07004,-0.490294 0.270162,-0.8655189 0.205123,-0.380228 0.510306,-0.635381 0.310186,-0.255153 0.705423,-0.385231 0.395236,-0.135081 0.855512,-0.135081 z"/></g></g></g><g id="el_3yXceMUOuhF_an_DRqCKpqaD" data-animator-group="true" data-animator-type="0"><g id="el_3yXceMUOuhF"><g id="el_5lAqCHsu5Z6" aria-label="0x42"><path id="el_B1ieh_DUbzR" d="m 5.5032998,-3.5821478 q 0,0.9405639 -0.205123,1.6309779 -0.20012,0.685411 -0.55033,1.13568094 -0.35021,0.45026998 -0.830498,0.67040197 Q 3.4420639,0.075045 2.8967369,0.075045 q -0.55033,0 -1.025615,-0.22013199 Q 1.4008399,-0.36521898 1.05063,-0.81548896 0.70041997,-1.2657589 0.50029998,-1.9511699 0.30017999,-2.6415839 0.30017999,-3.5821478 q 0,-0.940564 0.20011999,-1.630978 0.20011999,-0.6904139 0.55033002,-1.1406839 0.3502099,-0.455273 0.8204919,-0.675405 0.475285,-0.220132 1.025615,-0.220132 0.545327,0 1.0206119,0.220132 0.480288,0.220132 0.830498,0.675405 0.35021,0.45027 0.55033,1.1406839 0.205123,0.690414 0.205123,1.630978 z m -0.925555,0 q 0,-0.820492 -0.140084,-1.375825 -0.135081,-0.560336 -0.370222,-0.9005399 -0.230138,-0.340204 -0.535321,-0.485291 -0.3051829,-0.15009 -0.6353809,-0.15009 -0.330198,0 -0.635381,0.15009 -0.305183,0.145087 -0.535321,0.485291 -0.230138,0.3402039 -0.370222,0.9005399 -0.135081,0.555333 -0.135081,1.375825 0,0.8204919 0.135081,1.3758249 0.140084,0.555333 0.370222,0.895537 0.230138,0.34020394 0.535321,0.49029394 0.305183,0.14508699 0.635381,0.14508699 0.330198,0 0.6353809,-0.14508699 0.305183,-0.15009 0.535321,-0.49029394 0.235141,-0.340204 0.370222,-0.895537 0.140084,-0.555333 0.140084,-1.3758249 z"/><path id="el_UpRBEs7ua92" d="m 7.6946141,-2.5965569 -1.706023,-2.4714819 h 0.855513 q 0.110066,0 0.160096,0.035021 0.05003,0.035021 0.090054,0.10006 l 1.2407439,1.9011399 q 0.045027,-0.140084 0.130078,-0.280168 L 9.55573,-4.9129458 q 0.045027,-0.070042 0.095057,-0.110066 0.055033,-0.045027 0.130078,-0.045027 h 0.820492 L 8.895334,-2.6465869 10.671399,0 H 9.815886 Q 9.70582,0 9.640781,-0.055033 9.580745,-0.11506899 9.540721,-0.18511099 L 8.264956,-2.1713019 q -0.035021,0.145087 -0.105063,0.260156 l -1.1807079,1.72603491 q -0.05003,0.070042 -0.110066,0.13007799 Q 6.8140861,0 6.7140261,0 h -0.795477 z"/><path id="el_uiZN6TmXmQb" d="m 15.229132,-2.5865509 h 1.085651 v 0.510306 q 0,0.080048 -0.05003,0.135081 -0.04503,0.055033 -0.145087,0.055033 H 15.229132 V 0 h -0.780468 v -1.8861309 h -3.181908 q -0.10006,0 -0.175105,-0.055033 -0.07004,-0.060036 -0.09005,-0.145087 l -0.09005,-0.455273 3.487091,-4.6277748 h 0.830498 z m -0.780468,-2.9567729 q 0,-0.130078 0.005,-0.2801679 0.01001,-0.155093 0.03502,-0.315189 l -2.611566,3.5521298 h 2.571542 z"/><path id="el_qP-PR2uadtK" d="m 19.556727,-7.2493467 q 0.455273,0 0.85051,0.135081 0.395237,0.135081 0.685411,0.395237 0.290174,0.255153 0.455273,0.625375 0.165099,0.3702219 0.165099,0.8405039 0,0.40024 -0.120072,0.745447 -0.120072,0.340204 -0.325195,0.65039 -0.205123,0.310186 -0.475285,0.6053629 -0.265159,0.295177 -0.565339,0.595357 l -1.891133,1.93115793 q 0.20012,-0.055033 0.405243,-0.085051 0.205123,-0.035021 0.395236,-0.035021 h 2.40144 q 0.145087,0 0.230138,0.085051 0.08505,0.085051 0.08505,0.22013199 V 0 h -4.782867 v -0.30518299 q 0,-0.095057 0.04002,-0.19511699 0.04002,-0.10005999 0.125075,-0.18511099 l 2.296376,-2.30638293 q 0.285171,-0.290174 0.520312,-0.5553329 0.235141,-0.270162 0.40024,-0.540324 0.165099,-0.270162 0.255153,-0.545327 0.09005,-0.280168 0.09005,-0.595357 0,-0.315189 -0.10006,-0.5503299 -0.10006,-0.240144 -0.275165,-0.395237 -0.170102,-0.155093 -0.405243,-0.230138 -0.235141,-0.080048 -0.505303,-0.080048 -0.275165,0 -0.505302,0.080048 -0.230138,0.080048 -0.410246,0.225135 -0.175105,0.140084 -0.295177,0.335201 -0.120072,0.1951169 -0.170102,0.4302579 -0.06004,0.175105 -0.165099,0.235141 -0.10006,0.055033 -0.285171,0.030018 l -0.465279,-0.080048 q 0.07004,-0.490294 0.270162,-0.8655189 0.205123,-0.380228 0.510306,-0.635381 0.310186,-0.255153 0.705423,-0.385231 0.395236,-0.135081 0.855512,-0.135081 z"/></g></g></g><g id="el_VVBFEEAzL5b_an_PWHJJ_E92" data-animator-group="true" data-animator-type="0"><g id="el_VVBFEEAzL5b"><g id="el_Z71thJuuDtC" aria-label="0x42"><path id="el_W8oECRzlKr9" d="m 5.5032998,-3.5821478 q 0,0.9405639 -0.205123,1.6309779 -0.20012,0.685411 -0.55033,1.13568094 -0.35021,0.45026998 -0.830498,0.67040197 Q 3.4420639,0.075045 2.8967369,0.075045 q -0.55033,0 -1.025615,-0.22013199 Q 1.4008399,-0.36521898 1.05063,-0.81548896 0.70041997,-1.2657589 0.50029998,-1.9511699 0.30017999,-2.6415839 0.30017999,-3.5821478 q 0,-0.940564 0.20011999,-1.630978 0.20011999,-0.6904139 0.55033002,-1.1406839 0.3502099,-0.455273 0.8204919,-0.675405 0.475285,-0.220132 1.025615,-0.220132 0.545327,0 1.0206119,0.220132 0.480288,0.220132 0.830498,0.675405 0.35021,0.45027 0.55033,1.1406839 0.205123,0.690414 0.205123,1.630978 z m -0.925555,0 q 0,-0.820492 -0.140084,-1.375825 -0.135081,-0.560336 -0.370222,-0.9005399 -0.230138,-0.340204 -0.535321,-0.485291 -0.3051829,-0.15009 -0.6353809,-0.15009 -0.330198,0 -0.635381,0.15009 -0.305183,0.145087 -0.535321,0.485291 -0.230138,0.3402039 -0.370222,0.9005399 -0.135081,0.555333 -0.135081,1.375825 0,0.8204919 0.135081,1.3758249 0.140084,0.555333 0.370222,0.895537 0.230138,0.34020394 0.535321,0.49029394 0.305183,0.14508699 0.635381,0.14508699 0.330198,0 0.6353809,-0.14508699 0.305183,-0.15009 0.535321,-0.49029394 0.235141,-0.340204 0.370222,-0.895537 0.140084,-0.555333 0.140084,-1.3758249 z"/><path id="el_NY7yzdPnr1E" d="m 7.6946141,-2.5965569 -1.706023,-2.4714819 h 0.855513 q 0.110066,0 0.160096,0.035021 0.05003,0.035021 0.090054,0.10006 l 1.2407439,1.9011399 q 0.045027,-0.140084 0.130078,-0.280168 L 9.55573,-4.9129458 q 0.045027,-0.070042 0.095057,-0.110066 0.055033,-0.045027 0.130078,-0.045027 h 0.820492 L 8.895334,-2.6465869 10.671399,0 H 9.815886 Q 9.70582,0 9.640781,-0.055033 9.580745,-0.11506899 9.540721,-0.18511099 L 8.264956,-2.1713019 q -0.035021,0.145087 -0.105063,0.260156 l -1.1807079,1.72603491 q -0.05003,0.070042 -0.110066,0.13007799 Q 6.8140861,0 6.7140261,0 h -0.795477 z"/><path id="el_GmwPddpNkuI" d="m 15.229132,-2.5865509 h 1.085651 v 0.510306 q 0,0.080048 -0.05003,0.135081 -0.04503,0.055033 -0.145087,0.055033 H 15.229132 V 0 h -0.780468 v -1.8861309 h -3.181908 q -0.10006,0 -0.175105,-0.055033 -0.07004,-0.060036 -0.09005,-0.145087 l -0.09005,-0.455273 3.487091,-4.6277748 h 0.830498 z m -0.780468,-2.9567729 q 0,-0.130078 0.005,-0.2801679 0.01001,-0.155093 0.03502,-0.315189 l -2.611566,3.5521298 h 2.571542 z"/><path id="el_YLd4kJbrq0f" d="m 19.556727,-7.2493467 q 0.455273,0 0.85051,0.135081 0.395237,0.135081 0.685411,0.395237 0.290174,0.255153 0.455273,0.625375 0.165099,0.3702219 0.165099,0.8405039 0,0.40024 -0.120072,0.745447 -0.120072,0.340204 -0.325195,0.65039 -0.205123,0.310186 -0.475285,0.6053629 -0.265159,0.295177 -0.565339,0.595357 l -1.891133,1.93115793 q 0.20012,-0.055033 0.405243,-0.085051 0.205123,-0.035021 0.395236,-0.035021 h 2.40144 q 0.145087,0 0.230138,0.085051 0.08505,0.085051 0.08505,0.22013199 V 0 h -4.782867 v -0.30518299 q 0,-0.095057 0.04002,-0.19511699 0.04002,-0.10005999 0.125075,-0.18511099 l 2.296376,-2.30638293 q 0.285171,-0.290174 0.520312,-0.5553329 0.235141,-0.270162 0.40024,-0.540324 0.165099,-0.270162 0.255153,-0.545327 0.09005,-0.280168 0.09005,-0.595357 0,-0.315189 -0.10006,-0.5503299 -0.10006,-0.240144 -0.275165,-0.395237 -0.170102,-0.155093 -0.405243,-0.230138 -0.235141,-0.080048 -0.505303,-0.080048 -0.275165,0 -0.505302,0.080048 -0.230138,0.080048 -0.410246,0.225135 -0.175105,0.140084 -0.295177,0.335201 -0.120072,0.1951169 -0.170102,0.4302579 -0.06004,0.175105 -0.165099,0.235141 -0.10006,0.055033 -0.285171,0.030018 l -0.465279,-0.080048 q 0.07004,-0.490294 0.270162,-0.8655189 0.205123,-0.380228 0.510306,-0.635381 0.310186,-0.255153 0.705423,-0.385231 0.395236,-0.135081 0.855512,-0.135081 z"/></g></g></g><g id="el_xE4Map0R4JA_an_mMSHbCYep" data-animator-group="true" data-animator-type="0"><g id="el_xE4Map0R4JA"><g id="el_1w2bpO2sTga" aria-label="0x42"><path id="el_h6H8PvHWlbb" d="m 5.5032998,-3.5821478 q 0,0.9405639 -0.205123,1.6309779 -0.20012,0.685411 -0.55033,1.13568094 -0.35021,0.45026998 -0.830498,0.67040197 Q 3.4420639,0.075045 2.8967369,0.075045 q -0.55033,0 -1.025615,-0.22013199 Q 1.4008399,-0.36521898 1.05063,-0.81548896 0.70041997,-1.2657589 0.50029998,-1.9511699 0.30017999,-2.6415839 0.30017999,-3.5821478 q 0,-0.940564 0.20011999,-1.630978 0.20011999,-0.6904139 0.55033002,-1.1406839 0.3502099,-0.455273 0.8204919,-0.675405 0.475285,-0.220132 1.025615,-0.220132 0.545327,0 1.0206119,0.220132 0.480288,0.220132 0.830498,0.675405 0.35021,0.45027 0.55033,1.1406839 0.205123,0.690414 0.205123,1.630978 z m -0.925555,0 q 0,-0.820492 -0.140084,-1.375825 -0.135081,-0.560336 -0.370222,-0.9005399 -0.230138,-0.340204 -0.535321,-0.485291 -0.3051829,-0.15009 -0.6353809,-0.15009 -0.330198,0 -0.635381,0.15009 -0.305183,0.145087 -0.535321,0.485291 -0.230138,0.3402039 -0.370222,0.9005399 -0.135081,0.555333 -0.135081,1.375825 0,0.8204919 0.135081,1.3758249 0.140084,0.555333 0.370222,0.895537 0.230138,0.34020394 0.535321,0.49029394 0.305183,0.14508699 0.635381,0.14508699 0.330198,0 0.6353809,-0.14508699 0.305183,-0.15009 0.535321,-0.49029394 0.235141,-0.340204 0.370222,-0.895537 0.140084,-0.555333 0.140084,-1.3758249 z"/><path id="el_U928WQDAZMC" d="m 7.6946141,-2.5965569 -1.706023,-2.4714819 h 0.855513 q 0.110066,0 0.160096,0.035021 0.05003,0.035021 0.090054,0.10006 l 1.2407439,1.9011399 q 0.045027,-0.140084 0.130078,-0.280168 L 9.55573,-4.9129458 q 0.045027,-0.070042 0.095057,-0.110066 0.055033,-0.045027 0.130078,-0.045027 h 0.820492 L 8.895334,-2.6465869 10.671399,0 H 9.815886 Q 9.70582,0 9.640781,-0.055033 9.580745,-0.11506899 9.540721,-0.18511099 L 8.264956,-2.1713019 q -0.035021,0.145087 -0.105063,0.260156 l -1.1807079,1.72603491 q -0.05003,0.070042 -0.110066,0.13007799 Q 6.8140861,0 6.7140261,0 h -0.795477 z"/><path id="el_IdqrrOhBFX2" d="m 15.229132,-2.5865509 h 1.085651 v 0.510306 q 0,0.080048 -0.05003,0.135081 -0.04503,0.055033 -0.145087,0.055033 H 15.229132 V 0 h -0.780468 v -1.8861309 h -3.181908 q -0.10006,0 -0.175105,-0.055033 -0.07004,-0.060036 -0.09005,-0.145087 l -0.09005,-0.455273 3.487091,-4.6277748 h 0.830498 z m -0.780468,-2.9567729 q 0,-0.130078 0.005,-0.2801679 0.01001,-0.155093 0.03502,-0.315189 l -2.611566,3.5521298 h 2.571542 z"/><path id="el__F1f9DM19sP" d="m 19.556727,-7.2493467 q 0.455273,0 0.85051,0.135081 0.395237,0.135081 0.685411,0.395237 0.290174,0.255153 0.455273,0.625375 0.165099,0.3702219 0.165099,0.8405039 0,0.40024 -0.120072,0.745447 -0.120072,0.340204 -0.325195,0.65039 -0.205123,0.310186 -0.475285,0.6053629 -0.265159,0.295177 -0.565339,0.595357 l -1.891133,1.93115793 q 0.20012,-0.055033 0.405243,-0.085051 0.205123,-0.035021 0.395236,-0.035021 h 2.40144 q 0.145087,0 0.230138,0.085051 0.08505,0.085051 0.08505,0.22013199 V 0 h -4.782867 v -0.30518299 q 0,-0.095057 0.04002,-0.19511699 0.04002,-0.10005999 0.125075,-0.18511099 l 2.296376,-2.30638293 q 0.285171,-0.290174 0.520312,-0.5553329 0.235141,-0.270162 0.40024,-0.540324 0.165099,-0.270162 0.255153,-0.545327 0.09005,-0.280168 0.09005,-0.595357 0,-0.315189 -0.10006,-0.5503299 -0.10006,-0.240144 -0.275165,-0.395237 -0.170102,-0.155093 -0.405243,-0.230138 -0.235141,-0.080048 -0.505303,-0.080048 -0.275165,0 -0.505302,0.080048 -0.230138,0.080048 -0.410246,0.225135 -0.175105,0.140084 -0.295177,0.335201 -0.120072,0.1951169 -0.170102,0.4302579 -0.06004,0.175105 -0.165099,0.235141 -0.10006,0.055033 -0.285171,0.030018 l -0.465279,-0.080048 q 0.07004,-0.490294 0.270162,-0.8655189 0.205123,-0.380228 0.510306,-0.635381 0.310186,-0.255153 0.705423,-0.385231 0.395236,-0.135081 0.855512,-0.135081 z"/></g></g></g><g id="el_7vGxl09CA7m_an_CkONIfE-F" data-animator-group="true" data-animator-type="0"><g id="el_7vGxl09CA7m"><g id="el_Y2LHuCSR-bW" aria-label="0x42"><path id="el_x0rbRJW4lb9" d="m 5.5032998,-3.5821478 q 0,0.9405639 -0.205123,1.6309779 -0.20012,0.685411 -0.55033,1.13568094 -0.35021,0.45026998 -0.830498,0.67040197 Q 3.4420639,0.075045 2.8967369,0.075045 q -0.55033,0 -1.025615,-0.22013199 Q 1.4008399,-0.36521898 1.05063,-0.81548896 0.70041997,-1.2657589 0.50029998,-1.9511699 0.30017999,-2.6415839 0.30017999,-3.5821478 q 0,-0.940564 0.20011999,-1.630978 0.20011999,-0.6904139 0.55033002,-1.1406839 0.3502099,-0.455273 0.8204919,-0.675405 0.475285,-0.220132 1.025615,-0.220132 0.545327,0 1.0206119,0.220132 0.480288,0.220132 0.830498,0.675405 0.35021,0.45027 0.55033,1.1406839 0.205123,0.690414 0.205123,1.630978 z m -0.925555,0 q 0,-0.820492 -0.140084,-1.375825 -0.135081,-0.560336 -0.370222,-0.9005399 -0.230138,-0.340204 -0.535321,-0.485291 -0.3051829,-0.15009 -0.6353809,-0.15009 -0.330198,0 -0.635381,0.15009 -0.305183,0.145087 -0.535321,0.485291 -0.230138,0.3402039 -0.370222,0.9005399 -0.135081,0.555333 -0.135081,1.375825 0,0.8204919 0.135081,1.3758249 0.140084,0.555333 0.370222,0.895537 0.230138,0.34020394 0.535321,0.49029394 0.305183,0.14508699 0.635381,0.14508699 0.330198,0 0.6353809,-0.14508699 0.305183,-0.15009 0.535321,-0.49029394 0.235141,-0.340204 0.370222,-0.895537 0.140084,-0.555333 0.140084,-1.3758249 z"/><path id="el_JjC4HPpevfm" d="m 7.6946141,-2.5965569 -1.706023,-2.4714819 h 0.855513 q 0.110066,0 0.160096,0.035021 0.05003,0.035021 0.090054,0.10006 l 1.2407439,1.9011399 q 0.045027,-0.140084 0.130078,-0.280168 L 9.55573,-4.9129458 q 0.045027,-0.070042 0.095057,-0.110066 0.055033,-0.045027 0.130078,-0.045027 h 0.820492 L 8.895334,-2.6465869 10.671399,0 H 9.815886 Q 9.70582,0 9.640781,-0.055033 9.580745,-0.11506899 9.540721,-0.18511099 L 8.264956,-2.1713019 q -0.035021,0.145087 -0.105063,0.260156 l -1.1807079,1.72603491 q -0.05003,0.070042 -0.110066,0.13007799 Q 6.8140861,0 6.7140261,0 h -0.795477 z"/><path id="el_QSPPG4d8pkq" d="m 15.229132,-2.5865509 h 1.085651 v 0.510306 q 0,0.080048 -0.05003,0.135081 -0.04503,0.055033 -0.145087,0.055033 H 15.229132 V 0 h -0.780468 v -1.8861309 h -3.181908 q -0.10006,0 -0.175105,-0.055033 -0.07004,-0.060036 -0.09005,-0.145087 l -0.09005,-0.455273 3.487091,-4.6277748 h 0.830498 z m -0.780468,-2.9567729 q 0,-0.130078 0.005,-0.2801679 0.01001,-0.155093 0.03502,-0.315189 l -2.611566,3.5521298 h 2.571542 z"/><path id="el_iGuGujKkrXG" d="m 19.556727,-7.2493467 q 0.455273,0 0.85051,0.135081 0.395237,0.135081 0.685411,0.395237 0.290174,0.255153 0.455273,0.625375 0.165099,0.3702219 0.165099,0.8405039 0,0.40024 -0.120072,0.745447 -0.120072,0.340204 -0.325195,0.65039 -0.205123,0.310186 -0.475285,0.6053629 -0.265159,0.295177 -0.565339,0.595357 l -1.891133,1.93115793 q 0.20012,-0.055033 0.405243,-0.085051 0.205123,-0.035021 0.395236,-0.035021 h 2.40144 q 0.145087,0 0.230138,0.085051 0.08505,0.085051 0.08505,0.22013199 V 0 h -4.782867 v -0.30518299 q 0,-0.095057 0.04002,-0.19511699 0.04002,-0.10005999 0.125075,-0.18511099 l 2.296376,-2.30638293 q 0.285171,-0.290174 0.520312,-0.5553329 0.235141,-0.270162 0.40024,-0.540324 0.165099,-0.270162 0.255153,-0.545327 0.09005,-0.280168 0.09005,-0.595357 0,-0.315189 -0.10006,-0.5503299 -0.10006,-0.240144 -0.275165,-0.395237 -0.170102,-0.155093 -0.405243,-0.230138 -0.235141,-0.080048 -0.505303,-0.080048 -0.275165,0 -0.505302,0.080048 -0.230138,0.080048 -0.410246,0.225135 -0.175105,0.140084 -0.295177,0.335201 -0.120072,0.1951169 -0.170102,0.4302579 -0.06004,0.175105 -0.165099,0.235141 -0.10006,0.055033 -0.285171,0.030018 l -0.465279,-0.080048 q 0.07004,-0.490294 0.270162,-0.8655189 0.205123,-0.380228 0.510306,-0.635381 0.310186,-0.255153 0.705423,-0.385231 0.395236,-0.135081 0.855512,-0.135081 z"/></g></g></g><g id="el_gzTN-R-7QOC_an_IxftLN52i" data-animator-group="true" data-animator-type="0"><g id="el_gzTN-R-7QOC"><g id="el_tDkzEGqHE_Z" aria-label="0x42"><path id="el_0TXPEGTTBV-" d="m 5.5032998,-3.5821478 q 0,0.9405639 -0.205123,1.6309779 -0.20012,0.685411 -0.55033,1.13568094 -0.35021,0.45026998 -0.830498,0.67040197 Q 3.4420639,0.075045 2.8967369,0.075045 q -0.55033,0 -1.025615,-0.22013199 Q 1.4008399,-0.36521898 1.05063,-0.81548896 0.70041997,-1.2657589 0.50029998,-1.9511699 0.30017999,-2.6415839 0.30017999,-3.5821478 q 0,-0.940564 0.20011999,-1.630978 0.20011999,-0.6904139 0.55033002,-1.1406839 0.3502099,-0.455273 0.8204919,-0.675405 0.475285,-0.220132 1.025615,-0.220132 0.545327,0 1.0206119,0.220132 0.480288,0.220132 0.830498,0.675405 0.35021,0.45027 0.55033,1.1406839 0.205123,0.690414 0.205123,1.630978 z m -0.925555,0 q 0,-0.820492 -0.140084,-1.375825 -0.135081,-0.560336 -0.370222,-0.9005399 -0.230138,-0.340204 -0.535321,-0.485291 -0.3051829,-0.15009 -0.6353809,-0.15009 -0.330198,0 -0.635381,0.15009 -0.305183,0.145087 -0.535321,0.485291 -0.230138,0.3402039 -0.370222,0.9005399 -0.135081,0.555333 -0.135081,1.375825 0,0.8204919 0.135081,1.3758249 0.140084,0.555333 0.370222,0.895537 0.230138,0.34020394 0.535321,0.49029394 0.305183,0.14508699 0.635381,0.14508699 0.330198,0 0.6353809,-0.14508699 0.305183,-0.15009 0.535321,-0.49029394 0.235141,-0.340204 0.370222,-0.895537 0.140084,-0.555333 0.140084,-1.3758249 z"/><path id="el_Si870Bq6MAI" d="m 7.6946141,-2.5965569 -1.706023,-2.4714819 h 0.855513 q 0.110066,0 0.160096,0.035021 0.05003,0.035021 0.090054,0.10006 l 1.2407439,1.9011399 q 0.045027,-0.140084 0.130078,-0.280168 L 9.55573,-4.9129458 q 0.045027,-0.070042 0.095057,-0.110066 0.055033,-0.045027 0.130078,-0.045027 h 0.820492 L 8.895334,-2.6465869 10.671399,0 H 9.815886 Q 9.70582,0 9.640781,-0.055033 9.580745,-0.11506899 9.540721,-0.18511099 L 8.264956,-2.1713019 q -0.035021,0.145087 -0.105063,0.260156 l -1.1807079,1.72603491 q -0.05003,0.070042 -0.110066,0.13007799 Q 6.8140861,0 6.7140261,0 h -0.795477 z"/><path id="el_m0HdIZyuQJT" d="m 15.229132,-2.5865509 h 1.085651 v 0.510306 q 0,0.080048 -0.05003,0.135081 -0.04503,0.055033 -0.145087,0.055033 H 15.229132 V 0 h -0.780468 v -1.8861309 h -3.181908 q -0.10006,0 -0.175105,-0.055033 -0.07004,-0.060036 -0.09005,-0.145087 l -0.09005,-0.455273 3.487091,-4.6277748 h 0.830498 z m -0.780468,-2.9567729 q 0,-0.130078 0.005,-0.2801679 0.01001,-0.155093 0.03502,-0.315189 l -2.611566,3.5521298 h 2.571542 z"/><path id="el_mDWgGsM88c1" d="m 19.556727,-7.2493467 q 0.455273,0 0.85051,0.135081 0.395237,0.135081 0.685411,0.395237 0.290174,0.255153 0.455273,0.625375 0.165099,0.3702219 0.165099,0.8405039 0,0.40024 -0.120072,0.745447 -0.120072,0.340204 -0.325195,0.65039 -0.205123,0.310186 -0.475285,0.6053629 -0.265159,0.295177 -0.565339,0.595357 l -1.891133,1.93115793 q 0.20012,-0.055033 0.405243,-0.085051 0.205123,-0.035021 0.395236,-0.035021 h 2.40144 q 0.145087,0 0.230138,0.085051 0.08505,0.085051 0.08505,0.22013199 V 0 h -4.782867 v -0.30518299 q 0,-0.095057 0.04002,-0.19511699 0.04002,-0.10005999 0.125075,-0.18511099 l 2.296376,-2.30638293 q 0.285171,-0.290174 0.520312,-0.5553329 0.235141,-0.270162 0.40024,-0.540324 0.165099,-0.270162 0.255153,-0.545327 0.09005,-0.280168 0.09005,-0.595357 0,-0.315189 -0.10006,-0.5503299 -0.10006,-0.240144 -0.275165,-0.395237 -0.170102,-0.155093 -0.405243,-0.230138 -0.235141,-0.080048 -0.505303,-0.080048 -0.275165,0 -0.505302,0.080048 -0.230138,0.080048 -0.410246,0.225135 -0.175105,0.140084 -0.295177,0.335201 -0.120072,0.1951169 -0.170102,0.4302579 -0.06004,0.175105 -0.165099,0.235141 -0.10006,0.055033 -0.285171,0.030018 l -0.465279,-0.080048 q 0.07004,-0.490294 0.270162,-0.8655189 0.205123,-0.380228 0.510306,-0.635381 0.310186,-0.255153 0.705423,-0.385231 0.395236,-0.135081 0.855512,-0.135081 z"/></g></g></g><g id="el_YlY_bAevdKS_an_YPgqm21FV" data-animator-group="true" data-animator-type="0"><g id="el_YlY_bAevdKS"><g id="el_r214D3_zGEI" aria-label="0x42"><path id="el_dQqC8xubXTf" d="m 5.5032998,-3.5821478 q 0,0.9405639 -0.205123,1.6309779 -0.20012,0.685411 -0.55033,1.13568094 -0.35021,0.45026998 -0.830498,0.67040197 Q 3.4420639,0.075045 2.8967369,0.075045 q -0.55033,0 -1.025615,-0.22013199 Q 1.4008399,-0.36521898 1.05063,-0.81548896 0.70041997,-1.2657589 0.50029998,-1.9511699 0.30017999,-2.6415839 0.30017999,-3.5821478 q 0,-0.940564 0.20011999,-1.630978 0.20011999,-0.6904139 0.55033002,-1.1406839 0.3502099,-0.455273 0.8204919,-0.675405 0.475285,-0.220132 1.025615,-0.220132 0.545327,0 1.0206119,0.220132 0.480288,0.220132 0.830498,0.675405 0.35021,0.45027 0.55033,1.1406839 0.205123,0.690414 0.205123,1.630978 z m -0.925555,0 q 0,-0.820492 -0.140084,-1.375825 -0.135081,-0.560336 -0.370222,-0.9005399 -0.230138,-0.340204 -0.535321,-0.485291 -0.3051829,-0.15009 -0.6353809,-0.15009 -0.330198,0 -0.635381,0.15009 -0.305183,0.145087 -0.535321,0.485291 -0.230138,0.3402039 -0.370222,0.9005399 -0.135081,0.555333 -0.135081,1.375825 0,0.8204919 0.135081,1.3758249 0.140084,0.555333 0.370222,0.895537 0.230138,0.34020394 0.535321,0.49029394 0.305183,0.14508699 0.635381,0.14508699 0.330198,0 0.6353809,-0.14508699 0.305183,-0.15009 0.535321,-0.49029394 0.235141,-0.340204 0.370222,-0.895537 0.140084,-0.555333 0.140084,-1.3758249 z"/><path id="el_iPNQVg0HK5q" d="m 7.6946141,-2.5965569 -1.706023,-2.4714819 h 0.855513 q 0.110066,0 0.160096,0.035021 0.05003,0.035021 0.090054,0.10006 l 1.2407439,1.9011399 q 0.045027,-0.140084 0.130078,-0.280168 L 9.55573,-4.9129458 q 0.045027,-0.070042 0.095057,-0.110066 0.055033,-0.045027 0.130078,-0.045027 h 0.820492 L 8.895334,-2.6465869 10.671399,0 H 9.815886 Q 9.70582,0 9.640781,-0.055033 9.580745,-0.11506899 9.540721,-0.18511099 L 8.264956,-2.1713019 q -0.035021,0.145087 -0.105063,0.260156 l -1.1807079,1.72603491 q -0.05003,0.070042 -0.110066,0.13007799 Q 6.8140861,0 6.7140261,0 h -0.795477 z"/><path id="el_xqQPKpEnUr3" d="m 15.229132,-2.5865509 h 1.085651 v 0.510306 q 0,0.080048 -0.05003,0.135081 -0.04503,0.055033 -0.145087,0.055033 H 15.229132 V 0 h -0.780468 v -1.8861309 h -3.181908 q -0.10006,0 -0.175105,-0.055033 -0.07004,-0.060036 -0.09005,-0.145087 l -0.09005,-0.455273 3.487091,-4.6277748 h 0.830498 z m -0.780468,-2.9567729 q 0,-0.130078 0.005,-0.2801679 0.01001,-0.155093 0.03502,-0.315189 l -2.611566,3.5521298 h 2.571542 z"/><path id="el_FuRjD04-k0M" d="m 19.556727,-7.2493467 q 0.455273,0 0.85051,0.135081 0.395237,0.135081 0.685411,0.395237 0.290174,0.255153 0.455273,0.625375 0.165099,0.3702219 0.165099,0.8405039 0,0.40024 -0.120072,0.745447 -0.120072,0.340204 -0.325195,0.65039 -0.205123,0.310186 -0.475285,0.6053629 -0.265159,0.295177 -0.565339,0.595357 l -1.891133,1.93115793 q 0.20012,-0.055033 0.405243,-0.085051 0.205123,-0.035021 0.395236,-0.035021 h 2.40144 q 0.145087,0 0.230138,0.085051 0.08505,0.085051 0.08505,0.22013199 V 0 h -4.782867 v -0.30518299 q 0,-0.095057 0.04002,-0.19511699 0.04002,-0.10005999 0.125075,-0.18511099 l 2.296376,-2.30638293 q 0.285171,-0.290174 0.520312,-0.5553329 0.235141,-0.270162 0.40024,-0.540324 0.165099,-0.270162 0.255153,-0.545327 0.09005,-0.280168 0.09005,-0.595357 0,-0.315189 -0.10006,-0.5503299 -0.10006,-0.240144 -0.275165,-0.395237 -0.170102,-0.155093 -0.405243,-0.230138 -0.235141,-0.080048 -0.505303,-0.080048 -0.275165,0 -0.505302,0.080048 -0.230138,0.080048 -0.410246,0.225135 -0.175105,0.140084 -0.295177,0.335201 -0.120072,0.1951169 -0.170102,0.4302579 -0.06004,0.175105 -0.165099,0.235141 -0.10006,0.055033 -0.285171,0.030018 l -0.465279,-0.080048 q 0.07004,-0.490294 0.270162,-0.8655189 0.205123,-0.380228 0.510306,-0.635381 0.310186,-0.255153 0.705423,-0.385231 0.395236,-0.135081 0.855512,-0.135081 z"/></g></g></g></g><g id="g8" transform="matrix(3,0,0,3,-11.794031,-33.588422)"><circle id="circle2" cx="20" cy="20" r="5" fill="none" stroke="#444a46" stroke-width="4.502"><animate attributeName="r" begin="0s" dur="3s" from="3" repeatCount="indefinite" to="10"/><animate attributeName="opacity" begin="0s" dur="3s" from="1" repeatCount="indefinite" to="0"/></circle><circle id="circle4" cx="20" cy="20" r="5" fill="#ba0000" fill-opacity="1"/><path id="path871" fill="#fff" fill-opacity="1" stroke-dasharray="none" stroke-miterlimit="4" stroke-width=".1" d="m 20.158928,22.714393 c -0.01831,0 -0.03647,-0.0035 -0.05382,-0.01043 -0.03591,-0.01428 -0.06446,-0.04245 -0.07952,-0.07817 l -0.541602,-1.283301 -0.643664,0.568989 c -0.02704,0.02778 -0.07549,0.04767 -0.125673,0.04767 -0.105386,0 -0.191265,-0.08609 -0.191265,-0.192043 v -3.492887 c 0,-0.105953 0.08588,-0.192043 0.191265,-0.192043 0.0446,0 0.08782,0.01562 0.124507,0.04534 l 2.524722,2.560099 c 0.0394,0.04842 0.05464,0.09107 0.05464,0.135462 0,0.105776 -0.08588,0.192043 -0.191265,0.192043 h -0.857549 l 0.521916,1.237781 c 0.03085,0.07316 -0.0029,0.157303 -0.07567,0.188969 l -0.599312,0.260533 c -0.01834,0.0079 -0.03803,0.01198 -0.05771,0.01198 z m -0.619739,-1.758496 c 0.01081,0 0.02142,0.0012 0.03223,0.0037 0.04534,0.01039 0.08319,0.04188 0.101146,0.08492 l 0.562981,1.33405 0.333725,-0.145145 -0.551036,-1.306838 c -0.01891,-0.0446 -0.0141,-0.09595 0.01272,-0.136275 0.02686,-0.04032 0.0722,-0.06467 0.120655,-0.06467 h 0.844401 l -2.183117,-2.213616 v 3.037768 l 0.630377,-0.557575 c 0.02661,-0.02357 0.06096,-0.03629 0.09592,-0.03629 z m -0.886492,0.735552 c -0.0041,0.0031 -0.0077,0.0064 -0.0112,0.0098 z m 2.494435,-0.81256 h 0.0019 z m 0,0"/></g></svg>