<svg xmlns="http://www.w3.org/2000/svg" xmlns:svg="http://www.w3.org/2000/svg" id="el_91cInXdL5" version="1.1" viewBox="0 0 933 236" xml:space="preserve"><style id="style2">@-webkit-keyframes kf_el_sZJKrbQUzww_an_raAmkSORm{0%,80%{opacity:0}85%{opacity:1}}@keyframes kf_el_sZJKrbQUzww_an_raAmkSORm{0%,80%{opacity:0}85%{opacity:1}}@-webkit-keyframes kf_el__gp6aD_KDbB_an_vecGr4ZdM{0%,70%{opacity:0}75%{opacity:1}}@keyframes kf_el__gp6aD_KDbB_an_vecGr4ZdM{0%,70%{opacity:0}75%{opacity:1}}@-webkit-keyframes kf_el_4IMa2rJv6sQ_an_JazlhgncX{0%,60%{opacity:0}65%{opacity:1}}@keyframes kf_el_4IMa2rJv6sQ_an_JazlhgncX{0%,60%{opacity:0}65%{opacity:1}}@-webkit-keyframes kf_el_g76LD4GOGA_an_yKCeD_W-T{0%,50%{opacity:0}55%{opacity:1}}@keyframes kf_el_g76LD4GOGA_an_yKCeD_W-T{0%,50%{opacity:0}55%{opacity:1}}@-webkit-keyframes kf_el_ZODoFEckD0O_an_iy6JL7IEl{0%,40%{opacity:0}45%{opacity:1}}@keyframes kf_el_ZODoFEckD0O_an_iy6JL7IEl{0%,40%{opacity:0}45%{opacity:1}}@-webkit-keyframes kf_el_gBbgflYu2P_an_HWQ_xCZsS{0%,30%{opacity:0}35%{opacity:1}}@keyframes kf_el_gBbgflYu2P_an_HWQ_xCZsS{0%,30%{opacity:0}35%{opacity:1}}@-webkit-keyframes kf_el_Wx_xqorIxH5_an_pM4NSTj7N{0%,20%{opacity:0}25%{opacity:1}}@keyframes kf_el_Wx_xqorIxH5_an_pM4NSTj7N{0%,20%{opacity:0}25%{opacity:1}}@-webkit-keyframes kf_el_kJYFHDZTDuB_an_dSlRoLUb0{0%{-webkit-transform:translate(430.3125px,-2.328125px) translate(-430.3125px,2.328125px) translate(0,-30px);transform:translate(430.3125px,-2.328125px) translate(-430.3125px,2.328125px) translate(0,-30px)}5%{-webkit-transform:translate(430.3125px,-2.328125px) translate(-430.3125px,2.328125px) translate(0,2px);transform:translate(430.3125px,-2.328125px) translate(-430.3125px,2.328125px) translate(0,2px)}}@keyframes kf_el_kJYFHDZTDuB_an_dSlRoLUb0{0%{-webkit-transform:translate(430.3125px,-2.328125px) translate(-430.3125px,2.328125px) translate(0,-30px);transform:translate(430.3125px,-2.328125px) translate(-430.3125px,2.328125px) translate(0,-30px)}5%{-webkit-transform:translate(430.3125px,-2.328125px) translate(-430.3125px,2.328125px) translate(0,2px);transform:translate(430.3125px,-2.328125px) translate(-430.3125px,2.328125px) translate(0,2px)}}@-webkit-keyframes kf_el_9gks_BVb4Fs_an_YkjCJZcC9{0%,10%{opacity:0}15%{opacity:1}}@keyframes kf_el_9gks_BVb4Fs_an_YkjCJZcC9{0%,10%{opacity:0}15%{opacity:1}}#el_91cInXdL5 *{-webkit-animation-duration:10s;animation-duration:10s;-webkit-animation-iteration-count:infinite;animation-iteration-count:infinite;-webkit-animation-play-state:paused;animation-play-state:paused;-webkit-animation-timing-function:cubic-bezier(0,0,1,1);animation-timing-function:cubic-bezier(0,0,1,1)}#el_4d4EftGIrz8{font-variant:normal;font-weight:400;font-stretch:normal;font-size:14.66666603px;font-family:Arial;-inkscape-font-specification:ArialMT;-webkit-writing-mode:lr-tb;-ms-writing-mode:lr-tb;writing-mode:lr-tb;fill:#000;fill-opacity:1;fill-rule:nonzero;stroke:none}#el_4d4EftGIrz8,#el_hwwTnrtTnXS{stroke-width:1.33333325}#el_wkE07bpY8gC{font-variant:normal;font-weight:400;font-stretch:normal;font-size:14.66666603px;font-family:Arial;-inkscape-font-specification:ArialMT;-webkit-writing-mode:lr-tb;-ms-writing-mode:lr-tb;writing-mode:lr-tb;fill:#000;fill-opacity:1;fill-rule:nonzero;stroke:none}#el_Gpno-b0Q9xS,#el_wkE07bpY8gC{stroke-width:1.33333325}#el_cBMoy4YuDNl{font-variant:normal;font-weight:400;font-stretch:normal;font-size:14.66666603px;font-family:Arial;-inkscape-font-specification:ArialMT;-webkit-writing-mode:lr-tb;-ms-writing-mode:lr-tb;writing-mode:lr-tb;fill:#000;fill-opacity:1;fill-rule:nonzero;stroke:none}#el_DA2gliOltiX,#el_cBMoy4YuDNl{stroke-width:1.33333325}#el_JxnQOYyalLO{font-variant:normal;font-weight:400;font-stretch:normal;font-size:14.66666603px;font-family:&apos;DelugiaCode NF&apos;;-inkscape-font-specification:DelugiaCodeNerdFontComplete-;-webkit-writing-mode:lr-tb;-ms-writing-mode:lr-tb;writing-mode:lr-tb;fill:#000;fill-opacity:1;fill-rule:nonzero;stroke:none}#el_JxnQOYyalLO,#el_fb1iNzCAcPv{stroke-width:1.33333325}#el_GV4f5hVFj{font-variant:normal;font-weight:400;font-stretch:normal;font-size:14.66666603px;font-family:&apos;DelugiaCode NF&apos;;-inkscape-font-specification:DelugiaCodeNerdFontComplete-;-webkit-writing-mode:lr-tb;-ms-writing-mode:lr-tb;writing-mode:lr-tb;fill:#000;fill-opacity:1;fill-rule:nonzero;stroke:none}#el_GV4f5hVFj,#el_WVvHog4QjA{stroke-width:1.33333325}#el_rXLEPgyssa{font-variant:normal;font-weight:400;font-stretch:normal;font-size:14.66666603px;font-family:&apos;DelugiaCode NF&apos;;-inkscape-font-specification:DelugiaCodeNerdFontComplete-;-webkit-writing-mode:lr-tb;-ms-writing-mode:lr-tb;writing-mode:lr-tb;fill:#000;fill-opacity:1;fill-rule:nonzero;stroke:none}#el_ZlmssD-H8T,#el_rXLEPgyssa{stroke-width:1.33333325}#el_WRIqBrIU3h,#el_nH7sW922bX{font-variant:normal;font-weight:400;font-stretch:normal;font-family:&apos;DelugiaCode NF&apos;;-webkit-writing-mode:lr-tb;-ms-writing-mode:lr-tb;writing-mode:lr-tb;fill:#000;fill-opacity:1;fill-rule:nonzero;stroke:none}#el_nH7sW922bX{font-style:normal;font-size:14.66666698px;-inkscape-font-specification:&apos;DelugiaCode NF, Normal&apos;;-webkit-font-variant-ligatures:normal;font-variant-ligatures:normal;font-variant-caps:normal;font-variant-numeric:normal;-webkit-font-feature-settings:normal;font-feature-settings:normal;text-align:start;text-anchor:start;stroke-width:1.33333325}#el_WRIqBrIU3h{font-size:14.66666603px;-inkscape-font-specification:DelugiaCodeNerdFontComplete-}#el_WRIqBrIU3h,#el_hLB7pkmo2U{stroke-width:1.33333325}#el_5jdBWFDKYN{font-variant:normal;font-weight:400;font-stretch:normal;font-size:14.66666603px;font-family:&apos;DelugiaCode NF&apos;;-inkscape-font-specification:DelugiaCodeNerdFontComplete-;-webkit-writing-mode:lr-tb;-ms-writing-mode:lr-tb;writing-mode:lr-tb;fill:#000;fill-opacity:1;fill-rule:nonzero;stroke:none}#el_5jdBWFDKYN,#el_vvYcgV8VyO{stroke-width:1.33333325}#el_hz-J9OqO5W{-webkit-transform:matrix(1.3333333,0,0,1.3333333,-75.687498,-136.38893);transform:matrix(1.3333333,0,0,1.3333333,-75.687498,-136.38893)}#el_-zI-MtJaim7,#el_cOVE08cg1QC{font-variant:normal;font-weight:400;font-stretch:normal;font-size:11px;font-family:&apos;DelugiaCode NF&apos;;-inkscape-font-specification:DelugiaCodeNerdFontComplete-;-webkit-writing-mode:lr-tb;-ms-writing-mode:lr-tb;writing-mode:lr-tb;fill:#000;fill-opacity:1;fill-rule:nonzero;stroke:none}#el_cOVE08cg1QC{-webkit-transform:translate(56.25px,192.8px);transform:translate(56.25px,192.8px)}#el_-zI-MtJaim7{-webkit-transform:translate(225px,192.8px);transform:translate(225px,192.8px)}#el_-o9tb0EA7FU{fill:#c6e0b4;fill-opacity:1;fill-rule:evenodd;stroke:none;stroke-width:1.33333325}#el_YNji6kUsxkN{font-variant:normal;font-weight:400;font-stretch:normal;font-size:12px;font-family:Arial;-inkscape-font-specification:ArialMT;-webkit-writing-mode:lr-tb;-ms-writing-mode:lr-tb;writing-mode:lr-tb;fill:#000;fill-opacity:1;fill-rule:nonzero;stroke:none}#el_CQDkdAvfv9n,#el_YNji6kUsxkN{stroke-width:1.33333325}#el_TQf4d-fqIaq{font-variant:normal;font-weight:400;font-stretch:normal;font-size:12px;font-family:Arial;-inkscape-font-specification:ArialMT;-webkit-writing-mode:lr-tb;-ms-writing-mode:lr-tb;writing-mode:lr-tb;fill:#000;fill-opacity:1;fill-rule:nonzero;stroke:none}#el_KwWO5fJxQYW,#el_TQf4d-fqIaq{stroke-width:1.33333325}#el_0k9qZVtG08z,#el_VEO-ubqqmp0,#el_pkahD5CG4ry,#el_xRRGYd_LpfA{fill:#000;fill-opacity:1;fill-rule:evenodd;stroke:none;stroke-width:1.33333325}#el_4RlFTUkwSvC,#el_El2xFvXrlrG,#el_ZSsMMdVjgUF,#el_dnabS-szyxN,#el_dwRe2oKBYmF,#el_fTHSKNf8p_G,#el_mCEqMNebcfS,#el_pIC3IRP7Blm{fill:#7030a0;fill-opacity:1;fill-rule:evenodd;stroke:none;stroke-width:1.33333325}#el_ZbbKiRhQFJy{font-variant:normal;font-weight:700;font-stretch:normal;font-size:12px;font-family:Arial;-inkscape-font-specification:Arial-BoldMT;-webkit-writing-mode:lr-tb;-ms-writing-mode:lr-tb;writing-mode:lr-tb;fill:#fff;fill-opacity:1;fill-rule:nonzero;stroke:none}#el_4gJDgrrtJrz,#el_ZbbKiRhQFJy{stroke-width:1.33333325}#el_cWhP233gYDY{font-variant:normal;font-weight:700;font-stretch:normal;font-size:12px;font-family:Arial;-inkscape-font-specification:Arial-BoldMT;-webkit-writing-mode:lr-tb;-ms-writing-mode:lr-tb;writing-mode:lr-tb;fill:#fff;fill-opacity:1;fill-rule:nonzero;stroke:none}#el_cWhP233gYDY,#el_rvG6G7_BlRE{stroke-width:1.33333325}#el_DfAhLwpGkNw{font-variant:normal;font-weight:700;font-stretch:normal;font-size:12px;font-family:Arial;-inkscape-font-specification:Arial-BoldMT;-webkit-writing-mode:lr-tb;-ms-writing-mode:lr-tb;writing-mode:lr-tb;fill:#fff;fill-opacity:1;fill-rule:nonzero;stroke:none}#el_DfAhLwpGkNw,#el_Dhv5JFf5odU{stroke-width:1.33333325}#el_1PH7YharbtB{font-variant:normal;font-weight:700;font-stretch:normal;font-size:12px;font-family:Arial;-inkscape-font-specification:Arial-BoldMT;-webkit-writing-mode:lr-tb;-ms-writing-mode:lr-tb;writing-mode:lr-tb;fill:#fff;fill-opacity:1;fill-rule:nonzero;stroke:none}#el_1PH7YharbtB,#el_41f56D6xOB0{stroke-width:1.33333325}#el_A_9rNM64UIv{font-variant:normal;font-weight:700;font-stretch:normal;font-size:12px;font-family:Arial;-inkscape-font-specification:Arial-BoldMT;-webkit-writing-mode:lr-tb;-ms-writing-mode:lr-tb;writing-mode:lr-tb;fill:#fff;fill-opacity:1;fill-rule:nonzero;stroke:none}#el_A_9rNM64UIv,#el_GjM77F4oe47{stroke-width:1.33333325}#el_DF_mFRes-OK{font-variant:normal;font-weight:700;font-stretch:normal;font-size:12px;font-family:Arial;-inkscape-font-specification:Arial-BoldMT;-webkit-writing-mode:lr-tb;-ms-writing-mode:lr-tb;writing-mode:lr-tb;fill:#fff;fill-opacity:1;fill-rule:nonzero;stroke:none}#el_DF_mFRes-OK,#el_DjbFFdDWAK9{stroke-width:1.33333325}#el_coHu88UvcZW{font-variant:normal;font-weight:700;font-stretch:normal;font-size:12px;font-family:Arial;-inkscape-font-specification:Arial-BoldMT;-webkit-writing-mode:lr-tb;-ms-writing-mode:lr-tb;writing-mode:lr-tb;fill:#fff;fill-opacity:1;fill-rule:nonzero;stroke:none}#el_7hmsZ_3grgd,#el_coHu88UvcZW{stroke-width:1.33333325}#el_ZdHnNhr9OhF{font-variant:normal;font-weight:700;font-stretch:normal;font-size:12px;font-family:Arial;-inkscape-font-specification:Arial-BoldMT;-webkit-writing-mode:lr-tb;-ms-writing-mode:lr-tb;writing-mode:lr-tb;fill:#fff;fill-opacity:1;fill-rule:nonzero;stroke:none}#el_ZdHnNhr9OhF,#el_sZfyczKEt4_{stroke-width:1.33333325}#el_5srqXxOjRkZ,#el_HlPtiZl40nv,#el_KQC7GUNGrzk,#el_ODYaDD7iEkv,#el_Q-6kc7AghTZ,#el_YMPH3Cqj-2G,#el__4RoMugnCre,#el_envgedeWqml,#el_iQzKegTkRLO,#el_q35I3o39VnV,#el_wvaFxVyqyxW{fill:#fff;fill-opacity:1;fill-rule:evenodd;stroke:none;stroke-width:1.33333325}#el_2ljqlgaFzZo,#el_2sFan1uM1nJ,#el_3Lp50ulwhzP,#el_JgD5Tvif6zM,#el_NaYG2ySJPzW,#el_PwiziaPOwzh,#el_ZT-svTpMmBz,#el_paluSOP2oU9{fill:#db9d00;fill-opacity:1;fill-rule:evenodd;stroke:none;stroke-width:1.33333325}#el_VYUJtqdFtzs{font-variant:normal;font-weight:400;font-stretch:normal;font-size:12px;font-family:Arial;-inkscape-font-specification:ArialMT;-webkit-writing-mode:lr-tb;-ms-writing-mode:lr-tb;writing-mode:lr-tb;fill:#000;fill-opacity:1;fill-rule:nonzero;stroke:none}#el_2T9tj2CZqVT,#el_VYUJtqdFtzs{stroke-width:1.33333325}#el_Ehi0hhswrtg{font-variant:normal;font-weight:400;font-stretch:normal;font-size:12px;font-family:Arial;-inkscape-font-specification:ArialMT;-webkit-writing-mode:lr-tb;-ms-writing-mode:lr-tb;writing-mode:lr-tb;fill:#000;fill-opacity:1;fill-rule:nonzero;stroke:none}#el_0vK3NXcdcMN,#el_Ehi0hhswrtg{stroke-width:1.33333325}#el_UUePkLJVs8D{font-variant:normal;font-weight:400;font-stretch:normal;font-size:12px;font-family:Arial;-inkscape-font-specification:ArialMT;-webkit-writing-mode:lr-tb;-ms-writing-mode:lr-tb;writing-mode:lr-tb;fill:#000;fill-opacity:1;fill-rule:nonzero;stroke:none}#el_UUePkLJVs8D,#el_yOqGSSZ-sby{stroke-width:1.33333325}#el_JfzCLvDIJly{font-variant:normal;font-weight:400;font-stretch:normal;font-size:12px;font-family:Arial;-inkscape-font-specification:ArialMT;-webkit-writing-mode:lr-tb;-ms-writing-mode:lr-tb;writing-mode:lr-tb;fill:#000;fill-opacity:1;fill-rule:nonzero;stroke:none}#el_JfzCLvDIJly,#el_X2s_QPZquUV{stroke-width:1.33333325}#el_PepKJnlcflw{font-variant:normal;font-weight:400;font-stretch:normal;font-size:12px;font-family:Arial;-inkscape-font-specification:ArialMT;-webkit-writing-mode:lr-tb;-ms-writing-mode:lr-tb;writing-mode:lr-tb;fill:#000;fill-opacity:1;fill-rule:nonzero;stroke:none}#el_PepKJnlcflw,#el_nQWKWa_ipgc{stroke-width:1.33333325}#el_C3bDBKzzYnu{font-variant:normal;font-weight:400;font-stretch:normal;font-size:12px;font-family:Arial;-inkscape-font-specification:ArialMT;-webkit-writing-mode:lr-tb;-ms-writing-mode:lr-tb;writing-mode:lr-tb;fill:#000;fill-opacity:1;fill-rule:nonzero;stroke:none}#el_C3bDBKzzYnu,#el_e1bvb1S55fT{stroke-width:1.33333325}#el_PY2WmYarH-p{font-variant:normal;font-weight:400;font-stretch:normal;font-size:12px;font-family:Arial;-inkscape-font-specification:ArialMT;-webkit-writing-mode:lr-tb;-ms-writing-mode:lr-tb;writing-mode:lr-tb;fill:#000;fill-opacity:1;fill-rule:nonzero;stroke:none}#el_PY2WmYarH-p,#el_QBwAMV84ACz{stroke-width:1.33333325}#el__-bVRhy8szq{font-variant:normal;font-weight:400;font-stretch:normal;font-size:12px;font-family:Arial;-inkscape-font-specification:ArialMT;-webkit-writing-mode:lr-tb;-ms-writing-mode:lr-tb;writing-mode:lr-tb;fill:#000;fill-opacity:1;fill-rule:nonzero;stroke:none}#el__-bVRhy8szq,#el_yLqu1qXQtwz{stroke-width:1.33333325}#el_-eKczgKJ9ww,#el_6KAHwmgqVn6,#el_6hrLO9HnDft,#el_GHxPNL_i6Zl,#el_IAcPv4XUlZM,#el_M0F0eSWw_9N,#el_QdiYcXVR9uR,#el_hMXoOB3af16,#el_hzOy63Jzgok,#el_su76A79qE20,#el_vYHUYde7zQI{fill:#000;fill-opacity:1;fill-rule:evenodd;stroke:none;stroke-width:1.33333325}#el_1kwx08yLIl_,#el_97u8yKdpcWH,#el_N3k8dMiScCb,#el_SiyEkec28hK,#el_UAmFl8qvwtA,#el_hnpjdIsd8yA,#el_mQOGFfc3-wX,#el_xBmXqDUq9m8{fill:#c6e0b4;fill-opacity:1;fill-rule:evenodd;stroke:none;stroke-width:1.33333325}#el_rWFtnHsZiy-{-webkit-transform:matrix(1.3333333,0,0,1.3333333,-75.687498,-136.38893);transform:matrix(1.3333333,0,0,1.3333333,-75.687498,-136.38893)}#el_-LqoC1a8QeZ,#el_5DbQ1KqjJql,#el_9wh1boLJC2_,#el_GiT8Twgugr3,#el_HnEp68nQsJi,#el_WXT-y01kQdt,#el_vqUI_jYh40p,#el_wLXCyF8OGBe{font-variant:normal;font-weight:400;font-stretch:normal;font-size:9px;font-family:Arial;-inkscape-font-specification:ArialMT;-webkit-writing-mode:lr-tb;-ms-writing-mode:lr-tb;writing-mode:lr-tb;fill:#000;fill-opacity:1;fill-rule:nonzero;stroke:none}#el_wLXCyF8OGBe{-webkit-transform:translate(326.25px,192.05px);transform:translate(326.25px,192.05px)}#el_9wh1boLJC2_{-webkit-transform:translate(380.25px,192.05px);transform:translate(380.25px,192.05px)}#el_GiT8Twgugr3{-webkit-transform:translate(434.25px,192.05px);transform:translate(434.25px,192.05px)}#el_HnEp68nQsJi{-webkit-transform:translate(488.25px,192.05px);transform:translate(488.25px,192.05px)}#el_5DbQ1KqjJql{-webkit-transform:translate(542.25px,192.05px);transform:translate(542.25px,192.05px)}#el_WXT-y01kQdt{-webkit-transform:translate(596.25px,192.05px);transform:translate(596.25px,192.05px)}#el_-LqoC1a8QeZ{-webkit-transform:translate(650.25px,192.05px);transform:translate(650.25px,192.05px)}#el_vqUI_jYh40p{-webkit-transform:translate(704.25px,192.05px);transform:translate(704.25px,192.05px)}#el_98M7Kl-9Ayg,#el_HH6P2hRW17r,#el_HSEFxoQHeqp,#el_InhfvUHWjzD,#el_RD9JfHklna5,#el_TgazcfDWt9L,#el_W3pcBRnwn2Q,#el_cTqKgo-6x-l,#el_dtxBcHetgav,#el_j4zHQWXinA3,#el_kkJXfMeKqX6{fill:#000;fill-opacity:1;fill-rule:evenodd;stroke:none;stroke-width:1.33333325}#el_dOTNxZBHqM3{font-variant:normal;font-weight:400;font-stretch:normal;font-size:14.66666603px;font-family:&apos;DelugiaCode NF&apos;;-inkscape-font-specification:DelugiaCodeNerdFontComplete-;-webkit-writing-mode:lr-tb;-ms-writing-mode:lr-tb;writing-mode:lr-tb;fill:#000;fill-opacity:1;fill-rule:nonzero;stroke:none}#el_dOTNxZBHqM3,#el_pd856lvqZP7{stroke-width:1.33333325}#el_lfbLxOy6YTS{font-variant:normal;font-weight:400;font-stretch:normal;font-size:14.66666603px;font-family:&apos;DelugiaCode NF&apos;;-inkscape-font-specification:DelugiaCodeNerdFontComplete-;-webkit-writing-mode:lr-tb;-ms-writing-mode:lr-tb;writing-mode:lr-tb;fill:#000;fill-opacity:1;fill-rule:nonzero;stroke:none}#el_NJxQNhYkbQH,#el_lfbLxOy6YTS{stroke-width:1.33333325}#el_lVDe7XNHkMy{font-variant:normal;font-weight:400;font-stretch:normal;font-size:14.66666603px;font-family:&apos;DelugiaCode NF&apos;;-inkscape-font-specification:DelugiaCodeNerdFontComplete-;-webkit-writing-mode:lr-tb;-ms-writing-mode:lr-tb;writing-mode:lr-tb;fill:#000;fill-opacity:1;fill-rule:nonzero;stroke:none}#el_NeH6DJsqsmw,#el_lVDe7XNHkMy{stroke-width:1.33333325}#el_kVSoudDa9qD{font-variant:normal;font-weight:400;font-stretch:normal;font-size:14.66666603px;font-family:&apos;DelugiaCode NF&apos;;-inkscape-font-specification:DelugiaCodeNerdFontComplete-;-webkit-writing-mode:lr-tb;-ms-writing-mode:lr-tb;writing-mode:lr-tb;fill:#000;fill-opacity:1;fill-rule:nonzero;stroke:none}#el_dFV3BX1YTbA,#el_kVSoudDa9qD{stroke-width:1.33333325}#el_nTUGxHmFL-U{fill:none;stroke:#000;stroke-width:1px;stroke-linecap:butt;stroke-linejoin:miter;stroke-opacity:1;marker-end:url(#Arrow2Lend)}#el_9gks_BVb4Fs{opacity:0;-webkit-animation-name:kf_el_9gks_BVb4Fs_an_YkjCJZcC9;animation-name:kf_el_9gks_BVb4Fs_an_YkjCJZcC9}#el_4IMa2rJv6sQ,#el_9gks_BVb4Fs,#el_Wx_xqorIxH5,#el_ZODoFEckD0O,#el__gp6aD_KDbB,#el_g76LD4GOGA,#el_gBbgflYu2P,#el_kJYFHDZTDuB_an_dSlRoLUb0,#el_sZJKrbQUzww{-webkit-animation-fill-mode:backwards;animation-fill-mode:backwards;-webkit-animation-timing-function:cubic-bezier(0,0,1,1);animation-timing-function:cubic-bezier(0,0,1,1)}#el_kJYFHDZTDuB_an_dSlRoLUb0{-webkit-transform:translate(430.3125px,-2.328125px) translate(-430.3125px,2.328125px) translate(0,-30px);transform:translate(430.3125px,-2.328125px) translate(-430.3125px,2.328125px) translate(0,-30px);-webkit-animation-name:kf_el_kJYFHDZTDuB_an_dSlRoLUb0;animation-name:kf_el_kJYFHDZTDuB_an_dSlRoLUb0}#el_4IMa2rJv6sQ{opacity:0}#el_Wx_xqorIxH5{opacity:0;-webkit-animation-name:kf_el_Wx_xqorIxH5_an_pM4NSTj7N;animation-name:kf_el_Wx_xqorIxH5_an_pM4NSTj7N}#el_ZODoFEckD0O,#el__gp6aD_KDbB,#el_g76LD4GOGA,#el_gBbgflYu2P,#el_sZJKrbQUzww{opacity:0}#el_gBbgflYu2P{-webkit-animation-name:kf_el_gBbgflYu2P_an_HWQ_xCZsS;animation-name:kf_el_gBbgflYu2P_an_HWQ_xCZsS}#el_ZODoFEckD0O{-webkit-animation-name:kf_el_ZODoFEckD0O_an_iy6JL7IEl;animation-name:kf_el_ZODoFEckD0O_an_iy6JL7IEl}#el_g76LD4GOGA{-webkit-animation-name:kf_el_g76LD4GOGA_an_yKCeD_W-T;animation-name:kf_el_g76LD4GOGA_an_yKCeD_W-T}#el_4IMa2rJv6sQ{-webkit-animation-name:kf_el_4IMa2rJv6sQ_an_JazlhgncX;animation-name:kf_el_4IMa2rJv6sQ_an_JazlhgncX}#el__gp6aD_KDbB{-webkit-animation-name:kf_el__gp6aD_KDbB_an_vecGr4ZdM;animation-name:kf_el__gp6aD_KDbB_an_vecGr4ZdM}#el_sZJKrbQUzww{-webkit-animation-name:kf_el_sZJKrbQUzww_an_raAmkSORm;animation-name:kf_el_sZJKrbQUzww_an_raAmkSORm}#el_91cInXdL5:hover *{-webkit-animation-play-state:running;animation-play-state:running}</style><metadata id="metadata8792"/><defs id="defs8790"><marker id="Arrow2Lend" orient="auto" overflow="visible" refX="0" refY="0"><path id="path13756" fill="#000" fill-opacity="1" fill-rule="evenodd" stroke="#000" stroke-linejoin="round" stroke-opacity="1" stroke-width=".625" d="M 8.7185878,4.0337352 -2.2072895,0.01601326 8.7185884,-4.0017078 c -1.7454984,2.3720609 -1.7354408,5.6174519 -6e-7,8.035443 z" transform="matrix(-1.1,0,0,-1.1,-1.1,0)"/></marker><marker id="Arrow1Lend" orient="auto" overflow="visible" refX="0" refY="0"><path id="path13738" fill="#000" fill-opacity="1" fill-rule="evenodd" stroke="#000" stroke-opacity="1" stroke-width="1.333" d="M 0,0 5,-5 -12.5,0 5,5 Z" transform="matrix(-0.8,0,0,-0.8,-10,0)"/></marker><clipPath id="clipPath8802" clipPathUnits="userSpaceOnUse"><path id="path8800" d="M 52.75,70.75 H 789.5 v 454 H 52.75 Z" clip-rule="evenodd"/></clipPath><clipPath id="clipPath8810" clipPathUnits="userSpaceOnUse"><path id="path8808" d="M 0.75,0.75 H 841.5 v 594 H 0.75 Z" clip-rule="evenodd"/></clipPath><clipPath id="clipPath8818" clipPathUnits="userSpaceOnUse"><path id="path8816" d="m 54.75,72.75 h 702 v 261 h -702 z" clip-rule="evenodd"/></clipPath><clipPath id="clipPath9022" clipPathUnits="userSpaceOnUse"><path id="path9020" d="M 52.75,70.75 H 789.5 v 454 H 52.75 Z" clip-rule="evenodd"/></clipPath><clipPath id="clipPath9030" clipPathUnits="userSpaceOnUse"><path id="path9028" d="M 0.75,0.75 H 841.5 v 594 H 0.75 Z" clip-rule="evenodd"/></clipPath><clipPath id="clipPath9038" clipPathUnits="userSpaceOnUse"><path id="path9036" d="m 54.75,72.75 h 702 v 261 h -702 z" clip-rule="evenodd"/></clipPath><clipPath id="clipPath9046" clipPathUnits="userSpaceOnUse"><path id="path9044" d="M 378.75,99 H 486 v 13.5 H 378.75 Z" clip-rule="evenodd"/></clipPath><clipPath id="clipPath9062" clipPathUnits="userSpaceOnUse"><path id="path9060" d="M 52.75,70.75 H 789.5 v 454 H 52.75 Z" clip-rule="evenodd"/></clipPath><clipPath id="clipPath9070" clipPathUnits="userSpaceOnUse"><path id="path9068" d="M 0.75,0.75 H 841.5 v 594 H 0.75 Z" clip-rule="evenodd"/></clipPath><clipPath id="clipPath9078" clipPathUnits="userSpaceOnUse"><path id="path9076" d="m 54.75,72.75 h 702 v 261 h -702 z" clip-rule="evenodd"/></clipPath><clipPath id="clipPath9086" clipPathUnits="userSpaceOnUse"><path id="path9084" d="M 486.75,99 H 594 v 13.5 H 486.75 Z" clip-rule="evenodd"/></clipPath><clipPath id="clipPath9098" clipPathUnits="userSpaceOnUse"><path id="path9096" d="M 52.75,70.75 H 789.5 v 454 H 52.75 Z" clip-rule="evenodd"/></clipPath><clipPath id="clipPath9106" clipPathUnits="userSpaceOnUse"><path id="path9104" d="M 0.75,0.75 H 841.5 v 594 H 0.75 Z" clip-rule="evenodd"/></clipPath><clipPath id="clipPath9114" clipPathUnits="userSpaceOnUse"><path id="path9112" d="m 54.75,72.75 h 702 v 261 h -702 z" clip-rule="evenodd"/></clipPath><clipPath id="clipPath9122" clipPathUnits="userSpaceOnUse"><path id="path9120" d="M 54.75,126 H 270 v 14.25 H 54.75 Z" clip-rule="evenodd"/></clipPath><clipPath id="clipPath9142" clipPathUnits="userSpaceOnUse"><path id="path9140" d="M 52.75,70.75 H 789.5 v 454 H 52.75 Z" clip-rule="evenodd"/></clipPath><clipPath id="clipPath9150" clipPathUnits="userSpaceOnUse"><path id="path9148" d="M 0.75,0.75 H 841.5 v 594 H 0.75 Z" clip-rule="evenodd"/></clipPath><clipPath id="clipPath9158" clipPathUnits="userSpaceOnUse"><path id="path9156" d="m 54.75,72.75 h 702 v 261 h -702 z" clip-rule="evenodd"/></clipPath><clipPath id="clipPath9198" clipPathUnits="userSpaceOnUse"><path id="path9196" d="M 52.75,70.75 H 789.5 v 454 H 52.75 Z" clip-rule="evenodd"/></clipPath><clipPath id="clipPath9206" clipPathUnits="userSpaceOnUse"><path id="path9204" d="M 0.75,0.75 H 841.5 v 594 H 0.75 Z" clip-rule="evenodd"/></clipPath><clipPath id="clipPath9214" clipPathUnits="userSpaceOnUse"><path id="path9212" d="m 54.75,72.75 h 702 v 261 h -702 z" clip-rule="evenodd"/></clipPath><clipPath id="clipPath9222" clipPathUnits="userSpaceOnUse"><path id="path9220" d="M 54.75,153.75 H 324 V 168 H 54.75 Z" clip-rule="evenodd"/></clipPath><clipPath id="clipPath9242" clipPathUnits="userSpaceOnUse"><path id="path9240" d="M 52.75,70.75 H 789.5 v 454 H 52.75 Z" clip-rule="evenodd"/></clipPath><clipPath id="clipPath9250" clipPathUnits="userSpaceOnUse"><path id="path9248" d="M 0.75,0.75 H 841.5 v 594 H 0.75 Z" clip-rule="evenodd"/></clipPath><clipPath id="clipPath9258" clipPathUnits="userSpaceOnUse"><path id="path9256" d="m 54.75,72.75 h 702 v 261 h -702 z" clip-rule="evenodd"/></clipPath><clipPath id="clipPath9298" clipPathUnits="userSpaceOnUse"><path id="path9296" d="M 52.75,70.75 H 789.5 v 454 H 52.75 Z" clip-rule="evenodd"/></clipPath><clipPath id="clipPath9306" clipPathUnits="userSpaceOnUse"><path id="path9304" d="M 0.75,0.75 H 841.5 v 594 H 0.75 Z" clip-rule="evenodd"/></clipPath><clipPath id="clipPath9314" clipPathUnits="userSpaceOnUse"><path id="path9312" d="m 54.75,72.75 h 702 v 261 h -702 z" clip-rule="evenodd"/></clipPath><clipPath id="clipPath9322" clipPathUnits="userSpaceOnUse"><path id="path9320" d="M 54.75,181.5 H 270 v 14.25 H 54.75 Z" clip-rule="evenodd"/></clipPath><clipPath id="clipPath9338" clipPathUnits="userSpaceOnUse"><path id="path9336" d="M 52.75,70.75 H 789.5 v 454 H 52.75 Z" clip-rule="evenodd"/></clipPath><clipPath id="clipPath9346" clipPathUnits="userSpaceOnUse"><path id="path9344" d="M 0.75,0.75 H 841.5 v 594 H 0.75 Z" clip-rule="evenodd"/></clipPath><clipPath id="clipPath9354" clipPathUnits="userSpaceOnUse"><path id="path9352" d="m 54.75,72.75 h 702 v 261 h -702 z" clip-rule="evenodd"/></clipPath><clipPath id="clipPath9394" clipPathUnits="userSpaceOnUse"><path id="path9392" d="M 52.75,70.75 H 789.5 v 454 H 52.75 Z" clip-rule="evenodd"/></clipPath><clipPath id="clipPath9402" clipPathUnits="userSpaceOnUse"><path id="path9400" d="M 0.75,0.75 H 841.5 v 594 H 0.75 Z" clip-rule="evenodd"/></clipPath><clipPath id="clipPath9410" clipPathUnits="userSpaceOnUse"><path id="path9408" d="m 54.75,72.75 h 702 v 261 h -702 z" clip-rule="evenodd"/></clipPath><clipPath id="clipPath9418" clipPathUnits="userSpaceOnUse"><path id="path9416" d="M 54.75,209.25 H 216 V 223.5 H 54.75 Z" clip-rule="evenodd"/></clipPath><clipPath id="clipPath9442" clipPathUnits="userSpaceOnUse"><path id="path9440" d="M 52.75,70.75 H 789.5 v 454 H 52.75 Z" clip-rule="evenodd"/></clipPath><clipPath id="clipPath9450" clipPathUnits="userSpaceOnUse"><path id="path9448" d="M 0.75,0.75 H 841.5 v 594 H 0.75 Z" clip-rule="evenodd"/></clipPath><clipPath id="clipPath9458" clipPathUnits="userSpaceOnUse"><path id="path9456" d="m 54.75,72.75 h 702 v 261 h -702 z" clip-rule="evenodd"/></clipPath><clipPath id="clipPath9474" clipPathUnits="userSpaceOnUse"><path id="path9472" d="M 52.75,70.75 H 789.5 v 454 H 52.75 Z" clip-rule="evenodd"/></clipPath><clipPath id="clipPath9482" clipPathUnits="userSpaceOnUse"><path id="path9480" d="M 0.75,0.75 H 841.5 v 594 H 0.75 Z" clip-rule="evenodd"/></clipPath><clipPath id="clipPath9490" clipPathUnits="userSpaceOnUse"><path id="path9488" d="m 54.75,72.75 h 702 v 261 h -702 z" clip-rule="evenodd"/></clipPath><clipPath id="clipPath9498" clipPathUnits="userSpaceOnUse"><path id="path9496" d="M 54.75,237 H 324 v 14.25 H 54.75 Z" clip-rule="evenodd"/></clipPath><clipPath id="clipPath9518" clipPathUnits="userSpaceOnUse"><path id="path9516" d="M 52.75,70.75 H 789.5 v 454 H 52.75 Z" clip-rule="evenodd"/></clipPath><clipPath id="clipPath9526" clipPathUnits="userSpaceOnUse"><path id="path9524" d="M 0.75,0.75 H 841.5 v 594 H 0.75 Z" clip-rule="evenodd"/></clipPath><clipPath id="clipPath9534" clipPathUnits="userSpaceOnUse"><path id="path9532" d="m 54.75,72.75 h 702 v 261 h -702 z" clip-rule="evenodd"/></clipPath><clipPath id="clipPath9574" clipPathUnits="userSpaceOnUse"><path id="path9572" d="M 52.75,70.75 H 789.5 v 454 H 52.75 Z" clip-rule="evenodd"/></clipPath><clipPath id="clipPath9582" clipPathUnits="userSpaceOnUse"><path id="path9580" d="M 0.75,0.75 H 841.5 v 594 H 0.75 Z" clip-rule="evenodd"/></clipPath><clipPath id="clipPath9590" clipPathUnits="userSpaceOnUse"><path id="path9588" d="m 54.75,72.75 h 702 v 261 h -702 z" clip-rule="evenodd"/></clipPath><clipPath id="clipPath9598" clipPathUnits="userSpaceOnUse"><path id="path9596" d="M 54.75,264.75 H 324 V 279 H 54.75 Z" clip-rule="evenodd"/></clipPath><clipPath id="clipPath9622" clipPathUnits="userSpaceOnUse"><path id="path9620" d="M 52.75,70.75 H 789.5 v 454 H 52.75 Z" clip-rule="evenodd"/></clipPath><clipPath id="clipPath9630" clipPathUnits="userSpaceOnUse"><path id="path9628" d="M 0.75,0.75 H 841.5 v 594 H 0.75 Z" clip-rule="evenodd"/></clipPath><clipPath id="clipPath9638" clipPathUnits="userSpaceOnUse"><path id="path9636" d="m 54.75,72.75 h 702 v 261 h -702 z" clip-rule="evenodd"/></clipPath><clipPath id="clipPath9678" clipPathUnits="userSpaceOnUse"><path id="path9676" d="M 52.75,70.75 H 789.5 v 454 H 52.75 Z" clip-rule="evenodd"/></clipPath><clipPath id="clipPath9686" clipPathUnits="userSpaceOnUse"><path id="path9684" d="M 0.75,0.75 H 841.5 v 594 H 0.75 Z" clip-rule="evenodd"/></clipPath><clipPath id="clipPath9694" clipPathUnits="userSpaceOnUse"><path id="path9692" d="m 51.75,69.75 h 708 v 267 h -708 z" clip-rule="evenodd"/></clipPath><clipPath id="clipPath9982" clipPathUnits="userSpaceOnUse"><path id="path9980" d="M 52.75,70.75 H 789.5 v 454 H 52.75 Z" clip-rule="evenodd"/></clipPath><clipPath id="clipPath9990" clipPathUnits="userSpaceOnUse"><path id="path9988" d="M 0.75,0.75 H 841.5 v 594 H 0.75 Z" clip-rule="evenodd"/></clipPath><clipPath id="clipPath9998" clipPathUnits="userSpaceOnUse"><path id="path9996" d="M 52.5,70.5 H 756.75 V 336 H 52.5 Z" clip-rule="evenodd"/></clipPath><marker id="Arrow2Lend-0" orient="auto" overflow="visible" refX="0" refY="0"><path id="path13756-1" fill="#000" fill-opacity="1" fill-rule="evenodd" stroke="#000" stroke-linejoin="round" stroke-opacity="1" stroke-width=".625" d="M 8.7185878,4.0337352 -2.2072895,0.01601326 8.7185884,-4.0017078 c -1.7454984,2.3720609 -1.7354408,5.6174519 -6e-7,8.035443 z" transform="matrix(-1.1,0,0,-1.1,-1.1,0)"/></marker></defs><g id="el_kJYFHDZTDuB_an_dSlRoLUb0" data-animator-group="true" data-animator-type="0"><g id="el_kJYFHDZTDuB"><text id="el_4d4EftGIrz8" x="431.313" y="10.678"><tspan id="el_hwwTnrtTnXS" x="431.313 441.313 449.313 452.313 460.313 468.313 472.313 480.313" y="10.678">Selected</tspan></text><text id="el_wkE07bpY8gC" x="492.313" y="10.678"><tspan id="el_Gpno-b0Q9xS" x="492.313 502.313 505.313 513.313 521.313" y="10.678">Pivot</tspan></text><text id="el_cBMoy4YuDNl" x="633.313" y="10.678"><tspan id="el_DA2gliOltiX" x="633.313 641.313 649.313" y="10.678">100</tspan></text></g></g><g id="el_9gks_BVb4Fs"><text id="el_JxnQOYyalLO" x="-.687" y="46.678"><tspan id="el_fb1iNzCAcPv" x="-.687" y="46.678">P</tspan></text><text id="el_GV4f5hVFj" x="17.313" y="46.678"><tspan id="el_WVvHog4QjA" x="17.313" y="46.678">=</tspan></text><text id="el_rXLEPgyssa" x="35.313" y="46.678"><tspan id="el_ZlmssD-H8T" x="35.313 44.313 53.313 62.313 71.313 80.313 89.313 98.313 107.313 116.313 125.313 134.313 143.313 152.313 161.313 170.313 179.313 188.313 197.313 206.313 215.313 224.313 233.313" y="46.678">Vector256.Create(pivot)</tspan></text></g><g id="el_gBbgflYu2P"><text id="el_nH7sW922bX" x="-.687" y="83.678"><tspan id="el_2RYUTtySz_" x="-.687" y="83.678">data</tspan></text><text id="el_WRIqBrIU3h" x="43.313" y="83.678"><tspan id="el_hLB7pkmo2U" x="43.313" y="83.678">=</tspan></text><text id="el_5jdBWFDKYN" x="61.313" y="83.678"><tspan id="el_vvYcgV8VyO" x="61.313 70.313 79.313 88.313 97.313 106.313 115.313 124.313 133.313 142.313 151.313 160.313 169.313 178.313 187.313 196.313 205.313 214.313 223.313 232.313 241.313 250.313 259.313 268.313 277.313" y="83.678">LoadDquVector256(dataPtr)</tspan></text></g><g id="el_g76LD4GOGA"><g id="el_hz-J9OqO5W"><g id="el_OMrq3OAW5M" clip-path="url(#clipPath9306)"><g id="el_myfbXX3f4B"><g id="el_BrgO41VO-u" clip-path="url(#clipPath9314)"><g id="el_ReX8QzKLhrt"><g id="el_7zsbHLbiudT" clip-path="url(#clipPath9322)"><text id="el_cOVE08cg1QC"><tspan id="el_u9qK38eWqP6" x="0 6.75 13.5 20.25 27 33.75 40.5 47.25 54 60.75 67.5 74.25 81 87.75 94.5 101.25 108 114.75 121.5 128.25 135 141.75 148.5 155.25" y="0">CompareGreaterThan(data,</tspan></text><text id="el_-zI-MtJaim7"><tspan id="el_HT_48nCT5mY" x="0 6.75" y="0">P)</tspan></text></g></g></g></g></g></g></g><g id="el_sZJKrbQUzww"><path id="el_-o9tb0EA7FU" d="m 572.31249,142.61106 h 144.99999 v 20 H 572.31249 Z"/><text id="el_YNji6kUsxkN" x="529.313" y="156.678"><tspan id="el_CQDkdAvfv9n" x="529.313 533.313 540.313" y="156.678">(7)</tspan></text><text id="el_TQf4d-fqIaq" x="610.313" y="156.678"><tspan id="el_KwWO5fJxQYW" x="610.313 617.313 624.313 631.313 638.313 645.313 652.313 659.313 666.313 673.313" y="156.678">0b00000111</tspan></text><path id="el_VEO-ubqqmp0" d="m 572.31249,142.61106 h 144.99999 v 1 H 572.31249 Z"/><path id="el_pkahD5CG4ry" d="m 572.31249,161.61106 h 144.99999 v 1 H 572.31249 Z"/><path id="el_xRRGYd_LpfA" d="m 572.31249,142.61106 h 1 v 20 h -1 z"/><path id="el_0k9qZVtG08z" d="m 716.31248,142.61106 h 1 v 20 h -1 z"/></g><g id="el_Wx_xqorIxH5"><path id="el_ZSsMMdVjgUF" d="m 356.31249,31.611066 h 73 v 19.999999 h -73 z"/><path id="el_pIC3IRP7Blm" d="m 428.31249,31.611066 h 73 v 19.999999 h -73 z"/><path id="el_fTHSKNf8p_G" d="m 500.31249,31.611066 h 73 v 19.999999 h -73 z"/><path id="el_dwRe2oKBYmF" d="m 572.31249,31.611066 h 72.99999 v 19.999999 h -72.99999 z"/><path id="el_dnabS-szyxN" d="m 644.31248,31.611066 h 73 v 19.999999 h -73 z"/><path id="el_4RlFTUkwSvC" d="m 716.31248,31.611066 h 73 v 19.999999 h -73 z"/><path id="el_El2xFvXrlrG" d="m 788.31248,31.611066 h 73 v 19.999999 h -73 z"/><path id="el_mCEqMNebcfS" d="m 860.31248,31.611066 h 73 v 19.999999 h -73 z"/><text id="el_ZbbKiRhQFJy" x="382.313" y="45.678"><tspan id="el_4gJDgrrtJrz" x="382.313 389.313 396.313" y="45.678">100</tspan></text><text id="el_cWhP233gYDY" x="454.313" y="45.678"><tspan id="el_rvG6G7_BlRE" x="454.313 461.313 468.313" y="45.678">100</tspan></text><text id="el_DfAhLwpGkNw" x="526.313" y="45.678"><tspan id="el_Dhv5JFf5odU" x="526.313 533.313 540.313" y="45.678">100</tspan></text><text id="el_1PH7YharbtB" x="598.313" y="45.678"><tspan id="el_41f56D6xOB0" x="598.313 605.313 612.313" y="45.678">100</tspan></text><text id="el_A_9rNM64UIv" x="670.313" y="45.678"><tspan id="el_GjM77F4oe47" x="670.313 677.313 684.313" y="45.678">100</tspan></text><text id="el_DF_mFRes-OK" x="742.313" y="45.678"><tspan id="el_DjbFFdDWAK9" x="742.313 749.313 756.313" y="45.678">100</tspan></text><text id="el_coHu88UvcZW" x="814.313" y="45.678"><tspan id="el_7hmsZ_3grgd" x="814.313 821.313 828.313" y="45.678">100</tspan></text><text id="el_ZdHnNhr9OhF" x="886.313" y="45.678"><tspan id="el_sZfyczKEt4_" x="886.313 893.313 900.313" y="45.678">100</tspan></text><path id="el_wvaFxVyqyxW" d="m 356.31249,31.611066 h 576.99999 v 1 H 356.31249 Z"/><path id="el_Q-6kc7AghTZ" d="m 356.31249,50.611065 h 576.99999 v 1 H 356.31249 Z"/><path id="el_envgedeWqml" d="m 356.31249,31.611066 h 1 v 19.999999 h -1 z"/><path id="el_q35I3o39VnV" d="m 428.31249,31.611066 h 1 v 19.999999 h -1 z"/><path id="el_YMPH3Cqj-2G" d="m 500.31249,31.611066 h 1 v 19.999999 h -1 z"/><path id="el_iQzKegTkRLO" d="m 572.31249,31.611066 h 1 v 19.999999 h -1 z"/><path id="el_5srqXxOjRkZ" d="m 644.31248,31.611066 h 1 v 19.999999 h -1 z"/><path id="el_HlPtiZl40nv" d="m 716.31248,31.611066 h 1 v 19.999999 h -1 z"/><path id="el_ODYaDD7iEkv" d="m 788.31248,31.611066 h 1 v 19.999999 h -1 z"/><path id="el_KQC7GUNGrzk" d="m 860.31248,31.611066 h 1 v 19.999999 h -1 z"/><path id="el__4RoMugnCre" d="m 932.31248,31.611066 h 1 v 19.999999 h -1 z"/></g><g id="el_ZODoFEckD0O"><path id="el_paluSOP2oU9" d="m 356.31249,68.611065 h 73 v 19.999999 h -73 z"/><path id="el_ZT-svTpMmBz" d="m 428.31249,68.611065 h 73 v 19.999999 h -73 z"/><path id="el_NaYG2ySJPzW" d="m 500.31249,68.611065 h 73 v 19.999999 h -73 z"/><path id="el_3Lp50ulwhzP" d="m 572.31249,68.611065 h 72.99999 v 19.999999 h -72.99999 z"/><path id="el_2sFan1uM1nJ" d="m 644.31248,68.611065 h 73 v 19.999999 h -73 z"/><path id="el_2ljqlgaFzZo" d="m 716.31248,68.611065 h 73 v 19.999999 h -73 z"/><path id="el_JgD5Tvif6zM" d="m 788.31248,68.611065 h 73 v 19.999999 h -73 z"/><path id="el_PwiziaPOwzh" d="m 860.31248,68.611065 h 73 v 19.999999 h -73 z"/><text id="el_VYUJtqdFtzs" x="382.313" y="82.678"><tspan id="el_2T9tj2CZqVT" x="382.313 389.313 396.313" y="82.678">111</tspan></text><text id="el_Ehi0hhswrtg" x="454.313" y="82.678"><tspan id="el_0vK3NXcdcMN" x="454.313 461.313 468.313" y="82.678">222</tspan></text><text id="el_UUePkLJVs8D" x="526.313" y="82.678"><tspan id="el_yOqGSSZ-sby" x="526.313 533.313 540.313" y="82.678">333</tspan></text><text id="el_JfzCLvDIJly" x="602.313" y="82.678"><tspan id="el_X2s_QPZquUV" x="602.313 609.313" y="82.678">11</tspan></text><text id="el_PepKJnlcflw" x="674.313" y="82.678"><tspan id="el_nQWKWa_ipgc" x="674.313 681.313" y="82.678">22</tspan></text><text id="el_C3bDBKzzYnu" x="746.313" y="82.678"><tspan id="el_e1bvb1S55fT" x="746.313 753.313" y="82.678">33</tspan></text><text id="el_PY2WmYarH-p" x="818.313" y="82.678"><tspan id="el_QBwAMV84ACz" x="818.313 825.313" y="82.678">44</tspan></text><text id="el__-bVRhy8szq" x="890.313" y="82.678"><tspan id="el_yLqu1qXQtwz" x="890.313 897.313" y="82.678">55</tspan></text><path id="el_hMXoOB3af16" d="m 356.31249,68.611065 h 576.99999 v 1 H 356.31249 Z"/><path id="el_M0F0eSWw_9N" d="m 356.31249,87.611064 h 576.99999 v 1 H 356.31249 Z"/><path id="el_6hrLO9HnDft" d="m 356.31249,68.611065 h 1 v 19.999999 h -1 z"/><path id="el_su76A79qE20" d="m 428.31249,68.611065 h 1 v 19.999999 h -1 z"/><path id="el_-eKczgKJ9ww" d="m 500.31249,68.611065 h 1 v 19.999999 h -1 z"/><path id="el_GHxPNL_i6Zl" d="m 572.31249,68.611065 h 1 v 19.999999 h -1 z"/><path id="el_vYHUYde7zQI" d="m 644.31248,68.611065 h 1 v 19.999999 h -1 z"/><path id="el_IAcPv4XUlZM" d="m 716.31248,68.611065 h 1 v 19.999999 h -1 z"/><path id="el_QdiYcXVR9uR" d="m 788.31248,68.611065 h 1 v 19.999999 h -1 z"/><path id="el_6KAHwmgqVn6" d="m 860.31248,68.611065 h 1 v 19.999999 h -1 z"/><path id="el_hzOy63Jzgok" d="m 932.31248,68.611065 h 1 v 19.999999 h -1 z"/></g><g id="el_4IMa2rJv6sQ"><path id="el_N3k8dMiScCb" d="m 356.31249,105.61106 h 73 v 20 h -73 z"/><path id="el_mQOGFfc3-wX" d="m 428.31249,105.61106 h 73 v 20 h -73 z"/><path id="el_hnpjdIsd8yA" d="m 500.31249,105.61106 h 73 v 20 h -73 z"/><path id="el_SiyEkec28hK" d="m 572.31249,105.61106 h 72.99999 v 20 h -72.99999 z"/><path id="el_xBmXqDUq9m8" d="m 644.31248,105.61106 h 73 v 20 h -73 z"/><path id="el_1kwx08yLIl_" d="m 716.31248,105.61106 h 73 v 20 h -73 z"/><path id="el_97u8yKdpcWH" d="m 788.31248,105.61106 h 73 v 20 h -73 z"/><path id="el_UAmFl8qvwtA" d="m 860.31248,105.61106 h 73 v 20 h -73 z"/><g id="el_rWFtnHsZiy-"><g id="el_gSvD9d5PZBo" clip-path="url(#clipPath9346)"><g id="el_kEg4Y-bLLj3"><g id="el_SCJR2TfAr2u" clip-path="url(#clipPath9354)"><text id="el_wLXCyF8OGBe"><tspan id="el_I43OQhhtgG8" x="0 5.25 9.75 15 20.25 25.5 30.75 36 41.25 46.5" y="0">0xFFFFFFFF</tspan></text><text id="el_9wh1boLJC2_"><tspan id="el_aEN-prYrHmT" x="0 5.25 9.75 15 20.25 25.5 30.75 36 41.25 46.5" y="0">0xFFFFFFFF</tspan></text><text id="el_GiT8Twgugr3"><tspan id="el_DcOFpzIf0xs" x="0 5.25 9.75 15 20.25 25.5 30.75 36 41.25 46.5" y="0">0xFFFFFFFF</tspan></text><text id="el_HnEp68nQsJi"><tspan id="el_Li1MJh2ahE5" x="0 5.25 9.75 15 20.25 25.5 30.75 36 41.25 46.5" y="0">0x00000000</tspan></text><text id="el_5DbQ1KqjJql"><tspan id="el_rYW2k3KPmXC" x="0 5.25 9.75 15 20.25 25.5 30.75 36 41.25 46.5" y="0">0x00000000</tspan></text><text id="el_WXT-y01kQdt"><tspan id="el_wDRKcvVom6V" x="0 5.25 9.75 15 20.25 25.5 30.75 36 41.25 46.5" y="0">0x00000000</tspan></text><text id="el_-LqoC1a8QeZ"><tspan id="el_Wj09S4mawot" x="0 5.25 9.75 15 20.25 25.5 30.75 36 41.25 46.5" y="0">0x00000000</tspan></text><text id="el_vqUI_jYh40p"><tspan id="el_1gJ8uXPYU8K" x="0 5.25 9.75 15 20.25 25.5 30.75 36 41.25 46.5" y="0">0x00000000</tspan></text></g></g></g></g><path id="el_cTqKgo-6x-l" d="m 356.31249,105.61106 h 576.99999 v 1 H 356.31249 Z"/><path id="el_W3pcBRnwn2Q" d="m 356.31249,124.61106 h 576.99999 v 1 H 356.31249 Z"/><path id="el_InhfvUHWjzD" d="m 356.31249,105.61106 h 1 v 20 h -1 z"/><path id="el_RD9JfHklna5" d="m 428.31249,105.61106 h 1 v 20 h -1 z"/><path id="el_dtxBcHetgav" d="m 500.31249,105.61106 h 1 v 20 h -1 z"/><path id="el_98M7Kl-9Ayg" d="m 572.31249,105.61106 h 1 v 20 h -1 z"/><path id="el_TgazcfDWt9L" d="m 644.31248,105.61106 h 1 v 20 h -1 z"/><path id="el_kkJXfMeKqX6" d="m 716.31248,105.61106 h 1 v 20 h -1 z"/><path id="el_HSEFxoQHeqp" d="m 788.31248,105.61106 h 1 v 20 h -1 z"/><path id="el_j4zHQWXinA3" d="m 860.31248,105.61106 h 1 v 20 h -1 z"/><path id="el_HH6P2hRW17r" d="m 932.31248,105.61106 h 1 v 20 h -1 z"/></g><g id="el__gp6aD_KDbB"><text id="el_dOTNxZBHqM3" x="-.687" y="157.678"><tspan id="el_pd856lvqZP7" x="-.687 8.313 17.313 26.313" y="157.678">mask</tspan></text><text id="el_lfbLxOy6YTS" x="44.313" y="157.678"><tspan id="el_NJxQNhYkbQH" x="44.313" y="157.678">=</tspan></text><text id="el_lVDe7XNHkMy" x="62.313" y="157.678"><tspan id="el_NeH6DJsqsmw" x="62.313 71.313 80.313 89.313 98.313 107.313 116.313 125.313 134.313" y="157.678">MoveMask(</tspan></text><text id="el_kVSoudDa9qD" x="170.313" y="157.678"><tspan id="el_dFV3BX1YTbA" x="170.313" y="157.678">)</tspan></text><path id="el_nTUGxHmFL-U" d="M 156.77966,154.37377 V 131.91614"/></g><g id="g8" transform="matrix(3,0,0,3,814.07895,126.31579)"><circle id="circle2" cx="20" cy="20" r="5" fill="none" stroke="#444a46" stroke-width="4.502"><animate attributeName="r" begin="0s" dur="3s" from="3" repeatCount="indefinite" to="10"/><animate attributeName="opacity" begin="0s" dur="3s" from="1" repeatCount="indefinite" to="0"/></circle><circle id="circle4" cx="20" cy="20" r="5" fill="#ba0000" fill-opacity="1"/><path id="path871" fill="#fff" fill-opacity="1" stroke-dasharray="none" stroke-miterlimit="4" stroke-width=".1" d="m 20.158928,22.714393 c -0.01831,0 -0.03647,-0.0035 -0.05382,-0.01043 -0.03591,-0.01428 -0.06446,-0.04245 -0.07952,-0.07817 l -0.541602,-1.283301 -0.643664,0.568989 c -0.02704,0.02778 -0.07549,0.04767 -0.125673,0.04767 -0.105386,0 -0.191265,-0.08609 -0.191265,-0.192043 v -3.492887 c 0,-0.105953 0.08588,-0.192043 0.191265,-0.192043 0.0446,0 0.08782,0.01562 0.124507,0.04534 l 2.524722,2.560099 c 0.0394,0.04842 0.05464,0.09107 0.05464,0.135462 0,0.105776 -0.08588,0.192043 -0.191265,0.192043 h -0.857549 l 0.521916,1.237781 c 0.03085,0.07316 -0.0029,0.157303 -0.07567,0.188969 l -0.599312,0.260533 c -0.01834,0.0079 -0.03803,0.01198 -0.05771,0.01198 z m -0.619739,-1.758496 c 0.01081,0 0.02142,0.0012 0.03223,0.0037 0.04534,0.01039 0.08319,0.04188 0.101146,0.08492 l 0.562981,1.33405 0.333725,-0.145145 -0.551036,-1.306838 c -0.01891,-0.0446 -0.0141,-0.09595 0.01272,-0.136275 0.02686,-0.04032 0.0722,-0.06467 0.120655,-0.06467 h 0.844401 l -2.183117,-2.213616 v 3.037768 l 0.630377,-0.557575 c 0.02661,-0.02357 0.06096,-0.03629 0.09592,-0.03629 z m -0.886492,0.735552 c -0.0041,0.0031 -0.0077,0.0064 -0.0112,0.0098 z m 2.494435,-0.81256 h 0.0019 z m 0,0"/></g></svg>