<svg xmlns="http://www.w3.org/2000/svg" xmlns:svg="http://www.w3.org/2000/svg" id="svg278" width="249.373" height="131.547" version="1.1" viewBox="0 0 249.373 131.547" xml:space="preserve"><metadata id="metadata284"/><defs id="defs282"><style type="text/css">@import url(https://fonts.googleapis.com/css?family=Source+Code+Pro);</style><clipPath id="clipPath294" clipPathUnits="userSpaceOnUse"><path id="path292" d="M 1.774e-5,0 H 1190.52 V 841.8 H 1.774e-5 Z" clip-rule="evenodd"/></clipPath><clipPath id="clipPath306" clipPathUnits="userSpaceOnUse"><path id="path304" d="M 18.96,442.87 H 871.51 V 786.84 H 18.96 Z" clip-rule="evenodd"/></clipPath><clipPath id="clipPath316" clipPathUnits="userSpaceOnUse"><path id="path314" d="M 18.96,442.87 H 871.51 V 786.84 H 18.96 Z" clip-rule="evenodd"/></clipPath><clipPath id="clipPath326" clipPathUnits="userSpaceOnUse"><path id="path324" d="M 18.96,442.87 H 871.51 V 786.84 H 18.96 Z" clip-rule="evenodd"/></clipPath><clipPath id="clipPath390" clipPathUnits="userSpaceOnUse"><path id="path388" d="m 18.96,691.54 h 852.55 v 13.2 H 18.96 Z" clip-rule="evenodd"/></clipPath><clipPath id="clipPath402" clipPathUnits="userSpaceOnUse"><path id="path400" d="m 18.96,663.7 h 852.55 v 13.2 H 18.96 Z" clip-rule="evenodd"/></clipPath><clipPath id="clipPath414" clipPathUnits="userSpaceOnUse"><path id="path412" d="m 18.96,635.86 h 852.55 v 13.2 H 18.96 Z" clip-rule="evenodd"/></clipPath><clipPath id="clipPath426" clipPathUnits="userSpaceOnUse"><path id="path424" d="m 18.96,608.02 h 852.55 v 13.2 H 18.96 Z" clip-rule="evenodd"/></clipPath><clipPath id="clipPath438" clipPathUnits="userSpaceOnUse"><path id="path436" d="m 18.96,608.02 h 852.55 v 13.2 H 18.96 Z" clip-rule="evenodd"/></clipPath><clipPath id="clipPath446" clipPathUnits="userSpaceOnUse"><path id="path444" d="M 17.04,440.83 H 873.58 V 788.76 H 17.04 Z" clip-rule="evenodd"/></clipPath><clipPath id="clipPath786" clipPathUnits="userSpaceOnUse"><path id="path784" d="M 1.774e-5,0 H 1190.52 V 841.8 H 1.774e-5 Z" clip-rule="evenodd"/></clipPath></defs><g id="g286" transform="matrix(1.3333333,0,0,-1.3333333,-59.506665,940.94664)"><path id="path338" fill="#b2b2b2" fill-opacity="1" fill-rule="evenodd" stroke="none" d="m 45.12,690.94 h 13.44 v 14.28 H 45.12 Z"/><path id="path342" fill="#db9d00" fill-opacity="1" fill-rule="evenodd" stroke="none" d="m 45.12,663.1 h 13.44 v 14.28 H 45.12 Z"/><path id="path348" fill="#bbe33d" fill-opacity="1" fill-rule="evenodd" stroke="none" d="m 45.12,635.26 h 13.44 v 14.28 H 45.12 Z"/><path id="path354" fill="#c9211e" fill-opacity="1" fill-rule="evenodd" stroke="none" d="M 45.12,607.42 H 58.56 V 621.7 H 45.12 Z"/><g id="g384"><g id="g386" clip-path="url(#clipPath390)"><text id="text394" fill="#000" fill-opacity="1" fill-rule="nonzero" stroke="none" font-family="Source Code Pro" font-size="11.04" font-variant="normal" font-weight="normal" transform="matrix(1,0,0,-1,73.92,694.9)" writing-mode="lr-tb" style="-inkscape-font-specification:SourceCodePro-Regular"><tspan id="tspan392" x="0 6.6 13.2 19.8 26.4 33 39.6 46.2 52.8 59.4 66 72.6 79.2 85.8 92.4 99 105.6 112.2 118.8 125.4 132 138.6 145.2 151.8" y="0">Already Read / Can Write</tspan></text></g></g><g id="g396"><g id="g398" clip-path="url(#clipPath402)"><text id="text406" fill="#000" fill-opacity="1" fill-rule="nonzero" stroke="none" font-family="Source Code Pro" font-size="11.04" font-variant="normal" font-weight="normal" transform="matrix(1,0,0,-1,73.92,667.06)" writing-mode="lr-tb" style="-inkscape-font-specification:SourceCodePro-Regular"><tspan id="tspan404" x="0 6.6 13.2 19.8 26.4 33 39.6 46.2 52.8 59.4 66 72.6 79.2 85.8 92.4 99 105.6 112.2 118.8 125.4 132 138.6 145.2 151.8" y="0">Need to Read + Partition</tspan></text></g></g><g id="g408"><g id="g410" clip-path="url(#clipPath414)"><text id="text418" fill="#000" fill-opacity="1" fill-rule="nonzero" stroke="none" font-family="Source Code Pro" font-size="11.04" font-variant="normal" font-weight="normal" transform="matrix(1,0,0,-1,73.92,639.22)" writing-mode="lr-tb" style="-inkscape-font-specification:SourceCodePro-Regular"><tspan id="tspan416" x="0 6.6 13.2 19.8 26.4 33 39.6 46.2 52.8 59.4 66 72.6 79.2 85.8 92.4 99 105.6 112.2 118.8 125.4 132" y="0">Partitioned, &lt;= pivot</tspan></text></g></g><g id="g420"><g id="g422" clip-path="url(#clipPath426)"><text id="text430" fill="#000" fill-opacity="1" fill-rule="nonzero" stroke="none" font-family="Source Code Pro" font-size="11.04" font-variant="normal" font-weight="normal" transform="matrix(1,0,0,-1,73.92,611.38)" writing-mode="lr-tb" style="-inkscape-font-specification:SourceCodePro-Regular"><tspan id="tspan428" x="0 6.6 13.2 19.8 26.4 33 39.6 46.2 52.8 59.4 66 72.6 79.2 85.8 92.4 99 105.6 112.2 118.8 125.4" y="0">Partitioned, &gt; pivot</tspan></text></g></g><path id="path496" fill="none" stroke="#000" stroke-dasharray="none" stroke-linecap="square" stroke-linejoin="round" stroke-miterlimit="10" stroke-opacity="1" stroke-width=".14" d="m 45.66,705.64 h 13.2"/><path id="path498" fill="#000" fill-opacity="1" fill-rule="evenodd" stroke="none" d="m 45.6,704.74 h 13.32 v 0.95999 H 45.6 Z"/><path id="path500" fill="none" stroke="#000" stroke-dasharray="none" stroke-linecap="square" stroke-linejoin="round" stroke-miterlimit="10" stroke-opacity="1" stroke-width=".14" d="m 45.66,691.48 h 13.2"/><path id="path502" fill="#000" fill-opacity="1" fill-rule="evenodd" stroke="none" d="m 45.6,690.58 h 13.32 v 0.95999 H 45.6 Z"/><path id="path504" fill="none" stroke="#000" stroke-dasharray="none" stroke-linecap="square" stroke-linejoin="round" stroke-miterlimit="10" stroke-opacity="1" stroke-width=".14" d="m 44.7,705.64 v -15"/><path id="path506" fill="#000" fill-opacity="1" fill-rule="evenodd" stroke="none" d="M 44.64,690.58 H 45.6 V 705.7 H 44.64 Z"/><path id="path508" fill="none" stroke="#000" stroke-dasharray="none" stroke-linecap="square" stroke-linejoin="round" stroke-miterlimit="10" stroke-opacity="1" stroke-width=".14" d="M 58.02,704.68 V 690.64"/><path id="path510" fill="#000" fill-opacity="1" fill-rule="evenodd" stroke="none" d="m 57.96,690.58 h 0.96 v 14.16 h -0.96 z"/><path id="path512" fill="none" stroke="#000" stroke-dasharray="none" stroke-linecap="square" stroke-linejoin="round" stroke-miterlimit="10" stroke-opacity="1" stroke-width=".14" d="m 45.66,677.8 h 13.2"/><path id="path514" fill="#000" fill-opacity="1" fill-rule="evenodd" stroke="none" d="m 45.6,676.9 h 13.32 v 0.96001 H 45.6 Z"/><path id="path524" fill="none" stroke="#000" stroke-dasharray="none" stroke-linecap="square" stroke-linejoin="round" stroke-miterlimit="10" stroke-opacity="1" stroke-width=".14" d="m 45.66,663.64 h 13.2"/><path id="path526" fill="#000" fill-opacity="1" fill-rule="evenodd" stroke="none" d="m 45.6,662.74 h 13.32 v 0.95999 H 45.6 Z"/><path id="path528" fill="none" stroke="#000" stroke-dasharray="none" stroke-linecap="square" stroke-linejoin="round" stroke-miterlimit="10" stroke-opacity="1" stroke-width=".14" d="m 44.7,677.8 v -15"/><path id="path530" fill="#000" fill-opacity="1" fill-rule="evenodd" stroke="none" d="m 44.64,662.74 h 0.96 v 15.12 h -0.96 z"/><path id="path532" fill="none" stroke="#000" stroke-dasharray="none" stroke-linecap="square" stroke-linejoin="round" stroke-miterlimit="10" stroke-opacity="1" stroke-width=".14" d="M 58.02,676.84 V 662.8"/><path id="path534" fill="#000" fill-opacity="1" fill-rule="evenodd" stroke="none" d="m 57.96,662.74 h 0.96 v 14.16 h -0.96 z"/><path id="path536" fill="none" stroke="#000" stroke-dasharray="none" stroke-linecap="square" stroke-linejoin="round" stroke-miterlimit="10" stroke-opacity="1" stroke-width=".14" d="m 45.66,649.96 h 13.2"/><path id="path538" fill="#000" fill-opacity="1" fill-rule="evenodd" stroke="none" d="m 45.6,649.06 h 13.32 v 0.96001 H 45.6 Z"/><path id="path548" fill="none" stroke="#000" stroke-dasharray="none" stroke-linecap="square" stroke-linejoin="round" stroke-miterlimit="10" stroke-opacity="1" stroke-width=".14" d="m 45.66,635.8 h 13.2"/><path id="path550" fill="#000" fill-opacity="1" fill-rule="evenodd" stroke="none" d="m 45.6,634.9 h 13.32 v 0.96001 H 45.6 Z"/><path id="path552" fill="none" stroke="#000" stroke-dasharray="none" stroke-linecap="square" stroke-linejoin="round" stroke-miterlimit="10" stroke-opacity="1" stroke-width=".14" d="m 44.7,649.96 v -15"/><path id="path554" fill="#000" fill-opacity="1" fill-rule="evenodd" stroke="none" d="m 44.64,634.9 h 0.96 v 15.12 h -0.96 z"/><path id="path556" fill="none" stroke="#000" stroke-dasharray="none" stroke-linecap="square" stroke-linejoin="round" stroke-miterlimit="10" stroke-opacity="1" stroke-width=".14" d="M 58.02,649 V 634.96"/><path id="path558" fill="#000" fill-opacity="1" fill-rule="evenodd" stroke="none" d="m 57.96,634.9 h 0.96 v 14.16 h -0.96 z"/><path id="path560" fill="none" stroke="#000" stroke-dasharray="none" stroke-linecap="square" stroke-linejoin="round" stroke-miterlimit="10" stroke-opacity="1" stroke-width=".14" d="m 45.66,622.12 h 13.2"/><path id="path562" fill="#000" fill-opacity="1" fill-rule="evenodd" stroke="none" d="m 45.6,621.22 h 13.32 v 0.95999 H 45.6 Z"/><path id="path572" fill="none" stroke="#000" stroke-dasharray="none" stroke-linecap="square" stroke-linejoin="round" stroke-miterlimit="10" stroke-opacity="1" stroke-width=".14" d="m 45.66,607.96 h 13.2"/><path id="path574" fill="#000" fill-opacity="1" fill-rule="evenodd" stroke="none" d="m 45.6,607.06 h 13.32 v 0.96001 H 45.6 Z"/><path id="path660" fill="none" stroke="#000" stroke-dasharray="none" stroke-linecap="square" stroke-linejoin="round" stroke-miterlimit="10" stroke-opacity="1" stroke-width=".14" d="m 44.7,622.12 v -15"/><path id="path662" fill="#000" fill-opacity="1" fill-rule="evenodd" stroke="none" d="m 44.64,607.06 h 0.96 v 15.12 h -0.96 z"/><path id="path664" fill="none" stroke="#000" stroke-dasharray="none" stroke-linecap="square" stroke-linejoin="round" stroke-miterlimit="10" stroke-opacity="1" stroke-width=".14" d="M 58.02,621.16 V 607.12"/><path id="path666" fill="#000" fill-opacity="1" fill-rule="evenodd" stroke="none" d="m 57.96,607.06 h 0.96 v 14.16 h -0.96 z"/></g></svg>