<svg xmlns="http://www.w3.org/2000/svg" xmlns:svg="http://www.w3.org/2000/svg" id="svg1401" width="830.426" height="446.271" version="1.1" viewBox="0 0 830.426 446.271" xml:space="preserve"><metadata id="metadata1407"/><g id="g1409" transform="matrix(0,1.5858449,1.5858449,0,-105.55446,-114.81984)"><g id="g1413" transform="translate(154.41,407.555)"><path id="path1415" fill="#d3d2d2" fill-opacity="1" fill-rule="nonzero" stroke="none" d="m 0,0 -18.486,92.227 200.982,0.534 V 0 H 0"/></g><g id="g1417" transform="translate(126.814,546.629)"><path id="path1419" fill="#bdbcbc" fill-opacity="1" fill-rule="nonzero" stroke="none" d="m 0,0 9.252,-46.847 200.839,0.534 V 0.005 L 0,0"/></g><g id="g1421" transform="translate(126.814,546.629)"><path id="path1423" fill="#a7a5a6" fill-opacity="1" fill-rule="nonzero" stroke="none" d="M 0,0 0.17,34.914 H 210.091 V 0.005 L 0,0"/></g><g id="g1425" transform="translate(302.848,210.526)"><path id="path1427" fill="#e9e9e9" fill-opacity="1" fill-rule="nonzero" stroke="none" d="M 0,0 H 34.058 V 197.029 L -149.196,197.005 0,0"/></g><g id="g1429" transform="translate(302.848,210.526)"><path id="path1431" fill="#d3d2d2" fill-opacity="1" fill-rule="nonzero" stroke="none" d="M 0,0 34.058,-92.73 V 0 H 0"/></g><path id="path1433" fill="none" stroke="#444141" stroke-dasharray="2 1" stroke-dashoffset="0" stroke-linecap="butt" stroke-linejoin="round" stroke-miterlimit="10" stroke-opacity="1" stroke-width=".4" d="m 143.236,117.797 v 463.59 m 48.334,-463.59 v 463.59 m 48.334,-463.59 v 463.59 m 48.669,-463.59 v 463.59"/><g id="g1435" transform="translate(94.901,117.797)"><path id="path1437" fill="none" stroke="#231f20" stroke-dasharray="none" stroke-linecap="butt" stroke-linejoin="round" stroke-miterlimit="10" stroke-opacity="1" stroke-width=".5" d="M 242.005,0 H 0 v 463.591 h 242.005 z"/><g id="g1439"><path id="path1441" fill="none" stroke="#231f20" stroke-dasharray="none" stroke-linecap="butt" stroke-linejoin="round" stroke-miterlimit="10" stroke-opacity="1" stroke-width=".5" d="M 0,0 Z"/></g></g><path id="path1443" fill="#fff" fill-opacity="1" fill-rule="nonzero" stroke="none" stroke-width=".376" d="m 94.570209,401.44998 h 0.625457 v 159.54655 h -0.625457 z" opacity=".656"/><g id="g1445" transform="translate(94.901,114.766)"><path id="path1447" fill="none" stroke="#231f20" stroke-dasharray="none" stroke-linecap="butt" stroke-linejoin="round" stroke-miterlimit="10" stroke-opacity="1" stroke-width=".5" d="M 0,0 V 3.03"/><g id="g1449" transform="translate(48.336)"><path id="path1451" fill="none" stroke="#231f20" stroke-dasharray="none" stroke-linecap="butt" stroke-linejoin="round" stroke-miterlimit="10" stroke-opacity="1" stroke-width=".5" d="M 0,0 V 3.03"/><g id="g1453" transform="translate(48.334)"><path id="path1455" fill="none" stroke="#231f20" stroke-dasharray="none" stroke-linecap="butt" stroke-linejoin="round" stroke-miterlimit="10" stroke-opacity="1" stroke-width=".5" d="M 0,0 V 3.03"/><g id="g1457" transform="translate(48.334)"><path id="path1459" fill="none" stroke="#231f20" stroke-dasharray="none" stroke-linecap="butt" stroke-linejoin="round" stroke-miterlimit="10" stroke-opacity="1" stroke-width=".5" d="M 0,0 V 3.03"/><g id="g1461" transform="translate(48.669)"><path id="path1463" fill="none" stroke="#231f20" stroke-dasharray="none" stroke-linecap="butt" stroke-linejoin="round" stroke-miterlimit="10" stroke-opacity="1" stroke-width=".5" d="M 0,0 V 3.03"/><g id="g1465" transform="translate(48.336,1.951)"><path id="path1467" fill="none" stroke="#231f20" stroke-dasharray="none" stroke-linecap="butt" stroke-linejoin="round" stroke-miterlimit="10" stroke-opacity="1" stroke-width=".5" d="M 0,0 V 1.079"/><g id="g1469" transform="translate(-0.003,395.181)"><path id="path1471" fill="none" stroke="#231f20" stroke-dasharray="none" stroke-linecap="butt" stroke-linejoin="round" stroke-miterlimit="10" stroke-opacity="1" stroke-width=".5" d="M 0,0 H 3.033"/><g id="g1473" transform="translate(0,-23.164)"><path id="path1475" fill="none" stroke="#231f20" stroke-dasharray="none" stroke-linecap="butt" stroke-linejoin="round" stroke-miterlimit="10" stroke-opacity="1" stroke-width=".5" d="M 0,0 H 3.033"/><g id="g1477" transform="translate(0,46.327)"><path id="path1479" fill="none" stroke="#231f20" stroke-dasharray="none" stroke-linecap="butt" stroke-linejoin="round" stroke-miterlimit="10" stroke-opacity="1" stroke-width=".5" d="M 0,0 H 3.033"/><g id="g1481" transform="translate(0,-69.49)"><path id="path1483" fill="none" stroke="#231f20" stroke-dasharray="none" stroke-linecap="butt" stroke-linejoin="round" stroke-miterlimit="10" stroke-opacity="1" stroke-width=".5" d="M 0,0 H 3.033"/><g id="g1485" transform="translate(0,-23.16)"><path id="path1487" fill="none" stroke="#231f20" stroke-dasharray="none" stroke-linecap="butt" stroke-linejoin="round" stroke-miterlimit="10" stroke-opacity="1" stroke-width=".5" d="M 0,0 H 3.033"/><g id="g1489" transform="translate(0,-23.166)"><path id="path1491" fill="none" stroke="#231f20" stroke-dasharray="none" stroke-linecap="butt" stroke-linejoin="round" stroke-miterlimit="10" stroke-opacity="1" stroke-width=".5" d="M 0,0 H 3.033"/><g id="g1493" transform="translate(0,-23.163)"><path id="path1495" fill="none" stroke="#231f20" stroke-dasharray="none" stroke-linecap="butt" stroke-linejoin="round" stroke-miterlimit="10" stroke-opacity="1" stroke-width=".5" d="M 0,0 H 3.033"/><g id="g1497" transform="translate(0,-23.161)"><path id="path1499" fill="none" stroke="#231f20" stroke-dasharray="none" stroke-linecap="butt" stroke-linejoin="round" stroke-miterlimit="10" stroke-opacity="1" stroke-width=".5" d="M 0,0 H 3.033"/><g id="g1501" transform="translate(0,-23.498)"><path id="path1503" fill="none" stroke="#231f20" stroke-dasharray="none" stroke-linecap="butt" stroke-linejoin="round" stroke-miterlimit="10" stroke-opacity="1" stroke-width=".5" d="M 0,0 H 3.033"/><g id="g1505" transform="translate(0,-23.162)"><path id="path1507" fill="none" stroke="#231f20" stroke-dasharray="none" stroke-linecap="butt" stroke-linejoin="round" stroke-miterlimit="10" stroke-opacity="1" stroke-width=".5" d="M 0,0 H 3.033"/><g id="g1509" transform="translate(0,-23.165)"><path id="path1511" fill="none" stroke="#231f20" stroke-dasharray="none" stroke-linecap="butt" stroke-linejoin="round" stroke-miterlimit="10" stroke-opacity="1" stroke-width=".5" d="M 0,0 H 3.033"/><g id="g1513" transform="translate(0,-23.162)"><path id="path1515" fill="none" stroke="#231f20" stroke-dasharray="none" stroke-linecap="butt" stroke-linejoin="round" stroke-miterlimit="10" stroke-opacity="1" stroke-width=".5" d="M 0,0 H 3.033"/><g id="g1517" transform="translate(0,-23.162)"><path id="path1519" fill="none" stroke="#231f20" stroke-dasharray="none" stroke-linecap="butt" stroke-linejoin="round" stroke-miterlimit="10" stroke-opacity="1" stroke-width=".5" d="M 0,0 H 3.033"/><g id="g1521" transform="translate(0,-23.163)"><path id="path1523" fill="none" stroke="#231f20" stroke-dasharray="none" stroke-linecap="butt" stroke-linejoin="round" stroke-miterlimit="10" stroke-opacity="1" stroke-width=".5" d="M 0,0 H 3.033"/><g id="g1525" transform="translate(0,-23.163)"><path id="path1527" fill="none" stroke="#231f20" stroke-dasharray="none" stroke-linecap="butt" stroke-linejoin="round" stroke-miterlimit="10" stroke-opacity="1" stroke-width=".5" d="M 0,0 H 3.033"/><g id="g1529" transform="translate(0,-23.163)"><path id="path1531" fill="none" stroke="#231f20" stroke-dasharray="none" stroke-linecap="butt" stroke-linejoin="round" stroke-miterlimit="10" stroke-opacity="1" stroke-width=".5" d="M 0,0 H 3.033"/><g id="g1533" transform="translate(0,-23.162)"><path id="path1535" fill="none" stroke="#231f20" stroke-dasharray="none" stroke-linecap="butt" stroke-linejoin="round" stroke-miterlimit="10" stroke-opacity="1" stroke-width=".5" d="M 0,0 H 3.033"/><g id="g1537" transform="translate(0,-23.163)"><path id="path1539" fill="none" stroke="#231f20" stroke-dasharray="none" stroke-linecap="butt" stroke-linejoin="round" stroke-miterlimit="10" stroke-opacity="1" stroke-width=".5" d="M 0,0 H 3.033"/><g id="g1541" transform="translate(0,-23.162)"><path id="path1543" fill="none" stroke="#231f20" stroke-dasharray="none" stroke-linecap="butt" stroke-linejoin="round" stroke-miterlimit="10" stroke-opacity="1" stroke-width=".5" d="M 0,0 H 3.033"/></g></g></g></g></g></g></g></g></g></g></g></g></g></g></g></g></g></g></g></g></g></g></g></g></g><g id="g1545" transform="translate(150.488,430.92)"><path id="path1547" fill="none" stroke="#231f20" stroke-dasharray="none" stroke-linecap="round" stroke-linejoin="round" stroke-miterlimit="10" stroke-opacity="1" stroke-width=".5" d="m 0,0 c 2.013,-3.865 0.735,-7.732 1.304,-11.597 0.568,-3.866 0.478,-7.732 2.11,-11.597 1.63,-3.866 5.236,-7.733 7.673,-11.597 2.435,-3.865 3.934,-7.733 6.942,-11.598 3.007,-3.864 8.06,-7.732 11.099,-11.597 3.039,-3.866 5.085,-7.732 7.13,-11.596 2.047,-3.867 2.795,-7.735 5.141,-11.599 2.346,-3.863 6.395,-7.73 8.934,-11.596 2.538,-3.868 3.354,-7.732 6.301,-11.596 2.945,-3.866 7.99,-7.733 11.377,-11.597 3.388,-3.867 5.886,-7.733 8.944,-11.598 3.059,-3.867 6.506,-7.732 9.406,-11.597 2.899,-3.866 5.083,-7.732 7.994,-11.598 2.91,-3.865 5.248,-7.732 9.467,-11.597 4.22,-3.866 12.2,-7.731 15.85,-11.598 3.653,-3.864 3.903,-7.731 6.051,-11.597 2.15,-3.865 4.413,-7.731 6.844,-11.597 2.429,-3.866 4.382,-7.731 7.733,-11.597 3.321,-3.833 6.134,-5.848 12.362,-11.597 l 33.87,-92.544"/></g><path id="path1549" fill="none" stroke="#231f20" stroke-dasharray="1.5 1.5" stroke-dashoffset="0" stroke-linecap="butt" stroke-linejoin="round" stroke-miterlimit="10" stroke-opacity="1" stroke-width=".75" d="m 336.067,120.082 -33.219,90.444 m 0,0 -149.196,197.005 m 0.758,0.024 -18.486,92.227"/><g id="g1551" transform="translate(135.216,491.046)"><path id="path1553" fill="#231f20" fill-opacity="1" fill-rule="nonzero" stroke="none" d="M 0,0 C 1.18,0 2.138,-0.959 2.138,-2.14 2.138,-3.32 1.18,-4.278 0,-4.278 c -1.181,0 -2.139,0.958 -2.139,2.138 C -2.139,-0.959 -1.181,0 0,0"/></g><g id="g1555" transform="translate(136.724,479.447)"><path id="path1557" fill="#231f20" fill-opacity="1" fill-rule="nonzero" stroke="none" d="m 0,0 c 1.182,0 2.139,-0.957 2.139,-2.138 0,-1.18 -0.957,-2.137 -2.139,-2.137 -1.18,0 -2.138,0.957 -2.138,2.137 C -2.138,-0.957 -1.18,0 0,0"/></g><g id="g1559" transform="translate(138.409,467.85)"><path id="path1561" fill="#231f20" fill-opacity="1" fill-rule="nonzero" stroke="none" d="M 0,0 C 1.182,0 2.138,-0.958 2.138,-2.138 2.138,-3.32 1.182,-4.276 0,-4.276 c -1.179,0 -2.138,0.956 -2.138,2.138 C -2.138,-0.958 -1.179,0 0,0"/></g><g id="g1563" transform="translate(140.601,455.94)"><path id="path1565" fill="#231f20" fill-opacity="1" fill-rule="nonzero" stroke="none" d="m 0,0 c 1.181,0 2.14,-0.956 2.14,-2.137 0,-1.18 -0.959,-2.137 -2.14,-2.137 -1.181,0 -2.139,0.957 -2.139,2.137 C -2.139,-0.956 -1.181,0 0,0"/></g><g id="g1567" transform="translate(142.307,444.654)"><path id="path1569" fill="#231f20" fill-opacity="1" fill-rule="nonzero" stroke="none" d="m 0,0 c 1.179,0 2.137,-0.956 2.137,-2.137 0,-1.181 -0.958,-2.138 -2.137,-2.138 -1.183,0 -2.14,0.957 -2.14,2.138 C -2.14,-0.956 -1.183,0 0,0"/></g><g id="g1571" transform="translate(150.296,432.78)"><path id="path1573" fill="#231f20" fill-opacity="1" fill-rule="nonzero" stroke="none" d="m 0,0 c 1.182,0 2.138,-0.956 2.138,-2.138 0,-1.179 -0.956,-2.137 -2.138,-2.137 -1.181,0 -2.14,0.958 -2.14,2.137 C -2.14,-0.956 -1.181,0 0,0"/></g><g id="g1575" transform="translate(151.792,421.46)"><path id="path1577" fill="#231f20" fill-opacity="1" fill-rule="nonzero" stroke="none" d="m 0,0 c 1.179,0 2.138,-0.956 2.138,-2.137 0,-1.181 -0.959,-2.138 -2.138,-2.138 -1.182,0 -2.138,0.957 -2.138,2.138 C -2.138,-0.956 -1.182,0 0,0"/></g><g id="g1579" transform="translate(153.652,409.669)"><path id="path1581" fill="#231f20" fill-opacity="1" fill-rule="nonzero" stroke="none" d="m 0,0 c 1.179,0 2.137,-0.957 2.137,-2.138 0,-1.18 -0.958,-2.138 -2.137,-2.138 -1.182,0 -2.139,0.958 -2.139,2.138 C -2.139,-0.957 -1.182,0 0,0"/></g><g id="g1583" transform="translate(161.575,398.267)"><path id="path1585" fill="#231f20" fill-opacity="1" fill-rule="nonzero" stroke="none" d="m 0,0 c 1.181,0 2.138,-0.958 2.138,-2.138 0,-1.181 -0.957,-2.14 -2.138,-2.14 -1.181,0 -2.139,0.959 -2.139,2.14 C -2.139,-0.958 -1.181,0 0,0"/></g><g id="g1587" transform="translate(168.419,386.186)"><path id="path1589" fill="#231f20" fill-opacity="1" fill-rule="nonzero" stroke="none" d="m 0,0 c 1.182,0 2.14,-0.958 2.14,-2.138 0,-1.181 -0.958,-2.139 -2.14,-2.139 -1.182,0 -2.137,0.958 -2.137,2.139 C -2.137,-0.958 -1.182,0 0,0"/></g><g id="g1591" transform="translate(179.617,375.072)"><path id="path1593" fill="#231f20" fill-opacity="1" fill-rule="nonzero" stroke="none" d="m 0,0 c 1.18,0 2.139,-0.958 2.139,-2.138 0,-1.18 -0.959,-2.138 -2.139,-2.138 -1.18,0 -2.136,0.958 -2.136,2.138 C -2.136,-0.958 -1.18,0 0,0"/></g><g id="g1595" transform="translate(186.746,363.477)"><path id="path1597" fill="#231f20" fill-opacity="1" fill-rule="nonzero" stroke="none" d="m 0,0 c 1.181,0 2.138,-0.958 2.138,-2.138 0,-1.18 -0.957,-2.139 -2.138,-2.139 -1.179,0 -2.138,0.959 -2.138,2.139 C -2.138,-0.958 -1.179,0 0,0"/></g><g id="g1599" transform="translate(191.577,351.55)"><path id="path1601" fill="#231f20" fill-opacity="1" fill-rule="nonzero" stroke="none" d="m 0,0 c 1.181,0 2.139,-0.957 2.139,-2.139 0,-1.18 -0.958,-2.138 -2.139,-2.138 -1.181,0 -2.136,0.958 -2.136,2.138 C -2.136,-0.957 -1.181,0 0,0"/></g><g id="g1603" transform="translate(200.821,340.282)"><path id="path1605" fill="#231f20" fill-opacity="1" fill-rule="nonzero" stroke="none" d="m 0,0 c 1.18,0 2.138,-0.958 2.138,-2.139 0,-1.18 -0.958,-2.138 -2.138,-2.138 -1.182,0 -2.137,0.958 -2.137,2.138 C -2.137,-0.958 -1.182,0 0,0"/></g><g id="g1607" transform="translate(207.122,328.685)"><path id="path1609" fill="#231f20" fill-opacity="1" fill-rule="nonzero" stroke="none" d="M 0,0 C 1.18,0 2.138,-0.957 2.138,-2.138 2.138,-3.319 1.18,-4.277 0,-4.277 c -1.182,0 -2.138,0.958 -2.138,2.139 C -2.138,-0.957 -1.182,0 0,0"/></g><g id="g1611" transform="translate(218.499,317.088)"><path id="path1613" fill="#231f20" fill-opacity="1" fill-rule="nonzero" stroke="none" d="m 0,0 c 1.181,0 2.138,-0.957 2.138,-2.138 0,-1.181 -0.957,-2.139 -2.138,-2.139 -1.181,0 -2.138,0.958 -2.138,2.139 C -2.138,-0.957 -1.181,0 0,0"/></g><g id="g1615" transform="translate(227.159,305.226)"><path id="path1617" fill="#231f20" fill-opacity="1" fill-rule="nonzero" stroke="none" d="m 0,0 c 1.179,0 2.138,-0.957 2.138,-2.138 0,-1.18 -0.959,-2.138 -2.138,-2.138 -1.181,0 -2.139,0.958 -2.139,2.138 C -2.139,-0.957 -1.181,0 0,0"/></g><g id="g1619" transform="translate(236.551,293.813)"><path id="path1621" fill="#231f20" fill-opacity="1" fill-rule="nonzero" stroke="none" d="m 0,0 c 1.183,0 2.139,-0.957 2.139,-2.138 0,-1.181 -0.956,-2.138 -2.139,-2.138 -1.179,0 -2.138,0.957 -2.138,2.138 C -2.138,-0.957 -1.179,0 0,0"/></g><g id="g1623" transform="translate(244.593,282.191)"><path id="path1625" fill="#231f20" fill-opacity="1" fill-rule="nonzero" stroke="none" d="m 0,0 c 1.182,0 2.138,-0.957 2.138,-2.138 0,-1.181 -0.956,-2.138 -2.138,-2.138 -1.181,0 -2.14,0.957 -2.14,2.138 C -2.14,-0.957 -1.181,0 0,0"/></g><g id="g1627" transform="translate(254.006,270.45)"><path id="path1629" fill="#231f20" fill-opacity="1" fill-rule="nonzero" stroke="none" d="M 0,0 C 1.18,0 2.139,-0.958 2.139,-2.139 2.139,-3.32 1.18,-4.276 0,-4.276 c -1.183,0 -2.14,0.956 -2.14,2.137 C -2.14,-0.958 -1.183,0 0,0"/></g><g id="g1631" transform="translate(270.16,259.101)"><path id="path1633" fill="#231f20" fill-opacity="1" fill-rule="nonzero" stroke="none" d="m 0,0 c 1.182,0 2.14,-0.957 2.14,-2.139 0,-1.18 -0.958,-2.137 -2.14,-2.137 -1.178,0 -2.138,0.957 -2.138,2.137 C -2.138,-0.957 -1.178,0 0,0"/></g><g id="g1635" transform="translate(276.211,247.503)"><path id="path1637" fill="#231f20" fill-opacity="1" fill-rule="nonzero" stroke="none" d="m 0,0 c 1.181,0 2.138,-0.957 2.138,-2.138 0,-1.18 -0.957,-2.138 -2.138,-2.138 -1.182,0 -2.14,0.958 -2.14,2.138 C -2.14,-0.957 -1.182,0 0,0"/></g><g id="g1639" transform="translate(282.815,235.742)"><path id="path1641" fill="#231f20" fill-opacity="1" fill-rule="nonzero" stroke="none" d="m 0,0 c 1.181,0 2.137,-0.957 2.137,-2.138 0,-1.181 -0.956,-2.138 -2.137,-2.138 -1.179,0 -2.138,0.957 -2.138,2.138 C -2.138,-0.957 -1.179,0 0,0"/></g><g id="g1643" transform="translate(290.59,223.994)"><path id="path1645" fill="#231f20" fill-opacity="1" fill-rule="nonzero" stroke="none" d="M 0,0 C 1.182,0 2.139,-0.957 2.139,-2.139 2.139,-3.32 1.182,-4.277 0,-4.277 c -1.181,0 -2.138,0.957 -2.138,2.138 C -2.138,-0.957 -1.181,0 0,0"/></g><g id="g1647" transform="translate(302.848,212.664)"><path id="path1649" fill="#231f20" fill-opacity="1" fill-rule="nonzero" stroke="none" d="m 0,0 c 1.181,0 2.138,-0.957 2.138,-2.138 0,-1.18 -0.957,-2.138 -2.138,-2.138 -1.179,0 -2.138,0.958 -2.138,2.138 C -2.138,-0.957 -1.179,0 0,0"/></g><g id="g1651" transform="translate(336.906,119.935)"><path id="path1653" fill="#231f20" fill-opacity="1" fill-rule="nonzero" stroke="none" d="m 0,0 c 1.182,0 2.139,-0.957 2.139,-2.139 0,-1.18 -0.957,-2.138 -2.139,-2.138 -1.179,0 -2.137,0.958 -2.137,2.138 C -2.137,-0.957 -1.179,0 0,0"/></g><text id="text1721" fill="#231f20" fill-opacity="1" fill-rule="nonzero" stroke="none" font-family="Helvetica" font-size="5.108" font-variant="normal" font-weight="normal" transform="matrix(0,1,1,0,338.3947,121.9773)" writing-mode="lr-tb" style="-inkscape-font-specification:Helvetica"><tspan id="tspan1655" x="0" y="0">1</tspan><tspan id="tspan1657" x="93.51" y="-33.692">5</tspan><tspan id="tspan1659" x="104.922" y="-43.705">9</tspan><tspan id="tspan1661" x="115.905 118.745" y="-51.676">13</tspan><tspan id="tspan1663" x="127.629 130.47" y="-58.449">18</tspan><tspan id="tspan1665" x="139.132 141.972" y="-66.451">24</tspan><tspan id="tspan1667" x="151.192 154.032" y="-78.621">51</tspan><tspan id="tspan1669" x="163.924 166.764" y="-89.065">80</tspan><tspan id="tspan1671" x="177.248 180.089 182.929" y="-98.944">117</tspan><tspan id="tspan1673" x="187.061 189.901 192.742" y="-106.867">183</tspan><tspan id="tspan1675" x="199.414 202.254 205.094" y="-115.363">280</tspan><tspan id="tspan1677" x="212.315 215.154 217.994" y="-125.494">481</tspan><tspan id="tspan1679" x="222.654 225.493 228.333" y="-132.917">649</tspan><tspan id="tspan1681" x="235.385 238.225 241.065" y="-141.704">993</tspan><tspan id="tspan1683" x="245.287 248.127 249.546 252.386 255.226" y="-148.955">1,267</tspan><tspan id="tspan1685" x="254.681 257.521 258.94 261.78 264.62" y="-156.001">1,779</tspan><tspan id="tspan1687" x="265.327 268.167 269.586 272.426 275.266" y="-163.355">3,016</tspan><tspan id="tspan1689" x="273.137 275.977 277.396 280.236 283.075" y="-169.973">4,195</tspan><tspan id="tspan1691" x="281.127 283.966 285.386 288.226 291.065" y="-176.068">6,043</tspan><tspan id="tspan1693" x="292.42 295.26 296.68 299.519 302.359" y="-180.345">6,681</tspan><tspan id="tspan1695" x="308.288 311.128 312.547 315.387 318.227" y="-180.678">7,108</tspan><tspan id="tspan1697" x="314.527 317.367 320.206 321.626 324.466 327.305" y="-185.96">11,865</tspan><tspan id="tspan1699" x="329.686 332.526 335.366 336.785 339.625 342.464" y="-188.74">14,387</tspan><tspan id="tspan1701" x="346.929 349.769 352.608 354.028 356.868 359.707" y="-190.238">19,484</tspan><tspan id="tspan1703" x="348.392 351.232 354.071 355.491 358.331 361.17" y="-205.07">21,871</tspan><tspan id="tspan1705" x="367.003 369.842 372.682 374.102 376.941 379.781" y="-196.088">24,129</tspan><tspan id="tspan1707" x="368.324 371.163 374.003 375.423 378.262 381.102" y="-211.031">31,999</tspan><tspan id="tspan1709" x="388.752 391.592 394.432 395.851 398.691 401.531" y="-199.984">34,967</tspan><tspan id="tspan1711" x="392.829 395.669 398.509 399.928 402.768 405.607" y="-214.478">39,419</tspan><tspan id="tspan1713" x="410.942 413.782 416.621 418.041 420.88 423.72" y="-203.807">40,967</tspan><tspan id="tspan1715" x="442.985 445.824 448.664 450.084 452.923 455.763" y="-224.223">49,935</tspan><tspan id="tspan1717" x="430.411 433.25 436.09 437.51 440.349 443.189" y="-206.384">49,935</tspan><tspan id="tspan1719" x="417.764 420.604 423.443 424.863 427.702 430.542" y="-219.543">49,870</tspan></text><text id="text1735" fill="#231f20" fill-opacity="1" fill-rule="nonzero" stroke="none" font-family="Helvetica" font-size="7.849" font-variant="normal" font-weight="normal" transform="matrix(0,1,1,0,339.6197,107.2113)" writing-mode="lr-tb" style="-inkscape-font-specification:Helvetica"><tspan id="tspan1723" x="0" y="0">1</tspan><tspan id="tspan1725" x="-4.257 .107" y="-48.4">10</tspan><tspan id="tspan1727" x="-8.513 -4.15 .214" y="-96.801">100</tspan><tspan id="tspan1729" x="-12.771 -8.407 -4.043 .321" y="-145.205">1000</tspan><tspan id="tspan1731" x="-19.21 -14.846 -10.482 -8.3 -3.936 .428" y="-193.605">10,000</tspan><tspan id="tspan1733" x="-23.467 -19.103 -14.739 -10.375 -8.193 -3.829 .534" y="-242.006">100,000</tspan></text><g id="g1741" transform="translate(336.906,558.225)"><path id="path1743" fill="none" stroke="#231f20" stroke-dasharray="none" stroke-linecap="butt" stroke-linejoin="round" stroke-miterlimit="10" stroke-opacity="1" stroke-width=".5" d="M 0,0 H 3.033"/></g><text id="text1747" x="300.973" y="582.546" fill="#231f20" fill-opacity="1" fill-rule="nonzero" stroke="none" font-family="Helvetica" font-size="8" font-variant="normal" font-weight="normal" transform="matrix(-0.5,0.8660254,0.8660254,0.5,0,0)" writing-mode="lr-tb" style="-inkscape-font-specification:Helvetica"><tspan id="tspan1745" x="300.973 305.421 309.869 314.317" y="582.546">2016</tspan></text><g id="g1749" transform="translate(336.906,581.387)"><path id="path1751" fill="none" stroke="#231f20" stroke-dasharray="none" stroke-linecap="butt" stroke-linejoin="round" stroke-miterlimit="10" stroke-opacity="1" stroke-width=".5" d="M 0,0 H 3.033"/></g><text id="text1755" x="321.012" y="594.116" fill="#231f20" fill-opacity="1" fill-rule="nonzero" stroke="none" font-family="Helvetica" font-size="8" font-variant="normal" font-weight="normal" transform="matrix(-0.5,0.8660254,0.8660254,0.5,0,0)" writing-mode="lr-tb" style="-inkscape-font-specification:Helvetica"><tspan id="tspan1753" x="321.012 325.46 329.908 334.356" y="594.116">2018</tspan></text><text id="text1759" fill="#231f20" fill-opacity="1" fill-rule="nonzero" stroke="none" font-family="Lato" font-size="10.216" font-stretch="normal" font-style="normal" font-variant="normal" font-weight="normal" text-anchor="start" transform="matrix(-1,0,0,1,285.457,74.4829)" writing-mode="lr-tb" style="-inkscape-font-specification:'Lato, Normal';font-variant-ligatures:normal;font-variant-caps:normal;font-variant-numeric:normal;font-feature-settings:normal;text-align:start"><tspan id="tspan1757" x="0 6.814 12.495 15.897 18.737 24.417 27.819 36.33 42.01 47.69 52.798 58.479 61.319 64.721 69.829 74.937 77.777 80.618 87.432 94.246 101.061 104.463 110.143 115.823 118.663 124.344 130.024 135.704" y="0">Performance (vs. VAX-11/780)</tspan></text><text id="text1763" fill="#231f20" fill-opacity="1" fill-rule="nonzero" stroke="none" font-family="Helvetica" font-size="7.662" font-variant="normal" font-weight="normal" transform="matrix(-0.00121373,0.99999926,0.99999926,0.00121373,332.1157,152.7643)" writing-mode="lr-tb" style="-inkscape-font-specification:Helvetica"><tspan id="tspan1761" x="0 4.26 8.52 15.332 17.462 21.294 25.554 29.814" y="0">25%/year</tspan></text><text id="text1769" fill="#231f20" fill-opacity="1" fill-rule="nonzero" stroke="none" font-family="Helvetica" font-size="7.662" font-variant="normal" font-weight="normal" transform="matrix(0,1,1,0,270.161,297.3159)" writing-mode="lr-tb" style="-inkscape-font-specification:Helvetica"><tspan id="tspan1765" x="0 4.26 8.52 15.332 17.462 21.294 25.554 29.814" y="0">52%/year</tspan><tspan id="tspan1767" x="134.719 138.98 143.241 150.053 152.184 156.016 160.277 164.538 209.53 213.791 218.052 224.865 226.996 230.828 235.089 239.35 249 253.261 255.392 259.653 266.466 268.597 272.428 276.689 280.95" y="-45.902">23%/year12%/year3.5%/year</tspan></text><text id="text1819" fill="#231f20" fill-opacity="1" fill-rule="nonzero" stroke="none" font-family="Helvetica" font-size="5.108" font-variant="normal" font-weight="normal" transform="matrix(0,1,1,0,237.6742,208.67438)" writing-mode="lr-tb" style="-inkscape-font-specification:Helvetica"><tspan id="tspan1771" x="0 1.42 4.827 9.082 10.502 13.91 17.884 22.706 26.113 29.801 32.355 33.775 36.616 38.036 39.17 42.01 44.85 46.27 49.11 51.95 54.791 56.211 57.631 60.471 63.311 66.151 67.571 71.826 75.515" y="0">IBM POWERstation 100, 150 MHz</tspan><tspan id="tspan1773" x="7.995 11.683 12.817 15.657 16.791 18.211 21.051 22.185 23.606 27.013 28.147 30.987 33.827 36.667 39.221 40.641 43.482 44.902 46.036 48.876 51.716 53.136 55.976 57.396 60.236 63.077 65.917 67.337 68.757 71.597 74.437 77.277 78.697 82.953 86.641" y="-9.264">Digital Alphastation 4/266, 266 MHz</tspan><tspan id="tspan1775" x="19.978 23.666 24.8 27.64 28.774 30.194 33.034 34.168 35.588 38.995 40.13 42.97 45.81 48.65 51.204 52.624 55.464 56.884 58.018 60.859 63.699 65.119 67.959 69.379 72.219 75.059 77.9 79.32 80.74 83.58 86.42 89.26 90.68 94.935 98.624" y="-17.733">Digital Alphastation 5/300, 300 MHz</tspan><tspan id="tspan1777" x="31.784 35.472 36.606 39.446 40.58 42 44.84 45.974 47.394 50.802 51.936 54.776 57.616 60.456 63.01 64.43 67.27 68.69 69.824 72.665 75.505 76.925 79.765 81.185 84.025 86.865 89.706 91.126 92.546 95.386 98.226 101.066 102.486 106.741 110.43 112.984" y="-29.355">Digital Alphastation 5/500, 500 MHz </tspan><tspan id="tspan1779" x="30.076 33.483 34.617 37.457 40.297 43.137 46.544 49.385 51.086 53.64 56.48 58.181 59.601 62.441 65.281 68.121 70.962 72.382 75.222 76.642 79.482 82.322 85.162 86.582 88.003 90.843 93.683 96.523 97.943 102.198 105.886 108.44 109.861 112.701 115.541 118.381 121.221" y="-36.392">AlphaServer 4000 5/600, 600 MHz 21164</tspan><tspan id="tspan1781" x="26.362 30.051 31.185 34.025 35.159 36.579 39.419 40.553 41.973 45.38 46.514 49.354 52.195 55.035 58.442 61.282 62.983 65.537 68.377 70.078 71.498 74.339 77.179 80.019 82.859 84.279 87.119 88.539 91.38 94.22 97.06 98.48 99.9 102.74 105.58 108.421 109.841 114.096 117.784 120.338 121.758 124.598 127.438 130.279 133.119" y="-46.905">Digital AlphaServer 8400 6/575, 575 MHz 21264</tspan><tspan id="tspan1783" x="31.388 34.796 36.497 39.337 40.757 43.597 46.151 48.705 49.839 52.679 55.519 58.36 59.494 60.914 65.736 68.576 70.277 72.831 75.385 76.805 79.646 81.066 82.2 85.04 87.88 89.3 92.707 96.114 98.955 101.795 104.635 107.475 108.895 110.315 113.155 115.995 118.836 120.256 124.511 128.199 130.753 132.173 135.013 137.853 140.694 143.534 146.374" y="-52.397">Professional Workstation XP1000, 667 MHz 21264A</tspan><tspan id="tspan1785" x="33.308 34.728 37.568 38.988 41.828 42.962 44.382 47.789 51.477 54.318 57.158 59.998 61.418 65.673 68.513 69.933 72.773 75.614 77.315 80.155 82.995 85.835 87.536 90.376 91.796 93.216 96.057 97.477 100.317 101.737 105.711 109.399 111.953 113.373 116.781 119.621 122.461 123.881 125.015 127.855 132.11 133.53 134.95 136.371 137.791 139.211 142.051 143.752 146.592 149.146 151.986 154.54 157.095 159.935" y="-59.622">Intel VC820 motherboard, 1.0 GHz Pentium III processor</tspan><tspan id="tspan1787" x="119.08 120.5 121.92 125.327 129.582 131.002 134.41 137.25 140.938 143.778 145.479 148.319 149.739 151.159 153.999 155.42 158.26 159.68 163.654 167.342" y="-67.812"> IBM Power4, 1.3 GHz</tspan><tspan id="tspan1789" x="140.621 142.041 143.461 146.301 147.721 150.561 151.695 153.115 156.522 159.363 162.203 165.043 166.463 169.87 173.277 174.697 177.538 178.958 181.798 183.218 187.192 190.88" y="-83.264"> Intel Xeon EE 3.2 GHz</tspan><tspan id="tspan1791" x="156.659 158.079 161.487 165.742 169.43 170.85 174.257 175.677 178.517 179.651 182.491 185.332 186.752 188.172 191.012 192.432 195.272 196.692 200.666 204.355" y="-88.006"> AMD Athlon, 2.6 GHz</tspan><tspan id="tspan1793" x="139.379 140.799 142.219 145.059 146.478 149.318 150.451 151.871 155.559 158.399 160.099 162.939 164.359 167.199 168.619 172.025 174.579 175.998 177.699 180.539 184.793 187.633 189.053 191.893 193.313 195.866 198.706 200.406 203.246 205.8 207.219 208.639 211.479 212.899 215.738 217.158 221.132 224.82 227.373" y="-98.497"> Intel Core 2 Extreme 2 cores, 2.9 GHz </tspan><tspan id="tspan1795" x="151.587 153.007 155.847 157.266 160.106 161.239 162.659 166.347 169.187 170.887 173.727 175.147 178.834 181.674 184.514 185.934 189.341 191.894 193.314 195.014 197.854 202.108 204.948 206.368 209.208 210.628 213.182 216.021 217.722 220.561 223.115 224.535 225.955 228.794 230.214 233.053 234.474 238.447 242.135" y="-104.97">Intel Core Duo Extreme 2 cores, 3.0 GHz</tspan><tspan id="tspan1797" x="126.502 127.922 129.342 132.182 133.602 136.442 137.576 138.996 142.684 145.524 147.225 150.066 151.486 152.62 155.46 156.88 160.287 162.841 164.261 165.962 168.803 173.058 175.898 177.318 180.158 181.578 184.132 186.972 188.673 191.514 194.068 195.488 198.328 199.748 202.588 204.008 207.982 211.671 214.225 215.645 217.346 220.186 223.026 225.866 228.42 229.84 231.26 232.681 235.521 236.941 239.781 241.201 244.041 245.461 249.435 253.124 255.678" y="-111.827"> Intel Core i7 Extreme 4 cores 3.2 GHz (boost to 3.5 GHz)</tspan><tspan id="tspan1799" x="179.05 180.47 181.89 184.729 186.149 188.989 190.122 191.542 195.23 198.069 199.77 202.61 204.03 205.163 208.003 209.423 212.263 213.683 216.236 219.076 220.776 223.616 226.17 227.59 230.429 231.849 234.689 236.109 240.082 243.77 246.324 247.744 249.444 252.284 255.123 257.963 260.517 261.936 263.356 264.776 267.616 269.036 271.875 273.295 276.134 277.555 281.528 285.216 287.769" y="-129.198"> Intel Core i7 4 cores 3.4 GHz (boost to 3.8 GHz)</tspan><tspan id="tspan1801" x="191.728 193.148 195.988 197.408 200.249 201.383 202.803 206.21 209.05 211.89 214.73 216.15 218.991 220.411 222.965 225.805 227.506 230.346 232.9 234.32 237.16 238.581 241.421 242.841 246.815 250.503 253.057 254.477 256.178 259.585 262.426 265.266 267.82 269.24 270.66 272.08 274.92 276.34 279.181 280.601 283.441 284.861 288.835 292.523 295.077" y="-134.663">Intel Xeon 4 cores 3.6 GHz (Boost to 4.0 GHz)</tspan><tspan id="tspan1803" x="196.347 197.767 200.607 202.027 204.867 206.001 207.422 210.829 213.669 216.509 219.349 220.769 223.609 225.03 227.584 230.424 232.125 234.965 237.519 238.939 241.779 243.199 246.04 247.46 251.434 255.122 257.676 259.096 260.797 264.204 267.044 269.885 272.439 273.859 275.279 276.699 279.539 280.959 283.799 285.219 288.06 289.48 293.454 297.142 299.696" y="-140.909">Intel Xeon 4 cores 3.6 GHz (Boost to 4.0 GHz)</tspan><tspan id="tspan1805" x="210.139 211.559 214.398 215.818 218.658 219.791 221.211 224.618 227.457 230.297 233.137 234.557 237.396 238.817 241.37 244.21 245.91 248.75 251.304 252.724 255.563 256.983 259.822 261.243 265.216 268.904 271.457 272.877 274.578 277.985 280.824 283.664 286.218 287.637 289.057 290.477 293.316 294.737 297.576 298.996 301.835 303.255 307.229 310.917 313.47" y="-146.289">Intel Xeon 4 cores 3.7 GHz (Boost to 4.1 GHz)</tspan><tspan id="tspan1807" x="214.135 215.555 218.395 219.816 222.656 223.79 225.21 228.898 231.738 233.439 236.279 237.699 238.833 241.674 243.094 245.934 247.354 249.908 252.748 254.449 257.289 259.843 261.263 264.104 265.524 268.364 269.784 273.758 277.446 280 281.42 283.121 286.529 289.369 292.209 294.763 296.183 297.603 299.023 301.863 303.284 306.124 307.544 310.384 311.804 315.778 319.466 322.02" y="-151.668">Intel Core i7 4 cores 4.0 GHz (Boost to 4.2 GHz)</tspan><tspan id="tspan1809" x="223.232 224.652 227.492 228.912 231.752 232.886 234.306 237.995 240.835 242.536 245.376 246.796 247.93 250.77 252.19 255.03 256.451 259.005 261.845 263.546 266.386 268.94 270.36 273.2 274.62 277.461 278.881 282.855 286.543 289.097 290.517 292.218 295.625 298.465 301.306 303.86 305.28 306.7 308.12 310.96 312.38 315.22 316.64 319.481 320.901 324.875 328.563 331.117" y="-156.558">Intel Core i7 4 cores 4.0 GHz (Boost to 4.2 GHz)</tspan><tspan id="tspan1811" x="238.472 239.892 242.732 244.152 246.992 248.126 249.546 253.234 256.075 257.776 260.616 262.036 263.17 266.01 267.43 270.27 271.69 274.244 277.085 278.786 281.626 284.18 285.6 288.44 289.86 292.7 294.12 298.095 301.783 304.337 305.757 307.458 310.865 313.705 316.545 319.1 320.52 321.94 323.36 326.2 327.62 330.46 331.88 334.72 336.14 340.115 343.803 346.357" y="-161.57">Intel Core i7 4 cores 4.2 GHz (Boost to 4.5 GHz)</tspan><tspan id="tspan1813" x="160.939 162.36 163.78 166.62 168.04 170.88 172.014 173.434 176.841 179.681 182.522 185.362 186.782 189.622 191.042 193.596 196.436 198.137 200.978 203.532 204.952 206.372 209.212 210.632 213.472 214.892 218.866 222.555 225.109 226.529 228.23 231.07 233.91 236.75 239.304 240.724 242.145 243.565 246.405 247.825 250.665 252.085 254.925 256.345 260.319 264.008 266.562" y="-117.751"> Intel Xeon 4 cores, 3.3 GHz (boost to 3.6 GHz)</tspan><tspan id="tspan1815" x="172.748 174.168 175.587 178.427 179.846 182.686 183.82 185.24 188.646 191.486 194.326 197.165 198.585 201.425 202.845 205.399 208.238 209.939 212.778 215.332 216.752 218.172 221.011 222.431 225.271 226.691 230.664 234.352 236.906 238.326 240.026 242.866 245.705 248.545 251.099 252.518 253.938 255.358 258.198 259.618 262.457 263.877 266.716 268.137 272.11 275.798 278.351" y="-122.897"> Intel Xeon 6 cores, 3.3 GHz (boost to 3.6 GHz)</tspan><tspan id="tspan1817" x="-40.308 -38.888 -36.048 -34.628 -31.788 -30.654 -29.234 -25.546 -22.705 -19.865 -17.025 -13.618 -9.363 -5.956 -2.268 -.847 3.408 6.248 7.668 10.508 13.348 15.049 17.889 20.73 23.57 25.271 28.111 29.531 31.232 34.072 35.492 38.332 41.173 42.593 46.567 50.255 52.809 54.229 55.649 59.056 61.897 64.737 66.157 67.291 70.131 74.386 75.806 78.646 80.066 82.907 84.608 87.448 90.002 92.842 95.396 97.95 100.79 102.491 103.912 107.6 108.734 110.154 112.994 114.414 118.102 120.656 123.496 126.337 128.038 129.739 132.86 135.7 137.401 140.241 143.081 145.921 147.055 149.896 152.736 154.156 157.277 160.117 162.671 165.511 168.351 171.192 172.326 175.166 178.006 180.56" y="-76.099">Intel D850EMVR motherboard (3.06 GHz, Pentium 4 processor with Hyper-Threading Technology)</tspan></text><path id="path1821" fill="#fff" fill-opacity="1" fill-rule="nonzero" stroke="none" stroke-width=".389" d="m 142.83248,368.75491 h 0.6177 V 429.016 h -0.6177 z" opacity=".641"/><text id="text1841" fill="#231f20" fill-opacity="1" fill-rule="nonzero" stroke="none" font-family="Helvetica" font-size="5.108" font-variant="normal" font-weight="normal" transform="matrix(0,1,1,0,145.1532,371.46358)" writing-mode="lr-tb" style="-inkscape-font-specification:Helvetica"><tspan id="tspan1823" x="0 3.407 7.662 11.35 12.771 16.178 17.598 20.438 21.572 24.412 27.252 28.672 31.512 34.353 35.773 37.193 40.033 41.453 44.293 45.713 49.687 53.376" y="0">AMD Athlon 64, 2.8 GHz</tspan><tspan id="tspan1825" x="-167.355 -163.667 -162.533 -159.693 -158.559 -157.139 -154.299 -153.165 -151.745 -148.905 -146.064 -143.224 -140.384 -138.964 -135.557 -132.15 -128.742 -127.322 -124.482 -121.642 -118.802 -117.382 -115.962 -113.122 -110.281 -107.441 -106.021 -101.766 -98.078" y="100.935">Digital 3000 AXP/500, 150 MHz</tspan><tspan id="tspan1827" x="-157.634 -153.946 -150.539 -149.119 -146.279 -143.439 -140.599 -137.758 -136.338 -133.498 -130.658 -127.818 -126.398 -124.978 -122.138 -119.297 -117.877 -113.622 -109.934" y="108.853">HP 9000/750, 66 MHz</tspan><tspan id="tspan1829" x="-179.844 -178.424 -175.017 -170.762 -169.342 -165.654 -162.247 -159.406 -156.566 -153.726 -150.886 -149.466 -146.626 -143.786 -140.945 -139.525 -138.105 -135.265 -132.425 -131.005 -126.75 -123.062" y="125.008">IBM RS6000/540, 30 MHz</tspan><tspan id="tspan1831" x="-181.651 -177.396 -175.976 -172.569 -169.162 -167.742 -163.486 -160.646 -157.806 -154.966 -152.126 -150.706 -149.286 -146.445 -143.605 -142.185 -137.93 -134.242 -131.688" y="131.409">MIPS M2000, 25 MHz </tspan><tspan id="tspan1833" x="-194.784 -190.529 -189.109 -185.701 -182.294 -180.874 -176.619 -175.199 -172.359 -169.519 -166.679 -165.258 -163.838 -160.998 -158.158 -156.738 -153.898 -152.478 -148.223 -144.534" y="138.056">MIPS M/120, 16.7 MHz</tspan><tspan id="tspan1835" x="-202.33 -198.923 -196.082 -193.242 -191.541 -188.701 -187.281 -184.441 -181.601 -178.76 -177.34 -175.92 -173.08 -170.24 -168.82 -165.98 -164.56 -160.304 -156.616" y="148.786">Sun-4/260, 16.7 MHz</tspan><tspan id="tspan1837" x="-208.421 -205.014 -201.607 -198.2 -196.78 -193.939 -191.099 -188.259 -185.419 -183.999 -182.579 -179.739 -176.899 -175.478 -171.223 -167.535" y="156.992">VAX 8700, 22 MHz</tspan><tspan id="tspan1839" x="-251.501 -248.094 -244.686 -242.985 -240.145 -237.305 -235.885 -233.045 -230.205 -227.364 -225.944 -224.524 -221.684 -220.264 -216.009 -212.321" y="169.551">AX-11/780, 5 MHz</tspan></text><g id="g1843" transform="translate(131.008,502.454)"><path id="path1845" fill="#231f20" fill-opacity="1" fill-rule="nonzero" stroke="none" d="m 0,0 c 1.183,0 2.14,-0.956 2.14,-2.138 0,-1.18 -0.957,-2.137 -2.14,-2.137 -1.18,0 -2.136,0.957 -2.136,2.137 C -2.136,-0.956 -1.18,0 0,0"/></g><g id="g1847" transform="translate(129.496,514.036)"><path id="path1849" fill="#231f20" fill-opacity="1" fill-rule="nonzero" stroke="none" d="m 0,0 c 1.182,0 2.138,-0.958 2.138,-2.138 0,-1.181 -0.956,-2.137 -2.138,-2.137 -1.18,0 -2.138,0.956 -2.138,2.137 C -2.138,-0.958 -1.18,0 0,0"/></g><g id="g1851" transform="translate(128.113,525.619)"><path id="path1853" fill="#231f20" fill-opacity="1" fill-rule="nonzero" stroke="none" d="M 0,0 C 1.18,0 2.139,-0.958 2.139,-2.14 2.139,-3.319 1.18,-4.278 0,-4.278 c -1.181,0 -2.137,0.959 -2.137,2.138 C -2.137,-0.958 -1.181,0 0,0"/></g><g id="g1855" transform="translate(126.746,537.199)"><path id="path1857" fill="#231f20" fill-opacity="1" fill-rule="nonzero" stroke="none" d="m 0,0 c 1.182,0 2.139,-0.958 2.139,-2.138 0,-1.18 -0.957,-2.138 -2.139,-2.138 -1.181,0 -2.138,0.958 -2.138,2.138 C -2.138,-0.958 -1.181,0 0,0"/></g><g id="g1859" transform="translate(122.042,548.781)"><path id="path1861" fill="#231f20" fill-opacity="1" fill-rule="nonzero" stroke="none" d="m 0,0 c 1.182,0 2.138,-0.957 2.138,-2.138 0,-1.18 -0.956,-2.139 -2.138,-2.139 -1.181,0 -2.139,0.959 -2.139,2.139 C -2.139,-0.957 -1.181,0 0,0"/></g><g id="g1863" transform="translate(121.777,560.362)"><path id="path1865" fill="#231f20" fill-opacity="1" fill-rule="nonzero" stroke="none" d="m 0,0 c 1.182,0 2.138,-0.957 2.138,-2.136 0,-1.182 -0.956,-2.138 -2.138,-2.138 -1.181,0 -2.138,0.956 -2.138,2.138 C -2.138,-0.957 -1.181,0 0,0"/></g><g id="g1867" transform="translate(121.777,571.943)"><path id="path1869" fill="#231f20" fill-opacity="1" fill-rule="nonzero" stroke="none" d="M 0,0 C 1.182,0 2.138,-0.957 2.138,-2.138 2.138,-3.32 1.182,-4.276 0,-4.276 c -1.181,0 -2.138,0.956 -2.138,2.138 C -2.138,-0.957 -1.181,0 0,0"/></g><path id="path1871" fill="none" stroke="#231f20" stroke-dasharray="1.5 1.5" stroke-dashoffset="0" stroke-linecap="butt" stroke-linejoin="round" stroke-miterlimit="10" stroke-opacity="1" stroke-width=".75" d="m 135.592,500.85 -8.778,45.793 v 34.743"/><g id="g1873" transform="translate(150.295,430.642)"><path id="path1875" fill="none" stroke="#231f20" stroke-dasharray="none" stroke-linecap="round" stroke-linejoin="round" stroke-miterlimit="10" stroke-opacity="1" stroke-width=".5" d="m 0,0 c 0,0 -8.08,9.834 -7.934,12.327 0.149,2.491 -1.466,9.501 -1.759,10.834 -0.292,1.335 -2.195,9.769 -2.194,11.909 0.001,2.138 -1.325,10.542 -1.471,12.447 -0.146,1.905 -1.466,9.823 -1.906,11.436 -0.44,1.613 -3.667,10.998 -3.96,11.73 -0.293,0.733 -1.464,10.852 -1.612,11.29 -0.146,0.441 -0.732,9.531 -0.88,10.409 -0.146,0.88 -2.051,10.73 -1.833,12.036 0.22,1.308 -4.792,8.219 -4.705,11.582 0.088,3.362 -0.207,12.745 -0.207,12.745 l -0.056,10.419"/></g><g id="g1877" transform="translate(120.562,568.311)"><path id="path1879" fill="none" stroke="#231f20" stroke-dasharray="none" stroke-linecap="butt" stroke-linejoin="round" stroke-miterlimit="10" stroke-opacity="1" stroke-width=".5" d="M 0,0 -42.622,-23.944"/><g id="g1881" transform="translate(-0.798,-9.418)"><path id="path1883" fill="none" stroke="#231f20" stroke-dasharray="none" stroke-linecap="butt" stroke-linejoin="round" stroke-miterlimit="10" stroke-opacity="1" stroke-width=".5" d="M 0,0 -35.757,-20.114"/><g id="g1885" transform="translate(2.394,-13.888)"><path id="path1887" fill="none" stroke="#231f20" stroke-dasharray="none" stroke-linecap="butt" stroke-linejoin="round" stroke-miterlimit="10" stroke-opacity="1" stroke-width=".5" d="m 0,0 -4.47,-7.662 -29.212,-9.099"/><g id="g1889" transform="translate(4.588,-9.945)"><path id="path1891" fill="none" stroke="#231f20" stroke-dasharray="none" stroke-linecap="butt" stroke-linejoin="round" stroke-miterlimit="10" stroke-opacity="1" stroke-width=".5" d="M 0,0 -33.801,-16.554"/></g></g></g></g><text id="text3755" x="116.629" y="418.978" fill="#c30000" fill-opacity="1" stroke="none" stroke-width=".75" font-family="sans-serif" font-size="14" font-stretch="normal" font-style="normal" font-variant="normal" font-weight="normal" letter-spacing="0" text-anchor="middle" transform="matrix(-0.52409706,0.85165854,0.85165854,0.52409706,0,0)" word-spacing="0" writing-mode="lr-tb" xml:space="preserve" style="line-height:1.25;-inkscape-font-specification:'sans-serif, Normal';font-variant-ligatures:normal;font-variant-caps:normal;font-variant-numeric:normal;font-feature-settings:normal;text-align:center"><tspan id="tspan3763" x="116.629" y="418.978">👍 RISC +</tspan><tspan id="tspan3765" x="116.629" y="436.478">Frequency</tspan></text><text id="text3755-1" x="231.236" y="483.755" fill="#c30000" fill-opacity="1" stroke="none" stroke-width=".75" font-family="sans-serif" font-size="14" font-stretch="normal" font-style="normal" font-variant="normal" font-weight="normal" letter-spacing="0" text-anchor="middle" transform="matrix(-0.52409705,0.85165855,0.85165855,0.52409705,0,0)" word-spacing="0" writing-mode="lr-tb" xml:space="preserve" style="line-height:1.25;-inkscape-font-specification:'sans-serif, Normal';font-variant-ligatures:normal;font-variant-caps:normal;font-variant-numeric:normal;font-feature-settings:normal;text-align:center"><tspan id="tspan4775" x="231.236" y="483.755">👎 Dennard</tspan><tspan id="tspan1069" x="231.236" y="501.255">Scaling</tspan></text><text id="text3755-1-4" x="346.879" y="431.675" fill="#c30000" fill-opacity="1" stroke="none" stroke-width=".75" font-family="sans-serif" font-size="14" font-stretch="normal" font-style="normal" font-variant="normal" font-weight="normal" letter-spacing="0" text-anchor="middle" transform="matrix(-0.52409705,0.85165855,0.85165855,0.52409705,0,0)" word-spacing="0" writing-mode="lr-tb" xml:space="preserve" style="line-height:1.25;-inkscape-font-specification:'sans-serif, Normal';font-variant-ligatures:normal;font-variant-caps:normal;font-variant-numeric:normal;font-feature-settings:normal;text-align:center"><tspan id="tspan3828" x="346.879" y="431.675">👎 Amdahl&apos;s</tspan><tspan id="tspan3830" x="346.879" y="449.175">Law</tspan></text><text id="text3755-1-4-6" x="335.985" y="524.32" fill="#c30000" fill-opacity="1" stroke="none" stroke-width=".75" font-family="sans-serif" font-size="14" font-stretch="normal" font-style="normal" font-variant="normal" font-weight="normal" letter-spacing="0" text-anchor="middle" transform="matrix(-0.52409705,0.85165855,0.85165855,0.52409705,0,0)" word-spacing="0" writing-mode="lr-tb" xml:space="preserve" style="line-height:1.25;-inkscape-font-specification:'sans-serif, Normal';font-variant-ligatures:normal;font-variant-caps:normal;font-variant-numeric:normal;font-feature-settings:normal;text-align:center"><tspan id="tspan3853">👎 Moore&apos;s</tspan></text><text id="text1077" x="333.589" y="545.058" fill="#c30000" fill-opacity="1" stroke="none" stroke-width=".75" font-family="sans-serif" font-size="14" font-stretch="normal" font-style="normal" font-variant="normal" font-weight="normal" letter-spacing="0" text-anchor="middle" transform="matrix(-0.52409705,0.85165855,0.85165855,0.52409705,0,0)" word-spacing="0" writing-mode="lr-tb" xml:space="preserve" style="line-height:1.25;-inkscape-font-specification:'sans-serif, Normal';font-variant-ligatures:normal;font-variant-caps:normal;font-variant-numeric:normal;font-feature-settings:normal;text-align:center"><tspan id="tspan1079">Law</tspan></text><text id="text3755-6" x="2.474" y="283.047" fill="#c30000" fill-opacity="1" stroke="none" stroke-width=".75" font-family="sans-serif" font-size="14" font-stretch="normal" font-style="normal" font-variant="normal" font-weight="normal" letter-spacing="0" text-anchor="middle" transform="matrix(-0.52409705,0.85165855,0.85165855,0.52409705,0,0)" word-spacing="0" writing-mode="lr-tb" xml:space="preserve" style="line-height:1.25;-inkscape-font-specification:'sans-serif, Normal';font-variant-ligatures:normal;font-variant-caps:normal;font-variant-numeric:normal;font-feature-settings:normal;text-align:center"><tspan id="tspan3763-8" x="2.474" y="283.047" stroke-width=".75">👍 CISC +</tspan><tspan id="tspan3765-7" x="2.474" y="300.547" stroke-width=".75">Frequency</tspan></text><text id="text1747-9" x="280.935" y="570.977" fill="#231f20" fill-opacity="1" fill-rule="nonzero" stroke="none" stroke-width="1" font-family="Helvetica" font-size="8" font-variant="normal" font-weight="normal" transform="matrix(-0.49999998,0.86602541,0.86602541,0.49999998,0,0)" writing-mode="lr-tb" style="-inkscape-font-specification:Helvetica"><tspan id="tspan1745-4" x="280.935 285.383 289.831" y="570.977" stroke-width="1">2014</tspan></text><text id="text1747-3" x="260.897" y="559.408" fill="#231f20" fill-opacity="1" fill-rule="nonzero" stroke="none" stroke-width="1" font-family="Helvetica" font-size="8" font-variant="normal" font-weight="normal" transform="matrix(-0.49999998,0.86602541,0.86602541,0.49999998,0,0)" writing-mode="lr-tb" style="-inkscape-font-specification:Helvetica"><tspan id="tspan1745-5" x="260.897 265.345 269.793" y="559.408" stroke-width="1">2012</tspan></text><text id="text1747-1" x="240.859" y="547.839" fill="#231f20" fill-opacity="1" fill-rule="nonzero" stroke="none" stroke-width="1" font-family="Helvetica" font-size="8" font-variant="normal" font-weight="normal" transform="matrix(-0.49999998,0.86602541,0.86602541,0.49999998,0,0)" writing-mode="lr-tb" style="-inkscape-font-specification:Helvetica"><tspan id="tspan1745-7" x="240.859 245.307 249.755" y="547.839" stroke-width="1">2010</tspan></text><text id="text1747-1-3" x="220.82" y="536.27" fill="#231f20" fill-opacity="1" fill-rule="nonzero" stroke="none" stroke-width="1" font-family="Helvetica" font-size="8" font-stretch="normal" font-style="normal" font-variant="normal" font-weight="normal" text-anchor="start" transform="matrix(-0.49999998,0.86602541,0.86602541,0.49999998,0,0)" writing-mode="lr-tb" style="-inkscape-font-specification:'Helvetica, Normal';font-variant-ligatures:normal;font-variant-caps:normal;font-variant-numeric:normal;font-feature-settings:normal;text-align:start"><tspan id="tspan1291" x="220.82" y="536.27">2008</tspan></text><text id="text1747-1-8" x="200.782" y="524.701" fill="#231f20" fill-opacity="1" fill-rule="nonzero" stroke="none" stroke-width="1" font-family="Helvetica" font-size="8" font-stretch="normal" font-style="normal" font-variant="normal" font-weight="normal" text-anchor="start" transform="matrix(-0.49999998,0.86602541,0.86602541,0.49999998,0,0)" writing-mode="lr-tb" style="-inkscape-font-specification:'Helvetica, Normal';font-variant-ligatures:normal;font-variant-caps:normal;font-variant-numeric:normal;font-feature-settings:normal;text-align:start"><tspan id="tspan1289" x="200.782" y="524.701">2006</tspan></text><text id="text1747-1-4" x="180.744" y="513.132" fill="#231f20" fill-opacity="1" fill-rule="nonzero" stroke="none" stroke-width="1" font-family="Helvetica" font-size="8" font-stretch="normal" font-style="normal" font-variant="normal" font-weight="normal" text-anchor="start" transform="matrix(-0.49999998,0.86602541,0.86602541,0.49999998,0,0)" writing-mode="lr-tb" style="-inkscape-font-specification:'Helvetica, Normal';font-variant-ligatures:normal;font-variant-caps:normal;font-variant-numeric:normal;font-feature-settings:normal;text-align:start"><tspan id="tspan1287" x="180.744" y="513.132">2004</tspan></text><text id="text1747-1-6" x="160.706" y="501.563" fill="#231f20" fill-opacity="1" fill-rule="nonzero" stroke="none" stroke-width="1" font-family="Helvetica" font-size="8" font-variant="normal" font-weight="normal" transform="matrix(-0.49999998,0.86602541,0.86602541,0.49999998,0,0)" writing-mode="lr-tb" style="-inkscape-font-specification:Helvetica"><tspan id="tspan1285" x="160.706" y="501.563">2002</tspan></text><text id="text1747-1-9" x="140.667" y="489.994" fill="#231f20" fill-opacity="1" fill-rule="nonzero" stroke="none" stroke-width="1" font-family="Helvetica" font-size="8" font-variant="normal" font-weight="normal" transform="matrix(-0.49999998,0.86602541,0.86602541,0.49999998,0,0)" writing-mode="lr-tb" style="-inkscape-font-specification:Helvetica"><tspan id="tspan1283" x="140.667" y="489.994">2000</tspan></text><text id="text1747-1-87" x="120.629" y="478.425" fill="#231f20" fill-opacity="1" fill-rule="nonzero" stroke="none" stroke-width="1" font-family="Helvetica" font-size="8" font-stretch="normal" font-style="normal" font-variant="normal" font-weight="normal" text-anchor="start" transform="matrix(-0.49999998,0.86602541,0.86602541,0.49999998,0,0)" writing-mode="lr-tb" style="-inkscape-font-specification:'Helvetica, Normal';font-variant-ligatures:normal;font-variant-caps:normal;font-variant-numeric:normal;font-feature-settings:normal;text-align:start"><tspan id="tspan1281" x="120.629" y="478.425">1998</tspan></text><text id="text1747-1-0" x="100.591" y="466.856" fill="#231f20" fill-opacity="1" fill-rule="nonzero" stroke="none" stroke-width="1" font-family="Helvetica" font-size="8" font-stretch="normal" font-style="normal" font-variant="normal" font-weight="normal" text-anchor="start" transform="matrix(-0.49999998,0.86602541,0.86602541,0.49999998,0,0)" writing-mode="lr-tb" style="-inkscape-font-specification:'Helvetica, Normal';font-variant-ligatures:normal;font-variant-caps:normal;font-variant-numeric:normal;font-feature-settings:normal;text-align:start"><tspan id="tspan1279" x="100.591" y="466.856">1996</tspan></text><text id="text1747-1-37" x="80.553" y="455.286" fill="#231f20" fill-opacity="1" fill-rule="nonzero" stroke="none" stroke-width="1" font-family="Helvetica" font-size="8" font-stretch="normal" font-style="normal" font-variant="normal" font-weight="normal" text-anchor="start" transform="matrix(-0.49999998,0.86602541,0.86602541,0.49999998,0,0)" writing-mode="lr-tb" style="-inkscape-font-specification:'Helvetica, Normal';font-variant-ligatures:normal;font-variant-caps:normal;font-variant-numeric:normal;font-feature-settings:normal;text-align:start"><tspan id="tspan1277" x="80.553" y="455.286">1994</tspan></text><text id="text1747-1-65" x="60.514" y="443.717" fill="#231f20" fill-opacity="1" fill-rule="nonzero" stroke="none" stroke-width="1" font-family="Helvetica" font-size="8" font-stretch="normal" font-style="normal" font-variant="normal" font-weight="normal" text-anchor="start" transform="matrix(-0.49999998,0.86602541,0.86602541,0.49999998,0,0)" writing-mode="lr-tb" style="-inkscape-font-specification:'Helvetica, Normal';font-variant-ligatures:normal;font-variant-caps:normal;font-variant-numeric:normal;font-feature-settings:normal;text-align:start"><tspan id="tspan1275" x="60.514" y="443.717">1992</tspan></text><text id="text1747-1-658" x="40.476" y="432.148" fill="#231f20" fill-opacity="1" fill-rule="nonzero" stroke="none" stroke-width="1" font-family="Helvetica" font-size="8" font-stretch="normal" font-style="normal" font-variant="normal" font-weight="normal" text-anchor="start" transform="matrix(-0.49999998,0.86602541,0.86602541,0.49999998,0,0)" writing-mode="lr-tb" style="-inkscape-font-specification:'Helvetica, Normal';font-variant-ligatures:normal;font-variant-caps:normal;font-variant-numeric:normal;font-feature-settings:normal;text-align:start"><tspan id="tspan1273" x="40.476" y="432.148">1990</tspan></text><text id="text1747-1-60" x="20.438" y="420.579" fill="#231f20" fill-opacity="1" fill-rule="nonzero" stroke="none" stroke-width="1" font-family="Helvetica" font-size="8" font-stretch="normal" font-style="normal" font-variant="normal" font-weight="normal" text-anchor="start" transform="matrix(-0.49999998,0.86602541,0.86602541,0.49999998,0,0)" writing-mode="lr-tb" style="-inkscape-font-specification:'Helvetica, Normal';font-variant-ligatures:normal;font-variant-caps:normal;font-variant-numeric:normal;font-feature-settings:normal;text-align:start"><tspan id="tspan1271" x="20.438" y="420.579">1988</tspan></text><text id="text1747-1-1" x=".4" y="409.01" fill="#231f20" fill-opacity="1" fill-rule="nonzero" stroke="none" stroke-width="1" font-family="Helvetica" font-size="8" font-stretch="normal" font-style="normal" font-variant="normal" font-weight="normal" text-anchor="start" transform="matrix(-0.49999998,0.86602541,0.86602541,0.49999998,0,0)" writing-mode="lr-tb" style="-inkscape-font-specification:'Helvetica, Normal';font-variant-ligatures:normal;font-variant-caps:normal;font-variant-numeric:normal;font-feature-settings:normal;text-align:start"><tspan id="tspan1269" x=".4" y="409.01">1986</tspan></text><text id="text1747-1-870" x="-19.639" y="397.441" fill="#231f20" fill-opacity="1" fill-rule="nonzero" stroke="none" stroke-width="1" font-family="Helvetica" font-size="8" font-stretch="normal" font-style="normal" font-variant="normal" font-weight="normal" text-anchor="start" transform="matrix(-0.49999998,0.86602541,0.86602541,0.49999998,0,0)" writing-mode="lr-tb" style="-inkscape-font-specification:'Helvetica, Normal';font-variant-ligatures:normal;font-variant-caps:normal;font-variant-numeric:normal;font-feature-settings:normal;text-align:start"><tspan id="tspan1267" x="-19.639" y="397.441">1984</tspan></text><text id="text1747-1-2" x="-39.677" y="385.872" fill="#231f20" fill-opacity="1" fill-rule="nonzero" stroke="none" stroke-width="1" font-family="Helvetica" font-size="8" font-variant="normal" font-weight="normal" transform="matrix(-0.49999998,0.86602541,0.86602541,0.49999998,0,0)" writing-mode="lr-tb" style="-inkscape-font-specification:Helvetica"><tspan id="tspan1265" x="-39.677" y="385.872">1982</tspan></text><text id="text1747-1-93" x="-59.715" y="374.303" fill="#231f20" fill-opacity="1" fill-rule="nonzero" stroke="none" stroke-width="1" font-family="Helvetica" font-size="8" font-variant="normal" font-weight="normal" transform="matrix(-0.49999998,0.86602541,0.86602541,0.49999998,0,0)" writing-mode="lr-tb" style="-inkscape-font-specification:Helvetica"><tspan id="tspan1263" x="-59.715" y="374.303">1980</tspan></text><text id="text1747-1-30" x="-79.753" y="362.734" fill="#231f20" fill-opacity="1" fill-rule="nonzero" stroke="none" stroke-width="1" font-family="Helvetica" font-size="8" font-stretch="normal" font-style="normal" font-variant="normal" font-weight="normal" text-anchor="start" transform="matrix(-0.49999998,0.86602541,0.86602541,0.49999998,0,0)" writing-mode="lr-tb" style="-inkscape-font-specification:'Helvetica, Normal';font-variant-ligatures:normal;font-variant-caps:normal;font-variant-numeric:normal;font-feature-settings:normal;text-align:start"><tspan id="tspan1261" x="-79.753" y="362.734">1978</tspan></text></g></svg>