<svg xmlns="http://www.w3.org/2000/svg" 
viewBox="0 0 818 818" version="1">
<rect fill="#5d5d5d" width="818" height="818" rx="15%" />
<path aria-label="logo" fill="#fff" d="M320 66h37v88a1560 1560 0 0 1-11 178 267 267 0 0 1-96 159 312 312 0 0 1-149 66v-73a244 244 0 0 0 135-75c19-23 35-48 47-74 14-31 22-64 27-98 6-42 9-85 10-128V66zM372 66h68l1 491h-69V401 66zM456 66h37c-1 50 1 100 7 149 5 39 12 78 27 114 15 34 36 67 63 93a240 240 0 0 0 121 62v73a308 308 0 0 1-161-77 274 274 0 0 1-78-126c-6-22-8-44-11-65-4-48-6-95-5-143V66z" />
<path aria-label="ATARI" fill="#fff" stroke-width="3" d="M259 774h-38l-15-40h-67l-16 40H86l61-158q7-18 25-18 19 0 26 18zm-63-66l-24-61-23 61zM356 624h-48v150h-36V624h-48v-26h132zM494 774h-37l-15-40h-68l-15 40h-38l61-158q7-18 26-18t25 18zm-63-66l-23-61-24 61zM646 774h-42l-49-57q-11-12-11-19 0-11 10-17l24-10q26-11 26-25 0-8-9-15t-21-7h-36v150h-36V616q0-7 7-13 7-5 17-5h48q26 0 46 14t20 32q0 19-17 34-17 14-42 20zM705 774h-36V598h36z"/>
</svg>
