<?xml version="1.0" standalone="no"?>
<!DOCTYPE svg PUBLIC "-//W3C//DTD SVG 20010904//EN"
 "http://www.w3.org/TR/2001/REC-SVG-20010904/DTD/svg10.dtd">
<svg version="1.0" xmlns="http://www.w3.org/2000/svg"
 width="700.000000pt" height="700.000000pt" viewBox="0 0 700.000000 700.000000"
 preserveAspectRatio="xMidYMid meet">
<metadata>
Created by potrace 1.11, written by Peter Selinger 2001-2013
</metadata>
<g transform="translate(0.000000,700.000000) scale(0.100000,-0.100000)"
fill="#000000" stroke="none">
<path d="M0 3500 l0 -3500 3500 0 3500 0 0 3500 0 3500 -3500 0 -3500 0 0
-3500z m3940 -15 l0 -2555 -415 0 -415 0 0 2555 0 2555 415 0 415 0 0 -2555z
m-923 1683 c-5 -859 -10 -996 -48 -1353 -69 -662 -226 -1159 -508 -1609 -392
-626 -935 -994 -1726 -1171 -116 -26 -437 -85 -462 -85 -10 0 -13 84 -13 388
l0 389 98 16 c255 42 555 152 802 296 320 186 679 528 897 856 244 365 404
804 468 1285 26 194 36 477 42 1178 l6 672 225 0 224 0 -5 -862z m1476 115 c3
-412 10 -818 16 -903 45 -620 248 -1180 596 -1647 98 -132 296 -338 430 -448
322 -265 749 -466 1144 -539 46 -9 85 -16 87 -16 2 0 4 -173 4 -384 l0 -383
-137 24 c-733 127 -1437 481 -1823 915 -368 414 -617 1015 -714 1723 -42 303
-56 722 -56 1638 l0 767 224 0 224 0 5 -747z"/>
</g>
</svg>
