<svg xmlns="http://www.w3.org/2000/svg" xmlns:svg="http://www.w3.org/2000/svg" id="svg120" width="818pt" height="818pt" version="1.1" viewBox="0 0 818 818"><metadata id="metadata126"/><path id="path88" fill="#fff" d="m 319.75,66.020001 c 12.41,-0.04 24.82,0 37.23,-0.03 0.05,29.179999 0,58.359999 0.02,87.539999 0.13,24.36 -0.56,48.71 -1.57,73.04 -1.66,35.13 -3.86,70.34 -9.68,105.07 -4,23.95 -12.28,47.04 -22.56,68.97 -16.76,35.33 -43.1,65.23 -72.71,90.38 -26.49,23.31 -58.11,40.28 -91.36,51.77 -18.81,6.48 -38.17,11.47 -57.88,14.25 0.02,-24.47 0.02,-48.95 0,-73.42 23.73,-3.57 46.54,-11.99 67.73,-23.12 25.14,-13.29 47.77,-31.17 66.82,-52.25 19.67,-21.76 35.35,-46.95 47.25,-73.71 14.01,-30.76 21.51,-63.98 26.61,-97.25 6.39,-42.29 9.05,-85.06 10.04,-127.8 0.14,-14.48 0.02,-28.96 0.06,-43.439999 z" opacity="1"/><path id="path90" fill="#fff" d="m 371.96,66.060001 c 22.84,-0.15 45.69,-0.02 68.54,-0.06 C 440.51,229.67 440.51,393.34 440.5,557 c -22.79,0.05 -45.59,-0.11 -68.38,0.09 C 371.83,504.9 372.08,452.7 372,400.51 371.97,289.03 372.04,177.55 371.96,66.060001 Z" opacity="1"/><path id="path92" fill="#fff" d="m 455.75,66.010001 c 12.34,-0.01 24.68,-0.03 37.01,0.01 -0.4,49.899999 1.3,99.889999 7.25,149.469999 4.87,38.51 11.73,77.3 27.07,113.18 14.54,34.71 35.5,66.97 62.81,92.98 26.08,24.87 57.69,43.99 92.03,54.99 9.58,3.06 19.38,5.47 29.34,6.92 -0.01,24.46 -0.02,48.92 0,73.38 -19.57,-2.66 -38.76,-7.7 -57.44,-14.05 -22.24,-7.74 -43.75,-17.76 -63.51,-30.61 -14.42,-9.27 -27.54,-20.37 -40.14,-31.96 -20.77,-19.15 -39.36,-40.92 -53.32,-65.57 -10.92,-19.19 -18.89,-39.93 -25.13,-61.08 -5.72,-21.26 -8.16,-43.23 -10.38,-65.09 -4.29,-47.23 -5.9,-94.69 -5.59,-142.1 0,-26.82 -0.01,-53.65 0,-80.469999 z" opacity="1"/><path id="path109" fill="#e41b23" d="m 23.42,17.000001 h 771.14 c 12,1.27 22.16,11.44 23.44,23.44 V 782.59 c -1.29,11.98 -11.41,22.1 -23.38,23.41 H 23.42 C 11.42,804.72 1.25,794.55 0,782.53 V 40.430001 c 1.28,-11.99 11.43,-22.14 23.42,-23.43 m 296.33,49.02 C 319.71,80.5 319.83,94.98 319.69,109.46 c -0.99,42.74 -3.65,85.51 -10.04,127.8 -5.1,33.27 -12.6,66.49 -26.61,97.25 -11.9,26.76 -27.58,51.95 -47.25,73.71 -19.05,21.08 -41.68,38.96 -66.82,52.25 -21.19,11.13 -44,19.55 -67.73,23.12 0.02,24.47 0.02,48.95 0,73.42 19.71,-2.78 39.07,-7.77 57.88,-14.25 33.25,-11.49 64.87,-28.46 91.36,-51.77 29.61,-25.15 55.95,-55.05 72.71,-90.38 10.28,-21.93 18.56,-45.02 22.56,-68.97 5.82,-34.73 8.02,-69.94 9.68,-105.07 1.01,-24.33 1.7,-48.68 1.57,-73.04 -0.02,-29.18 0.03,-58.36 -0.02,-87.539999 -12.41,0.03 -24.82,-0.01 -37.23,0.03 m 52.21,0.04 C 372.04,177.55 371.97,289.03 372,400.51 c 0.08,52.19 -0.17,104.39 0.12,156.58 22.79,-0.2 45.59,-0.04 68.38,-0.09 0.01,-163.66 0.01,-327.33 0,-490.999999 -22.85,0.04 -45.7,-0.09 -68.54,0.06 m 83.79,-0.05 c -0.01,26.819999 0,53.649999 0,80.469999 -0.31,47.41 1.3,94.87 5.59,142.1 2.22,21.86 4.66,43.83 10.38,65.09 6.24,21.15 14.21,41.89 25.13,61.08 13.96,24.65 32.55,46.42 53.32,65.57 12.6,11.59 25.72,22.69 40.14,31.96 19.76,12.85 41.27,22.87 63.51,30.61 18.68,6.35 37.87,11.39 57.44,14.05 -0.02,-24.46 -0.01,-48.92 0,-73.38 -9.96,-1.45 -19.76,-3.86 -29.34,-6.92 -34.34,-11 -65.95,-30.12 -92.03,-54.99 -27.31,-26.01 -48.27,-58.27 -62.81,-92.98 -15.34,-35.88 -22.2,-74.67 -27.07,-113.18 -5.95,-49.58 -7.65,-99.57 -7.25,-149.469999 -12.33,-0.04 -24.67,-0.02 -37.01,-0.01" opacity="1"/><flowRoot id="flowRoot18" fill="#000" fill-opacity="1" stroke="none" font-family="sans-serif" font-size="40" font-style="normal" font-weight="normal" letter-spacing="0" transform="matrix(0.75000001,0,0,0.75000001,0,-82)" word-spacing="0" xml:space="preserve" style="line-height:1.25"><flowRegion id="flowRegion20"><rect id="rect22" width="822.8" height="218.273" x="124.728" y="895.222"/></flowRegion><flowPara id="flowPara24"/></flowRoot><text id="text32" x="79.638" y="905.476" fill="#fff" fill-opacity="1" stroke="none" stroke-width="3.21" font-family="SF Atarian System" font-size="308.113" font-stretch="normal" font-style="normal" font-variant="normal" font-weight="normal" letter-spacing="0" text-anchor="start" transform="scale(1.1704633,0.85436254)" word-spacing="0" writing-mode="lr-tb" xml:space="preserve" style="line-height:1.25;-inkscape-font-specification:'SF Atarian System, Normal';font-variant-ligatures:normal;font-variant-caps:normal;font-variant-numeric:normal;font-feature-settings:normal;text-align:start"><tspan font-stretch="normal" style="-inkscape-font-specification:'SF Atarian System, Normal';font-variant-ligatures:normal;font-variant-caps:normal;font-variant-numeric:normal;font-feature-settings:normal;text-align:start" id="tspan30" x="79.638" y="905.476" fill="#fff" stroke-width="3.21" font-family="SF Atarian System" font-size="308.113" font-style="normal" font-variant="normal" font-weight="normal" text-anchor="start" writing-mode="lr-tb">ATARI</tspan></text></svg>