<?xml version="1.0" encoding="UTF-8" standalone="no"?>
<svg
   xmlns:dc="http://purl.org/dc/elements/1.1/"
   xmlns:cc="http://creativecommons.org/ns#"
   xmlns:rdf="http://www.w3.org/1999/02/22-rdf-syntax-ns#"
   xmlns:svg="http://www.w3.org/2000/svg"
   xmlns="http://www.w3.org/2000/svg"
   xmlns:sodipodi="http://sodipodi.sourceforge.net/DTD/sodipodi-0.dtd"
   xmlns:inkscape="http://www.inkscape.org/namespaces/inkscape"
   width="15.313663mm"
   height="14.880039mm"
   viewBox="0 0 15.313662 14.880039"
   version="1.1"
   id="svg3586"
   inkscape:version="1.0.1 (1.0.1+r73)"
   sodipodi:docname="bitonic-sort-2-inputs.svg">
  <defs
     id="defs3580" />
  <sodipodi:namedview
     id="base"
     pagecolor="#ffffff"
     bordercolor="#666666"
     borderopacity="1.0"
     inkscape:pageopacity="0.0"
     inkscape:pageshadow="2"
     inkscape:zoom="7.9195959"
     inkscape:cx="66.241728"
     inkscape:cy="48.460298"
     inkscape:document-units="mm"
     inkscape:current-layer="layer1"
     inkscape:document-rotation="0"
     showgrid="false"
     fit-margin-left="0"
     fit-margin-top="0"
     fit-margin-right="0"
     fit-margin-bottom="0"
     inkscape:window-width="3820"
     inkscape:window-height="2066"
     inkscape:window-x="45"
     inkscape:window-y="34"
     inkscape:window-maximized="0" />
  <metadata
     id="metadata3583">
    <rdf:RDF>
      <cc:Work
         rdf:about="">
        <dc:format>image/svg+xml</dc:format>
        <dc:type
           rdf:resource="http://purl.org/dc/dcmitype/StillImage" />
        <dc:title></dc:title>
      </cc:Work>
    </rdf:RDF>
  </metadata>
  <g
     inkscape:label="Layer 1"
     inkscape:groupmode="layer"
     id="layer1"
     transform="translate(-1.0588452,-140.72665)">
    <path
       d="m 2.615855,147.34123 h 11.90625 v -6.44922 H 2.615855 Z"
       id="path3854-0"
       style="fill:#c5d7ea;fill-opacity:1;fill-rule:evenodd;stroke:none;stroke-width:0.330729" />
    <path
       d="M 2.6158555,140.89201 H 14.522106 v 6.44922 H 2.6158555 Z"
       id="path3858-9"
       style="fill:none;stroke:#919191;stroke-width:0.330729;stroke-linecap:butt;stroke-linejoin:round;stroke-miterlimit:10;stroke-dasharray:none;stroke-opacity:1" />
    <path
       d="m 6.6145789,146.26358 h 3.9687501 v -3.96875 H 6.6145789 Z"
       id="path3840"
       style="fill:#cd925f;fill-opacity:1;fill-rule:evenodd;stroke:none;stroke-width:0.330729" />
    <path
       d="m 6.6145789,142.29484 h 3.9687501 v 3.96875 H 6.6145789 Z"
       id="path3844"
       style="fill:none;stroke:#919191;stroke-width:0.330729;stroke-linecap:butt;stroke-linejoin:round;stroke-miterlimit:10;stroke-dasharray:none;stroke-opacity:1" />
    <path
       d="m 8.4955999,142.27416 -0.04134,3.96875"
       id="path3848"
       style="fill:none;stroke:#000000;stroke-width:0.496094;stroke-linecap:butt;stroke-linejoin:round;stroke-miterlimit:10;stroke-dasharray:none;stroke-opacity:1" />
    <path
       d="m 7.8341789,142.26728 v 0 c 0.0038,-0.36529 0.303017,-0.65835 0.668311,-0.65454 0.365294,0.004 0.658339,0.30301 0.654533,0.6683 -0.0038,0.36529 -0.303018,0.65835 -0.668311,0.65455 -0.365294,-0.004 -0.65834,-0.30302 -0.654533,-0.66831 0,0 0,0 0,0 z"
       id="path3850"
       style="fill:#000000;fill-opacity:1;fill-rule:evenodd;stroke:none;stroke-width:0.330729" />
    <path
       d="m 9.1156819,146.24979 v 0 c -0.0038,0.36529 -0.303018,0.65835 -0.668311,0.65455 -0.365294,-0.004 -0.65834,-0.30302 -0.654533,-0.66831 0.0038,-0.36529 0.303017,-0.65835 0.668311,-0.65454 0.365293,0.004 0.658339,0.30301 0.654533,0.6683 0,0 0,0 0,0 z"
       id="path3852"
       style="fill:#000000;fill-opacity:1;fill-rule:evenodd;stroke:none;stroke-width:0.330729" />
    <path
       d="M 2.6458286,155.44132 H 14.552079 V 148.9921 H 2.6458286 Z"
       id="path3854"
       style="fill:#c5d7ea;fill-opacity:1;fill-rule:evenodd;stroke:none;stroke-width:0.330729" />
    <path
       d="M 2.6458291,148.9921 H 14.552079 v 6.44922 H 2.6458291 Z"
       id="path3858"
       style="fill:none;stroke:#919191;stroke-width:0.330729;stroke-linecap:butt;stroke-linejoin:round;stroke-miterlimit:10;stroke-dasharray:none;stroke-opacity:1" />
    <path
       d="m 6.6145789,154.20108 h 3.9687501 v -3.96875 H 6.6145789 Z"
       id="path3860"
       style="fill:#cd925f;fill-opacity:1;fill-rule:evenodd;stroke:none;stroke-width:0.330729" />
    <path
       d="m 6.6145789,150.23234 h 3.9687501 v 3.96875 H 6.6145789 Z"
       id="path3864"
       style="fill:none;stroke:#919191;stroke-width:0.330729;stroke-linecap:butt;stroke-linejoin:round;stroke-miterlimit:10;stroke-dasharray:none;stroke-opacity:1" />
    <path
       d="m 8.4955999,150.21166 -0.04134,3.96875"
       id="path3868"
       style="fill:none;stroke:#000000;stroke-width:0.496094;stroke-linecap:butt;stroke-linejoin:round;stroke-miterlimit:10;stroke-dasharray:none;stroke-opacity:1" />
    <path
       d="m 7.8341789,150.20478 v 0 c 0.0038,-0.36529 0.303017,-0.65835 0.668311,-0.65454 0.365294,0.004 0.658339,0.30301 0.654533,0.6683 -0.0038,0.36529 -0.303018,0.65835 -0.668311,0.65455 -0.365294,-0.004 -0.65834,-0.30302 -0.654533,-0.66831 0,0 0,0 0,0 z"
       id="path3870"
       style="fill:#000000;fill-opacity:1;fill-rule:evenodd;stroke:none;stroke-width:0.330729" />
    <path
       d="m 9.1156819,154.18729 v 0 c -0.0038,0.36529 -0.303018,0.65835 -0.668311,0.65455 -0.365294,-0.004 -0.65834,-0.30302 -0.654533,-0.66831 0.0038,-0.36529 0.303017,-0.65835 0.668311,-0.65454 0.365293,0.004 0.658339,0.30301 0.654533,0.6683 0,0 0,0 0,0 z"
       id="path3872"
       style="fill:#000000;fill-opacity:1;fill-rule:evenodd;stroke:none;stroke-width:0.330729" />
    <path
       d="m 1.0589623,154.20287 15.3134287,0.0413"
       id="path4044"
       style="fill:none;stroke:#000000;stroke-width:0.0868265;stroke-linecap:butt;stroke-linejoin:round;stroke-miterlimit:10;stroke-dasharray:none;stroke-opacity:1" />
    <path
       d="m 1.0589623,150.23293 15.3134287,0.0413"
       id="path4048"
       style="fill:none;stroke:#000000;stroke-width:0.0868265;stroke-linecap:butt;stroke-linejoin:round;stroke-miterlimit:10;stroke-dasharray:none;stroke-opacity:1" />
    <path
       d="m 1.0589623,146.26299 15.3134287,0.0413"
       id="path4052"
       style="fill:none;stroke:#000000;stroke-width:0.0868265;stroke-linecap:butt;stroke-linejoin:round;stroke-miterlimit:10;stroke-dasharray:none;stroke-opacity:1" />
    <path
       d="m 1.0589623,142.29305 15.3134287,0.0413"
       id="path4056"
       style="fill:none;stroke:#000000;stroke-width:0.0868265;stroke-linecap:butt;stroke-linejoin:round;stroke-miterlimit:10;stroke-dasharray:none;stroke-opacity:1" />
  </g>
</svg>
