<svg xmlns="http://www.w3.org/2000/svg" viewBox="-0.5 -0.5 1012.297 361" height="361" width="1012.297" xmlns:v="https://vecta.io/nano">
<style
 id="style2"
 type="text/css">
  @import url('/assets/css/cascadia.css');
</style>
<style><![CDATA[.J{text-anchor:middle}.K{font-family:Cascadia Code}.L{font-size:18.667px}.M{pointer-events:all}.N{fill:#ffb366}.O{stroke:#000}.P{stroke-miterlimit:10}.Q{stroke-dasharray:3 3}.R{pointer-events:stroke}]]></style><path d="M39.5 10h10v10h-10z" class="M N O"/><text y="18.5" x="477.308" class="J K L">1 cycle</text><text y="59.5" x="450.001" class="J K L">L1 cache hit</text><text y="99.5" x="401.037" class="J K L">Split cache-line load</text><text y="138.5" x="450.001" class="J K L">L2 Cache Hit</text><g class="O"><path d="M39.5 160h10v10h-10zm20 0h10v10h-10zm-20 20h10v10h-10zm20 0h10v10h-10zm20-20h10v10h-10zm20 0h10v10h-10zm-20 20h10v10h-10zm40-20h10v10h-10zm20 0h10v10h-10zm-20 20h10v10h-10zm20 0h10v10h-10zm20-20h10v10h-10zm-60 20h10v10h-10zm60 0h10v10h-10zm20-20h10v10h-10zm0 20h10v10h-10z" class="M N"/><path fill="none" d="M-.5 35h520M-.5 75h520m-520 40h520m-520 40h520" class="P Q R"/><path d="M39.5 120h10v10h-10zm20 0h10v10h-10zm-20 20h10v10h-10zm20 0h10v10h-10zm20-20h10v10h-10zm20 0h10v10h-10zm-20 20h10v10h-10zm40-20h10v10h-10zm20 0h10v10h-10zm-20 20h10v10h-10zm20 0h10v10h-10zm20-20h10v10h-10zm-60 20h10v10h-10zm60 0h10v10h-10zm-120-59h10v10h-10zm20 0h10v10h-10zm-20 20h10v10h-10zm20 0h10v10h-10zm20-20h10v10h-10zm20 0h10v10h-10zm-20 20h10v10h-10zm-40-60h10v10h-10zm20 0h10v10h-10zm-20 20h10v10h-10zm20 0h10v10h-10z" class="M N"/></g><text y="178.5" x="406.506" class="J K L">Branch Misprediction</text><g class="O"><path fill="none" d="M-.5 194.6l520 .4" class="P Q R"/><path d="M39.5 200h10v10h-10zm20 0h10v10h-10zm-20 20h10v10h-10zm20 0h10v10h-10zm20-20h10v10h-10zm20 0h10v10h-10zm-20 20h10v10h-10zm40-20h10v10h-10zm20 0h10v10h-10zm-20 20h10v10h-10zm20 0h10v10h-10zm20-20h10v10h-10zm-60 20h10v10h-10zm60 0h10v10h-10zm20-20h10v10h-10zm0 20h10v10h-10zm20-20h10v10h-10zm0 20h10v10h-10zm20-20h10v10h-10zm0 20h10v10h-10zm-180 20h10v10h-10zm20 0h10v10h-10zm-20 20h10v10h-10zm20 0h10v10h-10zm20-20h10v10h-10zm20 0h10v10h-10zm-20 20h10v10h-10zm40-20h10v10h-10zm20 0h10v10h-10zm-20 20h10v10h-10zm20 0h10v10h-10zm20-20h10v10h-10zm-60 20h10v10h-10zm60 0h10v10h-10zm20-20h10v10h-10zm0 20h10v10h-10zm20-20h10v10h-10zm0 20h10v10h-10zm20-20h10v10h-10zm0 20h10v10h-10zm-180 20h10v10h-10zm20 0h10v10h-10zm-20 20h10v10h-10zm20 0h10v10h-10zm20-20h10v10h-10zm20 0h10v10h-10zm-20 20h10v10h-10zm40-20h10v10h-10zm20 0h10v10h-10zm-20 20h10v10h-10zm20 0h10v10h-10zm20-20h10v10h-10zm-60 20h10v10h-10zm60 0h10v10h-10zm20-20h10v10h-10zm0 20h10v10h-10zm20-20h10v10h-10zm0 20h10v10h-10zm20-20h10v10h-10zm0 20h10v10h-10zm-180 20h10v10h-10zm20 0h10v10h-10zm-20 20h10v10h-10zm20 0h10v10h-10zm20-20h10v10h-10zm20 0h10v10h-10zm-20 20h10v10h-10zm40-20h10v10h-10zm20 0h10v10h-10zm-20 20h10v10h-10zm20 0h10v10h-10zm20-20h10v10h-10zm-60 20h10v10h-10zm60 0h10v10h-10zm20-20h10v10h-10zm0 20h10v10h-10zm20-20h10v10h-10zm0 20h10v10h-10zm20-20h10v10h-10z" class="M N"/></g><text y="278.5" x="450" class="J K L">L3 Cache Hit</text><g class="M N O"><path d="M535.5 35h10v10h-10zm20 0h10v10h-10zm-20 20h10v10h-10zm20 0h10v10h-10zm20-20h10v10h-10zm20 0h10v10h-10zm-20 20h10v10h-10zm40-20h10v10h-10zm20 0h10v10h-10zm-20 20h10v10h-10zm20 0h10v10h-10zm20-20h10v10h-10zm-60 20h10v10h-10zm60 0h10v10h-10zm20-20h10v10h-10zm0 20h10v10h-10zm20-20h10v10h-10zm0 20h10v10h-10zm20-20h10v10h-10zm0 20h10v10h-10zm-180 20h10v10h-10zm20 0h10v10h-10zm-20 20h10v10h-10zm20 0h10v10h-10zm20-20h10v10h-10zm20 0h10v10h-10zm-20 20h10v10h-10zm40-20h10v10h-10zm20 0h10v10h-10zm-20 20h10v10h-10zm20 0h10v10h-10zm20-20h10v10h-10zm-60 20h10v10h-10zm60 0h10v10h-10zm20-20h10v10h-10zm0 20h10v10h-10zm20-20h10v10h-10zm0 20h10v10h-10zm20-20h10v10h-10zm0 20h10v10h-10zm-180 20h10v10h-10zm20 0h10v10h-10zm-20 20h10v10h-10zm20 0h10v10h-10zm20-20h10v10h-10zm20 0h10v10h-10zm-20 20h10v10h-10zm40-20h10v10h-10zm20 0h10v10h-10zm-20 20h10v10h-10zm20 0h10v10h-10zm20-20h10v10h-10zm-60 20h10v10h-10zm60 0h10v10h-10zm20-20h10v10h-10zm0 20h10v10h-10zm20-20h10v10h-10zm0 20h10v10h-10zm20-20h10v10h-10zm0 20h10v10h-10zm-180 20h10v10h-10zm20 0h10v10h-10zm-20 20h10v10h-10zm20 0h10v10h-10zm20-20h10v10h-10zm20 0h10v10h-10zm-20 20h10v10h-10zm40-20h10v10h-10zm20 0h10v10h-10zm-20 20h10v10h-10zm20 0h10v10h-10zm20-20h10v10h-10zm-60 20h10v10h-10zm60 0h10v10h-10zm20-20h10v10h-10zm0 20h10v10h-10zm20-20h10v10h-10zm0 20h10v10h-10zm20-20h10v10h-10zm0 20h10v10h-10zm21-140h10v10h-10zm20 0h10v10h-10zm-20 20h10v10h-10zm20 0h10v10h-10zm20-20h10v10h-10zm20 0h10v10h-10zm-20 20h10v10h-10zm40-20h10v10h-10zm20 0h10v10h-10zm-20 20h10v10h-10zm20 0h10v10h-10zm20-20h10v10h-10zm-60 20h10v10h-10zm60 0h10v10h-10zm20-20h10v10h-10zm0 20h10v10h-10zm20-20h10v10h-10zm0 20h10v10h-10zm20-20h10v10h-10zm0 20h10v10h-10zm-180 20h10v10h-10zm20 0h10v10h-10zm-20 20h10v10h-10zm20 0h10v10h-10zm20-20h10v10h-10zm20 0h10v10h-10zm-20 20h10v10h-10zm40-20h10v10h-10zm20 0h10v10h-10zm-20 20h10v10h-10zm20 0h10v10h-10zm20-20h10v10h-10zm-60 20h10v10h-10zm60 0h10v10h-10zm20-20h10v10h-10zm0 20h10v10h-10zm20-20h10v10h-10zm0 20h10v10h-10zm20-20h10v10h-10zm0 20h10v10h-10zm-180 20h10v10h-10zm20 0h10v10h-10zm-20 20h10v10h-10zm20 0h10v10h-10zm20-20h10v10h-10zm20 0h10v10h-10zm-20 20h10v10h-10zm40-20h10v10h-10z"/><path d="M836.5 115h10v10h-10zm-20 20h10v10h-10zm20 0h10v10h-10zm20-20h10v10h-10zm-60 20h10v10h-10zm60 0h10v10h-10zm20-20h10v10h-10zm0 20h10v10h-10zm20-20h10v10h-10zm0 20h10v10h-10zm20-20h10v10h-10zm0 20h10v10h-10zm-180 20h10v10h-10zm20 0h10v10h-10zm-20 20h10v10h-10zm20 0h10v10h-10zm20-20h10v10h-10zm20 0h10v10h-10zm-20 20h10v10h-10zm40-20h10v10h-10zm20 0h10v10h-10zm-20 20h10v10h-10zm20 0h10v10h-10zm20-20h10v10h-10zm-60 20h10v10h-10zm60 0h10v10h-10zm20-20h10v10h-10zm0 20h10v10h-10zm20-20h10v10h-10zm0 20h10v10h-10zm20-20h10v10h-10zm0 20h10v10h-10zm-381 20h10v10h-10zm20 0h10v10h-10zm-20 20h10v10h-10zm20 0h10v10h-10zm20-20h10v10h-10zm20 0h10v10h-10zm-20 20h10v10h-10zm40-20h10v10h-10zm20 0h10v10h-10zm-20 20h10v10h-10zm20 0h10v10h-10zm20-20h10v10h-10zm-60 20h10v10h-10zm60 0h10v10h-10zm20-20h10v10h-10zm0 20h10v10h-10zm20-20h10v10h-10zm0 20h10v10h-10zm20-20h10v10h-10zm0 20h10v10h-10zm-180 20h10v10h-10zm20 0h10v10h-10zm-20 20h10v10h-10zm20 0h10v10h-10zm20-20h10v10h-10zm20 0h10v10h-10zm-20 20h10v10h-10zm40-20h10v10h-10zm20 0h10v10h-10zm-20 20h10v10h-10zm20 0h10v10h-10zm20-20h10v10h-10zm-60 20h10v10h-10zm60 0h10v10h-10zm20-20h10v10h-10zm0 20h10v10h-10zm20-20h10v10h-10zm0 20h10v10h-10zm20-20h10v10h-10zm0 20h10v10h-10zm-180 20h10v10h-10zm20 0h10v10h-10zm-20 20h10v10h-10zm20 0h10v10h-10zm20-20h10v10h-10zm20 0h10v10h-10zm-20 20h10v10h-10zm40-20h10v10h-10zm20 0h10v10h-10zm-20 20h10v10h-10zm20 0h10v10h-10zm20-20h10v10h-10zm-60 20h10v10h-10zm60 0h10v10h-10zm20-20h10v10h-10zm0 20h10v10h-10zm20-20h10v10h-10zm0 20h10v10h-10zm20-20h10v10h-10zm0 20h10v10h-10zm-180 20h10v10h-10zm20 0h10v10h-10zm20 0h10v10h-10zm20 0h10v10h-10zm20 0h10v10h-10zm20 0h10v10h-10zm20 0h10v10h-10zm20 0h10v10h-10zm20 0h10v10h-10zm20 0h10v10h-10zm21-120h10v10h-10zm20 0h10v10h-10zm-20 20h10v10h-10zm20 0h10v10h-10zm20-20h10v10h-10zm20 0h10v10h-10zm-20 20h10v10h-10zm40-20h10v10h-10zm20 0h10v10h-10zm-20 20h10v10h-10zm20 0h10v10h-10zm20-20h10v10h-10zm-60 20h10v10h-10zm60 0h10v10h-10zm20-20h10v10h-10zm0 20h10v10h-10zm20-20h10v10h-10zm0 20h10v10h-10zm20-20h10v10h-10zm0 20h10v10h-10zm-180 20h10v10h-10zm20 0h10v10h-10zm-20 20h10v10h-10zm20 0h10v10h-10zm20-20h10v10h-10zm20 0h10v10h-10zm-20 20h10v10h-10zm40-20h10v10h-10zm20 0h10v10h-10zm-20 20h10v10h-10zm20 0h10v10h-10zm20-20h10v10h-10zm-60 20h10v10h-10zm60 0h10v10h-10zm20-20h10v10h-10zm0 20h10v10h-10zm20-20h10v10h-10zm0 20h10v10h-10zm20-20h10v10h-10zm0 20h10v10h-10zm-180 20h10v10h-10zm20 0h10v10h-10zm-20 20h10v10h-10zm20 0h10v10h-10zm20-20h10v10h-10zm20 0h10v10h-10zm-20 20h10v10h-10zm40-20h10v10h-10zm20 0h10v10h-10zm-20 20h10v10h-10zm20 0h10v10h-10zm20-20h10v10h-10zm-60 20h10v10h-10zm60 0h10v10h-10zm20-20h10v10h-10zm0 20h10v10h-10zm20-20h10v10h-10zm0 20h10v10h-10zm20-20h10v10h-10zm0 20h10v10h-10zm-180 20h10v10h-10zm20 0h10v10h-10zm20 0h10v10h-10zm20 0h10v10h-10z"/></g><text y="193.5" x="976" class="J K L">RAM</text></svg>
