<?xml version="1.0" encoding="UTF-8" standalone="no"?>
<svg
   xmlns:dc="http://purl.org/dc/elements/1.1/"
   xmlns:cc="http://creativecommons.org/ns#"
   xmlns:rdf="http://www.w3.org/1999/02/22-rdf-syntax-ns#"
   xmlns:svg="http://www.w3.org/2000/svg"
   xmlns="http://www.w3.org/2000/svg"
   xmlns:sodipodi="http://sodipodi.sourceforge.net/DTD/sodipodi-0.dtd"
   xmlns:inkscape="http://www.inkscape.org/namespaces/inkscape"
   inkscape:version="1.0 (1.0+r73+1)"
   sodipodi:docname="latency.svg"
   id="svg1023"
   version="1.1"
   viewBox="-0.5 -0.5 1012.2973 361"
   height="361"
   width="1012.2972">
  <metadata
     id="metadata1029">
    <rdf:RDF>
      <cc:Work
         rdf:about="">
        <dc:format>image/svg+xml</dc:format>
        <dc:type
           rdf:resource="http://purl.org/dc/dcmitype/StillImage" />
        <dc:title />
      </cc:Work>
    </rdf:RDF>
  </metadata>
  <defs
     id="defs1027" />
  <sodipodi:namedview
     inkscape:current-layer="svg1023"
     inkscape:window-maximized="1"
     inkscape:window-y="0"
     inkscape:window-x="0"
     inkscape:cy="256.4793"
     inkscape:cx="272.79713"
     inkscape:zoom="1.7957958"
     fit-margin-bottom="10"
     fit-margin-right="0"
     fit-margin-left="0"
     fit-margin-top="10"
     showgrid="false"
     id="namedview1025"
     inkscape:window-height="1352"
     inkscape:window-width="2560"
     inkscape:pageshadow="2"
     inkscape:pageopacity="0"
     guidetolerance="10"
     gridtolerance="10"
     objecttolerance="10"
     borderopacity="1"
     bordercolor="#666666"
     pagecolor="#ffffff"
     inkscape:document-rotation="0" />
  <style
     id="style977"><![CDATA[.B{text-anchor:middle}.C{font-family:Cascadia Code}.D{font-size:12px}.E{stroke:#000}.F{pointer-events:all}.G{fill:#ffb366}.H{stroke-miterlimit:10}.I{stroke-dasharray:3 3}.J{pointer-events:stroke}]]></style>
  <path
     id="path979"
     class="E F G"
     d="m 39.500385,10 h 10 v 10 h -10 z" />
  <text
     style="font-style:normal;font-variant:normal;font-weight:normal;font-stretch:normal;font-size:18.6667px;font-family:'Cascadia Code';-inkscape-font-specification:'Cascadia Code, Normal';font-variant-ligatures:normal;font-variant-caps:normal;font-variant-numeric:normal;font-variant-east-asian:normal"
     id="text981"
     class="B C D"
     y="18.5"
     x="477.3078">1 cycle</text>
  <text
     style="font-style:normal;font-variant:normal;font-weight:normal;font-stretch:normal;font-size:18.6667px;font-family:'Cascadia Code';-inkscape-font-specification:'Cascadia Code, Normal';font-variant-ligatures:normal;font-variant-caps:normal;font-variant-numeric:normal;font-variant-east-asian:normal"
     id="text983"
     class="B C D"
     y="59.5"
     x="450.00052">L1 cache hit</text>
  <text
     style="font-style:normal;font-variant:normal;font-weight:normal;font-stretch:normal;font-size:18.6667px;font-family:'Cascadia Code';-inkscape-font-specification:'Cascadia Code, Normal';font-variant-ligatures:normal;font-variant-caps:normal;font-variant-numeric:normal;font-variant-east-asian:normal"
     id="text985"
     class="B C D"
     y="99.5"
     x="401.03696">Split cache-line load</text>
  <text
     style="font-style:normal;font-variant:normal;font-weight:normal;font-stretch:normal;font-size:18.6667px;font-family:'Cascadia Code';-inkscape-font-specification:'Cascadia Code, Normal';font-variant-ligatures:normal;font-variant-caps:normal;font-variant-numeric:normal;font-variant-east-asian:normal"
     id="text987"
     class="B C D"
     y="138.5"
     x="450.00052">L2 Cache Hit</text>
  <path
     id="path989"
     class="E G F"
     d="m 39.500385,160 h 10 v 10 h -10 z m 20,0 h 10 v 10 h -10 z m -20,20 h 10 v 10 h -10 z m 20,0 h 10 v 10 h -10 z m 20,-20 h 10 v 10 h -10 z m 20,0 h 9.999995 v 10 h -9.999995 z m -20,20 h 10 v 10 h -10 z m 39.999995,-20 h 10 v 10 h -10 z m 20,0 h 10 v 10 h -10 z m -20,20 h 10 v 10 h -10 z m 20,0 h 10 v 10 h -10 z m 20,-20 h 10 v 10 h -10 z m -59.999995,20 h 9.999995 v 10 h -9.999995 z m 59.999995,0 h 10 v 10 h -10 z m 20,-20 h 10 v 10 h -10 z m 0,20 h 10 v 10 h -10 z" />
  <path
     id="path991"
     class="H I E J"
     fill="none"
     d="M -0.49961538,35 H 519.50038 M -0.49961538,75 H 519.50038 M -0.49961538,115 H 519.50038 M -0.49961538,155 H 519.50038" />
  <path
     id="path993"
     class="G E F"
     d="m 39.500385,120 h 10 v 10 h -10 z m 20,0 h 10 v 10 h -10 z m -20,20 h 10 v 10 h -10 z m 20,0 h 10 v 10 h -10 z m 20,-20 h 10 v 10 h -10 z m 20,0 h 9.999995 v 10 h -9.999995 z m -20,20 h 10 v 10 h -10 z m 39.999995,-20 h 10 v 10 h -10 z m 20,0 h 10 v 10 h -10 z m -20,20 h 10 v 10 h -10 z m 20,0 h 10 v 10 h -10 z m 20,-20 h 10 v 10 h -10 z m -59.999995,20 h 9.999995 v 10 h -9.999995 z m 59.999995,0 h 10 v 10 h -10 z M 39.500385,81 h 10 v 10 h -10 z m 20,0 h 10 v 10 h -10 z m -20,20 h 10 v 10 h -10 z m 20,0 h 10 v 10 h -10 z m 20,-20 h 10 v 10 h -10 z m 20,0 h 9.999995 v 10 h -9.999995 z m -20,20 h 10 v 10 h -10 z m -40,-60 h 10 v 10 h -10 z m 20,0 h 10 v 10 h -10 z m -20,20 h 10 v 10 h -10 z m 20,0 h 10 v 10 h -10 z" />
  <text
     style="font-style:normal;font-variant:normal;font-weight:normal;font-stretch:normal;font-size:18.6667px;font-family:'Cascadia Code';-inkscape-font-specification:'Cascadia Code, Normal';font-variant-ligatures:normal;font-variant-caps:normal;font-variant-numeric:normal;font-variant-east-asian:normal"
     id="text995"
     class="B C D"
     y="178.5"
     x="406.50571">Branch Misprediction</text>
  <g
     transform="translate(-0.49961538,5)"
     id="g1001"
     class="E">
    <path
       id="path997"
       class="H I J"
       fill="none"
       d="M 0,189.6 520,190" />
    <path
       id="path999"
       class="G F"
       d="m 40,195 h 10 v 10 H 40 Z m 20,0 h 10 v 10 H 60 Z m -20,20 h 10 v 10 H 40 Z m 20,0 h 10 v 10 H 60 Z m 20,-20 h 10 v 10 H 80 Z m 20,0 h 10 v 10 h -10 z m -20,20 h 10 v 10 H 80 Z m 40,-20 h 10 v 10 h -10 z m 20,0 h 10 v 10 h -10 z m -20,20 h 10 v 10 h -10 z m 20,0 h 10 v 10 h -10 z m 20,-20 h 10 v 10 h -10 z m -60,20 h 10 v 10 h -10 z m 60,0 h 10 v 10 h -10 z m 20,-20 h 10 v 10 h -10 z m 0,20 h 10 v 10 h -10 z m 20,-20 h 10 v 10 h -10 z m 0,20 h 10 v 10 h -10 z m 20,-20 h 10 v 10 h -10 z m 0,20 h 10 v 10 H 220 Z M 40,235 h 10 v 10 H 40 Z m 20,0 h 10 v 10 H 60 Z m -20,20 h 10 v 10 H 40 Z m 20,0 h 10 v 10 H 60 Z m 20,-20 h 10 v 10 H 80 Z m 20,0 h 10 v 10 h -10 z m -20,20 h 10 v 10 H 80 Z m 40,-20 h 10 v 10 h -10 z m 20,0 h 10 v 10 h -10 z m -20,20 h 10 v 10 h -10 z m 20,0 h 10 v 10 h -10 z m 20,-20 h 10 v 10 h -10 z m -60,20 h 10 v 10 h -10 z m 60,0 h 10 v 10 h -10 z m 20,-20 h 10 v 10 h -10 z m 0,20 h 10 v 10 h -10 z m 20,-20 h 10 v 10 h -10 z m 0,20 h 10 v 10 h -10 z m 20,-20 h 10 v 10 h -10 z m 0,20 h 10 v 10 H 220 Z M 40,275 h 10 v 10 H 40 Z m 20,0 h 10 v 10 H 60 Z m -20,20 h 10 v 10 H 40 Z m 20,0 h 10 v 10 H 60 Z m 20,-20 h 10 v 10 H 80 Z m 20,0 h 10 v 10 h -10 z m -20,20 h 10 v 10 H 80 Z m 40,-20 h 10 v 10 h -10 z m 20,0 h 10 v 10 h -10 z m -20,20 h 10 v 10 h -10 z m 20,0 h 10 v 10 h -10 z m 20,-20 h 10 v 10 h -10 z m -60,20 h 10 v 10 h -10 z m 60,0 h 10 v 10 h -10 z m 20,-20 h 10 v 10 h -10 z m 0,20 h 10 v 10 h -10 z m 20,-20 h 10 v 10 h -10 z m 0,20 h 10 v 10 h -10 z m 20,-20 h 10 v 10 h -10 z m 0,20 h 10 v 10 H 220 Z M 40,315 h 10 v 10 H 40 Z m 20,0 h 10 v 10 H 60 Z m -20,20 h 10 v 10 H 40 Z m 20,0 h 10 v 10 H 60 Z m 20,-20 h 10 v 10 H 80 Z m 20,0 h 10 v 10 h -10 z m -20,20 h 10 v 10 H 80 Z m 40,-20 h 10 v 10 h -10 z m 20,0 h 10 v 10 h -10 z m -20,20 h 10 v 10 h -10 z m 20,0 h 10 v 10 h -10 z m 20,-20 h 10 v 10 h -10 z m -60,20 h 10 v 10 h -10 z m 60,0 h 10 v 10 h -10 z m 20,-20 h 10 v 10 h -10 z m 0,20 h 10 v 10 h -10 z m 20,-20 h 10 v 10 h -10 z m 0,20 h 10 v 10 h -10 z m 20,-20 h 10 v 10 h -10 z" />
  </g>
  <text
     style="-inkscape-font-specification:'Cascadia Code, Normal';font-family:'Cascadia Code';font-weight:normal;font-style:normal;font-stretch:normal;font-variant:normal;font-size:18.6667px;font-variant-ligatures:normal;font-variant-caps:normal;font-variant-numeric:normal;font-variant-east-asian:normal;text-anchor:middle;"
     id="text1003"
     class="B C D"
     y="278.5"
     x="450.0004">L3 Cache Hit</text>
  <g
     transform="translate(495.50038,-320)"
     class="G F"
     id="g1011"
     style="stroke:#000000">
    <path
       d="m 40,355 h 10 v 10 H 40 Z m 20,0 h 10 v 10 H 60 Z m -20,20 h 10 v 10 H 40 Z m 20,0 h 10 v 10 H 60 Z m 20,-20 h 10 v 10 H 80 Z m 20,0 h 10 v 10 h -10 z m -20,20 h 10 v 10 H 80 Z m 40,-20 h 10 v 10 h -10 z m 20,0 h 10 v 10 h -10 z m -20,20 h 10 v 10 h -10 z m 20,0 h 10 v 10 h -10 z m 20,-20 h 10 v 10 h -10 z m -60,20 h 10 v 10 h -10 z m 60,0 h 10 v 10 h -10 z m 20,-20 h 10 v 10 h -10 z m 0,20 h 10 v 10 h -10 z m 20,-20 h 10 v 10 h -10 z m 0,20 h 10 v 10 h -10 z m 20,-20 h 10 v 10 h -10 z m 0,20 h 10 v 10 H 220 Z M 40,395 h 10 v 10 H 40 Z m 20,0 h 10 v 10 H 60 Z m -20,20 h 10 v 10 H 40 Z m 20,0 h 10 v 10 H 60 Z m 20,-20 h 10 v 10 H 80 Z m 20,0 h 10 v 10 h -10 z m -20,20 h 10 v 10 H 80 Z m 40,-20 h 10 v 10 h -10 z m 20,0 h 10 v 10 h -10 z m -20,20 h 10 v 10 h -10 z m 20,0 h 10 v 10 h -10 z m 20,-20 h 10 v 10 h -10 z m -60,20 h 10 v 10 h -10 z m 60,0 h 10 v 10 h -10 z m 20,-20 h 10 v 10 h -10 z m 0,20 h 10 v 10 h -10 z m 20,-20 h 10 v 10 h -10 z m 0,20 h 10 v 10 h -10 z m 20,-20 h 10 v 10 h -10 z m 0,20 h 10 v 10 H 220 Z M 40,435 h 10 v 10 H 40 Z m 20,0 h 10 v 10 H 60 Z m -20,20 h 10 v 10 H 40 Z m 20,0 h 10 v 10 H 60 Z m 20,-20 h 10 v 10 H 80 Z m 20,0 h 10 v 10 h -10 z m -20,20 h 10 v 10 H 80 Z m 40,-20 h 10 v 10 h -10 z m 20,0 h 10 v 10 h -10 z m -20,20 h 10 v 10 h -10 z m 20,0 h 10 v 10 h -10 z m 20,-20 h 10 v 10 h -10 z m -60,20 h 10 v 10 h -10 z m 60,0 h 10 v 10 h -10 z m 20,-20 h 10 v 10 h -10 z m 0,20 h 10 v 10 h -10 z m 20,-20 h 10 v 10 h -10 z m 0,20 h 10 v 10 h -10 z m 20,-20 h 10 v 10 h -10 z m 0,20 h 10 v 10 H 220 Z M 40,475 h 10 v 10 H 40 Z m 20,0 h 10 v 10 H 60 Z m -20,20 h 10 v 10 H 40 Z m 20,0 h 10 v 10 H 60 Z m 20,-20 h 10 v 10 H 80 Z m 20,0 h 10 v 10 h -10 z m -20,20 h 10 v 10 H 80 Z m 40,-20 h 10 v 10 h -10 z m 20,0 h 10 v 10 h -10 z m -20,20 h 10 v 10 h -10 z m 20,0 h 10 v 10 h -10 z m 20,-20 h 10 v 10 h -10 z m -60,20 h 10 v 10 h -10 z m 60,0 h 10 v 10 h -10 z m 20,-20 h 10 v 10 h -10 z m 0,20 h 10 v 10 h -10 z m 20,-20 h 10 v 10 h -10 z m 0,20 h 10 v 10 h -10 z m 20,-20 h 10 v 10 h -10 z m 0,20 h 10 v 10 h -10 z m 21,-140 h 10 v 10 h -10 z m 20,0 h 10 v 10 h -10 z m -20,20 h 10 v 10 h -10 z m 20,0 h 10 v 10 h -10 z m 20,-20 h 10 v 10 h -10 z m 20,0 h 10 v 10 h -10 z m -20,20 h 10 v 10 h -10 z m 40,-20 h 10 v 10 h -10 z m 20,0 h 10 v 10 h -10 z m -20,20 h 10 v 10 h -10 z m 20,0 h 10 v 10 h -10 z m 20,-20 h 10 v 10 h -10 z m -60,20 h 10 v 10 h -10 z m 60,0 h 10 v 10 h -10 z m 20,-20 h 10 v 10 h -10 z m 0,20 h 10 v 10 h -10 z m 20,-20 h 10 v 10 h -10 z m 0,20 h 10 v 10 h -10 z m 20,-20 h 10 v 10 h -10 z m 0,20 h 10 v 10 h -10 z m -180,20 h 10 v 10 h -10 z m 20,0 h 10 v 10 h -10 z m -20,20 h 10 v 10 h -10 z m 20,0 h 10 v 10 h -10 z m 20,-20 h 10 v 10 h -10 z m 20,0 h 10 v 10 h -10 z m -20,20 h 10 v 10 h -10 z m 40,-20 h 10 v 10 h -10 z m 20,0 h 10 v 10 h -10 z m -20,20 h 10 v 10 h -10 z m 20,0 h 10 v 10 h -10 z m 20,-20 h 10 v 10 h -10 z m -60,20 h 10 v 10 h -10 z m 60,0 h 10 v 10 h -10 z m 20,-20 h 10 v 10 h -10 z m 0,20 h 10 v 10 h -10 z m 20,-20 h 10 v 10 h -10 z m 0,20 h 10 v 10 h -10 z m 20,-20 h 10 v 10 h -10 z m 0,20 h 10 v 10 h -10 z m -180,20 h 10 v 10 h -10 z m 20,0 h 10 v 10 h -10 z m -20,20 h 10 v 10 h -10 z m 20,0 h 10 v 10 h -10 z m 20,-20 h 10 v 10 h -10 z m 20,0 h 10 v 10 h -10 z m -20,20 h 10 v 10 h -10 z m 40,-20 h 10 v 10 h -10 z"
       id="path1007" />
    <path
       d="m 341,435 h 10 v 10 h -10 z m -20,20 h 10 v 10 h -10 z m 20,0 h 10 v 10 h -10 z m 20,-20 h 10 v 10 h -10 z m -60,20 h 10 v 10 h -10 z m 60,0 h 10 v 10 h -10 z m 20,-20 h 10 v 10 h -10 z m 0,20 h 10 v 10 h -10 z m 20,-20 h 10 v 10 h -10 z m 0,20 h 10 v 10 h -10 z m 20,-20 h 10 v 10 h -10 z m 0,20 h 10 v 10 h -10 z m -180,20 h 10 v 10 h -10 z m 20,0 h 10 v 10 h -10 z m -20,20 h 10 v 10 h -10 z m 20,0 h 10 v 10 h -10 z m 20,-20 h 10 v 10 h -10 z m 20,0 h 10 v 10 h -10 z m -20,20 h 10 v 10 h -10 z m 40,-20 h 10 v 10 h -10 z m 20,0 h 10 v 10 h -10 z m -20,20 h 10 v 10 h -10 z m 20,0 h 10 v 10 h -10 z m 20,-20 h 10 v 10 h -10 z m -60,20 h 10 v 10 h -10 z m 60,0 h 10 v 10 h -10 z m 20,-20 h 10 v 10 h -10 z m 0,20 h 10 v 10 h -10 z m 20,-20 h 10 v 10 h -10 z m 0,20 h 10 v 10 h -10 z m 20,-20 h 10 v 10 h -10 z m 0,20 h 10 v 10 H 421 Z M 40,515 h 10 v 10 H 40 Z m 20,0 h 10 v 10 H 60 Z m -20,20 h 10 v 10 H 40 Z m 20,0 h 10 v 10 H 60 Z m 20,-20 h 10 v 10 H 80 Z m 20,0 h 10 v 10 h -10 z m -20,20 h 10 v 10 H 80 Z m 40,-20 h 10 v 10 h -10 z m 20,0 h 10 v 10 h -10 z m -20,20 h 10 v 10 h -10 z m 20,0 h 10 v 10 h -10 z m 20,-20 h 10 v 10 h -10 z m -60,20 h 10 v 10 h -10 z m 60,0 h 10 v 10 h -10 z m 20,-20 h 10 v 10 h -10 z m 0,20 h 10 v 10 h -10 z m 20,-20 h 10 v 10 h -10 z m 0,20 h 10 v 10 h -10 z m 20,-20 h 10 v 10 h -10 z m 0,20 h 10 v 10 H 220 Z M 40,555 h 10 v 10 H 40 Z m 20,0 h 10 v 10 H 60 Z m -20,20 h 10 v 10 H 40 Z m 20,0 h 10 v 10 H 60 Z m 20,-20 h 10 v 10 H 80 Z m 20,0 h 10 v 10 h -10 z m -20,20 h 10 v 10 H 80 Z m 40,-20 h 10 v 10 h -10 z m 20,0 h 10 v 10 h -10 z m -20,20 h 10 v 10 h -10 z m 20,0 h 10 v 10 h -10 z m 20,-20 h 10 v 10 h -10 z m -60,20 h 10 v 10 h -10 z m 60,0 h 10 v 10 h -10 z m 20,-20 h 10 v 10 h -10 z m 0,20 h 10 v 10 h -10 z m 20,-20 h 10 v 10 h -10 z m 0,20 h 10 v 10 h -10 z m 20,-20 h 10 v 10 h -10 z m 0,20 h 10 v 10 H 220 Z M 40,595 h 10 v 10 H 40 Z m 20,0 h 10 v 10 H 60 Z m -20,20 h 10 v 10 H 40 Z m 20,0 h 10 v 10 H 60 Z m 20,-20 h 10 v 10 H 80 Z m 20,0 h 10 v 10 h -10 z m -20,20 h 10 v 10 H 80 Z m 40,-20 h 10 v 10 h -10 z m 20,0 h 10 v 10 h -10 z m -20,20 h 10 v 10 h -10 z m 20,0 h 10 v 10 h -10 z m 20,-20 h 10 v 10 h -10 z m -60,20 h 10 v 10 h -10 z m 60,0 h 10 v 10 h -10 z m 20,-20 h 10 v 10 h -10 z m 0,20 h 10 v 10 h -10 z m 20,-20 h 10 v 10 h -10 z m 0,20 h 10 v 10 h -10 z m 20,-20 h 10 v 10 h -10 z m 0,20 h 10 v 10 H 220 Z M 40,635 h 10 v 10 H 40 Z m 20,0 h 10 v 10 H 60 Z m 20,0 h 10 v 10 H 80 Z m 20,0 h 10 v 10 h -10 z m 20,0 h 10 v 10 h -10 z m 20,0 h 10 v 10 h -10 z m 20,0 h 10 v 10 h -10 z m 20,0 h 10 v 10 h -10 z m 20,0 h 10 v 10 h -10 z m 20,0 h 10 v 10 h -10 z m 21,-120 h 10 v 10 h -10 z m 20,0 h 10 v 10 h -10 z m -20,20 h 10 v 10 h -10 z m 20,0 h 10 v 10 h -10 z m 20,-20 h 10 v 10 h -10 z m 20,0 h 10 v 10 h -10 z m -20,20 h 10 v 10 h -10 z m 40,-20 h 10 v 10 h -10 z m 20,0 h 10 v 10 h -10 z m -20,20 h 10 v 10 h -10 z m 20,0 h 10 v 10 h -10 z m 20,-20 h 10 v 10 h -10 z m -60,20 h 10 v 10 h -10 z m 60,0 h 10 v 10 h -10 z m 20,-20 h 10 v 10 h -10 z m 0,20 h 10 v 10 h -10 z m 20,-20 h 10 v 10 h -10 z m 0,20 h 10 v 10 h -10 z m 20,-20 h 10 v 10 h -10 z m 0,20 h 10 v 10 h -10 z m -180,20 h 10 v 10 h -10 z m 20,0 h 10 v 10 h -10 z m -20,20 h 10 v 10 h -10 z m 20,0 h 10 v 10 h -10 z m 20,-20 h 10 v 10 h -10 z m 20,0 h 10 v 10 h -10 z m -20,20 h 10 v 10 h -10 z m 40,-20 h 10 v 10 h -10 z m 20,0 h 10 v 10 h -10 z m -20,20 h 10 v 10 h -10 z m 20,0 h 10 v 10 h -10 z m 20,-20 h 10 v 10 h -10 z m -60,20 h 10 v 10 h -10 z m 60,0 h 10 v 10 h -10 z m 20,-20 h 10 v 10 h -10 z m 0,20 h 10 v 10 h -10 z m 20,-20 h 10 v 10 h -10 z m 0,20 h 10 v 10 h -10 z m 20,-20 h 10 v 10 h -10 z m 0,20 h 10 v 10 h -10 z m -180,20 h 10 v 10 h -10 z m 20,0 h 10 v 10 h -10 z m -20,20 h 10 v 10 h -10 z m 20,0 h 10 v 10 h -10 z m 20,-20 h 10 v 10 h -10 z m 20,0 h 10 v 10 h -10 z m -20,20 h 10 v 10 h -10 z m 40,-20 h 10 v 10 h -10 z m 20,0 h 10 v 10 h -10 z m -20,20 h 10 v 10 h -10 z m 20,0 h 10 v 10 h -10 z m 20,-20 h 10 v 10 h -10 z m -60,20 h 10 v 10 h -10 z m 60,0 h 10 v 10 h -10 z m 20,-20 h 10 v 10 h -10 z m 0,20 h 10 v 10 h -10 z m 20,-20 h 10 v 10 h -10 z m 0,20 h 10 v 10 h -10 z m 20,-20 h 10 v 10 h -10 z m 0,20 h 10 v 10 h -10 z m -180,20 h 10 v 10 h -10 z m 20,0 h 10 v 10 h -10 z m 20,0 h 10 v 10 h -10 z m 20,0 h 10 v 10 h -10 z"
       id="path1009" />
  </g>
  <text
     style="-inkscape-font-specification:'Cascadia Code, Normal';font-family:'Cascadia Code';font-weight:normal;font-style:normal;font-stretch:normal;font-variant:normal;font-size:18.6667px;font-variant-ligatures:normal;font-variant-caps:normal;font-variant-numeric:normal;font-variant-east-asian:normal;text-anchor:middle;"
     id="text1015"
     class="B C D"
     y="193.5"
     x="976.00037">RAM</text>
</svg>
