<svg xmlns="http://www.w3.org/2000/svg" xmlns:svg="http://www.w3.org/2000/svg" id="svg4603" width="595.504" height="258.026" version="1.1" viewBox="0 0 157.561 68.269"><defs id="defs4597"><marker id="Arrow2Lend" orient="auto" overflow="visible" refX="0" refY="0"><path id="path5632" fill="red" fill-opacity="1" fill-rule="evenodd" stroke="red" stroke-linejoin="round" stroke-opacity="1" stroke-width=".625" d="M 8.7185878,4.0337352 L -2.2072895,0.016013256 L 8.7185884,-4.0017078 C 6.9730900,-1.6296469 6.9831476,1.6157441 8.7185878,4.0337352 z" transform="scale(1.1) rotate(180) translate(1,0)"/></marker><marker id="DotL" orient="auto" overflow="visible" refX="0" refY="0"><path id="path5672" fill="red" fill-opacity="1" fill-rule="evenodd" stroke="red" stroke-opacity="1" stroke-width="1pt" d="M -2.5,-1.0 C -2.5,1.7600000 -4.7400000,4.0 -7.5,4.0 C -10.260000,4.0 -12.5,1.7600000 -12.5,-1.0 C -12.5,-3.7600000 -10.260000,-6.0 -7.5,-6.0 C -4.7400000,-6.0 -2.5,-3.7600000 -2.5,-1.0 z" transform="scale(0.8) translate(7.4, 1)"/></marker><marker id="DotL-2" orient="auto" overflow="visible" refX="0" refY="0"><path id="path5672-7" fill="red" fill-opacity="1" fill-rule="evenodd" stroke="red" stroke-opacity="1" stroke-width="1.333" d="m -2.5,-1 c 0,2.76 -2.24,5 -5,5 -2.76,0 -5,-2.24 -5,-5 0,-2.76 2.24,-5 5,-5 2.76,0 5,2.24 5,5 z" transform="matrix(0.8,0,0,0.8,5.92,0.8)"/></marker><marker id="Arrow2Lend-0" orient="auto" overflow="visible" refX="0" refY="0"><path id="path5632-9" fill="red" fill-opacity="1" fill-rule="evenodd" stroke="red" stroke-linejoin="round" stroke-opacity="1" stroke-width=".625" d="M 8.7185878,4.0337352 -2.2072895,0.01601326 8.7185884,-4.0017078 c -1.7454984,2.3720609 -1.7354408,5.6174519 -6e-7,8.035443 z" transform="matrix(-1.1,0,0,-1.1,-1.1,0)"/></marker><marker id="DotL-6" orient="auto" overflow="visible" refX="0" refY="0"><path id="path5672-0" fill="red" fill-opacity="1" fill-rule="evenodd" stroke="red" stroke-opacity="1" stroke-width="1.333" d="m -2.5,-1 c 0,2.76 -2.24,5 -5,5 -2.76,0 -5,-2.24 -5,-5 0,-2.76 2.24,-5 5,-5 2.76,0 5,2.24 5,5 z" transform="matrix(0.8,0,0,0.8,5.92,0.8)"/></marker><marker id="Arrow2Lend-6" orient="auto" overflow="visible" refX="0" refY="0"><path id="path5632-2" fill="red" fill-opacity="1" fill-rule="evenodd" stroke="red" stroke-linejoin="round" stroke-opacity="1" stroke-width=".625" d="M 8.7185878,4.0337352 -2.2072895,0.01601326 8.7185884,-4.0017078 c -1.7454984,2.3720609 -1.7354408,5.6174519 -6e-7,8.035443 z" transform="matrix(-1.1,0,0,-1.1,-1.1,0)"/></marker><marker id="DotL-1" orient="auto" overflow="visible" refX="0" refY="0"><path id="path5672-8" fill="red" fill-opacity="1" fill-rule="evenodd" stroke="red" stroke-opacity="1" stroke-width="1.333" d="m -2.5,-1 c 0,2.76 -2.24,5 -5,5 -2.76,0 -5,-2.24 -5,-5 0,-2.76 2.24,-5 5,-5 2.76,0 5,2.24 5,5 z" transform="matrix(0.8,0,0,0.8,5.92,0.8)"/></marker><marker id="Arrow2Lend-7" orient="auto" overflow="visible" refX="0" refY="0"><path id="path5632-92" fill="red" fill-opacity="1" fill-rule="evenodd" stroke="red" stroke-linejoin="round" stroke-opacity="1" stroke-width=".625" d="M 8.7185878,4.0337352 -2.2072895,0.01601326 8.7185884,-4.0017078 c -1.7454984,2.3720609 -1.7354408,5.6174519 -6e-7,8.035443 z" transform="matrix(-1.1,0,0,-1.1,-1.1,0)"/></marker><marker id="DotL-23" orient="auto" overflow="visible" refX="0" refY="0"><path id="path5672-75" fill="red" fill-opacity="1" fill-rule="evenodd" stroke="red" stroke-opacity="1" stroke-width="1.333" d="m -2.5,-1 c 0,2.76 -2.24,5 -5,5 -2.76,0 -5,-2.24 -5,-5 0,-2.76 2.24,-5 5,-5 2.76,0 5,2.24 5,5 z" transform="matrix(0.8,0,0,0.8,5.92,0.8)"/></marker><marker id="Arrow2Lend-9" orient="auto" overflow="visible" refX="0" refY="0"><path id="path5632-22" fill="red" fill-opacity="1" fill-rule="evenodd" stroke="red" stroke-linejoin="round" stroke-opacity="1" stroke-width=".625" d="M 8.7185878,4.0337352 -2.2072895,0.01601326 8.7185884,-4.0017078 c -1.7454984,2.3720609 -1.7354408,5.6174519 -6e-7,8.035443 z" transform="matrix(-1.1,0,0,-1.1,-1.1,0)"/></marker><marker id="DotL-2-3" orient="auto" overflow="visible" refX="0" refY="0"><path id="path5672-7-6" fill="red" fill-opacity="1" fill-rule="evenodd" stroke="red" stroke-opacity="1" stroke-width="1.333" d="m -2.5,-1 c 0,2.76 -2.24,5 -5,5 -2.76,0 -5,-2.24 -5,-5 0,-2.76 2.24,-5 5,-5 2.76,0 5,2.24 5,5 z" transform="matrix(0.8,0,0,0.8,5.92,0.8)"/></marker><marker id="Arrow2Lend-0-7" orient="auto" overflow="visible" refX="0" refY="0"><path id="path5632-9-5" fill="red" fill-opacity="1" fill-rule="evenodd" stroke="red" stroke-linejoin="round" stroke-opacity="1" stroke-width=".625" d="M 8.7185878,4.0337352 -2.2072895,0.01601326 8.7185884,-4.0017078 c -1.7454984,2.3720609 -1.7354408,5.6174519 -6e-7,8.035443 z" transform="matrix(-1.1,0,0,-1.1,-1.1,0)"/></marker><marker id="DotL-2-3-5" orient="auto" overflow="visible" refX="0" refY="0"><path id="path5672-7-6-6" fill="red" fill-opacity="1" fill-rule="evenodd" stroke="red" stroke-opacity="1" stroke-width="1.333" d="m -2.5,-1 c 0,2.76 -2.24,5 -5,5 -2.76,0 -5,-2.24 -5,-5 0,-2.76 2.24,-5 5,-5 2.76,0 5,2.24 5,5 z" transform="matrix(0.8,0,0,0.8,5.92,0.8)"/></marker><marker id="Arrow2Lend-0-7-2" orient="auto" overflow="visible" refX="0" refY="0"><path id="path5632-9-5-9" fill="red" fill-opacity="1" fill-rule="evenodd" stroke="red" stroke-linejoin="round" stroke-opacity="1" stroke-width=".625" d="M 8.7185878,4.0337352 -2.2072895,0.01601326 8.7185884,-4.0017078 c -1.7454984,2.3720609 -1.7354408,5.6174519 -6e-7,8.035443 z" transform="matrix(-1.1,0,0,-1.1,-1.1,0)"/></marker><marker id="DotL-2-1" orient="auto" overflow="visible" refX="0" refY="0"><path id="path5672-7-2" fill="red" fill-opacity="1" fill-rule="evenodd" stroke="red" stroke-opacity="1" stroke-width="1.333" d="m -2.5,-1 c 0,2.76 -2.24,5 -5,5 -2.76,0 -5,-2.24 -5,-5 0,-2.76 2.24,-5 5,-5 2.76,0 5,2.24 5,5 z" transform="matrix(0.8,0,0,0.8,5.92,0.8)"/></marker><marker id="Arrow2Lend-0-70" orient="auto" overflow="visible" refX="0" refY="0"><path id="path5632-9-9" fill="red" fill-opacity="1" fill-rule="evenodd" stroke="red" stroke-linejoin="round" stroke-opacity="1" stroke-width=".625" d="M 8.7185878,4.0337352 -2.2072895,0.01601326 8.7185884,-4.0017078 c -1.7454984,2.3720609 -1.7354408,5.6174519 -6e-7,8.035443 z" transform="matrix(-1.1,0,0,-1.1,-1.1,0)"/></marker><marker id="DotL-2-3-5-6" orient="auto" overflow="visible" refX="0" refY="0"><path id="path5672-7-6-6-2" fill="red" fill-opacity="1" fill-rule="evenodd" stroke="red" stroke-opacity="1" stroke-width="1.333" d="m -2.5,-1 c 0,2.76 -2.24,5 -5,5 -2.76,0 -5,-2.24 -5,-5 0,-2.76 2.24,-5 5,-5 2.76,0 5,2.24 5,5 z" transform="matrix(0.8,0,0,0.8,5.92,0.8)"/></marker><marker id="Arrow2Lend-0-7-2-6" orient="auto" overflow="visible" refX="0" refY="0"><path id="path5632-9-5-9-1" fill="red" fill-opacity="1" fill-rule="evenodd" stroke="red" stroke-linejoin="round" stroke-opacity="1" stroke-width=".625" d="M 8.7185878,4.0337352 -2.2072895,0.01601326 8.7185884,-4.0017078 c -1.7454984,2.3720609 -1.7354408,5.6174519 -6e-7,8.035443 z" transform="matrix(-1.1,0,0,-1.1,-1.1,0)"/></marker><marker id="DotL-2-1-8" orient="auto" overflow="visible" refX="0" refY="0"><path id="path5672-7-2-7" fill="red" fill-opacity="1" fill-rule="evenodd" stroke="red" stroke-opacity="1" stroke-width="1.333" d="m -2.5,-1 c 0,2.76 -2.24,5 -5,5 -2.76,0 -5,-2.24 -5,-5 0,-2.76 2.24,-5 5,-5 2.76,0 5,2.24 5,5 z" transform="matrix(0.8,0,0,0.8,5.92,0.8)"/></marker><marker id="Arrow2Lend-0-70-9" orient="auto" overflow="visible" refX="0" refY="0"><path id="path5632-9-9-2" fill="red" fill-opacity="1" fill-rule="evenodd" stroke="red" stroke-linejoin="round" stroke-opacity="1" stroke-width=".625" d="M 8.7185878,4.0337352 -2.2072895,0.01601326 8.7185884,-4.0017078 c -1.7454984,2.3720609 -1.7354408,5.6174519 -6e-7,8.035443 z" transform="matrix(-1.1,0,0,-1.1,-1.1,0)"/></marker><marker id="DotL-2-3-0" orient="auto" overflow="visible" refX="0" refY="0"><path id="path5672-7-6-2" fill="red" fill-opacity="1" fill-rule="evenodd" stroke="red" stroke-opacity="1" stroke-width="1.333" d="m -2.5,-1 c 0,2.76 -2.24,5 -5,5 -2.76,0 -5,-2.24 -5,-5 0,-2.76 2.24,-5 5,-5 2.76,0 5,2.24 5,5 z" transform="matrix(0.8,0,0,0.8,5.92,0.8)"/></marker><marker id="Arrow2Lend-0-7-3" orient="auto" overflow="visible" refX="0" refY="0"><path id="path5632-9-5-7" fill="red" fill-opacity="1" fill-rule="evenodd" stroke="red" stroke-linejoin="round" stroke-opacity="1" stroke-width=".625" d="M 8.7185878,4.0337352 -2.2072895,0.01601326 8.7185884,-4.0017078 c -1.7454984,2.3720609 -1.7354408,5.6174519 -6e-7,8.035443 z" transform="matrix(-1.1,0,0,-1.1,-1.1,0)"/></marker><marker id="DotL-2-5" orient="auto" overflow="visible" refX="0" refY="0"><path id="path5672-7-9" fill="red" fill-opacity="1" fill-rule="evenodd" stroke="red" stroke-opacity="1" stroke-width="1.333" d="m -2.5,-1 c 0,2.76 -2.24,5 -5,5 -2.76,0 -5,-2.24 -5,-5 0,-2.76 2.24,-5 5,-5 2.76,0 5,2.24 5,5 z" transform="matrix(0.8,0,0,0.8,5.92,0.8)"/></marker><marker id="Arrow2Lend-0-2" orient="auto" overflow="visible" refX="0" refY="0"><path id="path5632-9-2" fill="red" fill-opacity="1" fill-rule="evenodd" stroke="red" stroke-linejoin="round" stroke-opacity="1" stroke-width=".625" d="M 8.7185878,4.0337352 -2.2072895,0.01601326 8.7185884,-4.0017078 c -1.7454984,2.3720609 -1.7354408,5.6174519 -6e-7,8.035443 z" transform="matrix(-1.1,0,0,-1.1,-1.1,0)"/></marker><marker id="DotL-2-6" orient="auto" overflow="visible" refX="0" refY="0"><path id="path5672-7-1" fill="red" fill-opacity="1" fill-rule="evenodd" stroke="red" stroke-opacity="1" stroke-width="1.333" d="m -2.5,-1 c 0,2.76 -2.24,5 -5,5 -2.76,0 -5,-2.24 -5,-5 0,-2.76 2.24,-5 5,-5 2.76,0 5,2.24 5,5 z" transform="matrix(0.8,0,0,0.8,5.92,0.8)"/></marker><marker id="Arrow2Lend-0-29" orient="auto" overflow="visible" refX="0" refY="0"><path id="path5632-9-3" fill="red" fill-opacity="1" fill-rule="evenodd" stroke="red" stroke-linejoin="round" stroke-opacity="1" stroke-width=".625" d="M 8.7185878,4.0337352 -2.2072895,0.01601326 8.7185884,-4.0017078 c -1.7454984,2.3720609 -1.7354408,5.6174519 -6e-7,8.035443 z" transform="matrix(-1.1,0,0,-1.1,-1.1,0)"/></marker></defs><metadata id="metadata4600"/><g id="layer1" transform="translate(-35.417084,-14.581008)"><path id="path8815" fill="#ffe5ca" fill-opacity="1" fill-rule="evenodd" stroke="none" stroke-width=".343" d="M 35.514151,20.806095 H 192.88055 v -6.213 H 35.514151 Z"/><path id="path8819" fill="#c2e0ae" fill-opacity="1" fill-rule="evenodd" stroke="none" stroke-width=".485" d="M 35.514151,26.970666 H 192.88055 v -6.21311 H 35.514151 Z"/><path id="path8823" fill="#ffe5ca" fill-opacity="1" fill-rule="evenodd" stroke="none" stroke-width=".343" d="M 35.562686,33.182299 H 192.92909 v -6.213 H 35.562686 Z"/><path id="path8827" fill="#c2e0ae" fill-opacity="1" fill-rule="evenodd" stroke="none" stroke-width=".485" d="M 35.562686,39.39541 H 192.92909 V 33.1823 H 35.562686 Z"/><path id="path8831" fill="#ffe5ca" fill-opacity="1" fill-rule="evenodd" stroke="none" stroke-width=".343" d="M 35.562686,45.60841 H 192.92909 v -6.213 H 35.562686 Z"/><path id="path8835" fill="#c2e0ae" fill-opacity="1" fill-rule="evenodd" stroke="none" stroke-width=".485" d="M 35.562686,51.772971 H 192.92909 v -6.21311 H 35.562686 Z"/><path id="path8839" fill="#ffe5ca" fill-opacity="1" fill-rule="evenodd" stroke="none" stroke-width=".343" d="M 35.562686,57.985971 H 192.92909 v -6.213 H 35.562686 Z"/><path id="path8843" fill="#c2e0ae" fill-opacity="1" fill-rule="evenodd" stroke="none" stroke-width=".485" d="M 35.562686,64.199082 H 192.92909 v -6.21311 H 35.562686 Z"/><path id="path8847" fill="#bce4e5" fill-opacity="1" fill-rule="evenodd" stroke="none" stroke-width=".485" d="M 35.562686,82.838405 H 192.92909 V 64.199082 H 35.562686 Z"/><g id="g8963" transform="matrix(0.48539908,0,0,-0.48539908,7.9434957,286.12534)"><path id="path8965" fill="none" stroke="#000" stroke-dasharray="none" stroke-linecap="butt" stroke-linejoin="round" stroke-miterlimit="10" stroke-opacity="1" stroke-width=".05" d="M 56.6,559.4 H 381"/></g><g id="g8983" transform="matrix(0.48539908,0,0,-0.48539908,7.9920309,279.91213)"><path id="path8985" fill="none" stroke="#000" stroke-dasharray="none" stroke-linecap="butt" stroke-linejoin="round" stroke-miterlimit="10" stroke-opacity="1" stroke-width=".05" d="M 56.6,533.8 H 381"/></g><g id="g8991" transform="matrix(0.48539908,0,0,-0.48539908,7.9920309,279.86222)"><path id="path8993" fill="none" stroke="#000" stroke-dasharray="none" stroke-linecap="butt" stroke-linejoin="round" stroke-miterlimit="10" stroke-opacity="1" stroke-width=".05" d="M 56.6,521 H 381"/></g><g id="g9011" transform="matrix(0.48539908,0,0,-0.48539908,8.0405661,273.69755)"><path id="path9013" fill="none" stroke="#000" stroke-dasharray="none" stroke-linecap="butt" stroke-linejoin="round" stroke-miterlimit="10" stroke-opacity="1" stroke-width=".05" d="M 56.6,495.4 H 381"/></g><g id="g9019" transform="matrix(0.48539908,0,0,-0.48539908,8.0405661,273.69755)"><path id="path9021" fill="none" stroke="#000" stroke-dasharray="none" stroke-linecap="butt" stroke-linejoin="round" stroke-miterlimit="10" stroke-opacity="1" stroke-width=".05" d="M 56.6,482.7 H 381"/></g><g id="g9039" transform="matrix(0.48539908,0,0,-0.48539908,8.0405661,267.48433)"><path id="path9041" fill="none" stroke="#000" stroke-dasharray="none" stroke-linecap="butt" stroke-linejoin="round" stroke-miterlimit="10" stroke-opacity="1" stroke-width=".05" d="M 56.6,457.1 H 381"/></g><g id="g9047" transform="matrix(0.48539908,0,0,-0.48539908,8.0405661,267.48433)"><path id="path9049" fill="none" stroke="#000" stroke-dasharray="none" stroke-linecap="butt" stroke-linejoin="round" stroke-miterlimit="10" stroke-opacity="1" stroke-width=".05" d="M 56.6,444.3 H 381"/></g><g id="g9099" transform="matrix(0.48539908,0,0,-0.48539908,8.0405661,261.27111)"><path id="path9101" fill="none" stroke="#000" stroke-dasharray="none" stroke-linecap="butt" stroke-linejoin="round" stroke-miterlimit="10" stroke-opacity="1" stroke-width=".05" d="M 56.6,367.6 H 381"/></g><g id="g12645" transform="matrix(0.48539908,0,0,-0.48539908,7.9434957,286.12534)"><text id="text12649" fill="#000" fill-opacity="1" fill-rule="nonzero" stroke="none" font-family="sans-serif" font-size="21.803" font-stretch="normal" font-style="normal" font-variant="normal" font-weight="normal" text-anchor="start" transform="matrix(1,0,0,-1,104.4,549)" writing-mode="lr-tb" style="-inkscape-font-specification:'sans-serif, Normal';font-variant-ligatures:normal;font-variant-caps:normal;font-variant-numeric:normal;font-feature-settings:normal;text-align:start"><tspan style="-inkscape-font-specification:'Noto Mono, Normal';font-variant-ligatures:normal;font-variant-caps:normal;font-variant-numeric:normal;font-feature-settings:normal;text-align:start" id="tspan13686" font-family="Noto Mono" font-size="10" font-stretch="normal" font-style="normal" font-variant="normal" font-weight="normal" text-anchor="start" writing-mode="lr-tb">popcnt rsi, qword ptr [rcx]</tspan></text></g><g id="g13055" transform="matrix(0.48539908,0,0,-0.48539908,7.9920309,279.91213)"><text id="text13059" fill="#000" fill-opacity="1" fill-rule="nonzero" stroke="none" font-family="Noto Mono" font-size="10" font-variant="normal" font-weight="normal" transform="matrix(1,0,0,-1,104.4,523.5)" writing-mode="lr-tb" style="-inkscape-font-specification:NotoMono"><tspan id="tspan13057" x="0 6 12 18 24 30 36 42 48 54" y="0">sub rdx, rsi</tspan></text></g><g id="g13263" transform="matrix(0.48539908,0,0,-0.48539908,7.9920309,279.91213)"><text id="text13267" fill="#000" fill-opacity="1" fill-rule="nonzero" stroke="none" font-family="Noto Mono" font-size="10" font-variant="normal" font-weight="normal" transform="matrix(1,0,0,-1,104.4,510.7)" writing-mode="lr-tb" style="-inkscape-font-specification:NotoMono"><tspan id="tspan13265" x="0 6 12 18 24 30 36 42 48 54 60 66 72 78 84 90 96 102 108 114 120 126 132 138 144 150 156 162 168 174 180" y="0">popcnt rsi, qword ptr [rcx+0x8]</tspan></text></g><g id="g13665" transform="matrix(0.48539908,0,0,-0.48539908,8.0405661,273.69755)"><text id="text13669" fill="#000" fill-opacity="1" fill-rule="nonzero" stroke="none" font-family="Noto Mono" font-size="10" font-variant="normal" font-weight="normal" transform="matrix(1,0,0,-1,104.4,485.1)" writing-mode="lr-tb" style="-inkscape-font-specification:NotoMono"><tspan id="tspan13667" x="0 6 12 18 24 30 36 42 48 54 60 66" y="0">sub rdx, rsi</tspan></text></g><g id="g13873" transform="matrix(0.48539908,0,0,-0.48539908,8.0405661,273.69755)"><text id="text13877" fill="#000" fill-opacity="1" fill-rule="nonzero" stroke="none" font-family="Noto Mono" font-size="10" font-variant="normal" font-weight="normal" transform="matrix(1,0,0,-1,104.4,472.3)" writing-mode="lr-tb" style="-inkscape-font-specification:NotoMono"><tspan id="tspan13875" x="0 6 12 18 24 30 36 42 48 54 60 66 72 78 84 90 96 102 108 114 120 126 132 138 144 150 156 162 168 174 180 186" y="0">popcnt rsi, qword ptr [rcx+0x10]</tspan></text></g><g id="g14283" transform="matrix(0.48539908,0,0,-0.48539908,8.0405661,267.48433)"><text id="text14287" fill="#000" fill-opacity="1" fill-rule="nonzero" stroke="none" font-family="Noto Mono" font-size="10" font-variant="normal" font-weight="normal" transform="matrix(1,0,0,-1,104.4,446.8)" writing-mode="lr-tb" style="-inkscape-font-specification:NotoMono"><tspan id="tspan14285" x="0 6 12 18 24 30 36 42 48 54 60 66" y="0">sub rdx, rsi</tspan></text></g><g id="g14495" transform="matrix(0.48539908,0,0,-0.48539908,8.0405661,267.48433)"><text id="text14499" fill="#000" fill-opacity="1" fill-rule="nonzero" stroke="none" font-family="Noto Mono" font-size="10" font-variant="normal" font-weight="normal" transform="matrix(1,0,0,-1,104.4,434)" writing-mode="lr-tb" style="-inkscape-font-specification:NotoMono"><tspan id="tspan14497" x="0 6 12 18 24 30 36 42 48 54 60 66 72 78 84 90 96 102 108 114 120 126 132 138 144 150 156 162 168 174 180 186" y="0">popcnt rsi, qword ptr [rcx+0x18]</tspan></text></g><g id="g14905" transform="matrix(0.48539908,0,0,-0.48539908,8.0405661,261.27111)"><text id="text14909" fill="#000" fill-opacity="1" fill-rule="nonzero" stroke="none" font-family="Noto Mono" font-size="10" font-variant="normal" font-weight="normal" transform="matrix(1,0,0,-1,104.4,408.4)" writing-mode="lr-tb" style="-inkscape-font-specification:NotoMono"><tspan id="tspan14907" x="0 6 12 18 24 30 36 42 48 54 60 66" y="0">sub rdx, rsi</tspan></text></g><g id="g15117" transform="matrix(0.48539908,0,0,-0.48539908,8.0405661,261.27111)"><text id="text15121" fill="#000" fill-opacity="1" fill-rule="nonzero" stroke="none" font-family="Noto Mono" font-size="10" font-variant="normal" font-weight="normal" transform="matrix(1,0,0,-1,104.4,395.6)" writing-mode="lr-tb" style="-inkscape-font-specification:NotoMono"><tspan id="tspan15119" x="0 6 12 18 24 30 36 42 48 54 60 66 72" y="0">add rcx, 0x20</tspan></text></g><g id="g15329" transform="matrix(0.48539908,0,0,-0.48539908,8.0405661,261.27111)"><text id="text15333" fill="#000" fill-opacity="1" fill-rule="nonzero" stroke="none" font-family="Noto Mono" font-size="10" font-variant="normal" font-weight="normal" transform="matrix(1,0,0,-1,104.4,382.8)" writing-mode="lr-tb" style="-inkscape-font-specification:NotoMono"><tspan id="tspan15331" x="0 6 12 18 24 30 36 42 48 54 60 66 72" y="0">cmp rdx, 0xff</tspan></text></g><g id="g15541" transform="matrix(0.48539908,0,0,-0.48539908,8.0405661,261.27111)"><text id="text15545" fill="#000" fill-opacity="1" fill-rule="nonzero" stroke="none" font-family="Noto Mono" font-size="10" font-variant="normal" font-weight="normal" transform="matrix(1,0,0,-1,104.4,370.1)" writing-mode="lr-tb" style="-inkscape-font-specification:NotoMono"><tspan id="tspan15543" x="0 6 12 18 24 30 36 42 48 54 60 66 72 78 84 90 96 102 108 114 120 126 132" y="0">jnle 0xffffffffffffffca</tspan></text></g><path id="path5609-3" fill="none" fill-rule="evenodd" stroke="red" stroke-dasharray="none" stroke-linecap="butt" stroke-linejoin="miter" stroke-miterlimit="4" stroke-opacity="1" stroke-width=".265" marker-end="url(#Arrow2Lend-0)" marker-start="url(#DotL-2)" d="m 54.24723,22.440867 c -9.346815,4.243744 -4.432351,7.012182 0.263293,9.803258"/><path id="path5609-3-3" fill="none" fill-rule="evenodd" stroke="red" stroke-dasharray="none" stroke-linecap="butt" stroke-linejoin="miter" stroke-miterlimit="4" stroke-opacity="1" stroke-width=".265" marker-end="url(#Arrow2Lend-0-7)" marker-start="url(#DotL-2-3)" d="m 54.24723,16.559983 c -9.346815,4.243744 -4.432351,7.012182 0.263293,9.803258"/><path id="path5609-3-36" fill="none" fill-rule="evenodd" stroke="red" stroke-dasharray="none" stroke-linecap="butt" stroke-linejoin="miter" stroke-miterlimit="4" stroke-opacity="1" stroke-width=".265" marker-end="url(#Arrow2Lend-0-70)" marker-start="url(#DotL-2-1)" d="m 54.24723,34.360793 c -9.346815,4.243744 -4.432351,7.012182 0.263293,9.803258"/><path id="path5609-3-3-0" fill="none" fill-rule="evenodd" stroke="red" stroke-dasharray="none" stroke-linecap="butt" stroke-linejoin="miter" stroke-miterlimit="4" stroke-opacity="1" stroke-width=".265" marker-end="url(#Arrow2Lend-0-7-2)" marker-start="url(#DotL-2-3-5)" d="m 54.24723,28.479909 c -9.346815,4.243744 -4.432351,7.012182 0.263293,9.803258"/><path id="path5609-3-8" fill="none" fill-rule="evenodd" stroke="red" stroke-dasharray="none" stroke-linecap="butt" stroke-linejoin="miter" stroke-miterlimit="4" stroke-opacity="1" stroke-width=".265" marker-end="url(#Arrow2Lend-0-2)" marker-start="url(#DotL-2-5)" d="m 53.981356,46.280719 c -9.346815,4.243744 -4.432351,7.012182 0.263293,9.803258"/><path id="path5609-3-3-9" fill="none" fill-rule="evenodd" stroke="red" stroke-dasharray="none" stroke-linecap="butt" stroke-linejoin="miter" stroke-miterlimit="4" stroke-opacity="1" stroke-width=".265" marker-end="url(#Arrow2Lend-0-7-3)" marker-start="url(#DotL-2-3-0)" d="m 53.981356,40.399835 c -9.346815,4.243744 -4.432351,7.012182 0.263293,9.803258"/><path id="path5609-3-3-0-3" fill="none" fill-rule="evenodd" stroke="red" stroke-dasharray="none" stroke-linecap="butt" stroke-linejoin="miter" stroke-miterlimit="4" stroke-opacity="1" stroke-width=".265" marker-end="url(#Arrow2Lend-0-7-2-6)" marker-start="url(#DotL-2-3-5-6)" d="m 53.981356,53.378095 c -9.346815,4.243744 -4.432351,7.012182 0.263293,9.803258"/><path id="path5609-3-1" fill="none" fill-rule="evenodd" stroke="red" stroke-dasharray="none" stroke-linecap="butt" stroke-linejoin="miter" stroke-miterlimit="4" stroke-opacity="1" stroke-width=".283" marker-end="url(#Arrow2Lend-0-29)" marker-start="url(#DotL-2-6)" d="m 53.70385,59.872582 c -6.115578,4.461248 -6.589385,9.139486 0.208929,14.097422"/></g></svg>