<?xml version="1.0" encoding="UTF-8" standalone="no"?>
<!-- Created with Inkscape (http://www.inkscape.org/) -->

<svg
   xmlns:dc="http://purl.org/dc/elements/1.1/"
   xmlns:cc="http://creativecommons.org/ns#"
   xmlns:rdf="http://www.w3.org/1999/02/22-rdf-syntax-ns#"
   xmlns:svg="http://www.w3.org/2000/svg"
   xmlns="http://www.w3.org/2000/svg"
   xmlns:sodipodi="http://sodipodi.sourceforge.net/DTD/sodipodi-0.dtd"
   xmlns:inkscape="http://www.inkscape.org/namespaces/inkscape"
   width="157.56053mm"
   height="68.269485mm"
   viewBox="0 0 157.56054 68.269485"
   version="1.1"
   id="svg4603"
   inkscape:version="0.92.3 (2405546, 2018-03-11)"
   sodipodi:docname="popcnt-dependencies.svg">
  <defs
     id="defs4597">
    <marker
       inkscape:stockid="Arrow2Lend"
       orient="auto"
       refY="0.0"
       refX="0.0"
       id="Arrow2Lend"
       style="overflow:visible;"
       inkscape:isstock="true">
      <path
         id="path5632"
         style="fill-rule:evenodd;stroke-width:0.625;stroke-linejoin:round;stroke:#ff0000;stroke-opacity:1;fill:#ff0000;fill-opacity:1"
         d="M 8.7185878,4.0337352 L -2.2072895,0.016013256 L 8.7185884,-4.0017078 C 6.9730900,-1.6296469 6.9831476,1.6157441 8.7185878,4.0337352 z "
         transform="scale(1.1) rotate(180) translate(1,0)" />
    </marker>
    <marker
       inkscape:stockid="DotL"
       orient="auto"
       refY="0.0"
       refX="0.0"
       id="DotL"
       style="overflow:visible"
       inkscape:isstock="true">
      <path
         id="path5672"
         d="M -2.5,-1.0 C -2.5,1.7600000 -4.7400000,4.0 -7.5,4.0 C -10.260000,4.0 -12.5,1.7600000 -12.5,-1.0 C -12.5,-3.7600000 -10.260000,-6.0 -7.5,-6.0 C -4.7400000,-6.0 -2.5,-3.7600000 -2.5,-1.0 z "
         style="fill-rule:evenodd;stroke:#ff0000;stroke-width:1pt;stroke-opacity:1;fill:#ff0000;fill-opacity:1"
         transform="scale(0.8) translate(7.4, 1)" />
    </marker>
    <marker
       inkscape:stockid="DotL"
       orient="auto"
       refY="0"
       refX="0"
       id="DotL-2"
       style="overflow:visible"
       inkscape:isstock="true">
      <path
         inkscape:connector-curvature="0"
         id="path5672-7"
         d="m -2.5,-1 c 0,2.76 -2.24,5 -5,5 -2.76,0 -5,-2.24 -5,-5 0,-2.76 2.24,-5 5,-5 2.76,0 5,2.24 5,5 z"
         style="fill:#ff0000;fill-opacity:1;fill-rule:evenodd;stroke:#ff0000;stroke-width:1.00000003pt;stroke-opacity:1"
         transform="matrix(0.8,0,0,0.8,5.92,0.8)" />
    </marker>
    <marker
       inkscape:stockid="Arrow2Lend"
       orient="auto"
       refY="0"
       refX="0"
       id="Arrow2Lend-0"
       style="overflow:visible"
       inkscape:isstock="true">
      <path
         inkscape:connector-curvature="0"
         id="path5632-9"
         style="fill:#ff0000;fill-opacity:1;fill-rule:evenodd;stroke:#ff0000;stroke-width:0.625;stroke-linejoin:round;stroke-opacity:1"
         d="M 8.7185878,4.0337352 -2.2072895,0.01601326 8.7185884,-4.0017078 c -1.7454984,2.3720609 -1.7354408,5.6174519 -6e-7,8.035443 z"
         transform="matrix(-1.1,0,0,-1.1,-1.1,0)" />
    </marker>
    <marker
       inkscape:stockid="DotL"
       orient="auto"
       refY="0"
       refX="0"
       id="DotL-6"
       style="overflow:visible"
       inkscape:isstock="true">
      <path
         inkscape:connector-curvature="0"
         id="path5672-0"
         d="m -2.5,-1 c 0,2.76 -2.24,5 -5,5 -2.76,0 -5,-2.24 -5,-5 0,-2.76 2.24,-5 5,-5 2.76,0 5,2.24 5,5 z"
         style="fill:#ff0000;fill-opacity:1;fill-rule:evenodd;stroke:#ff0000;stroke-width:1.00000003pt;stroke-opacity:1"
         transform="matrix(0.8,0,0,0.8,5.92,0.8)" />
    </marker>
    <marker
       inkscape:stockid="Arrow2Lend"
       orient="auto"
       refY="0"
       refX="0"
       id="Arrow2Lend-6"
       style="overflow:visible"
       inkscape:isstock="true">
      <path
         inkscape:connector-curvature="0"
         id="path5632-2"
         style="fill:#ff0000;fill-opacity:1;fill-rule:evenodd;stroke:#ff0000;stroke-width:0.625;stroke-linejoin:round;stroke-opacity:1"
         d="M 8.7185878,4.0337352 -2.2072895,0.01601326 8.7185884,-4.0017078 c -1.7454984,2.3720609 -1.7354408,5.6174519 -6e-7,8.035443 z"
         transform="matrix(-1.1,0,0,-1.1,-1.1,0)" />
    </marker>
    <marker
       inkscape:stockid="DotL"
       orient="auto"
       refY="0"
       refX="0"
       id="DotL-1"
       style="overflow:visible"
       inkscape:isstock="true">
      <path
         inkscape:connector-curvature="0"
         id="path5672-8"
         d="m -2.5,-1 c 0,2.76 -2.24,5 -5,5 -2.76,0 -5,-2.24 -5,-5 0,-2.76 2.24,-5 5,-5 2.76,0 5,2.24 5,5 z"
         style="fill:#ff0000;fill-opacity:1;fill-rule:evenodd;stroke:#ff0000;stroke-width:1.00000003pt;stroke-opacity:1"
         transform="matrix(0.8,0,0,0.8,5.92,0.8)" />
    </marker>
    <marker
       inkscape:stockid="Arrow2Lend"
       orient="auto"
       refY="0"
       refX="0"
       id="Arrow2Lend-7"
       style="overflow:visible"
       inkscape:isstock="true">
      <path
         inkscape:connector-curvature="0"
         id="path5632-92"
         style="fill:#ff0000;fill-opacity:1;fill-rule:evenodd;stroke:#ff0000;stroke-width:0.625;stroke-linejoin:round;stroke-opacity:1"
         d="M 8.7185878,4.0337352 -2.2072895,0.01601326 8.7185884,-4.0017078 c -1.7454984,2.3720609 -1.7354408,5.6174519 -6e-7,8.035443 z"
         transform="matrix(-1.1,0,0,-1.1,-1.1,0)" />
    </marker>
    <marker
       inkscape:stockid="DotL"
       orient="auto"
       refY="0"
       refX="0"
       id="DotL-23"
       style="overflow:visible"
       inkscape:isstock="true">
      <path
         inkscape:connector-curvature="0"
         id="path5672-75"
         d="m -2.5,-1 c 0,2.76 -2.24,5 -5,5 -2.76,0 -5,-2.24 -5,-5 0,-2.76 2.24,-5 5,-5 2.76,0 5,2.24 5,5 z"
         style="fill:#ff0000;fill-opacity:1;fill-rule:evenodd;stroke:#ff0000;stroke-width:1.00000003pt;stroke-opacity:1"
         transform="matrix(0.8,0,0,0.8,5.92,0.8)" />
    </marker>
    <marker
       inkscape:stockid="Arrow2Lend"
       orient="auto"
       refY="0"
       refX="0"
       id="Arrow2Lend-9"
       style="overflow:visible"
       inkscape:isstock="true">
      <path
         inkscape:connector-curvature="0"
         id="path5632-22"
         style="fill:#ff0000;fill-opacity:1;fill-rule:evenodd;stroke:#ff0000;stroke-width:0.625;stroke-linejoin:round;stroke-opacity:1"
         d="M 8.7185878,4.0337352 -2.2072895,0.01601326 8.7185884,-4.0017078 c -1.7454984,2.3720609 -1.7354408,5.6174519 -6e-7,8.035443 z"
         transform="matrix(-1.1,0,0,-1.1,-1.1,0)" />
    </marker>
    <marker
       inkscape:stockid="DotL"
       orient="auto"
       refY="0"
       refX="0"
       id="DotL-2-3"
       style="overflow:visible"
       inkscape:isstock="true">
      <path
         inkscape:connector-curvature="0"
         id="path5672-7-6"
         d="m -2.5,-1 c 0,2.76 -2.24,5 -5,5 -2.76,0 -5,-2.24 -5,-5 0,-2.76 2.24,-5 5,-5 2.76,0 5,2.24 5,5 z"
         style="fill:#ff0000;fill-opacity:1;fill-rule:evenodd;stroke:#ff0000;stroke-width:1.00000003pt;stroke-opacity:1"
         transform="matrix(0.8,0,0,0.8,5.92,0.8)" />
    </marker>
    <marker
       inkscape:stockid="Arrow2Lend"
       orient="auto"
       refY="0"
       refX="0"
       id="Arrow2Lend-0-7"
       style="overflow:visible"
       inkscape:isstock="true">
      <path
         inkscape:connector-curvature="0"
         id="path5632-9-5"
         style="fill:#ff0000;fill-opacity:1;fill-rule:evenodd;stroke:#ff0000;stroke-width:0.625;stroke-linejoin:round;stroke-opacity:1"
         d="M 8.7185878,4.0337352 -2.2072895,0.01601326 8.7185884,-4.0017078 c -1.7454984,2.3720609 -1.7354408,5.6174519 -6e-7,8.035443 z"
         transform="matrix(-1.1,0,0,-1.1,-1.1,0)" />
    </marker>
    <marker
       inkscape:stockid="DotL"
       orient="auto"
       refY="0"
       refX="0"
       id="DotL-2-3-5"
       style="overflow:visible"
       inkscape:isstock="true">
      <path
         inkscape:connector-curvature="0"
         id="path5672-7-6-6"
         d="m -2.5,-1 c 0,2.76 -2.24,5 -5,5 -2.76,0 -5,-2.24 -5,-5 0,-2.76 2.24,-5 5,-5 2.76,0 5,2.24 5,5 z"
         style="fill:#ff0000;fill-opacity:1;fill-rule:evenodd;stroke:#ff0000;stroke-width:1.00000003pt;stroke-opacity:1"
         transform="matrix(0.8,0,0,0.8,5.92,0.8)" />
    </marker>
    <marker
       inkscape:stockid="Arrow2Lend"
       orient="auto"
       refY="0"
       refX="0"
       id="Arrow2Lend-0-7-2"
       style="overflow:visible"
       inkscape:isstock="true">
      <path
         inkscape:connector-curvature="0"
         id="path5632-9-5-9"
         style="fill:#ff0000;fill-opacity:1;fill-rule:evenodd;stroke:#ff0000;stroke-width:0.625;stroke-linejoin:round;stroke-opacity:1"
         d="M 8.7185878,4.0337352 -2.2072895,0.01601326 8.7185884,-4.0017078 c -1.7454984,2.3720609 -1.7354408,5.6174519 -6e-7,8.035443 z"
         transform="matrix(-1.1,0,0,-1.1,-1.1,0)" />
    </marker>
    <marker
       inkscape:stockid="DotL"
       orient="auto"
       refY="0"
       refX="0"
       id="DotL-2-1"
       style="overflow:visible"
       inkscape:isstock="true">
      <path
         inkscape:connector-curvature="0"
         id="path5672-7-2"
         d="m -2.5,-1 c 0,2.76 -2.24,5 -5,5 -2.76,0 -5,-2.24 -5,-5 0,-2.76 2.24,-5 5,-5 2.76,0 5,2.24 5,5 z"
         style="fill:#ff0000;fill-opacity:1;fill-rule:evenodd;stroke:#ff0000;stroke-width:1.00000003pt;stroke-opacity:1"
         transform="matrix(0.8,0,0,0.8,5.92,0.8)" />
    </marker>
    <marker
       inkscape:stockid="Arrow2Lend"
       orient="auto"
       refY="0"
       refX="0"
       id="Arrow2Lend-0-70"
       style="overflow:visible"
       inkscape:isstock="true">
      <path
         inkscape:connector-curvature="0"
         id="path5632-9-9"
         style="fill:#ff0000;fill-opacity:1;fill-rule:evenodd;stroke:#ff0000;stroke-width:0.625;stroke-linejoin:round;stroke-opacity:1"
         d="M 8.7185878,4.0337352 -2.2072895,0.01601326 8.7185884,-4.0017078 c -1.7454984,2.3720609 -1.7354408,5.6174519 -6e-7,8.035443 z"
         transform="matrix(-1.1,0,0,-1.1,-1.1,0)" />
    </marker>
    <marker
       inkscape:stockid="DotL"
       orient="auto"
       refY="0"
       refX="0"
       id="DotL-2-3-5-6"
       style="overflow:visible"
       inkscape:isstock="true">
      <path
         inkscape:connector-curvature="0"
         id="path5672-7-6-6-2"
         d="m -2.5,-1 c 0,2.76 -2.24,5 -5,5 -2.76,0 -5,-2.24 -5,-5 0,-2.76 2.24,-5 5,-5 2.76,0 5,2.24 5,5 z"
         style="fill:#ff0000;fill-opacity:1;fill-rule:evenodd;stroke:#ff0000;stroke-width:1.00000003pt;stroke-opacity:1"
         transform="matrix(0.8,0,0,0.8,5.92,0.8)" />
    </marker>
    <marker
       inkscape:stockid="Arrow2Lend"
       orient="auto"
       refY="0"
       refX="0"
       id="Arrow2Lend-0-7-2-6"
       style="overflow:visible"
       inkscape:isstock="true">
      <path
         inkscape:connector-curvature="0"
         id="path5632-9-5-9-1"
         style="fill:#ff0000;fill-opacity:1;fill-rule:evenodd;stroke:#ff0000;stroke-width:0.625;stroke-linejoin:round;stroke-opacity:1"
         d="M 8.7185878,4.0337352 -2.2072895,0.01601326 8.7185884,-4.0017078 c -1.7454984,2.3720609 -1.7354408,5.6174519 -6e-7,8.035443 z"
         transform="matrix(-1.1,0,0,-1.1,-1.1,0)" />
    </marker>
    <marker
       inkscape:stockid="DotL"
       orient="auto"
       refY="0"
       refX="0"
       id="DotL-2-1-8"
       style="overflow:visible"
       inkscape:isstock="true">
      <path
         inkscape:connector-curvature="0"
         id="path5672-7-2-7"
         d="m -2.5,-1 c 0,2.76 -2.24,5 -5,5 -2.76,0 -5,-2.24 -5,-5 0,-2.76 2.24,-5 5,-5 2.76,0 5,2.24 5,5 z"
         style="fill:#ff0000;fill-opacity:1;fill-rule:evenodd;stroke:#ff0000;stroke-width:1.00000003pt;stroke-opacity:1"
         transform="matrix(0.8,0,0,0.8,5.92,0.8)" />
    </marker>
    <marker
       inkscape:stockid="Arrow2Lend"
       orient="auto"
       refY="0"
       refX="0"
       id="Arrow2Lend-0-70-9"
       style="overflow:visible"
       inkscape:isstock="true">
      <path
         inkscape:connector-curvature="0"
         id="path5632-9-9-2"
         style="fill:#ff0000;fill-opacity:1;fill-rule:evenodd;stroke:#ff0000;stroke-width:0.625;stroke-linejoin:round;stroke-opacity:1"
         d="M 8.7185878,4.0337352 -2.2072895,0.01601326 8.7185884,-4.0017078 c -1.7454984,2.3720609 -1.7354408,5.6174519 -6e-7,8.035443 z"
         transform="matrix(-1.1,0,0,-1.1,-1.1,0)" />
    </marker>
    <marker
       inkscape:stockid="DotL"
       orient="auto"
       refY="0"
       refX="0"
       id="DotL-2-3-0"
       style="overflow:visible"
       inkscape:isstock="true">
      <path
         inkscape:connector-curvature="0"
         id="path5672-7-6-2"
         d="m -2.5,-1 c 0,2.76 -2.24,5 -5,5 -2.76,0 -5,-2.24 -5,-5 0,-2.76 2.24,-5 5,-5 2.76,0 5,2.24 5,5 z"
         style="fill:#ff0000;fill-opacity:1;fill-rule:evenodd;stroke:#ff0000;stroke-width:1.00000003pt;stroke-opacity:1"
         transform="matrix(0.8,0,0,0.8,5.92,0.8)" />
    </marker>
    <marker
       inkscape:stockid="Arrow2Lend"
       orient="auto"
       refY="0"
       refX="0"
       id="Arrow2Lend-0-7-3"
       style="overflow:visible"
       inkscape:isstock="true">
      <path
         inkscape:connector-curvature="0"
         id="path5632-9-5-7"
         style="fill:#ff0000;fill-opacity:1;fill-rule:evenodd;stroke:#ff0000;stroke-width:0.625;stroke-linejoin:round;stroke-opacity:1"
         d="M 8.7185878,4.0337352 -2.2072895,0.01601326 8.7185884,-4.0017078 c -1.7454984,2.3720609 -1.7354408,5.6174519 -6e-7,8.035443 z"
         transform="matrix(-1.1,0,0,-1.1,-1.1,0)" />
    </marker>
    <marker
       inkscape:stockid="DotL"
       orient="auto"
       refY="0"
       refX="0"
       id="DotL-2-5"
       style="overflow:visible"
       inkscape:isstock="true">
      <path
         inkscape:connector-curvature="0"
         id="path5672-7-9"
         d="m -2.5,-1 c 0,2.76 -2.24,5 -5,5 -2.76,0 -5,-2.24 -5,-5 0,-2.76 2.24,-5 5,-5 2.76,0 5,2.24 5,5 z"
         style="fill:#ff0000;fill-opacity:1;fill-rule:evenodd;stroke:#ff0000;stroke-width:1.00000003pt;stroke-opacity:1"
         transform="matrix(0.8,0,0,0.8,5.92,0.8)" />
    </marker>
    <marker
       inkscape:stockid="Arrow2Lend"
       orient="auto"
       refY="0"
       refX="0"
       id="Arrow2Lend-0-2"
       style="overflow:visible"
       inkscape:isstock="true">
      <path
         inkscape:connector-curvature="0"
         id="path5632-9-2"
         style="fill:#ff0000;fill-opacity:1;fill-rule:evenodd;stroke:#ff0000;stroke-width:0.625;stroke-linejoin:round;stroke-opacity:1"
         d="M 8.7185878,4.0337352 -2.2072895,0.01601326 8.7185884,-4.0017078 c -1.7454984,2.3720609 -1.7354408,5.6174519 -6e-7,8.035443 z"
         transform="matrix(-1.1,0,0,-1.1,-1.1,0)" />
    </marker>
    <marker
       inkscape:stockid="DotL"
       orient="auto"
       refY="0"
       refX="0"
       id="DotL-2-6"
       style="overflow:visible"
       inkscape:isstock="true">
      <path
         inkscape:connector-curvature="0"
         id="path5672-7-1"
         d="m -2.5,-1 c 0,2.76 -2.24,5 -5,5 -2.76,0 -5,-2.24 -5,-5 0,-2.76 2.24,-5 5,-5 2.76,0 5,2.24 5,5 z"
         style="fill:#ff0000;fill-opacity:1;fill-rule:evenodd;stroke:#ff0000;stroke-width:1.00000003pt;stroke-opacity:1"
         transform="matrix(0.8,0,0,0.8,5.92,0.8)" />
    </marker>
    <marker
       inkscape:stockid="Arrow2Lend"
       orient="auto"
       refY="0"
       refX="0"
       id="Arrow2Lend-0-29"
       style="overflow:visible"
       inkscape:isstock="true">
      <path
         inkscape:connector-curvature="0"
         id="path5632-9-3"
         style="fill:#ff0000;fill-opacity:1;fill-rule:evenodd;stroke:#ff0000;stroke-width:0.625;stroke-linejoin:round;stroke-opacity:1"
         d="M 8.7185878,4.0337352 -2.2072895,0.01601326 8.7185884,-4.0017078 c -1.7454984,2.3720609 -1.7354408,5.6174519 -6e-7,8.035443 z"
         transform="matrix(-1.1,0,0,-1.1,-1.1,0)" />
    </marker>
  </defs>
  <sodipodi:namedview
     id="base"
     pagecolor="#ffffff"
     bordercolor="#666666"
     borderopacity="1.0"
     inkscape:pageopacity="0.0"
     inkscape:pageshadow="2"
     inkscape:zoom="1.42"
     inkscape:cx="176.50665"
     inkscape:cy="528.74727"
     inkscape:document-units="mm"
     inkscape:current-layer="layer1"
     showgrid="false"
     inkscape:window-width="1440"
     inkscape:window-height="2532"
     inkscape:window-x="1920"
     inkscape:window-y="0"
     inkscape:window-maximized="1"
     fit-margin-top="0"
     fit-margin-left="0"
     fit-margin-right="0"
     fit-margin-bottom="0" />
  <metadata
     id="metadata4600">
    <rdf:RDF>
      <cc:Work
         rdf:about="">
        <dc:format>image/svg+xml</dc:format>
        <dc:type
           rdf:resource="http://purl.org/dc/dcmitype/StillImage" />
        <dc:title />
      </cc:Work>
    </rdf:RDF>
  </metadata>
  <g
     inkscape:label="Layer 1"
     inkscape:groupmode="layer"
     id="layer1"
     transform="translate(-35.417084,-14.581008)">
    <path
       d="M 35.514151,20.806095 H 192.88055 v -6.213 H 35.514151 Z"
       style="fill:#ffe5ca;fill-opacity:1;fill-rule:evenodd;stroke:none;stroke-width:0.34322596"
       id="path8815"
       inkscape:connector-curvature="0" />
    <path
       d="M 35.514151,26.970666 H 192.88055 v -6.21311 H 35.514151 Z"
       style="fill:#c2e0ae;fill-opacity:1;fill-rule:evenodd;stroke:none;stroke-width:0.4853991"
       id="path8819"
       inkscape:connector-curvature="0" />
    <path
       d="M 35.562686,33.182299 H 192.92909 v -6.213 H 35.562686 Z"
       style="fill:#ffe5ca;fill-opacity:1;fill-rule:evenodd;stroke:none;stroke-width:0.3432261"
       id="path8823"
       inkscape:connector-curvature="0" />
    <path
       d="M 35.562686,39.39541 H 192.92909 V 33.1823 H 35.562686 Z"
       style="fill:#c2e0ae;fill-opacity:1;fill-rule:evenodd;stroke:none;stroke-width:0.4853991"
       id="path8827"
       inkscape:connector-curvature="0" />
    <path
       d="M 35.562686,45.60841 H 192.92909 v -6.213 H 35.562686 Z"
       style="fill:#ffe5ca;fill-opacity:1;fill-rule:evenodd;stroke:none;stroke-width:0.34322596"
       id="path8831"
       inkscape:connector-curvature="0" />
    <path
       d="M 35.562686,51.772971 H 192.92909 v -6.21311 H 35.562686 Z"
       style="fill:#c2e0ae;fill-opacity:1;fill-rule:evenodd;stroke:none;stroke-width:0.4853991"
       id="path8835"
       inkscape:connector-curvature="0" />
    <path
       d="M 35.562686,57.985971 H 192.92909 v -6.213 H 35.562686 Z"
       style="fill:#ffe5ca;fill-opacity:1;fill-rule:evenodd;stroke:none;stroke-width:0.34322596"
       id="path8839"
       inkscape:connector-curvature="0" />
    <path
       d="M 35.562686,64.199082 H 192.92909 v -6.21311 H 35.562686 Z"
       style="fill:#c2e0ae;fill-opacity:1;fill-rule:evenodd;stroke:none;stroke-width:0.4853991"
       id="path8843"
       inkscape:connector-curvature="0" />
    <path
       d="M 35.562686,82.838405 H 192.92909 V 64.199082 H 35.562686 Z"
       style="fill:#bce4e5;fill-opacity:1;fill-rule:evenodd;stroke:none;stroke-width:0.4853991"
       id="path8847"
       inkscape:connector-curvature="0" />
    <g
       id="g8963"
       transform="matrix(0.48539908,0,0,-0.48539908,7.9434957,286.12534)">
      <path
         d="M 56.6,559.4 H 381"
         style="fill:none;stroke:#000000;stroke-width:0.0498;stroke-linecap:butt;stroke-linejoin:round;stroke-miterlimit:10;stroke-dasharray:none;stroke-opacity:1"
         id="path8965"
         inkscape:connector-curvature="0" />
    </g>
    <g
       id="g8983"
       transform="matrix(0.48539908,0,0,-0.48539908,7.9920309,279.91213)">
      <path
         d="M 56.6,533.8 H 381"
         style="fill:none;stroke:#000000;stroke-width:0.0498;stroke-linecap:butt;stroke-linejoin:round;stroke-miterlimit:10;stroke-dasharray:none;stroke-opacity:1"
         id="path8985"
         inkscape:connector-curvature="0" />
    </g>
    <g
       id="g8991"
       transform="matrix(0.48539908,0,0,-0.48539908,7.9920309,279.86222)">
      <path
         d="M 56.6,521 H 381"
         style="fill:none;stroke:#000000;stroke-width:0.0498;stroke-linecap:butt;stroke-linejoin:round;stroke-miterlimit:10;stroke-dasharray:none;stroke-opacity:1"
         id="path8993"
         inkscape:connector-curvature="0" />
    </g>
    <g
       id="g9011"
       transform="matrix(0.48539908,0,0,-0.48539908,8.0405661,273.69755)">
      <path
         d="M 56.6,495.4 H 381"
         style="fill:none;stroke:#000000;stroke-width:0.0498;stroke-linecap:butt;stroke-linejoin:round;stroke-miterlimit:10;stroke-dasharray:none;stroke-opacity:1"
         id="path9013"
         inkscape:connector-curvature="0" />
    </g>
    <g
       id="g9019"
       transform="matrix(0.48539908,0,0,-0.48539908,8.0405661,273.69755)">
      <path
         d="M 56.6,482.7 H 381"
         style="fill:none;stroke:#000000;stroke-width:0.0498;stroke-linecap:butt;stroke-linejoin:round;stroke-miterlimit:10;stroke-dasharray:none;stroke-opacity:1"
         id="path9021"
         inkscape:connector-curvature="0" />
    </g>
    <g
       id="g9039"
       transform="matrix(0.48539908,0,0,-0.48539908,8.0405661,267.48433)">
      <path
         d="M 56.6,457.1 H 381"
         style="fill:none;stroke:#000000;stroke-width:0.0498;stroke-linecap:butt;stroke-linejoin:round;stroke-miterlimit:10;stroke-dasharray:none;stroke-opacity:1"
         id="path9041"
         inkscape:connector-curvature="0" />
    </g>
    <g
       id="g9047"
       transform="matrix(0.48539908,0,0,-0.48539908,8.0405661,267.48433)">
      <path
         d="M 56.6,444.3 H 381"
         style="fill:none;stroke:#000000;stroke-width:0.0498;stroke-linecap:butt;stroke-linejoin:round;stroke-miterlimit:10;stroke-dasharray:none;stroke-opacity:1"
         id="path9049"
         inkscape:connector-curvature="0" />
    </g>
    <g
       id="g9099"
       transform="matrix(0.48539908,0,0,-0.48539908,8.0405661,261.27111)">
      <path
         d="M 56.6,367.6 H 381"
         style="fill:none;stroke:#000000;stroke-width:0.0498;stroke-linecap:butt;stroke-linejoin:round;stroke-miterlimit:10;stroke-dasharray:none;stroke-opacity:1"
         id="path9101"
         inkscape:connector-curvature="0" />
    </g>
    <g
       id="g12645"
       transform="matrix(0.48539908,0,0,-0.48539908,7.9434957,286.12534)">
      <text
         transform="matrix(1,0,0,-1,104.4,549)"
         style="font-style:normal;font-variant:normal;font-weight:normal;font-stretch:normal;font-size:21.80336571px;font-family:sans-serif;-inkscape-font-specification:'sans-serif, Normal';font-variant-ligatures:normal;font-variant-caps:normal;font-variant-numeric:normal;font-feature-settings:normal;text-align:start;writing-mode:lr-tb;text-anchor:start;fill:#000000;fill-opacity:1;fill-rule:nonzero;stroke:none"
         id="text12649">
        <tspan
           sodipodi:role="line"
           id="tspan13686"
           style="font-style:normal;font-variant:normal;font-weight:normal;font-stretch:normal;font-size:9.99975014px;font-family:'Noto Mono';-inkscape-font-specification:'Noto Mono, Normal';font-variant-ligatures:normal;font-variant-caps:normal;font-variant-numeric:normal;font-feature-settings:normal;text-align:start;writing-mode:lr-tb;text-anchor:start">popcnt rsi, qword ptr [rcx]</tspan>
      </text>
    </g>
    <g
       id="g13055"
       transform="matrix(0.48539908,0,0,-0.48539908,7.9920309,279.91213)">
      <text
         transform="matrix(1,0,0,-1,104.4,523.5)"
         style="font-variant:normal;font-weight:normal;font-size:10px;font-family:'Noto Mono';-inkscape-font-specification:NotoMono;writing-mode:lr-tb;fill:#000000;fill-opacity:1;fill-rule:nonzero;stroke:none"
         id="text13059">
        <tspan
           x="0 6 12 18 24 30 36 42 48 54"
           y="0"
           sodipodi:role="line"
           id="tspan13057">sub rdx, rsi</tspan>
      </text>
    </g>
    <g
       id="g13263"
       transform="matrix(0.48539908,0,0,-0.48539908,7.9920309,279.91213)">
      <text
         transform="matrix(1,0,0,-1,104.4,510.7)"
         style="font-variant:normal;font-weight:normal;font-size:10px;font-family:'Noto Mono';-inkscape-font-specification:NotoMono;writing-mode:lr-tb;fill:#000000;fill-opacity:1;fill-rule:nonzero;stroke:none"
         id="text13267">
        <tspan
           x="0 6 12 18 24 30 36 42 48 54 60 66 72 78 84 90 96 102 108 114 120 126 132 138 144 150 156 162 168 174 180"
           y="0"
           sodipodi:role="line"
           id="tspan13265">popcnt rsi, qword ptr [rcx+0x8]</tspan>
      </text>
    </g>
    <g
       id="g13665"
       transform="matrix(0.48539908,0,0,-0.48539908,8.0405661,273.69755)">
      <text
         transform="matrix(1,0,0,-1,104.4,485.1)"
         style="font-variant:normal;font-weight:normal;font-size:10px;font-family:'Noto Mono';-inkscape-font-specification:NotoMono;writing-mode:lr-tb;fill:#000000;fill-opacity:1;fill-rule:nonzero;stroke:none"
         id="text13669">
        <tspan
           x="0 6 12 18 24 30 36 42 48 54 60 66"
           y="0"
           sodipodi:role="line"
           id="tspan13667">sub rdx, rsi</tspan>
      </text>
    </g>
    <g
       id="g13873"
       transform="matrix(0.48539908,0,0,-0.48539908,8.0405661,273.69755)">
      <text
         transform="matrix(1,0,0,-1,104.4,472.3)"
         style="font-variant:normal;font-weight:normal;font-size:10px;font-family:'Noto Mono';-inkscape-font-specification:NotoMono;writing-mode:lr-tb;fill:#000000;fill-opacity:1;fill-rule:nonzero;stroke:none"
         id="text13877">
        <tspan
           x="0 6 12 18 24 30 36 42 48 54 60 66 72 78 84 90 96 102 108 114 120 126 132 138 144 150 156 162 168 174 180 186"
           y="0"
           sodipodi:role="line"
           id="tspan13875">popcnt rsi, qword ptr [rcx+0x10]</tspan>
      </text>
    </g>
    <g
       id="g14283"
       transform="matrix(0.48539908,0,0,-0.48539908,8.0405661,267.48433)">
      <text
         transform="matrix(1,0,0,-1,104.4,446.8)"
         style="font-variant:normal;font-weight:normal;font-size:10px;font-family:'Noto Mono';-inkscape-font-specification:NotoMono;writing-mode:lr-tb;fill:#000000;fill-opacity:1;fill-rule:nonzero;stroke:none"
         id="text14287">
        <tspan
           x="0 6 12 18 24 30 36 42 48 54 60 66"
           y="0"
           sodipodi:role="line"
           id="tspan14285">sub rdx, rsi</tspan>
      </text>
    </g>
    <g
       id="g14495"
       transform="matrix(0.48539908,0,0,-0.48539908,8.0405661,267.48433)">
      <text
         transform="matrix(1,0,0,-1,104.4,434)"
         style="font-variant:normal;font-weight:normal;font-size:10px;font-family:'Noto Mono';-inkscape-font-specification:NotoMono;writing-mode:lr-tb;fill:#000000;fill-opacity:1;fill-rule:nonzero;stroke:none"
         id="text14499">
        <tspan
           x="0 6 12 18 24 30 36 42 48 54 60 66 72 78 84 90 96 102 108 114 120 126 132 138 144 150 156 162 168 174 180 186"
           y="0"
           sodipodi:role="line"
           id="tspan14497">popcnt rsi, qword ptr [rcx+0x18]</tspan>
      </text>
    </g>
    <g
       id="g14905"
       transform="matrix(0.48539908,0,0,-0.48539908,8.0405661,261.27111)">
      <text
         transform="matrix(1,0,0,-1,104.4,408.4)"
         style="font-variant:normal;font-weight:normal;font-size:10px;font-family:'Noto Mono';-inkscape-font-specification:NotoMono;writing-mode:lr-tb;fill:#000000;fill-opacity:1;fill-rule:nonzero;stroke:none"
         id="text14909">
        <tspan
           x="0 6 12 18 24 30 36 42 48 54 60 66"
           y="0"
           sodipodi:role="line"
           id="tspan14907">sub rdx, rsi</tspan>
      </text>
    </g>
    <g
       id="g15117"
       transform="matrix(0.48539908,0,0,-0.48539908,8.0405661,261.27111)">
      <text
         transform="matrix(1,0,0,-1,104.4,395.6)"
         style="font-variant:normal;font-weight:normal;font-size:10px;font-family:'Noto Mono';-inkscape-font-specification:NotoMono;writing-mode:lr-tb;fill:#000000;fill-opacity:1;fill-rule:nonzero;stroke:none"
         id="text15121">
        <tspan
           x="0 6 12 18 24 30 36 42 48 54 60 66 72"
           y="0"
           sodipodi:role="line"
           id="tspan15119">add rcx, 0x20</tspan>
      </text>
    </g>
    <g
       id="g15329"
       transform="matrix(0.48539908,0,0,-0.48539908,8.0405661,261.27111)">
      <text
         transform="matrix(1,0,0,-1,104.4,382.8)"
         style="font-variant:normal;font-weight:normal;font-size:10px;font-family:'Noto Mono';-inkscape-font-specification:NotoMono;writing-mode:lr-tb;fill:#000000;fill-opacity:1;fill-rule:nonzero;stroke:none"
         id="text15333">
        <tspan
           x="0 6 12 18 24 30 36 42 48 54 60 66 72"
           y="0"
           sodipodi:role="line"
           id="tspan15331">cmp rdx, 0xff</tspan>
      </text>
    </g>
    <g
       id="g15541"
       transform="matrix(0.48539908,0,0,-0.48539908,8.0405661,261.27111)">
      <text
         transform="matrix(1,0,0,-1,104.4,370.1)"
         style="font-variant:normal;font-weight:normal;font-size:10px;font-family:'Noto Mono';-inkscape-font-specification:NotoMono;writing-mode:lr-tb;fill:#000000;fill-opacity:1;fill-rule:nonzero;stroke:none"
         id="text15545">
        <tspan
           x="0 6 12 18 24 30 36 42 48 54 60 66 72 78 84 90 96 102 108 114 120 126 132"
           y="0"
           sodipodi:role="line"
           id="tspan15543">jnle 0xffffffffffffffca</tspan>
      </text>
    </g>
    <path
       style="fill:none;fill-rule:evenodd;stroke:#ff0000;stroke-width:0.26499999;stroke-linecap:butt;stroke-linejoin:miter;stroke-miterlimit:4;stroke-dasharray:none;stroke-opacity:1;marker-start:url(#DotL-2);marker-end:url(#Arrow2Lend-0)"
       d="m 54.24723,22.440867 c -9.346815,4.243744 -4.432351,7.012182 0.263293,9.803258"
       id="path5609-3"
       sodipodi:nodetypes="cc"
       inkscape:label="path5609-3"
       inkscape:connector-curvature="0" />
    <path
       inkscape:connector-curvature="0"
       style="fill:none;fill-rule:evenodd;stroke:#ff0000;stroke-width:0.26499999;stroke-linecap:butt;stroke-linejoin:miter;stroke-miterlimit:4;stroke-dasharray:none;stroke-opacity:1;marker-start:url(#DotL-2-3);marker-end:url(#Arrow2Lend-0-7)"
       d="m 54.24723,16.559983 c -9.346815,4.243744 -4.432351,7.012182 0.263293,9.803258"
       id="path5609-3-3"
       sodipodi:nodetypes="cc"
       inkscape:label="path5609-3" />
    <path
       style="fill:none;fill-rule:evenodd;stroke:#ff0000;stroke-width:0.26499999;stroke-linecap:butt;stroke-linejoin:miter;stroke-miterlimit:4;stroke-dasharray:none;stroke-opacity:1;marker-start:url(#DotL-2-1);marker-end:url(#Arrow2Lend-0-70)"
       d="m 54.24723,34.360793 c -9.346815,4.243744 -4.432351,7.012182 0.263293,9.803258"
       id="path5609-3-36"
       sodipodi:nodetypes="cc"
       inkscape:label="path5609-3"
       inkscape:connector-curvature="0" />
    <path
       inkscape:connector-curvature="0"
       style="fill:none;fill-rule:evenodd;stroke:#ff0000;stroke-width:0.26499999;stroke-linecap:butt;stroke-linejoin:miter;stroke-miterlimit:4;stroke-dasharray:none;stroke-opacity:1;marker-start:url(#DotL-2-3-5);marker-end:url(#Arrow2Lend-0-7-2)"
       d="m 54.24723,28.479909 c -9.346815,4.243744 -4.432351,7.012182 0.263293,9.803258"
       id="path5609-3-3-0"
       sodipodi:nodetypes="cc"
       inkscape:label="path5609-3" />
    <path
       style="fill:none;fill-rule:evenodd;stroke:#ff0000;stroke-width:0.26499999;stroke-linecap:butt;stroke-linejoin:miter;stroke-miterlimit:4;stroke-dasharray:none;stroke-opacity:1;marker-start:url(#DotL-2-5);marker-end:url(#Arrow2Lend-0-2)"
       d="m 53.981356,46.280719 c -9.346815,4.243744 -4.432351,7.012182 0.263293,9.803258"
       id="path5609-3-8"
       sodipodi:nodetypes="cc"
       inkscape:label="path5609-3"
       inkscape:connector-curvature="0" />
    <path
       inkscape:connector-curvature="0"
       style="fill:none;fill-rule:evenodd;stroke:#ff0000;stroke-width:0.26499999;stroke-linecap:butt;stroke-linejoin:miter;stroke-miterlimit:4;stroke-dasharray:none;stroke-opacity:1;marker-start:url(#DotL-2-3-0);marker-end:url(#Arrow2Lend-0-7-3)"
       d="m 53.981356,40.399835 c -9.346815,4.243744 -4.432351,7.012182 0.263293,9.803258"
       id="path5609-3-3-9"
       sodipodi:nodetypes="cc"
       inkscape:label="path5609-3" />
    <path
       inkscape:connector-curvature="0"
       style="fill:none;fill-rule:evenodd;stroke:#ff0000;stroke-width:0.26499999;stroke-linecap:butt;stroke-linejoin:miter;stroke-miterlimit:4;stroke-dasharray:none;stroke-opacity:1;marker-start:url(#DotL-2-3-5-6);marker-end:url(#Arrow2Lend-0-7-2-6)"
       d="m 53.981356,53.378095 c -9.346815,4.243744 -4.432351,7.012182 0.263293,9.803258"
       id="path5609-3-3-0-3"
       sodipodi:nodetypes="cc"
       inkscape:label="path5609-3" />
    <path
       style="fill:none;fill-rule:evenodd;stroke:#ff0000;stroke-width:0.28308252;stroke-linecap:butt;stroke-linejoin:miter;stroke-miterlimit:4;stroke-dasharray:none;stroke-opacity:1;marker-start:url(#DotL-2-6);marker-end:url(#Arrow2Lend-0-29)"
       d="m 53.70385,59.872582 c -6.115578,4.461248 -6.589385,9.139486 0.208929,14.097422"
       id="path5609-3-1"
       sodipodi:nodetypes="cc"
       inkscape:label="path5609-3" />
  </g>
</svg>
