<svg id="sorting-network-5-31415-as-paths" xmlns="http://www.w3.org/2000/svg" xmlns:xlink="http://www.w3.org/1999/xlink" viewBox="0 0 148.760700 45.510765" shape-rendering="geometricPrecision" text-rendering="geometricPrecision"><style><![CDATA[#sorting-network-5-31415-as-paths-l2 {animation: sorting-network-5-31415-as-paths-l2_c_o 15000ms linear infinite normal forwards}@keyframes sorting-network-5-31415-as-paths-l2_c_o { 0% {opacity: 0} 10% {opacity: 0} 13.333% {opacity: 1} 100% {opacity: 1} }#sorting-network-5-31415-as-paths-l3 {animation: sorting-network-5-31415-as-paths-l3_c_o 15000ms linear infinite normal forwards}@keyframes sorting-network-5-31415-as-paths-l3_c_o { 0% {opacity: 0} 23.333% {opacity: 0} 26.6667% {opacity: 1} 100% {opacity: 1} }#sorting-network-5-31415-as-paths-l4 {animation: sorting-network-5-31415-as-paths-l4_c_o 15000ms linear infinite normal forwards}@keyframes sorting-network-5-31415-as-paths-l4_c_o { 0% {opacity: 0} 36.667% {opacity: 0} 40% {opacity: 1} 100% {opacity: 1} }#sorting-network-5-31415-as-paths-l5 {animation: sorting-network-5-31415-as-paths-l5_c_o 15000ms linear infinite normal forwards}@keyframes sorting-network-5-31415-as-paths-l5_c_o { 0% {opacity: 0} 50% {opacity: 0} 53.333% {opacity: 1} 100% {opacity: 1} }#sorting-network-5-31415-as-paths-l6 {animation: sorting-network-5-31415-as-paths-l6_c_o 15000ms linear infinite normal forwards}@keyframes sorting-network-5-31415-as-paths-l6_c_o { 0% {opacity: 0} 63.333% {opacity: 0} 66.667% {opacity: 1} 100% {opacity: 1} }]]></style><defs><filter id="sorting-network-5-31415-as-paths-path1061-filter" x="-400%" width="600%" y="-400%" height="600%"><feColorMatrix id="sorting-network-5-31415-as-paths-path1061-filter-hue-rotate-0" type="hueRotate" values="-360" result="result"/><feColorMatrix id="sorting-network-5-31415-as-paths-path1061-filter-sepia-0" type="matrix" values="1 0 0 0 0 0 1 0 0 0 0 0 1 0 0 0 0 0 1 0" result="result"/></filter></defs><g id="sorting-network-5-31415-as-paths-layer1" transform="matrix(1 0 0 1 311.53800000000001 166.28399999999999)"><g id="sorting-network-5-31415-as-paths-l1"><path id="sorting-network-5-31415-as-paths-path1040" d="M-264.895590,-141.258930Q-264.815590,-141.258930,-264.747970,-141.236030Q-264.680270,-141.213230,-264.631990,-141.171030Q-264.582790,-141.128830,-264.555590,-141.069110Q-264.528390,-141.009310,-264.528390,-140.936430Q-264.528390,-140.876630,-264.544190,-140.829240Q-264.559090,-140.782640,-264.588090,-140.746640Q-264.616190,-140.711540,-264.656590,-140.686940Q-264.696990,-140.662340,-264.747090,-140.647440Q-264.624070,-140.614940,-264.562570,-140.538480Q-264.500170,-140.462080,-264.500170,-140.346940Q-264.500170,-140.259940,-264.533570,-140.190540Q-264.566070,-140.121140,-264.623170,-140.071920Q-264.680270,-140.023620,-264.756720,-139.997220Q-264.832320,-139.971720,-264.919270,-139.971720Q-265.019440,-139.971720,-265.090610,-139.996320Q-265.161810,-140.021820,-265.210980,-140.065720Q-265.260180,-140.109620,-265.291780,-140.169400Q-265.323380,-140.230000,-265.345380,-140.300320L-265.277680,-140.328420Q-265.251280,-140.339820,-265.226680,-140.334420Q-265.201180,-140.329420,-265.189780,-140.305420Q-265.178380,-140.280820,-265.161680,-140.246520Q-265.144080,-140.212220,-265.114280,-140.180620Q-265.084380,-140.149020,-265.038680,-140.127020Q-264.992080,-140.105020,-264.920940,-140.105020Q-264.855040,-140.105020,-264.805840,-140.126120Q-264.755740,-140.148120,-264.723240,-140.182320Q-264.689840,-140.216620,-264.673140,-140.258720Q-264.656440,-140.300920,-264.656440,-140.342220Q-264.656440,-140.393220,-264.669640,-140.435320Q-264.682840,-140.477520,-264.718840,-140.508220Q-264.754840,-140.539020,-264.818140,-140.556520Q-264.880540,-140.574120,-264.978930,-140.574120L-264.978930,-140.687460Q-264.898130,-140.688340,-264.841860,-140.705060Q-264.784760,-140.721760,-264.749560,-140.750760Q-264.713560,-140.779760,-264.697760,-140.820160Q-264.681060,-140.860560,-264.681060,-140.909760Q-264.681060,-140.964260,-264.698660,-141.004660Q-264.715360,-141.045060,-264.745260,-141.071460Q-264.775160,-141.097860,-264.816460,-141.110960Q-264.856860,-141.124160,-264.904360,-141.124160Q-264.951860,-141.124160,-264.993160,-141.110160Q-265.033560,-141.096060,-265.065260,-141.070660Q-265.095960,-141.046060,-265.117060,-141.011760Q-265.138160,-140.977460,-265.146960,-140.936160Q-265.158360,-140.905360,-265.175960,-140.894860Q-265.192660,-140.884860,-265.225160,-140.889860L-265.306860,-140.903960Q-265.294560,-140.990060,-265.259360,-141.055970Q-265.224260,-141.122770,-265.170660,-141.167560Q-265.116160,-141.212360,-265.046770,-141.235160Q-264.976470,-141.258860,-264.895640,-141.258860Z" fill="rgb(0,0,0)" stroke="none" stroke-width="0.352777"/><path id="sorting-network-5-31415-as-paths-path1042" d="M-265.201360,-145.005160L-264.931610,-145.005160L-264.931610,-145.863600Q-264.931610,-145.900500,-264.928610,-145.941800L-265.152660,-145.749380Q-265.164060,-145.739380,-265.175560,-145.737080Q-265.186960,-145.735080,-265.196660,-145.737080Q-265.206660,-145.739080,-265.215160,-145.744080Q-265.223160,-145.749080,-265.227460,-145.755480L-265.276660,-145.823180L-264.901480,-146.147400L-264.774070,-146.147400L-264.774070,-145.005150L-264.526290,-145.005150L-264.526290,-144.885660L-265.201100,-144.885660Z" fill="rgb(0,0,0)" stroke="none" stroke-width="0.352777"/><path id="sorting-network-5-31415-as-paths-path1045" d="M-264.642540,-150.239940L-264.451870,-150.239940L-264.451870,-150.150340Q-264.451870,-150.136340,-264.460870,-150.126640Q-264.468870,-150.116640,-264.486370,-150.116640L-264.642770,-150.116640L-264.642770,-149.785390L-264.779840,-149.785390L-264.779840,-150.116640L-265.338660,-150.116640Q-265.356260,-150.116640,-265.369360,-150.126640Q-265.381660,-150.137140,-265.385160,-150.152140L-265.400960,-150.232140L-264.788540,-151.044890L-264.642690,-151.044890ZM-264.779610,-150.759220Q-264.779610,-150.782020,-264.778730,-150.808420Q-264.776730,-150.835620,-264.772730,-150.863820L-265.231380,-150.239980L-264.779760,-150.239980Z" fill="rgb(0,0,0)" stroke="none" stroke-width="0.352777"/><path id="sorting-network-5-31415-as-paths-path1047" d="M-265.201360,-154.805180L-264.931610,-154.805180L-264.931610,-155.663620Q-264.931610,-155.700520,-264.928610,-155.741820L-265.152660,-155.549400Q-265.164060,-155.539400,-265.175560,-155.537100Q-265.186960,-155.535100,-265.196660,-155.537100Q-265.206660,-155.539100,-265.215160,-155.544100Q-265.223160,-155.549100,-265.227460,-155.555500L-265.276660,-155.623100L-264.901480,-155.947330L-264.774070,-155.947330L-264.774070,-154.805080L-264.526290,-154.805080L-264.526290,-154.685580L-265.201100,-154.685580Z" fill="rgb(0,0,0)" stroke="none" stroke-width="0.352777"/><path id="sorting-network-5-31415-as-paths-path1049" d="M-264.558190,-160.776170Q-264.558190,-160.742770,-264.579290,-160.720770Q-264.599490,-160.699670,-264.649590,-160.699670L-265.044980,-160.699670L-265.102980,-160.369300Q-265.052880,-160.380700,-265.008980,-160.385100Q-264.964180,-160.390100,-264.921980,-160.390100Q-264.823580,-160.390100,-264.748000,-160.361100Q-264.672400,-160.332100,-264.622360,-160.281100Q-264.571360,-160.230100,-264.545960,-160.160730Q-264.519560,-160.091330,-264.519560,-160.009600Q-264.519560,-159.909430,-264.554660,-159.828600Q-264.588960,-159.747800,-264.650460,-159.689770Q-264.711060,-159.632670,-264.793680,-159.601870Q-264.876280,-159.571070,-264.972050,-159.571070Q-265.027450,-159.571070,-265.078370,-159.582470Q-265.129370,-159.592970,-265.174170,-159.611470Q-265.218070,-159.629970,-265.255870,-159.653670Q-265.293670,-159.677370,-265.322670,-159.703770L-265.274370,-159.770570Q-265.258570,-159.793370,-265.233070,-159.793370Q-265.215470,-159.793370,-265.193570,-159.779270Q-265.171570,-159.766070,-265.139970,-159.749370Q-265.108370,-159.732670,-265.066170,-159.718570Q-265.023070,-159.705370,-264.964240,-159.705370Q-264.898340,-159.705370,-264.845620,-159.726470Q-264.792920,-159.747570,-264.755120,-159.786270Q-264.717320,-159.825770,-264.697120,-159.880270Q-264.676920,-159.934770,-264.676920,-160.002400Q-264.676920,-160.061300,-264.694520,-160.108720Q-264.711220,-160.156120,-264.746320,-160.189520Q-264.780620,-160.222920,-264.832420,-160.241320Q-264.884220,-160.259820,-264.953670,-160.259820Q-265.001170,-160.259820,-265.052970,-160.251820Q-265.103970,-160.243820,-265.157530,-160.226320L-265.255930,-160.255320L-265.154890,-160.844020L-264.558290,-160.844020Z" fill="rgb(0,0,0)" stroke="none" stroke-width="0.352777"/></g><path id="sorting-network-5-31415-as-paths-path912" d="M-261.393150,-153.444170L-261.393150,-158.343900" fill="none" stroke="rgb(0,0,0)" stroke-width="0.140582" stroke-miterlimit="10"/><path id="sorting-network-5-31415-as-paths-path914" d="M-260.690420,-153.444170C-260.690420,-153.832230,-261.005100,-154.146900,-261.393150,-154.146900C-261.781560,-154.146900,-262.096240,-153.832230,-262.096240,-153.444170C-262.096240,-153.055760,-261.781560,-152.741080,-261.393150,-152.741080C-261.005100,-152.741080,-260.690420,-153.055760,-260.690420,-153.444170Z" fill="rgb(0,0,0)" stroke="none" stroke-width="0.035278"/><path id="sorting-network-5-31415-as-paths-path916" d="M-260.690420,-158.343900C-260.690420,-158.732310,-261.005100,-159.046990,-261.393150,-159.046990C-261.781560,-159.046990,-262.096240,-158.732310,-262.096240,-158.343900C-262.096240,-157.955840,-261.781560,-157.641170,-261.393150,-157.641170C-261.005100,-157.641170,-260.690420,-157.955840,-260.690420,-158.343900Z" fill="rgb(0,0,0)" stroke="none" stroke-width="0.035278"/><path id="sorting-network-5-31415-as-paths-path918" d="M-261.393150,-143.644000L-261.393150,-148.544090" fill="none" stroke="rgb(0,0,0)" stroke-width="0.140582" stroke-miterlimit="10"/><path id="sorting-network-5-31415-as-paths-path920" d="M-260.690420,-143.644000C-260.690420,-144.032410,-261.005100,-144.347090,-261.393150,-144.347090C-261.781560,-144.347090,-262.096240,-144.032410,-262.096240,-143.644000C-262.096240,-143.255950,-261.781560,-142.941270,-261.393150,-142.941270C-261.005100,-142.941270,-260.690420,-143.255950,-260.690420,-143.644000Z" fill="rgb(0,0,0)" stroke="none" stroke-width="0.035278"/><path id="sorting-network-5-31415-as-paths-path922" d="M-260.690420,-148.544090C-260.690420,-148.932140,-261.005100,-149.246820,-261.393150,-149.246820C-261.781560,-149.246820,-262.096240,-148.932140,-262.096240,-148.544090C-262.096240,-148.156030,-261.781560,-147.841000,-261.393150,-147.841000C-261.005100,-147.841000,-260.690420,-148.156030,-260.690420,-148.544090Z" fill="rgb(0,0,0)" stroke="none" stroke-width="0.035278"/><path id="sorting-network-5-31415-as-paths-path924" d="M-257.963450,-136.784240L-257.963450,-161.283950" fill="none" stroke="rgb(0,0,0)" stroke-width="0.140582" stroke-miterlimit="10" stroke-dasharray="1.054390,1.054390"/><g id="sorting-network-5-31415-as-paths-l2" opacity="0"><path id="sorting-network-5-31415-as-paths-path1053" d="M-254.605910,-141.259220Q-254.526010,-141.259220,-254.458300,-141.236320Q-254.390600,-141.213520,-254.342320,-141.171320Q-254.293120,-141.129120,-254.265920,-141.069400Q-254.238720,-141.009600,-254.238720,-140.936720Q-254.238720,-140.877020,-254.254520,-140.829530Q-254.269420,-140.782930,-254.298420,-140.746930Q-254.326520,-140.711830,-254.366920,-140.687230Q-254.407320,-140.662630,-254.457420,-140.647730Q-254.334410,-140.615230,-254.272910,-140.538770Q-254.210510,-140.462370,-254.210510,-140.347230Q-254.210510,-140.260230,-254.243910,-140.190830Q-254.276410,-140.121430,-254.333510,-140.072210Q-254.390610,-140.023910,-254.467070,-139.997510Q-254.542670,-139.972010,-254.629620,-139.972010Q-254.729780,-139.972010,-254.800960,-139.996610Q-254.872160,-140.022110,-254.921330,-140.066010Q-254.970530,-140.109910,-255.002130,-140.169690Q-255.033730,-140.230290,-255.055730,-140.300610L-254.988130,-140.328710Q-254.961730,-140.340110,-254.937130,-140.334710Q-254.911630,-140.329710,-254.900230,-140.305710Q-254.888830,-140.281110,-254.872130,-140.246810Q-254.854530,-140.212510,-254.824730,-140.180910Q-254.794830,-140.149310,-254.749130,-140.127310Q-254.702530,-140.105310,-254.631400,-140.105310Q-254.565500,-140.105310,-254.516290,-140.126410Q-254.466190,-140.148410,-254.433690,-140.182610Q-254.400290,-140.216910,-254.383590,-140.259010Q-254.366890,-140.301210,-254.366890,-140.342510Q-254.366890,-140.393510,-254.380090,-140.435610Q-254.393290,-140.477810,-254.429290,-140.508510Q-254.465290,-140.539310,-254.528590,-140.556810Q-254.590990,-140.574410,-254.689390,-140.574410L-254.689390,-140.687750Q-254.608590,-140.688630,-254.552320,-140.705350Q-254.495220,-140.722050,-254.460020,-140.751050Q-254.424020,-140.780050,-254.408220,-140.820450Q-254.391520,-140.860850,-254.391520,-140.910050Q-254.391520,-140.964550,-254.409120,-141.004950Q-254.425820,-141.045350,-254.455720,-141.071750Q-254.485620,-141.098150,-254.526920,-141.111250Q-254.567320,-141.124450,-254.614820,-141.124450Q-254.662220,-141.124450,-254.703620,-141.110450Q-254.744020,-141.096350,-254.775620,-141.070950Q-254.806420,-141.046350,-254.827420,-141.012050Q-254.848520,-140.977750,-254.857320,-140.936450Q-254.868720,-140.905750,-254.886320,-140.895150Q-254.903020,-140.885150,-254.935520,-140.890150L-255.017220,-140.904250Q-255.004920,-140.990350,-254.969820,-141.056260Q-254.934620,-141.123060,-254.881020,-141.167850Q-254.826520,-141.212650,-254.757130,-141.235450Q-254.686830,-141.259150,-254.606000,-141.259150Z" fill="rgb(0,0,0)" stroke="none" stroke-width="0.352777"/><path id="sorting-network-5-31415-as-paths-path1055" d="M-254.352860,-145.340220L-254.162200,-145.340220L-254.162200,-145.250620Q-254.162200,-145.236520,-254.171200,-145.226920Q-254.179200,-145.216920,-254.196700,-145.216920L-254.353100,-145.216920L-254.353100,-144.885670L-254.490170,-144.885670L-254.490170,-145.216920L-255.048990,-145.216920Q-255.066590,-145.216920,-255.079790,-145.226920Q-255.092090,-145.237420,-255.095590,-145.252420L-255.111390,-145.332420L-254.498970,-146.145170L-254.353110,-146.145170ZM-254.489930,-145.859500Q-254.489930,-145.882300,-254.489050,-145.908700Q-254.487050,-145.935900,-254.483050,-145.964100L-254.941710,-145.340260L-254.490080,-145.340260Z" fill="rgb(255,0,0)" stroke="none" stroke-width="0.352777"/><path id="sorting-network-5-31415-as-paths-path1057" d="M-254.911690,-149.905460L-254.641940,-149.905460L-254.641940,-150.763900Q-254.641940,-150.800800,-254.638940,-150.842100L-254.863000,-150.649680Q-254.874400,-150.639680,-254.885800,-150.637380Q-254.897200,-150.635380,-254.906900,-150.637380Q-254.916900,-150.639380,-254.925400,-150.644380Q-254.933400,-150.649380,-254.937700,-150.655780L-254.986900,-150.723380L-254.611720,-151.047610L-254.484310,-151.047610L-254.484310,-149.905360L-254.236530,-149.905360L-254.236530,-149.785860L-254.911340,-149.785860Z" fill="rgb(255,0,0)" stroke="none" stroke-width="0.352777"/><path id="sorting-network-5-31415-as-paths-path1059" d="M-254.268510,-155.876540Q-254.268510,-155.843140,-254.289610,-155.821140Q-254.309810,-155.800040,-254.359910,-155.800040L-254.755310,-155.800040L-254.813310,-155.469670Q-254.763210,-155.481070,-254.719310,-155.485470Q-254.674510,-155.490470,-254.632310,-155.490470Q-254.533910,-155.490470,-254.458340,-155.461470Q-254.382740,-155.432470,-254.332690,-155.381470Q-254.281690,-155.330470,-254.256290,-155.261100Q-254.229890,-155.191700,-254.229890,-155.109970Q-254.229890,-155.009810,-254.264990,-154.928970Q-254.299290,-154.848170,-254.360790,-154.790140Q-254.421390,-154.733040,-254.504010,-154.702240Q-254.586610,-154.671440,-254.682380,-154.671440Q-254.737780,-154.671440,-254.788690,-154.682840Q-254.839690,-154.693340,-254.884490,-154.711840Q-254.928390,-154.730340,-254.966190,-154.754040Q-255.003990,-154.777740,-255.032990,-154.804140L-254.984690,-154.870940Q-254.968890,-154.893740,-254.943390,-154.893740Q-254.925790,-154.893740,-254.903890,-154.879740Q-254.881890,-154.866540,-254.850290,-154.849840Q-254.818690,-154.833140,-254.776490,-154.819040Q-254.733490,-154.805840,-254.674570,-154.805840Q-254.608670,-154.805840,-254.555950,-154.826940Q-254.503250,-154.848040,-254.465450,-154.886640Q-254.427650,-154.926140,-254.407450,-154.980640Q-254.387250,-155.035140,-254.387250,-155.102770Q-254.387250,-155.161670,-254.404850,-155.209090Q-254.421550,-155.256490,-254.456650,-155.289890Q-254.490950,-155.323290,-254.542750,-155.341690Q-254.594550,-155.360190,-254.664010,-155.360190Q-254.711410,-155.360190,-254.763310,-155.352190Q-254.814310,-155.344190,-254.867870,-155.326690L-254.966270,-155.355690L-254.865230,-155.944390L-254.268620,-155.944390Z" fill="rgb(255,0,0)" stroke="none" stroke-width="0.352777"/><path id="sorting-network-5-31415-as-paths-path1061" d="M-254.911690,-159.705390L-254.641940,-159.705390L-254.641940,-160.563830Q-254.641940,-160.600730,-254.638940,-160.642030L-254.863000,-160.449600Q-254.874400,-160.439600,-254.885800,-160.437300Q-254.897200,-160.435300,-254.906900,-160.437300Q-254.916900,-160.439300,-254.925400,-160.444300Q-254.933400,-160.449300,-254.937700,-160.455700L-254.986900,-160.523400L-254.611720,-160.847620L-254.484310,-160.847620L-254.484310,-159.705380L-254.236530,-159.705380L-254.236530,-159.585880L-254.911340,-159.585880Z" filter="url(#sorting-network-5-31415-as-paths-path1061-filter)" fill="rgb(255,0,0)" stroke="none" stroke-width="0.352777"/></g><path id="sorting-network-5-31415-as-paths-path940" d="M-251.103330,-143.644000L-251.103330,-153.444170" fill="none" stroke="rgb(0,0,0)" stroke-width="0.140582" stroke-miterlimit="10"/><path id="sorting-network-5-31415-as-paths-path942" d="M-250.400600,-143.644000C-250.400600,-144.032410,-250.715280,-144.347090,-251.103330,-144.347090C-251.491740,-144.347090,-251.806420,-144.032410,-251.806420,-143.644000C-251.806420,-143.255950,-251.491740,-142.941270,-251.103330,-142.941270C-250.715280,-142.941270,-250.400600,-143.255950,-250.400600,-143.644000Z" fill="rgb(0,0,0)" stroke="none" stroke-width="0.035278"/><path id="sorting-network-5-31415-as-paths-path944" d="M-250.400600,-153.444170C-250.400600,-153.832230,-250.715280,-154.146900,-251.103330,-154.146900C-251.491740,-154.146900,-251.806420,-153.832230,-251.806420,-153.444170C-251.806420,-153.055760,-251.491740,-152.741080,-251.103330,-152.741080C-250.715280,-152.741080,-250.400600,-153.055760,-250.400600,-153.444170Z" fill="rgb(0,0,0)" stroke="none" stroke-width="0.035278"/><path id="sorting-network-5-31415-as-paths-path946" d="M-247.673630,-138.744270L-247.673630,-148.544090" fill="none" stroke="rgb(0,0,0)" stroke-width="0.140582" stroke-miterlimit="10"/><path id="sorting-network-5-31415-as-paths-path948" d="M-246.970540,-138.744270C-246.970540,-139.132330,-247.285220,-139.447010,-247.673630,-139.447010C-248.061680,-139.447010,-248.376360,-139.132330,-248.376360,-138.744270C-248.376360,-138.355860,-248.061680,-138.041190,-247.673630,-138.041190C-247.285220,-138.041190,-246.970540,-138.355860,-246.970540,-138.744270Z" fill="rgb(0,0,0)" stroke="none" stroke-width="0.035278"/><path id="sorting-network-5-31415-as-paths-path950" d="M-246.970540,-148.544090C-246.970540,-148.932140,-247.285220,-149.246820,-247.673630,-149.246820C-248.061680,-149.246820,-248.376360,-148.932140,-248.376360,-148.544090C-248.376360,-148.156030,-248.061680,-147.841000,-247.673630,-147.841000C-247.285220,-147.841000,-246.970540,-148.156030,-246.970540,-148.544090Z" fill="rgb(0,0,0)" stroke="none" stroke-width="0.035278"/><path id="sorting-network-5-31415-as-paths-path952" d="M-244.243570,-136.784240L-244.243570,-161.283950" fill="none" stroke="rgb(0,0,0)" stroke-width="0.140582" stroke-miterlimit="10" stroke-dasharray="1.054390,1.054390"/><g id="sorting-network-5-31415-as-paths-l3" opacity="0"><path id="sorting-network-5-31415-as-paths-path1064" d="M-240.886040,-141.259220Q-240.806040,-141.259220,-240.738420,-141.236320Q-240.670820,-141.213520,-240.622440,-141.171320Q-240.573240,-141.129120,-240.546040,-141.069400Q-240.518840,-141.009600,-240.518840,-140.936720Q-240.518840,-140.877020,-240.534640,-140.829530Q-240.549540,-140.782930,-240.578540,-140.746930Q-240.606640,-140.711830,-240.647040,-140.687230Q-240.687440,-140.662630,-240.737540,-140.647730Q-240.614530,-140.615230,-240.553030,-140.538770Q-240.490630,-140.462370,-240.490630,-140.347230Q-240.490630,-140.260230,-240.524030,-140.190830Q-240.556530,-140.121430,-240.613630,-140.072210Q-240.670730,-140.023910,-240.747190,-139.997510Q-240.822790,-139.972010,-240.909740,-139.972010Q-241.009910,-139.972010,-241.081080,-139.996610Q-241.152280,-140.022110,-241.201450,-140.066010Q-241.250650,-140.109910,-241.282250,-140.169690Q-241.313850,-140.230290,-241.335850,-140.300610L-241.268150,-140.328710Q-241.241750,-140.340110,-241.217150,-140.334710Q-241.191650,-140.329710,-241.180250,-140.305710Q-241.168850,-140.281110,-241.152150,-140.246810Q-241.134550,-140.212510,-241.104750,-140.180910Q-241.074850,-140.149310,-241.029150,-140.127310Q-240.982550,-140.105310,-240.911410,-140.105310Q-240.845510,-140.105310,-240.796300,-140.126410Q-240.746200,-140.148410,-240.713700,-140.182610Q-240.680300,-140.216910,-240.663600,-140.259010Q-240.646900,-140.301210,-240.646900,-140.342510Q-240.646900,-140.393510,-240.660100,-140.435610Q-240.673300,-140.477810,-240.709300,-140.508510Q-240.745300,-140.539310,-240.808600,-140.556810Q-240.871000,-140.574410,-240.969400,-140.574410L-240.969400,-140.687750Q-240.888600,-140.688630,-240.832330,-140.705350Q-240.775230,-140.722050,-240.740030,-140.751050Q-240.704030,-140.780050,-240.688230,-140.820450Q-240.671530,-140.860850,-240.671530,-140.910050Q-240.671530,-140.964550,-240.689130,-141.004950Q-240.705830,-141.045350,-240.735730,-141.071750Q-240.765630,-141.098150,-240.806930,-141.111250Q-240.847330,-141.124450,-240.894830,-141.124450Q-240.942230,-141.124450,-240.983530,-141.110450Q-241.023930,-141.096350,-241.055630,-141.070950Q-241.086330,-141.046350,-241.107430,-141.012050Q-241.128530,-140.977750,-241.137330,-140.936450Q-241.148730,-140.905750,-241.166330,-140.895150Q-241.183030,-140.885150,-241.215530,-140.890150L-241.297230,-140.904250Q-241.284930,-140.990350,-241.249830,-141.056260Q-241.214730,-141.123060,-241.161030,-141.167850Q-241.106530,-141.212650,-241.037140,-141.235450Q-240.966840,-141.259150,-240.886020,-141.259150Z" fill="rgb(0,170,0)" stroke="none" stroke-width="0.352777"/><path id="sorting-network-5-31415-as-paths-path1066" d="M-240.548630,-146.076530Q-240.548630,-146.043130,-240.569730,-146.021130Q-240.589930,-146.000030,-240.640030,-146.000030L-241.035430,-146.000030L-241.093430,-145.669660Q-241.043330,-145.681060,-240.999430,-145.685460Q-240.954630,-145.690460,-240.912430,-145.690460Q-240.814030,-145.690460,-240.738450,-145.661460Q-240.662850,-145.632460,-240.612810,-145.581560Q-240.561810,-145.530560,-240.536410,-145.461180Q-240.510010,-145.391780,-240.510010,-145.310050Q-240.510010,-145.209890,-240.545110,-145.129050Q-240.579410,-145.048250,-240.640910,-144.990230Q-240.701510,-144.933130,-240.784130,-144.902330Q-240.866730,-144.871630,-240.962500,-144.871630Q-241.017900,-144.871630,-241.068820,-144.883030Q-241.119820,-144.893530,-241.164620,-144.912030Q-241.208520,-144.930530,-241.246320,-144.954230Q-241.284120,-144.977930,-241.313120,-145.004330L-241.264820,-145.071130Q-241.249020,-145.094030,-241.223520,-145.094030Q-241.205920,-145.094030,-241.184020,-145.079930Q-241.162020,-145.066730,-241.130420,-145.050030Q-241.098820,-145.033330,-241.056620,-145.019230Q-241.013620,-145.006030,-240.954700,-145.006030Q-240.888800,-145.006030,-240.836080,-145.027130Q-240.783380,-145.048230,-240.745580,-145.086830Q-240.707780,-145.126330,-240.687580,-145.180830Q-240.667380,-145.235330,-240.667380,-145.302960Q-240.667380,-145.361860,-240.684980,-145.409280Q-240.701680,-145.456680,-240.736880,-145.490080Q-240.771180,-145.523480,-240.822980,-145.541880Q-240.874780,-145.560380,-240.944240,-145.560380Q-240.991640,-145.560380,-241.043540,-145.552380Q-241.094540,-145.544380,-241.148100,-145.526880L-241.246500,-145.555880L-241.145460,-146.144570L-240.548850,-146.144570Z" fill="rgb(255,0,0)" stroke="none" stroke-width="0.352777"/><path id="sorting-network-5-31415-as-paths-path1068" d="M-241.191810,-149.905460L-240.922060,-149.905460L-240.922060,-150.763900Q-240.922060,-150.800800,-240.919060,-150.842100L-241.143120,-150.649680Q-241.154520,-150.639680,-241.165920,-150.637380Q-241.177320,-150.635380,-241.187020,-150.637380Q-241.197020,-150.639380,-241.205520,-150.644380Q-241.213520,-150.649380,-241.217820,-150.655780L-241.267020,-150.723380L-240.891840,-151.047610L-240.764430,-151.047610L-240.764430,-149.905360L-240.516650,-149.905360L-240.516650,-149.785860L-241.191460,-149.785860Z" fill="rgb(0,170,0)" stroke="none" stroke-width="0.352777"/><path id="sorting-network-5-31415-as-paths-path1070" d="M-240.632980,-155.140240L-240.442320,-155.140240L-240.442320,-155.050640Q-240.442320,-155.036640,-240.451320,-155.026940Q-240.459320,-155.016940,-240.476820,-155.016940L-240.633220,-155.016940L-240.633220,-154.685680L-240.770290,-154.685680L-240.770290,-155.016940L-241.329120,-155.016940Q-241.346720,-155.016940,-241.359920,-155.026940Q-241.372220,-155.037440,-241.375720,-155.052440L-241.391520,-155.132440L-240.779100,-155.945190L-240.633240,-155.945190ZM-240.770050,-155.659520Q-240.770050,-155.682320,-240.769180,-155.708720Q-240.767180,-155.735920,-240.763180,-155.764120L-241.221840,-155.140280L-240.770210,-155.140280Z" fill="rgb(255,0,0)" stroke="none" stroke-width="0.352777"/><path id="sorting-network-5-31415-as-paths-path1072" d="M-241.191810,-159.705390L-240.922060,-159.705390L-240.922060,-160.563830Q-240.922060,-160.600730,-240.919060,-160.642030L-241.143120,-160.449600Q-241.154520,-160.439600,-241.165920,-160.437300Q-241.177320,-160.435300,-241.187020,-160.437300Q-241.197020,-160.439300,-241.205520,-160.444300Q-241.213520,-160.449300,-241.217820,-160.455700L-241.267020,-160.523400L-240.891840,-160.847620L-240.764430,-160.847620L-240.764430,-159.705380L-240.516650,-159.705380L-240.516650,-159.585880L-241.191460,-159.585880Z" fill="rgb(0,0,0)" stroke="none" stroke-width="0.352777"/></g><path id="sorting-network-5-31415-as-paths-path968" d="M-237.383450,-138.744270L-237.383450,-153.444170" fill="none" stroke="rgb(0,0,0)" stroke-width="0.140582" stroke-miterlimit="10"/><path id="sorting-network-5-31415-as-paths-path970" d="M-236.680720,-138.744270C-236.680720,-139.132330,-236.995400,-139.447010,-237.383450,-139.447010C-237.771860,-139.447010,-238.086540,-139.132330,-238.086540,-138.744270C-238.086540,-138.355860,-237.771860,-138.041190,-237.383450,-138.041190C-236.995400,-138.041190,-236.680720,-138.355860,-236.680720,-138.744270Z" fill="rgb(0,0,0)" stroke="none" stroke-width="0.035278"/><path id="sorting-network-5-31415-as-paths-path972" d="M-236.680720,-153.444170C-236.680720,-153.832230,-236.995400,-154.146900,-237.383450,-154.146900C-237.771860,-154.146900,-238.086540,-153.832230,-238.086540,-153.444170C-238.086540,-153.055760,-237.771860,-152.741080,-237.383450,-152.741080C-236.995400,-152.741080,-236.680720,-153.055760,-236.680720,-153.444170Z" fill="rgb(0,0,0)" stroke="none" stroke-width="0.035278"/><path id="sorting-network-5-31415-as-paths-path974" d="M-233.953750,-148.544090L-233.953750,-158.343900" fill="none" stroke="rgb(0,0,0)" stroke-width="0.140582" stroke-miterlimit="10"/><path id="sorting-network-5-31415-as-paths-path976" d="M-233.250660,-148.544090C-233.250660,-148.932140,-233.565340,-149.246820,-233.953750,-149.246820C-234.341800,-149.246820,-234.656480,-148.932140,-234.656480,-148.544090C-234.656480,-148.156030,-234.341800,-147.841000,-233.953750,-147.841000C-233.565340,-147.841000,-233.250660,-148.156030,-233.250660,-148.544090Z" fill="rgb(0,0,0)" stroke="none" stroke-width="0.035278"/><path id="sorting-network-5-31415-as-paths-path978" d="M-233.250660,-158.343900C-233.250660,-158.732310,-233.565340,-159.046990,-233.953750,-159.046990C-234.341800,-159.046990,-234.656480,-158.732310,-234.656480,-158.343900C-234.656480,-157.955840,-234.341800,-157.641170,-233.953750,-157.641170C-233.565340,-157.641170,-233.250660,-157.955840,-233.250660,-158.343900Z" fill="rgb(0,0,0)" stroke="none" stroke-width="0.035278"/><path id="sorting-network-5-31415-as-paths-path980" d="M-230.523690,-136.784240L-230.523690,-161.283950" fill="none" stroke="rgb(0,0,0)" stroke-width="0.140582" stroke-miterlimit="10" stroke-dasharray="1.054390,1.054390"/><g id="sorting-network-5-31415-as-paths-l4" opacity="0"><path id="sorting-network-5-31415-as-paths-path1075" d="M-226.913110,-140.440320L-226.722440,-140.440320L-226.722440,-140.350720Q-226.722440,-140.336620,-226.731440,-140.327020Q-226.739440,-140.317020,-226.756940,-140.317020L-226.913340,-140.317020L-226.913340,-139.985770L-227.050400,-139.985770L-227.050400,-140.317020L-227.609230,-140.317020Q-227.626830,-140.317020,-227.639930,-140.327020Q-227.652230,-140.337520,-227.655730,-140.352520L-227.671530,-140.432520L-227.059110,-141.245270L-226.913260,-141.245270ZM-227.050170,-140.959600Q-227.050170,-140.982400,-227.049300,-141.008800Q-227.047300,-141.036000,-227.043300,-141.064200L-227.501950,-140.440360L-227.050320,-140.440360Z" fill="rgb(255,0,0)" stroke="none" stroke-width="0.352777"/><path id="sorting-network-5-31415-as-paths-path1077" d="M-226.828760,-146.076530Q-226.828760,-146.043130,-226.849860,-146.021130Q-226.870060,-146.000030,-226.920160,-146.000030L-227.315560,-146.000030L-227.373560,-145.669660Q-227.323460,-145.681060,-227.279560,-145.685460Q-227.234760,-145.690460,-227.192560,-145.690460Q-227.094160,-145.690460,-227.018580,-145.661460Q-226.942980,-145.632460,-226.892940,-145.581560Q-226.841940,-145.530560,-226.816540,-145.461180Q-226.790140,-145.391780,-226.790140,-145.310050Q-226.790140,-145.209890,-226.825340,-145.129050Q-226.859640,-145.048250,-226.921140,-144.990230Q-226.981740,-144.933130,-227.064360,-144.902330Q-227.146960,-144.871630,-227.242730,-144.871630Q-227.298030,-144.871630,-227.349050,-144.883030Q-227.400050,-144.893530,-227.444850,-144.912030Q-227.488750,-144.930530,-227.526550,-144.954230Q-227.564350,-144.977930,-227.593350,-145.004330L-227.545050,-145.071130Q-227.529250,-145.094030,-227.503750,-145.094030Q-227.486150,-145.094030,-227.464250,-145.079930Q-227.442250,-145.066730,-227.410650,-145.050030Q-227.379050,-145.033330,-227.336850,-145.019230Q-227.293850,-145.006030,-227.234930,-145.006030Q-227.169030,-145.006030,-227.116310,-145.027130Q-227.063610,-145.048230,-227.025810,-145.086830Q-226.988010,-145.126330,-226.967810,-145.180830Q-226.947610,-145.235330,-226.947610,-145.302960Q-226.947610,-145.361860,-226.965210,-145.409280Q-226.981910,-145.456680,-227.017010,-145.490080Q-227.051310,-145.523480,-227.103110,-145.541880Q-227.154910,-145.560380,-227.224370,-145.560380Q-227.271770,-145.560380,-227.323670,-145.552380Q-227.374670,-145.544380,-227.428220,-145.526880L-227.526620,-145.555880L-227.425580,-146.144570L-226.828980,-146.144570Z" fill="rgb(0,0,0)" stroke="none" stroke-width="0.352777"/><path id="sorting-network-5-31415-as-paths-path1079" d="M-227.471930,-149.905460L-227.202180,-149.905460L-227.202180,-150.763900Q-227.202180,-150.800800,-227.199180,-150.842100L-227.423230,-150.649680Q-227.434630,-150.639680,-227.446130,-150.637380Q-227.457530,-150.635380,-227.467230,-150.637380Q-227.477230,-150.639380,-227.485730,-150.644380Q-227.493730,-150.649380,-227.498030,-150.655780L-227.547230,-150.723380L-227.172050,-151.047610L-227.044640,-151.047610L-227.044640,-149.905360L-226.796860,-149.905360L-226.796860,-149.785860L-227.471670,-149.785860Z" fill="rgb(0,170,0)" stroke="none" stroke-width="0.352777"/><path id="sorting-network-5-31415-as-paths-path1081" d="M-227.166160,-155.959140Q-227.086160,-155.959140,-227.018540,-155.936340Q-226.950840,-155.913540,-226.902560,-155.871340Q-226.853360,-155.829140,-226.826160,-155.769420Q-226.798960,-155.709620,-226.798960,-155.636740Q-226.798960,-155.577040,-226.814760,-155.529550Q-226.829660,-155.482950,-226.858660,-155.446950Q-226.886760,-155.411850,-226.927160,-155.387150Q-226.967560,-155.362550,-227.017660,-155.347650Q-226.894650,-155.315150,-226.833150,-155.238690Q-226.770750,-155.162290,-226.770750,-155.047150Q-226.770750,-154.960150,-226.804150,-154.890750Q-226.836650,-154.821350,-226.893750,-154.772130Q-226.950850,-154.723830,-227.027300,-154.697430Q-227.102900,-154.671930,-227.189850,-154.671930Q-227.290020,-154.671930,-227.361190,-154.696530Q-227.432390,-154.722030,-227.481560,-154.765930Q-227.530760,-154.809830,-227.562360,-154.869610Q-227.593960,-154.930210,-227.615960,-155.000530L-227.548260,-155.028630Q-227.521860,-155.040030,-227.497260,-155.034630Q-227.471760,-155.029630,-227.460360,-155.005630Q-227.448960,-154.981030,-227.432260,-154.946730Q-227.414660,-154.912430,-227.384860,-154.880830Q-227.354960,-154.849230,-227.309260,-154.827230Q-227.262660,-154.805230,-227.191520,-154.805230Q-227.125620,-154.805230,-227.076410,-154.826330Q-227.026310,-154.848330,-226.993810,-154.882530Q-226.960410,-154.916830,-226.943710,-154.958930Q-226.927010,-155.001130,-226.927010,-155.042430Q-226.927010,-155.093430,-226.940210,-155.135530Q-226.953410,-155.177730,-226.989410,-155.208430Q-227.025410,-155.239230,-227.088710,-155.256730Q-227.151110,-155.274330,-227.249500,-155.274330L-227.249500,-155.387680Q-227.168700,-155.388550,-227.112430,-155.405280Q-227.055330,-155.421980,-227.020130,-155.450980Q-226.984130,-155.479980,-226.968330,-155.520380Q-226.951630,-155.560780,-226.951630,-155.609980Q-226.951630,-155.664480,-226.969230,-155.704880Q-226.985930,-155.745280,-227.015830,-155.771680Q-227.045730,-155.798080,-227.087030,-155.811180Q-227.127430,-155.824380,-227.174930,-155.824380Q-227.222330,-155.824380,-227.263730,-155.810380Q-227.304130,-155.796280,-227.335730,-155.770880Q-227.366530,-155.746280,-227.387530,-155.711980Q-227.408630,-155.677680,-227.417430,-155.636380Q-227.428830,-155.605580,-227.446430,-155.595080Q-227.463130,-155.585080,-227.495630,-155.590080L-227.577330,-155.604180Q-227.565030,-155.690280,-227.529930,-155.756190Q-227.494730,-155.822990,-227.441130,-155.867780Q-227.386630,-155.912580,-227.317240,-155.935380Q-227.246940,-155.959080,-227.166120,-155.959080Z" fill="rgb(255,0,0)" stroke="none" stroke-width="0.352777"/><path id="sorting-network-5-31415-as-paths-path1083" d="M-227.471930,-159.705390L-227.202180,-159.705390L-227.202180,-160.563830Q-227.202180,-160.600730,-227.199180,-160.642030L-227.423230,-160.449600Q-227.434630,-160.439600,-227.446130,-160.437300Q-227.457530,-160.435300,-227.467230,-160.437300Q-227.477230,-160.439300,-227.485730,-160.444300Q-227.493730,-160.449300,-227.498030,-160.455700L-227.547230,-160.523400L-227.172050,-160.847620L-227.044640,-160.847620L-227.044640,-159.705380L-226.796860,-159.705380L-226.796860,-159.585880L-227.471670,-159.585880Z" fill="rgb(0,170,0)" stroke="none" stroke-width="0.352777"/></g><path id="sorting-network-5-31415-as-paths-path996" d="M-223.663570,-138.744270L-223.663570,-143.644000" fill="none" stroke="rgb(0,0,0)" stroke-width="0.140582" stroke-miterlimit="10"/><path id="sorting-network-5-31415-as-paths-path998" d="M-222.960840,-138.744270C-222.960840,-139.132330,-223.275510,-139.447010,-223.663570,-139.447010C-224.051980,-139.447010,-224.366660,-139.132330,-224.366660,-138.744270C-224.366660,-138.355860,-224.051980,-138.041190,-223.663570,-138.041190C-223.275510,-138.041190,-222.960840,-138.355860,-222.960840,-138.744270Z" fill="rgb(0,0,0)" stroke="none" stroke-width="0.035278"/><path id="sorting-network-5-31415-as-paths-path1000" d="M-222.960840,-143.644000C-222.960840,-144.032410,-223.275510,-144.347090,-223.663570,-144.347090C-224.051980,-144.347090,-224.366660,-144.032410,-224.366660,-143.644000C-224.366660,-143.255950,-224.051980,-142.941270,-223.663570,-142.941270C-223.275510,-142.941270,-222.960840,-143.255950,-222.960840,-143.644000Z" fill="rgb(0,0,0)" stroke="none" stroke-width="0.035278"/><path id="sorting-network-5-31415-as-paths-path1002" d="M-223.663570,-148.544090L-223.663570,-153.444170" fill="none" stroke="rgb(0,0,0)" stroke-width="0.140582" stroke-miterlimit="10"/><path id="sorting-network-5-31415-as-paths-path1004" d="M-222.960840,-148.544090C-222.960840,-148.932140,-223.275510,-149.246820,-223.663570,-149.246820C-224.051980,-149.246820,-224.366660,-148.932140,-224.366660,-148.544090C-224.366660,-148.156030,-224.051980,-147.841000,-223.663570,-147.841000C-223.275510,-147.841000,-222.960840,-148.156030,-222.960840,-148.544090Z" fill="rgb(0,0,0)" stroke="none" stroke-width="0.035278"/><path id="sorting-network-5-31415-as-paths-path1006" d="M-222.960840,-153.444170C-222.960840,-153.832230,-223.275510,-154.146900,-223.663570,-154.146900C-224.051980,-154.146900,-224.366660,-153.832230,-224.366660,-153.444170C-224.366660,-153.055760,-224.051980,-152.741080,-223.663570,-152.741080C-223.275510,-152.741080,-222.960840,-153.055760,-222.960840,-153.444170Z" fill="rgb(0,0,0)" stroke="none" stroke-width="0.035278"/><path id="sorting-network-5-31415-as-paths-path1008" d="M-220.233860,-136.784240L-220.233860,-161.283950" fill="none" stroke="rgb(0,0,0)" stroke-width="0.140582" stroke-miterlimit="10" stroke-dasharray="1.054390,1.054390"/><g id="sorting-network-5-31415-as-paths-l5" opacity="0"><path id="sorting-network-5-31415-as-paths-path1086" d="M-216.538940,-141.176620Q-216.538940,-141.143220,-216.560040,-141.121220Q-216.580240,-141.100120,-216.630340,-141.100120L-217.025740,-141.100120L-217.083740,-140.769750Q-217.033640,-140.781150,-216.989740,-140.785550Q-216.944940,-140.790550,-216.902740,-140.790550Q-216.804340,-140.790550,-216.728760,-140.761550Q-216.653160,-140.732550,-216.603120,-140.681550Q-216.552120,-140.630550,-216.526620,-140.561180Q-216.500220,-140.491780,-216.500220,-140.410050Q-216.500220,-140.309890,-216.535320,-140.229050Q-216.569620,-140.148250,-216.631120,-140.090220Q-216.691720,-140.033120,-216.774340,-140.002320Q-216.856940,-139.971620,-216.952710,-139.971620Q-217.008110,-139.971620,-217.059030,-139.983020Q-217.110030,-139.993520,-217.154830,-140.012020Q-217.198730,-140.030520,-217.236530,-140.054220Q-217.274330,-140.077920,-217.303330,-140.104320L-217.255030,-140.171120Q-217.239230,-140.193920,-217.213730,-140.193920Q-217.196130,-140.193920,-217.174230,-140.179920Q-217.152230,-140.166720,-217.120630,-140.150020Q-217.089030,-140.133320,-217.046830,-140.119220Q-217.003830,-140.106020,-216.944910,-140.106020Q-216.879010,-140.106020,-216.826290,-140.127120Q-216.773590,-140.148220,-216.735790,-140.186820Q-216.697990,-140.226320,-216.677790,-140.280820Q-216.657590,-140.335320,-216.657590,-140.402950Q-216.657590,-140.461850,-216.675190,-140.509270Q-216.691890,-140.556670,-216.726990,-140.590070Q-216.761290,-140.623470,-216.813090,-140.641970Q-216.864890,-140.660470,-216.934350,-140.660470Q-216.981750,-140.660470,-217.033650,-140.652470Q-217.084650,-140.644470,-217.138210,-140.626970L-217.236610,-140.655970L-217.135570,-141.244670L-216.538960,-141.244670Z" fill="rgb(0,0,0)" stroke="none" stroke-width="0.352777"/><path id="sorting-network-5-31415-as-paths-path1088" d="M-216.623300,-145.340220L-216.432630,-145.340220L-216.432630,-145.250620Q-216.432630,-145.236520,-216.441630,-145.226920Q-216.449630,-145.216920,-216.467130,-145.216920L-216.623530,-145.216920L-216.623530,-144.885670L-216.760590,-144.885670L-216.760590,-145.216920L-217.319420,-145.216920Q-217.337020,-145.216920,-217.350220,-145.226920Q-217.362520,-145.237420,-217.366020,-145.252420L-217.381820,-145.332420L-216.769400,-146.145170L-216.623550,-146.145170ZM-216.760360,-145.859500Q-216.760360,-145.882300,-216.759490,-145.908700Q-216.757490,-145.935900,-216.753490,-145.964100L-217.212140,-145.340260L-216.760510,-145.340260Z" fill="rgb(0,0,0)" stroke="none" stroke-width="0.352777"/><path id="sorting-network-5-31415-as-paths-path1090" d="M-216.876350,-151.059130Q-216.796350,-151.059130,-216.728730,-151.036230Q-216.661030,-151.013430,-216.612750,-150.971230Q-216.563550,-150.929030,-216.536350,-150.869310Q-216.509150,-150.809510,-216.509150,-150.736630Q-216.509150,-150.676930,-216.524950,-150.629440Q-216.539850,-150.582840,-216.568850,-150.546840Q-216.596950,-150.511740,-216.637350,-150.487140Q-216.677750,-150.462540,-216.727850,-150.447640Q-216.604840,-150.415140,-216.543340,-150.338690Q-216.480940,-150.262290,-216.480940,-150.147140Q-216.480940,-150.060140,-216.514340,-149.990740Q-216.546840,-149.921340,-216.603940,-149.872120Q-216.661040,-149.823820,-216.737500,-149.797420Q-216.813100,-149.771920,-216.900050,-149.771920Q-217.000220,-149.771920,-217.071390,-149.796520Q-217.142590,-149.822020,-217.191760,-149.865920Q-217.240960,-149.909820,-217.272560,-149.969600Q-217.304160,-150.030200,-217.326160,-150.100520L-217.258460,-150.128620Q-217.232060,-150.140020,-217.207460,-150.134620Q-217.181960,-150.129620,-217.170560,-150.105620Q-217.159160,-150.081020,-217.142460,-150.046720Q-217.124860,-150.012420,-217.095060,-149.980820Q-217.065160,-149.949220,-217.019460,-149.927220Q-216.972860,-149.905220,-216.901720,-149.905220Q-216.835820,-149.905220,-216.786610,-149.926320Q-216.736510,-149.948320,-216.704010,-149.982520Q-216.670610,-150.016820,-216.653910,-150.059020Q-216.637210,-150.101220,-216.637210,-150.142520Q-216.637210,-150.193520,-216.650410,-150.235620Q-216.663610,-150.277820,-216.699610,-150.308520Q-216.735610,-150.339220,-216.798910,-150.356820Q-216.861310,-150.374420,-216.959700,-150.374420L-216.959700,-150.487770Q-216.878900,-150.488640,-216.822630,-150.505370Q-216.765530,-150.522070,-216.730330,-150.551070Q-216.694330,-150.580070,-216.678530,-150.620470Q-216.661830,-150.660870,-216.661830,-150.710070Q-216.661830,-150.764570,-216.679430,-150.804970Q-216.696130,-150.845370,-216.726030,-150.871770Q-216.755930,-150.898170,-216.797230,-150.911270Q-216.837630,-150.924470,-216.885130,-150.924470Q-216.932530,-150.924470,-216.973930,-150.910370Q-217.014330,-150.896270,-217.045930,-150.870870Q-217.076730,-150.846270,-217.097730,-150.811970Q-217.118830,-150.777670,-217.127630,-150.736370Q-217.139030,-150.705570,-217.156630,-150.695070Q-217.173330,-150.685070,-217.205830,-150.690070L-217.287530,-150.704070Q-217.275230,-150.790170,-217.240130,-150.856080Q-217.205030,-150.922880,-217.151430,-150.967670Q-217.096930,-151.012470,-217.027540,-151.035370Q-216.957240,-151.059070,-216.876420,-151.059070Z" fill="rgb(255,0,0)" stroke="none" stroke-width="0.352777"/><path id="sorting-network-5-31415-as-paths-path1092" d="M-217.182120,-154.805470L-216.912370,-154.805470L-216.912370,-155.663910Q-216.912370,-155.700810,-216.909370,-155.742110L-217.133420,-155.549690Q-217.144820,-155.539690,-217.156320,-155.537390Q-217.167720,-155.535390,-217.177420,-155.537390Q-217.187420,-155.539390,-217.195920,-155.544390Q-217.203920,-155.549390,-217.208220,-155.555790L-217.257420,-155.623490L-216.882240,-155.947720L-216.754830,-155.947720L-216.754830,-154.805470L-216.507050,-154.805470L-216.507050,-154.685970L-217.181860,-154.685970Z" fill="rgb(255,0,0)" stroke="none" stroke-width="0.352777"/><path id="sorting-network-5-31415-as-paths-path1094" d="M-217.182120,-159.705390L-216.912370,-159.705390L-216.912370,-160.563830Q-216.912370,-160.600730,-216.909370,-160.642030L-217.133420,-160.449600Q-217.144820,-160.439600,-217.156320,-160.437300Q-217.167720,-160.435300,-217.177420,-160.437300Q-217.187420,-160.439300,-217.195920,-160.444300Q-217.203920,-160.449300,-217.208220,-160.455700L-217.257420,-160.523400L-216.882240,-160.847620L-216.754830,-160.847620L-216.754830,-159.705380L-216.507050,-159.705380L-216.507050,-159.585880L-217.181860,-159.585880Z" fill="rgb(0,0,0)" stroke="none" stroke-width="0.352777"/></g><path id="sorting-network-5-31415-as-paths-path1024" d="M-213.373750,-143.644000L-213.373750,-148.544090" fill="none" stroke="rgb(0,0,0)" stroke-width="0.140582" stroke-miterlimit="10"/><path id="sorting-network-5-31415-as-paths-path1026" d="M-212.671020,-143.644000C-212.671020,-144.032410,-212.985700,-144.347090,-213.373750,-144.347090C-213.762160,-144.347090,-214.076840,-144.032410,-214.076840,-143.644000C-214.076840,-143.255950,-213.762160,-142.941270,-213.373750,-142.941270C-212.985700,-142.941270,-212.671020,-143.255950,-212.671020,-143.644000Z" fill="rgb(0,0,0)" stroke="none" stroke-width="0.035278"/><path id="sorting-network-5-31415-as-paths-path1028" d="M-212.671020,-148.544090C-212.671020,-148.932140,-212.985700,-149.246820,-213.373750,-149.246820C-213.762160,-149.246820,-214.076840,-148.932140,-214.076840,-148.544090C-214.076840,-148.156030,-213.762160,-147.841000,-213.373750,-147.841000C-212.985700,-147.841000,-212.671020,-148.156030,-212.671020,-148.544090Z" fill="rgb(0,0,0)" stroke="none" stroke-width="0.035278"/><g id="sorting-network-5-31415-as-paths-l6" opacity="0"><path id="sorting-network-5-31415-as-paths-path1097" d="M-209.678810,-141.176620Q-209.678810,-141.143220,-209.699910,-141.121220Q-209.720110,-141.100120,-209.770210,-141.100120L-210.165600,-141.100120L-210.223600,-140.769750Q-210.173500,-140.781150,-210.129600,-140.785550Q-210.084800,-140.790550,-210.042600,-140.790550Q-209.944200,-140.790550,-209.868630,-140.761550Q-209.793030,-140.732550,-209.742980,-140.681550Q-209.691980,-140.630550,-209.666580,-140.561180Q-209.640180,-140.491780,-209.640180,-140.410050Q-209.640180,-140.309890,-209.675280,-140.229050Q-209.709580,-140.148250,-209.771080,-140.090220Q-209.831680,-140.033120,-209.914300,-140.002320Q-209.996900,-139.971620,-210.092660,-139.971620Q-210.148060,-139.971620,-210.198980,-139.983020Q-210.249980,-139.993520,-210.294780,-140.012020Q-210.338680,-140.030520,-210.376480,-140.054220Q-210.414280,-140.077920,-210.443280,-140.104320L-210.394980,-140.171120Q-210.379180,-140.193920,-210.353680,-140.193920Q-210.336080,-140.193920,-210.314180,-140.179920Q-210.292180,-140.166720,-210.260580,-140.150020Q-210.228980,-140.133320,-210.186780,-140.119220Q-210.143680,-140.106020,-210.084850,-140.106020Q-210.018950,-140.106020,-209.966240,-140.127120Q-209.913540,-140.148220,-209.875740,-140.186820Q-209.837940,-140.226320,-209.817740,-140.280820Q-209.797540,-140.335320,-209.797540,-140.402950Q-209.797540,-140.461850,-209.815140,-140.509270Q-209.831840,-140.556670,-209.866940,-140.590070Q-209.901240,-140.623470,-209.953040,-140.641970Q-210.004840,-140.660470,-210.074290,-140.660470Q-210.121690,-140.660470,-210.173590,-140.652470Q-210.224590,-140.644470,-210.278150,-140.626970L-210.376550,-140.655970L-210.275500,-141.244670L-209.678900,-141.244670Z" fill="rgb(0,0,0)" stroke="none" stroke-width="0.352777"/><path id="sorting-network-5-31415-as-paths-path1099" d="M-209.763160,-145.340220L-209.572490,-145.340220L-209.572490,-145.250620Q-209.572490,-145.236520,-209.581490,-145.226920Q-209.589490,-145.216920,-209.606990,-145.216920L-209.763390,-145.216920L-209.763390,-144.885670L-209.900460,-144.885670L-209.900460,-145.216920L-210.459280,-145.216920Q-210.476880,-145.216920,-210.490080,-145.226920Q-210.502380,-145.237420,-210.505880,-145.252420L-210.521680,-145.332420L-209.909260,-146.145170L-209.763410,-146.145170ZM-209.900230,-145.859500Q-209.900230,-145.882300,-209.899350,-145.908700Q-209.897350,-145.935900,-209.893350,-145.964100L-210.352000,-145.340260L-209.900380,-145.340260Z" fill="rgb(0,170,0)" stroke="none" stroke-width="0.352777"/><path id="sorting-network-5-31415-as-paths-path1101" d="M-210.016210,-151.059130Q-209.936210,-151.059130,-209.868600,-151.036230Q-209.800900,-151.013430,-209.752610,-150.971230Q-209.703410,-150.929030,-209.676210,-150.869310Q-209.649010,-150.809510,-209.649010,-150.736630Q-209.649010,-150.676930,-209.664810,-150.629440Q-209.679710,-150.582840,-209.708710,-150.546840Q-209.736810,-150.511740,-209.777210,-150.487140Q-209.817610,-150.462540,-209.867710,-150.447640Q-209.744700,-150.415140,-209.683190,-150.338690Q-209.620790,-150.262290,-209.620790,-150.147140Q-209.620790,-150.060140,-209.654190,-149.990740Q-209.686690,-149.921340,-209.743790,-149.872120Q-209.800890,-149.823820,-209.877340,-149.797420Q-209.952940,-149.771920,-210.039890,-149.771920Q-210.140060,-149.771920,-210.211230,-149.796520Q-210.282430,-149.822020,-210.331600,-149.865920Q-210.380800,-149.909820,-210.412400,-149.969600Q-210.444000,-150.030200,-210.466000,-150.100520L-210.398300,-150.128620Q-210.371900,-150.140020,-210.347300,-150.134620Q-210.321800,-150.129620,-210.310400,-150.105620Q-210.299000,-150.081020,-210.282300,-150.046720Q-210.264700,-150.012420,-210.234900,-149.980820Q-210.205000,-149.949220,-210.159300,-149.927220Q-210.112700,-149.905220,-210.041560,-149.905220Q-209.975660,-149.905220,-209.926460,-149.926320Q-209.876360,-149.948320,-209.843860,-149.982520Q-209.810460,-150.016820,-209.793760,-150.059020Q-209.777060,-150.101220,-209.777060,-150.142520Q-209.777060,-150.193520,-209.790260,-150.235620Q-209.803460,-150.277820,-209.839460,-150.308520Q-209.875460,-150.339220,-209.938760,-150.356820Q-210.001160,-150.374420,-210.099550,-150.374420L-210.099550,-150.487770Q-210.018750,-150.488640,-209.962480,-150.505370Q-209.905380,-150.522070,-209.870180,-150.551070Q-209.834180,-150.580070,-209.818380,-150.620470Q-209.801680,-150.660870,-209.801680,-150.710070Q-209.801680,-150.764570,-209.819280,-150.804970Q-209.835980,-150.845370,-209.865880,-150.871770Q-209.895780,-150.898170,-209.937080,-150.911270Q-209.977480,-150.924470,-210.024980,-150.924470Q-210.072380,-150.924470,-210.113680,-150.910370Q-210.154080,-150.896270,-210.185680,-150.870870Q-210.216480,-150.846270,-210.237480,-150.811970Q-210.258580,-150.777670,-210.267380,-150.736370Q-210.278780,-150.705570,-210.296380,-150.695070Q-210.313080,-150.685070,-210.345580,-150.690070L-210.427280,-150.704070Q-210.414980,-150.790170,-210.379780,-150.856080Q-210.344680,-150.922880,-210.291080,-150.967670Q-210.236580,-151.012470,-210.167190,-151.035370Q-210.096890,-151.059070,-210.016060,-151.059070Z" fill="rgb(0,170,0)" stroke="none" stroke-width="0.352777"/><path id="sorting-network-5-31415-as-paths-path1103" d="M-210.321980,-154.805470L-210.052230,-154.805470L-210.052230,-155.663910Q-210.052230,-155.700810,-210.049230,-155.742110L-210.273280,-155.549690Q-210.284680,-155.539690,-210.296180,-155.537390Q-210.307580,-155.535390,-210.317280,-155.537390Q-210.327280,-155.539390,-210.335780,-155.544390Q-210.343780,-155.549390,-210.348080,-155.555790L-210.397280,-155.623490L-210.022100,-155.947720L-209.894690,-155.947720L-209.894690,-154.805470L-209.646920,-154.805470L-209.646920,-154.685970L-210.321720,-154.685970Z" fill="rgb(0,0,0)" stroke="none" stroke-width="0.352777"/><path id="sorting-network-5-31415-as-paths-path1105" d="M-210.321980,-159.705390L-210.052230,-159.705390L-210.052230,-160.563830Q-210.052230,-160.600730,-210.049230,-160.642030L-210.273280,-160.449600Q-210.284680,-160.439600,-210.296180,-160.437300Q-210.307580,-160.435300,-210.317280,-160.437300Q-210.327280,-160.439300,-210.335780,-160.444300Q-210.343780,-160.449300,-210.348080,-160.455700L-210.397280,-160.523400L-210.022100,-160.847620L-209.894690,-160.847620L-209.894690,-159.705380L-209.646920,-159.705380L-209.646920,-159.585880L-210.321720,-159.585880Z" fill="rgb(0,0,0)" stroke="none" stroke-width="0.352777"/></g><path id="sorting-network-5-31415-as-paths-path1044" d="M-268.252920,-138.744270L-203.083930,-138.744270" fill="none" stroke="rgb(0,0,0)" stroke-width="0.140582" stroke-miterlimit="10"/><path id="sorting-network-5-31415-as-paths-path1046" d="M-268.252920,-143.644000L-203.083930,-143.644000" fill="none" stroke="rgb(0,0,0)" stroke-width="0.140582" stroke-miterlimit="10"/><path id="sorting-network-5-31415-as-paths-path1048" d="M-268.252920,-148.544090L-203.083930,-148.544090" fill="none" stroke="rgb(0,0,0)" stroke-width="0.140582" stroke-miterlimit="10"/><path id="sorting-network-5-31415-as-paths-path1050" d="M-268.252920,-153.444170L-203.083930,-153.444170" fill="none" stroke="rgb(0,0,0)" stroke-width="0.140582" stroke-miterlimit="10"/><path id="sorting-network-5-31415-as-paths-path1052" d="M-268.252920,-158.343900L-203.083930,-158.343900" fill="none" stroke="rgb(0,0,0)" stroke-width="0.140582" stroke-miterlimit="10"/><text id="sorting-network-5-31415-as-paths-text1058" dx="0" dy="0" font-family="Lato" font-size="2.811670" transform="matrix(1 0 0 1 -306.21875000000000 -129.32812500000000)" fill="rgb(0,0,0)" stroke="none" stroke-width="0.352777"><![CDATA[The sorting network]]></text><text id="sorting-network-5-31415-as-paths-text1062" dx="0" dy="0" font-family="Lato" font-size="2.811670" transform="matrix(1 0 0 1 -280.09375000000000 -129.32812500000000)" fill="rgb(0,0,0)" stroke="none" stroke-width="0.352777"><![CDATA[{]]></text><text id="sorting-network-5-31415-as-paths-text1066" dx="0" dy="0" font-family="Lato" font-size="2.811670" transform="matrix(1 0 0 1 -278.60937500000000 -129.32812500000000)" fill="rgb(0,0,0)" stroke="none" stroke-width="0.352777"><![CDATA[(1]]></text><text id="sorting-network-5-31415-as-paths-text1070" dx="0" dy="0" font-family="Lato" font-size="2.811670" transform="matrix(1 0 0 1 -275.98437500000000 -129.32812500000000)" fill="rgb(0,0,0)" stroke="none" stroke-width="0.352777"><![CDATA[,]]></text><text id="sorting-network-5-31415-as-paths-text1074" dx="0" dy="0" font-family="Lato" font-size="2.811670" transform="matrix(1 0 0 1 -274.62500000000000 -129.32812500000000)" fill="rgb(0,0,0)" stroke="none" stroke-width="0.352777"><![CDATA[2)]]></text><text id="sorting-network-5-31415-as-paths-text1078" dx="0" dy="0" font-family="Lato" font-size="2.811670" transform="matrix(1 0 0 1 -272 -129.32812500000000)" fill="rgb(0,0,0)" stroke="none" stroke-width="0.352777"><![CDATA[,]]></text><text id="sorting-network-5-31415-as-paths-text1082" dx="0" dy="0" font-family="Lato" font-size="2.811670" transform="matrix(1 0 0 1 -270.65625000000000 -129.32812500000000)" fill="rgb(0,0,0)" stroke="none" stroke-width="0.352777"><![CDATA[(3]]></text><text id="sorting-network-5-31415-as-paths-text1086" dx="0" dy="0" font-family="Lato" font-size="2.811670" transform="matrix(1 0 0 1 -268.03125000000000 -129.32812500000000)" fill="rgb(0,0,0)" stroke="none" stroke-width="0.352777"><![CDATA[,]]></text><text id="sorting-network-5-31415-as-paths-text1090" dx="0" dy="0" font-family="Lato" font-size="2.811670" transform="matrix(1 0 0 1 -266.62500000000000 -129.32812500000000)" fill="rgb(0,0,0)" stroke="none" stroke-width="0.352777"><![CDATA[4)]]></text><text id="sorting-network-5-31415-as-paths-text1094" dx="0" dy="0" font-family="Lato" font-size="2.811670" transform="matrix(1 0 0 1 -264 -129.32812500000000)" fill="rgb(0,0,0)" stroke="none" stroke-width="0.352777"><![CDATA[}]]></text><text id="sorting-network-5-31415-as-paths-text1098" dx="0" dy="0" font-family="Lato" font-size="2.811670" transform="matrix(1 0 0 1 -262.53125000000000 -129.32812500000000)" fill="rgb(0,0,0)" stroke="none" stroke-width="0.352777"><![CDATA[,]]></text><text id="sorting-network-5-31415-as-paths-text1102" dx="0" dy="0" font-family="Lato" font-size="2.811670" transform="matrix(1 0 0 1 -261.17187500000000 -129.32812500000000)" fill="rgb(0,0,0)" stroke="none" stroke-width="0.352777"><![CDATA[{]]></text><text id="sorting-network-5-31415-as-paths-text1106" dx="0" dy="0" font-family="Lato" font-size="2.811670" transform="matrix(1 0 0 1 -259.68750000000000 -129.32812500000000)" fill="rgb(0,0,0)" stroke="none" stroke-width="0.352777"><![CDATA[(2]]></text><text id="sorting-network-5-31415-as-paths-text1110" dx="0" dy="0" font-family="Lato" font-size="2.811670" transform="matrix(1 0 0 1 -257.06250000000000 -129.32812500000000)" fill="rgb(0,0,0)" stroke="none" stroke-width="0.352777"><![CDATA[,]]></text><text id="sorting-network-5-31415-as-paths-text1114" dx="0" dy="0" font-family="Lato" font-size="2.811670" transform="matrix(1 0 0 1 -255.70312500000000 -129.32812500000000)" fill="rgb(0,0,0)" stroke="none" stroke-width="0.352777"><![CDATA[4)]]></text><text id="sorting-network-5-31415-as-paths-text1118" dx="0" dy="0" font-family="Lato" font-size="2.811670" transform="matrix(1 0 0 1 -253.07812500000000 -129.32812500000000)" fill="rgb(0,0,0)" stroke="none" stroke-width="0.352777"><![CDATA[,]]></text><text id="sorting-network-5-31415-as-paths-text1122" dx="0" dy="0" font-family="Lato" font-size="2.811670" transform="matrix(1 0 0 1 -251.73437500000000 -129.32812500000000)" fill="rgb(0,0,0)" stroke="none" stroke-width="0.352777"><![CDATA[(3]]></text><text id="sorting-network-5-31415-as-paths-text1126" dx="0" dy="0" font-family="Lato" font-size="2.811670" transform="matrix(1 0 0 1 -249.10937500000000 -129.32812500000000)" fill="rgb(0,0,0)" stroke="none" stroke-width="0.352777"><![CDATA[,]]></text><text id="sorting-network-5-31415-as-paths-text1130" dx="0" dy="0" font-family="Lato" font-size="2.811670" transform="matrix(1 0 0 1 -247.70312500000000 -129.32812500000000)" fill="rgb(0,0,0)" stroke="none" stroke-width="0.352777"><![CDATA[5)]]></text><text id="sorting-network-5-31415-as-paths-text1134" dx="0" dy="0" font-family="Lato" font-size="2.811670" transform="matrix(1 0 0 1 -245.07812500000000 -129.32812500000000)" fill="rgb(0,0,0)" stroke="none" stroke-width="0.352777"><![CDATA[}]]></text><text id="sorting-network-5-31415-as-paths-text1138" dx="0" dy="0" font-family="Lato" font-size="2.811670" transform="matrix(1 0 0 1 -243.60937500000000 -129.32812500000000)" fill="rgb(0,0,0)" stroke="none" stroke-width="0.352777"><![CDATA[,]]></text><text id="sorting-network-5-31415-as-paths-text1142" dx="0" dy="0" font-family="Lato" font-size="2.811670" transform="matrix(1 0 0 1 -242.25000000000000 -129.32812500000000)" fill="rgb(0,0,0)" stroke="none" stroke-width="0.352777"><![CDATA[{]]></text><text id="sorting-network-5-31415-as-paths-text1146" dx="0" dy="0" font-family="Lato" font-size="2.811670" transform="matrix(1 0 0 1 -240.76562500000000 -129.32812500000000)" fill="rgb(0,0,0)" stroke="none" stroke-width="0.352777"><![CDATA[(1]]></text><text id="sorting-network-5-31415-as-paths-text1150" dx="0" dy="0" font-family="Lato" font-size="2.811670" transform="matrix(1 0 0 1 -238.14062500000000 -129.32812500000000)" fill="rgb(0,0,0)" stroke="none" stroke-width="0.352777"><![CDATA[,]]></text><text id="sorting-network-5-31415-as-paths-text1154" dx="0" dy="0" font-family="Lato" font-size="2.811670" transform="matrix(1 0 0 1 -236.78125000000000 -129.32812500000000)" fill="rgb(0,0,0)" stroke="none" stroke-width="0.352777"><![CDATA[3)]]></text><text id="sorting-network-5-31415-as-paths-text1158" dx="0" dy="0" font-family="Lato" font-size="2.811670" transform="matrix(1 0 0 1 -234.15625000000000 -129.32812500000000)" fill="rgb(0,0,0)" stroke="none" stroke-width="0.352777"><![CDATA[,]]></text><text id="sorting-network-5-31415-as-paths-text1162" dx="0" dy="0" font-family="Lato" font-size="2.811670" transform="matrix(1 0 0 1 -232.81250000000000 -129.32812500000000)" fill="rgb(0,0,0)" stroke="none" stroke-width="0.352777"><![CDATA[(2]]></text><text id="sorting-network-5-31415-as-paths-text1166" dx="0" dy="0" font-family="Lato" font-size="2.811670" transform="matrix(1 0 0 1 -230.18750000000000 -129.32812500000000)" fill="rgb(0,0,0)" stroke="none" stroke-width="0.352777"><![CDATA[,]]></text><text id="sorting-network-5-31415-as-paths-text1170" dx="0" dy="0" font-family="Lato" font-size="2.811670" transform="matrix(1 0 0 1 -228.82812500000000 -129.32812500000000)" fill="rgb(0,0,0)" stroke="none" stroke-width="0.352777"><![CDATA[5)]]></text><text id="sorting-network-5-31415-as-paths-text1174" dx="0" dy="0" font-family="Lato" font-size="2.811670" transform="matrix(1 0 0 1 -226.20312500000000 -129.32812500000000)" fill="rgb(0,0,0)" stroke="none" stroke-width="0.352777"><![CDATA[}]]></text><text id="sorting-network-5-31415-as-paths-text1178" dx="0" dy="0" font-family="Lato" font-size="2.811670" transform="matrix(1 0 0 1 -224.71875000000000 -129.32812500000000)" fill="rgb(0,0,0)" stroke="none" stroke-width="0.352777"><![CDATA[,]]></text><text id="sorting-network-5-31415-as-paths-text1182" dx="0" dy="0" font-family="Lato" font-size="2.811670" transform="matrix(1 0 0 1 -223.32812500000000 -129.32812500000000)" fill="rgb(0,0,0)" stroke="none" stroke-width="0.352777"><![CDATA[{]]></text><text id="sorting-network-5-31415-as-paths-text1186" dx="0" dy="0" font-family="Lato" font-size="2.811670" transform="matrix(1 0 0 1 -221.84375000000000 -129.32812500000000)" fill="rgb(0,0,0)" stroke="none" stroke-width="0.352777"><![CDATA[(2]]></text><text id="sorting-network-5-31415-as-paths-text1190" dx="0" dy="0" font-family="Lato" font-size="2.811670" transform="matrix(1 0 0 1 -219.21875000000000 -129.32812500000000)" fill="rgb(0,0,0)" stroke="none" stroke-width="0.352777"><![CDATA[,]]></text><text id="sorting-network-5-31415-as-paths-text1194" dx="0" dy="0" font-family="Lato" font-size="2.811670" transform="matrix(1 0 0 1 -217.85937500000000 -129.32812500000000)" fill="rgb(0,0,0)" stroke="none" stroke-width="0.352777"><![CDATA[3)]]></text><text id="sorting-network-5-31415-as-paths-text1198" dx="0" dy="0" font-family="Lato" font-size="2.811670" transform="matrix(1 0 0 1 -215.23437500000000 -129.32812500000000)" fill="rgb(0,0,0)" stroke="none" stroke-width="0.352777"><![CDATA[,]]></text><text id="sorting-network-5-31415-as-paths-text1202" dx="0" dy="0" font-family="Lato" font-size="2.811670" transform="matrix(1 0 0 1 -213.89062500000000 -129.32812500000000)" fill="rgb(0,0,0)" stroke="none" stroke-width="0.352777"><![CDATA[(4]]></text><text id="sorting-network-5-31415-as-paths-text1206" dx="0" dy="0" font-family="Lato" font-size="2.811670" transform="matrix(1 0 0 1 -211.26562500000000 -129.32812500000000)" fill="rgb(0,0,0)" stroke="none" stroke-width="0.352777"><![CDATA[,]]></text><text id="sorting-network-5-31415-as-paths-text1210" dx="0" dy="0" font-family="Lato" font-size="2.811670" transform="matrix(1 0 0 1 -209.90625000000000 -129.32812500000000)" fill="rgb(0,0,0)" stroke="none" stroke-width="0.352777"><![CDATA[5)]]></text><text id="sorting-network-5-31415-as-paths-text1214" dx="0" dy="0" font-family="Lato" font-size="2.811670" transform="matrix(1 0 0 1 -207.28125000000000 -129.32812500000000)" fill="rgb(0,0,0)" stroke="none" stroke-width="0.352777"><![CDATA[}]]></text><text id="sorting-network-5-31415-as-paths-text1218" dx="0" dy="0" font-family="Lato" font-size="2.811670" transform="matrix(1 0 0 1 -205.79687500000000 -129.32812500000000)" fill="rgb(0,0,0)" stroke="none" stroke-width="0.352777"><![CDATA[,]]></text><text id="sorting-network-5-31415-as-paths-text1222" dx="0" dy="0" font-family="Lato" font-size="2.811670" transform="matrix(1 0 0 1 -204.40625000000000 -129.32812500000000)" fill="rgb(0,0,0)" stroke="none" stroke-width="0.352777"><![CDATA[{]]></text><text id="sorting-network-5-31415-as-paths-text1226" dx="0" dy="0" font-family="Lato" font-size="2.811670" transform="matrix(1 0 0 1 -202.92187500000000 -129.32812500000000)" fill="rgb(0,0,0)" stroke="none" stroke-width="0.352777"><![CDATA[(3]]></text><text id="sorting-network-5-31415-as-paths-text1230" dx="0" dy="0" font-family="Lato" font-size="2.811670" transform="matrix(1 0 0 1 -200.29687500000000 -129.32812500000000)" fill="rgb(0,0,0)" stroke="none" stroke-width="0.352777"><![CDATA[,]]></text><text id="sorting-network-5-31415-as-paths-text1234" dx="0" dy="0" font-family="Lato" font-size="2.811670" transform="matrix(1 0 0 1 -198.93750000000000 -129.32812500000000)" fill="rgb(0,0,0)" stroke="none" stroke-width="0.352777"><![CDATA[4)]]></text><text id="sorting-network-5-31415-as-paths-text1238" dx="0" dy="0" font-family="Lato" font-size="2.811670" transform="matrix(1 0 0 1 -196.31250000000000 -129.32812500000000)" fill="rgb(0,0,0)" stroke="none" stroke-width="0.352777"><![CDATA[}]]></text><text id="sorting-network-5-31415-as-paths-text1244" dx="0" dy="0" font-family="Lato" font-size="2.811670" transform="matrix(1 0 0 1 -195.35937500000000 -129.32812500000000)" fill="rgb(0,0,0)" stroke="none" stroke-width="0.352777"><![CDATA[,on 5 channels, sorting]]></text><text id="sorting-network-5-31415-as-paths-text1244-4" dx="0" dy="0" font-family="Lato" font-size="2.811670" transform="matrix(1 0 0 1 -306.60937500000000 -125.71875000000000)" fill="rgb(0,0,0)" stroke="none" stroke-width="0.352777"><![CDATA[the input of 3, 1, 4, 1, 5]]></text></g></svg>
