<svg width="600" height="389" xmlns="http://www.w3.org/2000/svg" xmlns:xlink="http://www.w3.org/1999/xlink" preserveAspectRatio="xMinYMin meet">

 <g>
  <title>background</title>
  <rect fill="none" id="canvas_background" height="804" width="1164" y="-1" x="-1"/>
 </g>
 <g>
  <title>Layer 1</title>
  <rect id="svg_1" stroke-width="2" stroke="#757575" fill="#FEFEFE" height="389" width="600" y="0" x="0"/>
  <g id="svg_2" stroke="#757575">
   <rect id="svg_3" fill="#e91e63" height="10" width="10" y="52" x="101"/>
   <rect id="svg_4" fill="#795548" height="10" width="10" y="52" x="259"/>
   <rect id="svg_5" fill="#9e9e9e" height="10" width="10" y="52" x="417"/>
  </g>
  <g id="svg_6" font-weight="bold" text-anchor="start" font-size="9">
   <text id="svg_7" fill="#e91e63" y="61" x="114" style="font-family: Helvetica">mitigations=off</text>
   <text id="svg_8" fill="#795548" y="61" x="272" style="font-family: Helvetica">mitigations=auto</text>
   <text id="svg_9" fill="#9e9e9e" y="61" x="430" style="font-family: Helvetica">mitigations=auto,nosmt</text>
  </g>
  <g id="svg_10" stroke="#757575">
   <line id="svg_11" y2="351" x2="101" y1="80" x1="101"/>
   <line id="svg_12" y2="350" x2="586" y1="350" x1="101"/>
  </g>
  <a id="svg_13" xlink:href="https://www.openbenchmarking.org/">
   <text id="svg_14" text-anchor="end" fill="#065695" font-size="8" y="75" x="585" style="font-family: Helvetica">OpenBenchmarking.org</text>
  </a>
  <polygon id="svg_15" stroke="#949494" fill="#065695" points="110,72 101,76.5 101,67.5"/>
  <text id="svg_16" text-anchor="start" fill="#065695" font-size="8" y="75" x="113" style="font-family: Helvetica">Geometric Mean, More Is Better</text>
  <rect id="svg_17" fill="#231f20" height="48" width="600" y="0" x="0"/>
  <text id="svg_18" font-weight="bold" text-anchor="start" fill="#FEFEFE" font-size="17" y="19" x="6" style="font-family: Helvetica">Mitigations Test Results (Geometric Mean Of All Test Results)</text>
  <text id="svg_19" text-anchor="start" fill="#FEFEFE" font-weight="bold" font-size="11" y="36" x="6" style="font-family: Helvetica">Result Composite</text>
  <path id="svg_20" fill="none" stroke-width="4" stroke="#ffffff" d="m582,26l0,9m-5,-16l0,16m-5,-28l0,28m-23,-2l12.5,0c2.485291,0 4.5,-2.014721 4.5,-4.5s-2.014709,-4.5 -4.5,-4.5l-8,0c-2.485291,0 -4.5,-2.014721 -4.5,-4.5s2.014709,-4.5 4.5,-4.5l12.5,0m-21,5l-11,0m11,13l-2,0c-4.970581,0 -9,-4.02944 -9,-9l0,-20m-24,40l0,-20c0,-4.97056 4.029419,-9 9,-9c4.970581,0 9,4.02944 9,9s-4.029419,9 -9,9l-9,0"/>
  <line id="svg_21" stroke-dasharray="1,53" stroke-width="11" stroke="#757575" y2="339" x2="101" y1="134" x1="101"/>
  <g id="svg_22" font-weight="bold" fill="#231f20" font-size="8">
   <text id="svg_23" transform="rotate(90 8 110)" text-anchor="middle" y="110" x="8" style="font-family: Helvetica">6800K</text>
   <text id="svg_24" transform="rotate(90 8 164)" text-anchor="middle" y="164" x="8" style="font-family: Helvetica">8700K</text>
   <text id="svg_25" transform="rotate(90 8 218)" text-anchor="middle" y="218" x="8" style="font-family: Helvetica">7980XE</text>
   <text id="svg_26" transform="rotate(90 8 272)" text-anchor="middle" y="272" x="8" style="font-family: Helvetica">2700X</text>
   <text id="svg_27" transform="rotate(90 8 326)" text-anchor="middle" y="326" x="8" style="font-family: Helvetica">2990WX</text>
  </g>
  <g id="svg_28" text-anchor="middle" fill="#065695" font-size="10">
   <text id="svg_29" y="365" x="184" style="font-family: Helvetica">60</text>
   <text id="svg_30" y="365" x="265" style="font-family: Helvetica">120</text>
   <text id="svg_31" y="365" x="346" style="font-family: Helvetica">180</text>
   <text id="svg_32" y="365" x="427" style="font-family: Helvetica">240</text>
   <text id="svg_33" y="365" x="508" style="font-family: Helvetica">300</text>
  </g>
  <g id="svg_34" stroke="#BABABA">
   <line id="svg_35" stroke-dasharray="5,5" y2="345" x2="184" y1="80" x1="184"/>
   <line id="svg_36" y2="355" x2="184" y1="346" x1="184"/>
   <line id="svg_37" stroke-dasharray="5,5" y2="345" x2="265" y1="80" x1="265"/>
   <line id="svg_38" y2="355" x2="265" y1="346" x1="265"/>
   <line id="svg_39" stroke-dasharray="5,5" y2="345" x2="346" y1="80" x1="346"/>
   <line id="svg_40" y2="355" x2="346" y1="346" x1="346"/>
   <line id="svg_41" stroke-dasharray="5,5" y2="345" x2="427" y1="80" x1="427"/>
   <line id="svg_42" y2="355" x2="427" y1="346" x1="427"/>
   <line id="svg_43" stroke-dasharray="5,5" y2="345" x2="508" y1="80" x1="508"/>
   <line id="svg_44" y2="355" x2="508" y1="346" x1="508"/>
  </g>
  <g id="svg_45" stroke="#949494">
   <rect id="svg_46" fill="#e91e63" width="269" height="11" y="89" x="101"/>
   <rect id="svg_47" fill="#e91e63" width="364" height="11" y="143" x="101"/>
   <rect id="svg_48" fill="#e91e63" width="387" height="11" y="197" x="101"/>
   <rect id="svg_49" fill="#e91e63" width="294" height="11" y="251" x="101"/>
   <rect id="svg_50" fill="#e91e63" width="329" height="11" y="305" x="101"/>
   <rect id="svg_51" fill="#795548" width="226" height="11" y="104" x="101"/>
   <rect id="svg_52" fill="#795548" width="307" height="11" y="158" x="101"/>
   <rect id="svg_53" fill="#795548" width="332" height="11" y="212" x="101"/>
   <rect id="svg_54" fill="#795548" width="286" height="11" y="266" x="101"/>
   <rect id="svg_55" fill="#795548" width="320" height="11" y="320" x="101"/>
   <rect id="svg_56" fill="#9e9e9e" width="214" height="11" y="119" x="101"/>
   <rect id="svg_57" fill="#9e9e9e" width="274" height="11" y="173" x="101"/>
   <rect id="svg_58" fill="#9e9e9e" width="311" height="11" y="227" x="101"/>
  </g>
  <g id="svg_59" text-anchor="end" fill="#065695" font-size="6"/>
  <g id="svg_60" text-anchor="end" font-weight="bold" fill="#FFFFFF" font-size="8">
   <text id="svg_61" y="99" x="365" style="font-family: Helvetica">200</text>
   <text id="svg_62" y="153" x="460" style="font-family: Helvetica">271</text>
   <text id="svg_63" y="207" x="483" style="font-family: Helvetica">288</text>
   <text id="svg_64" y="261" x="390" style="font-family: Helvetica">219</text>
   <text id="svg_65" y="315" x="425" style="font-family: Helvetica">245</text>
   <text id="svg_66" y="114" x="322" style="font-family: Helvetica">168</text>
   <text id="svg_67" y="168" x="403" style="font-family: Helvetica">228</text>
   <text id="svg_68" y="222" x="428" style="font-family: Helvetica">247</text>
   <text id="svg_69" y="276" x="382" style="font-family: Helvetica">213</text>
   <text id="svg_70" y="330" x="416" style="font-family: Helvetica">238</text>
   <text id="svg_71" y="129" x="310" style="font-family: Helvetica">159</text>
   <text id="svg_72" y="183" x="370" style="font-family: Helvetica">204</text>
   <text id="svg_73" y="237" x="407" style="font-family: Helvetica">231</text>
  </g>
  <rect id="svg_74" fill="#231f20" height="17" width="600" y="372" x="0"/>
  <a id="svg_75" xlink:href="https://www.phoronix-test-suite.com/">
   <text id="svg_76" text-anchor="end" fill="#FEFEFE" font-size="9" y="384" x="585" style="font-family: Helvetica">Phoronix Test Suite 8.8.0</text>
  </a>
  <a id="svg_77" xlink:href="/prospect/1905180-HV-MITIGATIO50/c784cc741b7806b94c28ea8a651f596a5c2f592b">
   <g id="svg_78">
    <path id="svg_79" fill="#038bb8" d="m9,373l0,6.5l-5,4.5l3,-3l-3,-3.5l5,-4.5"/>
    <path id="svg_80" fill="#25b3e8" d="m9,373l0,6.5l5,4.5l-3,-3l3,-3.5l-5,-4.5"/>
    <path id="svg_81" fill="#e4f4fd" d="m9,389l0,-7l5,-4.5l0,6.5l-5,5"/>
    <path id="svg_82" fill="#65cbf4" d="m9,389l0,-7l-5,-4.5l0,6.5l5,5"/>
   </g>
  </a>
 </g>
</svg>
