<svg xmlns="http://www.w3.org/2000/svg" xmlns:svg="http://www.w3.org/2000/svg" id="svg3004" width="1291.392" height="401.642" version="1.1" xml:space="preserve"><metadata id="metadata3010"/><defs id="defs3008"><clipPath id="clipPath3020"><path id="path3022" d="M 0,0 H 674 V 206 H 0 Z"/></clipPath></defs><g id="g3012" transform="matrix(1.9011752,0,0,-1.9011752,5,396.64209)"><g id="g3016"><g id="g3018" clip-path="url(#clipPath3020)"><path id="path3024" fill="#fff" fill-opacity="0" fill-rule="evenodd" stroke="none" d="M 0,0 H 674 V 206 H 0 Z"/><path id="path3026" fill="#c5d7ea" fill-opacity="1" fill-rule="evenodd" stroke="none" d="m 25,127 h 36 v 24 H 25 Z"/><g id="g3028" transform="matrix(7.874016e-5,0,0,-7.874016e-5,-17,367)"><path id="path3030" fill="none" stroke="#919191" stroke-dasharray="none" stroke-linecap="butt" stroke-linejoin="round" stroke-miterlimit="10" stroke-opacity="1" stroke-width="12700" d="m 533400,2743200 h 457200 v 304800 H 533400 Z"/></g><path id="path3032" fill="#dee8c9" fill-opacity="1" fill-rule="evenodd" stroke="none" d="m 25,151 h 36 v 24 H 25 Z"/><g id="g3034" transform="matrix(7.874016e-5,0,0,-7.874016e-5,-17,367)"><path id="path3036" fill="none" stroke="#919191" stroke-dasharray="none" stroke-linecap="butt" stroke-linejoin="round" stroke-miterlimit="10" stroke-opacity="1" stroke-width="12700" d="m 533400,2438400 h 457200 v 304800 H 533400 Z"/></g><path id="path3038" fill="#dee8c9" fill-opacity="1" fill-rule="evenodd" stroke="none" d="M 25,0.9999943 H 61 V 30.999994 H 25 Z"/><g id="g3040" transform="matrix(7.874016e-5,0,0,-7.874016e-5,-17,367)"><path id="path3042" fill="none" stroke="#919191" stroke-dasharray="none" stroke-linecap="butt" stroke-linejoin="round" stroke-miterlimit="10" stroke-opacity="1" stroke-width="12700" d="m 533400,4267200 h 457200 v 381000 H 533400 Z"/></g><path id="path3044" fill="#c5d7ea" fill-opacity="1" fill-rule="evenodd" stroke="none" d="m 25,175 h 36 v 30 H 25 Z"/><g id="g3046" transform="matrix(7.874016e-5,0,0,-7.874016e-5,-17,367)"><path id="path3048" fill="none" stroke="#919191" stroke-dasharray="none" stroke-linecap="butt" stroke-linejoin="round" stroke-miterlimit="10" stroke-opacity="1" stroke-width="12700" d="m 533400,2057400 h 457200 v 381000 H 533400 Z"/></g><path id="path3050" fill="#dee8c9" fill-opacity="1" fill-rule="evenodd" stroke="none" d="m 25,103 h 36 v 24.00001 H 25 Z"/><g id="g3052" transform="matrix(7.874016e-5,0,0,-7.874016e-5,-17,367)"><path id="path3054" fill="none" stroke="#919191" stroke-dasharray="none" stroke-linecap="butt" stroke-linejoin="round" stroke-miterlimit="10" stroke-opacity="1" stroke-width="12700" d="m 533400,3048000 h 457200 v 304800.1 H 533400 Z"/></g><path id="path3056" fill="#c5d7ea" fill-opacity="1" fill-rule="evenodd" stroke="none" d="m 25,78.99999 h 36 v 24 H 25 Z"/><g id="g3058" transform="matrix(7.874016e-5,0,0,-7.874016e-5,-17,367)"><path id="path3060" fill="none" stroke="#919191" stroke-dasharray="none" stroke-linecap="butt" stroke-linejoin="round" stroke-miterlimit="10" stroke-opacity="1" stroke-width="12700" d="m 533400,3352800 h 457200 v 304800 H 533400 Z"/></g><path id="path3062" fill="#dee8c9" fill-opacity="1" fill-rule="evenodd" stroke="none" d="M 25,55 H 61 V 79 H 25 Z"/><g id="g3064" transform="matrix(7.874016e-5,0,0,-7.874016e-5,-17,367)"><path id="path3066" fill="none" stroke="#919191" stroke-dasharray="none" stroke-linecap="butt" stroke-linejoin="round" stroke-miterlimit="10" stroke-opacity="1" stroke-width="12700" d="m 533400,3657600 h 457200 v 304799.9 H 533400 Z"/></g><path id="path3068" fill="#c5d7ea" fill-opacity="1" fill-rule="evenodd" stroke="none" d="m 25,30.99999 h 36 v 24 H 25 Z"/><g id="g3070" transform="matrix(7.874016e-5,0,0,-7.874016e-5,-17,367)"><path id="path3072" fill="none" stroke="#919191" stroke-dasharray="none" stroke-linecap="butt" stroke-linejoin="round" stroke-miterlimit="10" stroke-opacity="1" stroke-width="12700" d="m 533400,3962400 h 457200 v 304800 H 533400 Z"/></g><path id="path3074" fill="#dee8c9" fill-opacity="1" fill-rule="evenodd" stroke="none" d="m 85,103 h 84 v 48.00001 H 85 Z"/><g id="g3076" transform="matrix(7.874016e-5,0,0,-7.874016e-5,-17,367)"><path id="path3078" fill="none" stroke="#919191" stroke-dasharray="none" stroke-linecap="butt" stroke-linejoin="round" stroke-miterlimit="10" stroke-opacity="1" stroke-width="12700" d="m 1295400,2743200 h 1066800 v 609600.1 H 1295400 Z"/></g><path id="path3080" fill="#dee8c9" fill-opacity="1" fill-rule="evenodd" stroke="none" d="M 193,0.9999924 H 349 V 102.99999 H 193 Z"/><g id="g3082" transform="matrix(7.874016e-5,0,0,-7.874016e-5,-17,367)"><path id="path3084" fill="none" stroke="#919191" stroke-dasharray="none" stroke-linecap="butt" stroke-linejoin="round" stroke-miterlimit="10" stroke-opacity="1" stroke-width="12700" d="M 2667000,3352800 H 4648200 V 4648200 H 2667000 Z"/></g><path id="path3086" fill="#c5d7ea" fill-opacity="1" fill-rule="evenodd" stroke="none" d="M 373,1 H 649 V 205 H 373 Z"/><g id="g3088" transform="matrix(7.874016e-5,0,0,-7.874016e-5,-17,367)"><path id="path3090" fill="none" stroke="#919191" stroke-dasharray="none" stroke-linecap="butt" stroke-linejoin="round" stroke-miterlimit="10" stroke-opacity="1" stroke-width="12700" d="M 4953000,2057400 H 8458200 V 4648200 H 4953000 Z"/></g><path id="path3092" fill="#e2a8a5" fill-opacity="1" fill-rule="evenodd" stroke="none" d="m 625,157 h 12 v 12 h -12 z"/><g id="g3094" transform="matrix(7.874016e-5,0,0,-7.874016e-5,-17,367)"><path id="path3096" fill="none" stroke="#919191" stroke-dasharray="none" stroke-linecap="butt" stroke-linejoin="round" stroke-miterlimit="10" stroke-opacity="1" stroke-width="12700" d="m 8153400,2514600 h 152400 v 152400 h -152400 z"/></g><path id="path3098" fill="#e2a8a5" fill-opacity="1" fill-rule="evenodd" stroke="none" d="m 625,133 h 12 v 12 h -12 z"/><g id="g3100" transform="matrix(7.874016e-5,0,0,-7.874016e-5,-17,367)"><path id="path3102" fill="none" stroke="#919191" stroke-dasharray="none" stroke-linecap="butt" stroke-linejoin="round" stroke-miterlimit="10" stroke-opacity="1" stroke-width="12700" d="m 8153400,2819400 h 152400 v 152400 h -152400 z"/></g><path id="path3104" fill="#e2a8a5" fill-opacity="1" fill-rule="evenodd" stroke="none" d="m 625,109 h 12 v 12 h -12 z"/><g id="g3106" transform="matrix(7.874016e-5,0,0,-7.874016e-5,-17,367)"><path id="path3108" fill="none" stroke="#919191" stroke-dasharray="none" stroke-linecap="butt" stroke-linejoin="round" stroke-miterlimit="10" stroke-opacity="1" stroke-width="12700" d="m 8153400,3124200 h 152400 v 152400 h -152400 z"/></g><path id="path3110" fill="#e2a8a5" fill-opacity="1" fill-rule="evenodd" stroke="none" d="m 625,84.99999 h 12 v 12 h -12 z"/><g id="g3112" transform="matrix(7.874016e-5,0,0,-7.874016e-5,-17,367)"><path id="path3114" fill="none" stroke="#919191" stroke-dasharray="none" stroke-linecap="butt" stroke-linejoin="round" stroke-miterlimit="10" stroke-opacity="1" stroke-width="12700" d="m 8153400,3429000 h 152400 v 152400 h -152400 z"/></g><path id="path3116" fill="#e2a8a5" fill-opacity="1" fill-rule="evenodd" stroke="none" d="m 625,61 h 12 v 12 h -12 z"/><g id="g3118" transform="matrix(7.874016e-5,0,0,-7.874016e-5,-17,367)"><path id="path3120" fill="none" stroke="#919191" stroke-dasharray="none" stroke-linecap="butt" stroke-linejoin="round" stroke-miterlimit="10" stroke-opacity="1" stroke-width="12700" d="m 8153400,3733800 h 152400 v 152400 h -152400 z"/></g><path id="path3122" fill="#e2a8a5" fill-opacity="1" fill-rule="evenodd" stroke="none" d="m 625,37 h 12 v 12 h -12 z"/><g id="g3124" transform="matrix(7.874016e-5,0,0,-7.874016e-5,-17,367)"><path id="path3126" fill="none" stroke="#919191" stroke-dasharray="none" stroke-linecap="butt" stroke-linejoin="round" stroke-miterlimit="10" stroke-opacity="1" stroke-width="12700" d="m 8153400,4038600 h 152400 v 152400 h -152400 z"/></g><path id="path3128" fill="#e2a8a5" fill-opacity="1" fill-rule="evenodd" stroke="none" d="m 625,13 h 12 v 12 h -12 z"/><g id="g3130" transform="matrix(7.874016e-5,0,0,-7.874016e-5,-17,367)"><path id="path3132" fill="none" stroke="#919191" stroke-dasharray="none" stroke-linecap="butt" stroke-linejoin="round" stroke-miterlimit="10" stroke-opacity="1" stroke-width="12700" d="m 8153400,4343400 h 152400 v 152400 h -152400 z"/></g><path id="path3134" fill="#e2a8a5" fill-opacity="1" fill-rule="evenodd" stroke="none" d="m 625,181 h 12 v 12 h -12 z"/><g id="g3136" transform="matrix(7.874016e-5,0,0,-7.874016e-5,-17,367)"><path id="path3138" fill="none" stroke="#919191" stroke-dasharray="none" stroke-linecap="butt" stroke-linejoin="round" stroke-miterlimit="10" stroke-opacity="1" stroke-width="12700" d="m 8153400,2209800 h 152400 v 152400 h -152400 z"/></g><path id="path3140" fill="#e2a8a5" fill-opacity="1" fill-rule="evenodd" stroke="none" d="m 577,109 h 36 v 36 h -36 z"/><g id="g3142" transform="matrix(7.874016e-5,0,0,-7.874016e-5,-17,367)"><path id="path3144" fill="none" stroke="#919191" stroke-dasharray="none" stroke-linecap="butt" stroke-linejoin="round" stroke-miterlimit="10" stroke-opacity="1" stroke-width="12700" d="m 7543800,2819400 h 457200 v 457200 h -457200 z"/></g><path id="path3146" fill="#e2a8a5" fill-opacity="1" fill-rule="evenodd" stroke="none" d="m 577,61 h 36 v 36 h -36 z"/><g id="g3148" transform="matrix(7.874016e-5,0,0,-7.874016e-5,-17,367)"><path id="path3150" fill="none" stroke="#919191" stroke-dasharray="none" stroke-linecap="butt" stroke-linejoin="round" stroke-miterlimit="10" stroke-opacity="1" stroke-width="12700" d="m 7543800,3429000 h 457200 v 457199.9 h -457200 z"/></g><path id="path3152" fill="#e2a8a5" fill-opacity="1" fill-rule="evenodd" stroke="none" d="m 577,13 h 36 v 36 h -36 z"/><g id="g3154" transform="matrix(7.874016e-5,0,0,-7.874016e-5,-17,367)"><path id="path3156" fill="none" stroke="#919191" stroke-dasharray="none" stroke-linecap="butt" stroke-linejoin="round" stroke-miterlimit="10" stroke-opacity="1" stroke-width="12700" d="m 7543800,4038600 h 457200 v 457200 h -457200 z"/></g><path id="path3158" fill="#e2a8a5" fill-opacity="1" fill-rule="evenodd" stroke="none" d="m 577,157 h 36 v 36 h -36 z"/><g id="g3160" transform="matrix(7.874016e-5,0,0,-7.874016e-5,-17,367)"><path id="path3162" fill="none" stroke="#919191" stroke-dasharray="none" stroke-linecap="butt" stroke-linejoin="round" stroke-miterlimit="10" stroke-opacity="1" stroke-width="12700" d="m 7543800,2209800 h 457200 v 457200 h -457200 z"/></g><path id="path3164" fill="#e2a8a5" fill-opacity="1" fill-rule="evenodd" stroke="none" d="m 505,109 h 60 v 84 h -60 z"/><g id="g3166" transform="matrix(7.874016e-5,0,0,-7.874016e-5,-17,367)"><path id="path3168" fill="none" stroke="#919191" stroke-dasharray="none" stroke-linecap="butt" stroke-linejoin="round" stroke-miterlimit="10" stroke-opacity="1" stroke-width="12700" d="m 6629400,2209800 h 762000 v 1066800 h -762000 z"/></g><path id="path3170" fill="#e2a8a5" fill-opacity="1" fill-rule="evenodd" stroke="none" d="m 505,12.99999 h 60 v 84 h -60 z"/><g id="g3172" transform="matrix(7.874016e-5,0,0,-7.874016e-5,-17,367)"><path id="path3174" fill="none" stroke="#919191" stroke-dasharray="none" stroke-linecap="butt" stroke-linejoin="round" stroke-miterlimit="10" stroke-opacity="1" stroke-width="12700" d="m 6629400,3429000 h 762000 v 1066800 h -762000 z"/></g><path id="path3176" fill="#e2a8a5" fill-opacity="1" fill-rule="evenodd" stroke="none" d="M 385,13 H 493 V 193 H 385 Z"/><g id="g3178" transform="matrix(7.874016e-5,0,0,-7.874016e-5,-17,367)"><path id="path3180" fill="none" stroke="#919191" stroke-dasharray="none" stroke-linecap="butt" stroke-linejoin="round" stroke-miterlimit="10" stroke-opacity="1" stroke-width="12700" d="M 5105400,2209800 H 6477000 V 4495800 H 5105400 Z"/></g><g id="g3182" transform="matrix(7.874016e-5,0,0,-7.874016e-5,-17,367)"><path id="path3184" fill="none" stroke="#000" stroke-dasharray="none" stroke-linecap="butt" stroke-linejoin="round" stroke-miterlimit="10" stroke-opacity="1" stroke-width="19050" d="m 5253038,2210594 -1555,1193800"/></g><path id="path3186" fill="#000" fill-opacity="1" fill-rule="evenodd" stroke="none" d="m 394.625,192.9401 v 0 c 10e-4,1.1046 0.898,1.9988 2.0026,1.9974 1.1046,-0.001 1.9988,-0.898 1.9974,-2.0026 -10e-4,-1.1046 -0.898,-1.9988 -2.0026,-1.9974 -1.1046,0.001 -1.9988,0.898 -1.9974,2.0026 0,0 0,0 0,0 z"/><path id="path3188" fill="#000" fill-opacity="1" fill-rule="evenodd" stroke="none" d="m 399.5078,102.9336 -3.0078,-5.99611 -2.9922,6.00391 6,-0.008 z"/><g id="g3190" transform="matrix(7.874016e-5,0,0,-7.874016e-5,-17,367)"><path id="path3192" fill="none" stroke="#000" stroke-dasharray="none" stroke-linecap="butt" stroke-linejoin="round" stroke-miterlimit="10" stroke-opacity="1" stroke-width="19050" d="m 5405438,2362994 -1555,1193800"/></g><path id="path3194" fill="#000" fill-opacity="1" fill-rule="evenodd" stroke="none" d="m 406.625,180.9401 v 0 c 10e-4,1.1046 0.898,1.9988 2.0026,1.9974 1.1046,-0.001 1.9988,-0.898 1.9974,-2.0026 -10e-4,-1.1046 -0.898,-1.9988 -2.0026,-1.9974 -1.1046,0.001 -1.9988,0.898 -1.9974,2.0026 0,0 0,0 0,0 z"/><path id="path3196" fill="#000" fill-opacity="1" fill-rule="evenodd" stroke="none" d="m 411.5078,90.93359 -3.0078,-5.9961 -2.9922,6.00391 6,-0.0078 z"/><g id="g3198" transform="matrix(7.874016e-5,0,0,-7.874016e-5,-17,367)"><path id="path3200" fill="none" stroke="#000" stroke-dasharray="none" stroke-linecap="butt" stroke-linejoin="round" stroke-miterlimit="10" stroke-opacity="1" stroke-width="19050" d="m 5557838,2515394 -1555,1193800"/></g><path id="path3202" fill="#000" fill-opacity="1" fill-rule="evenodd" stroke="none" d="m 418.625,168.9401 v 0 c 10e-4,1.1046 0.898,1.9988 2.0026,1.9974 1.1046,-0.001 1.9988,-0.898 1.9974,-2.0026 -10e-4,-1.1046 -0.898,-1.9988 -2.0026,-1.9974 -1.1046,0.001 -1.9988,0.898 -1.9974,2.0026 0,0 0,0 0,0 z"/><path id="path3204" fill="#000" fill-opacity="1" fill-rule="evenodd" stroke="none" d="m 423.5078,78.93359 -3.0078,-5.9961 -2.9922,6.00391 6,-0.0078 z"/><g id="g3206" transform="matrix(7.874016e-5,0,0,-7.874016e-5,-17,367)"><path id="path3208" fill="none" stroke="#000" stroke-dasharray="none" stroke-linecap="butt" stroke-linejoin="round" stroke-miterlimit="10" stroke-opacity="1" stroke-width="19050" d="m 5710238,2667794 -1555,1193800"/></g><path id="path3210" fill="#000" fill-opacity="1" fill-rule="evenodd" stroke="none" d="m 430.625,156.9401 v 0 c 10e-4,1.1046 0.898,1.9988 2.0026,1.9974 1.1046,-0.001 1.9988,-0.898 1.9974,-2.0026 -10e-4,-1.1046 -0.898,-1.9988 -2.0026,-1.9974 -1.1046,0.001 -1.9988,0.898 -1.9974,2.0026 0,0 0,0 0,0 z"/><path id="path3212" fill="#000" fill-opacity="1" fill-rule="evenodd" stroke="none" d="M 435.5078,66.93359 432.5,60.9375 l -2.9922,6.0039 6,-0.0078 z"/><g id="g3214" transform="matrix(7.874016e-5,0,0,-7.874016e-5,-17,367)"><path id="path3216" fill="none" stroke="#000" stroke-dasharray="none" stroke-linecap="butt" stroke-linejoin="round" stroke-miterlimit="10" stroke-opacity="1" stroke-width="19050" d="m 5862638,2820194 -1555,1193800"/></g><path id="path3218" fill="#000" fill-opacity="1" fill-rule="evenodd" stroke="none" d="m 442.625,144.9401 v 0 c 10e-4,1.1046 0.898,1.9988 2.0026,1.9974 1.1046,-0.001 1.9988,-0.898 1.9974,-2.0026 -10e-4,-1.1046 -0.898,-1.9988 -2.0026,-1.9974 -1.1046,0.001 -1.9988,0.898 -1.9974,2.0026 0,0 0,0 0,0 z"/><path id="path3220" fill="#000" fill-opacity="1" fill-rule="evenodd" stroke="none" d="M 447.5078,54.93359 444.5,48.9375 l -2.9922,6.0039 6,-0.0078 z"/><g id="g3222" transform="matrix(7.874016e-5,0,0,-7.874016e-5,-17,367)"><path id="path3224" fill="none" stroke="#000" stroke-dasharray="none" stroke-linecap="butt" stroke-linejoin="round" stroke-miterlimit="10" stroke-opacity="1" stroke-width="19050" d="m 6015038,2972594 -1555,1193800"/></g><path id="path3226" fill="#000" fill-opacity="1" fill-rule="evenodd" stroke="none" d="m 454.625,132.9401 v 0 c 10e-4,1.1046 0.898,1.9988 2.0026,1.9974 1.1046,-0.001 1.9988,-0.898 1.9974,-2.0026 -10e-4,-1.1046 -0.898,-1.9988 -2.0026,-1.9974 -1.1046,0.001 -1.9988,0.898 -1.9974,2.0026 0,0 0,0 0,0 z"/><path id="path3228" fill="#000" fill-opacity="1" fill-rule="evenodd" stroke="none" d="M 459.5078,42.93359 456.5,36.9375 l -2.9922,6.0039 6,-0.0078 z"/><g id="g3230" transform="matrix(7.874016e-5,0,0,-7.874016e-5,-17,367)"><path id="path3232" fill="none" stroke="#000" stroke-dasharray="none" stroke-linecap="butt" stroke-linejoin="round" stroke-miterlimit="10" stroke-opacity="1" stroke-width="19050" d="m 6167438,3124994 -1555,1193800"/></g><path id="path3234" fill="#000" fill-opacity="1" fill-rule="evenodd" stroke="none" d="m 466.625,120.9401 v 0 c 10e-4,1.1046 0.898,1.9988 2.0026,1.9974 1.1046,-0.001 1.9988,-0.898 1.9974,-2.0026 -10e-4,-1.1046 -0.898,-1.9988 -2.0026,-1.9974 -1.1046,0.001 -1.9988,0.898 -1.9974,2.0026 0,0 0,0 0,0 z"/><path id="path3236" fill="#000" fill-opacity="1" fill-rule="evenodd" stroke="none" d="m 471.5078,30.93357 -3.0078,-5.99609 -2.9922,6.0039 6,-0.0078 z"/><g id="g3238" transform="matrix(7.874016e-5,0,0,-7.874016e-5,-17,367)"><path id="path3240" fill="none" stroke="#000" stroke-dasharray="none" stroke-linecap="butt" stroke-linejoin="round" stroke-miterlimit="10" stroke-opacity="1" stroke-width="19050" d="m 6319838,3277394 -1555,1193800"/></g><path id="path3242" fill="#000" fill-opacity="1" fill-rule="evenodd" stroke="none" d="m 478.625,108.9401 v 0 c 10e-4,1.1046 0.898,1.9988 2.0026,1.9974 1.1046,-0.001 1.9988,-0.898 1.9974,-2.0026 -10e-4,-1.1046 -0.898,-1.9988 -2.0026,-1.9974 -1.1046,0.001 -1.9988,0.898 -1.9974,2.0026 0,0 0,0 0,0 z"/><path id="path3244" fill="#000" fill-opacity="1" fill-rule="evenodd" stroke="none" d="m 483.5078,18.93357 -3.0078,-5.99609 -2.9922,6.0039 6,-0.0078 z"/><g id="g3246" transform="matrix(7.874016e-5,0,0,-7.874016e-5,-17,367)"><path id="path3248" fill="none" stroke="#000" stroke-dasharray="none" stroke-linecap="butt" stroke-linejoin="round" stroke-miterlimit="10" stroke-opacity="1" stroke-width="19050" d="m 6777038,2209800 -1522,584200"/></g><path id="path3250" fill="#000" fill-opacity="1" fill-rule="evenodd" stroke="none" d="m 514.625,193.0052 v 0 c 0.003,1.1046 0.9006,1.9977 2.0052,1.9948 1.1046,-0.003 1.9977,-0.9007 1.9948,-2.0052 -0.003,-1.1046 -0.9006,-1.9977 -2.0052,-1.9948 -1.1046,0.003 -1.9977,0.9007 -1.9948,2.0052 0,0 0,0 0,0 z"/><path id="path3252" fill="#000" fill-opacity="1" fill-rule="evenodd" stroke="none" d="M 519.5156,150.9922 516.5,145 l -2.9844,6.0078 z"/><g id="g3254" transform="matrix(7.874016e-5,0,0,-7.874016e-5,-17,367)"><path id="path3256" fill="none" stroke="#000" stroke-dasharray="none" stroke-linecap="butt" stroke-linejoin="round" stroke-miterlimit="10" stroke-opacity="1" stroke-width="19050" d="m 6929438,2362200 -1522,584200"/></g><path id="path3258" fill="#000" fill-opacity="1" fill-rule="evenodd" stroke="none" d="m 526.625,181.0052 v 0 c 0.003,1.1046 0.9006,1.9977 2.0052,1.9948 1.1046,-0.003 1.9977,-0.9007 1.9948,-2.0052 -0.003,-1.1046 -0.9006,-1.9977 -2.0052,-1.9948 -1.1046,0.003 -1.9977,0.9007 -1.9948,2.0052 0,0 0,0 0,0 z"/><path id="path3260" fill="#000" fill-opacity="1" fill-rule="evenodd" stroke="none" d="M 531.5156,138.9922 528.5,133 l -2.9844,6.0078 z"/><g id="g3262" transform="matrix(7.874016e-5,0,0,-7.874016e-5,-17,367)"><path id="path3264" fill="none" stroke="#000" stroke-dasharray="none" stroke-linecap="butt" stroke-linejoin="round" stroke-miterlimit="10" stroke-opacity="1" stroke-width="19050" d="m 7081838,2514600 -1522,584200"/></g><path id="path3266" fill="#000" fill-opacity="1" fill-rule="evenodd" stroke="none" d="m 538.625,169.0052 v 0 c 0.003,1.1046 0.9006,1.9977 2.0052,1.9948 1.1046,-0.003 1.9977,-0.9007 1.9948,-2.0052 -0.003,-1.1046 -0.9006,-1.9977 -2.0052,-1.9948 -1.1046,0.003 -1.9977,0.9007 -1.9948,2.0052 0,0 0,0 0,0 z"/><path id="path3268" fill="#000" fill-opacity="1" fill-rule="evenodd" stroke="none" d="M 543.5156,126.9922 540.5,121 l -2.9844,6.0078 z"/><g id="g3270" transform="matrix(7.874016e-5,0,0,-7.874016e-5,-17,367)"><path id="path3272" fill="none" stroke="#000" stroke-dasharray="none" stroke-linecap="butt" stroke-linejoin="round" stroke-miterlimit="10" stroke-opacity="1" stroke-width="19050" d="m 7234238,2667000 -1522,584200"/></g><path id="path3274" fill="#000" fill-opacity="1" fill-rule="evenodd" stroke="none" d="m 550.625,157.0052 v 0 c 0.003,1.1046 0.9006,1.9977 2.0052,1.9948 1.1046,-0.003 1.9977,-0.9007 1.9948,-2.0052 -0.003,-1.1046 -0.9006,-1.9977 -2.0052,-1.9948 -1.1046,0.003 -1.9977,0.9007 -1.9948,2.0052 0,0 0,0 0,0 z"/><path id="path3276" fill="#000" fill-opacity="1" fill-rule="evenodd" stroke="none" d="M 555.5156,114.9922 552.5,109 l -2.9844,6.0078 z"/><g id="g3278" transform="matrix(7.874016e-5,0,0,-7.874016e-5,-17,367)"><path id="path3280" fill="none" stroke="#000" stroke-dasharray="none" stroke-linecap="butt" stroke-linejoin="round" stroke-miterlimit="10" stroke-opacity="1" stroke-width="19050" d="m 7690644,2210594 -1455,279400"/></g><path id="path3282" fill="#000" fill-opacity="1" fill-rule="evenodd" stroke="none" d="m 586.5625,192.9479 v 0 c 0.006,1.1046 0.9059,1.9953 2.0104,1.9896 1.1046,-0.006 1.9953,-0.9059 1.9896,-2.0104 -0.006,-1.1046 -0.9059,-1.9953 -2.0104,-1.9896 -1.1046,0.006 -1.9953,0.9059 -1.9896,2.0104 0,0 0,0 0,0 z"/><path id="path3284" fill="#000" fill-opacity="1" fill-rule="evenodd" stroke="none" d="m 591.4688,174.9218 -3.0313,-5.9843 -2.9687,6.0156 z"/><g id="g3286" transform="matrix(7.874016e-5,0,0,-7.874016e-5,-17,367)"><path id="path3288" fill="none" stroke="#000" stroke-dasharray="none" stroke-linecap="butt" stroke-linejoin="round" stroke-miterlimit="10" stroke-opacity="1" stroke-width="19050" d="m 7843044,2362994 -1455,279400"/></g><path id="path3290" fill="#000" fill-opacity="1" fill-rule="evenodd" stroke="none" d="m 598.5625,180.9479 v 0 c 0.006,1.1046 0.9059,1.9953 2.0104,1.9896 1.1046,-0.006 1.9953,-0.9059 1.9896,-2.0104 -0.006,-1.1046 -0.9059,-1.9953 -2.0104,-1.9896 -1.1046,0.006 -1.9953,0.9059 -1.9896,2.0104 0,0 0,0 0,0 z"/><path id="path3292" fill="#000" fill-opacity="1" fill-rule="evenodd" stroke="none" d="m 603.4688,162.9218 -3.0313,-5.9843 -2.9687,6.0156 z"/><g id="g3294" transform="matrix(7.874016e-5,0,0,-7.874016e-5,-17,367)"><path id="path3296" fill="none" stroke="#000" stroke-dasharray="none" stroke-linecap="butt" stroke-linejoin="round" stroke-miterlimit="10" stroke-opacity="1" stroke-width="19050" d="m 8224044,2210594 -1324,127001"/></g><path id="path3298" fill="#000" fill-opacity="1" fill-rule="evenodd" stroke="none" d="m 628.5626,192.9583 v 0 c 0.0115,1.1046 0.9162,1.9906 2.0207,1.9791 1.1046,-0.0115 1.9906,-0.9162 1.9791,-2.0207 -0.0115,-1.1046 -0.9162,-1.9906 -2.0207,-1.9791 -1.1046,0.0115 -1.9906,0.9162 -1.9791,2.0207 0,0 0,0 0,0 z"/><path id="path3300" fill="#000" fill-opacity="1" fill-rule="evenodd" stroke="none" d="m 633.4998,186.9059 -3.0623,-5.9684 -2.9373,6.0309 z"/><g id="g3302" transform="matrix(7.874016e-5,0,0,-7.874016e-5,-17,367)"><path id="path3304" fill="none" stroke="#000" stroke-dasharray="none" stroke-linecap="butt" stroke-linejoin="round" stroke-miterlimit="10" stroke-opacity="1" stroke-width="19050" d="m 6777038,3429000 -1522,584200"/></g><path id="path3306" fill="#000" fill-opacity="1" fill-rule="evenodd" stroke="none" d="m 514.625,97.0052 v 0 c 0.003,1.10456 0.9006,1.99766 2.0052,1.99478 1.1046,-0.0029 1.9977,-0.90063 1.9948,-2.0052 -0.003,-1.10456 -0.9006,-1.99766 -2.0052,-1.99478 -1.1046,0.0029 -1.9977,0.90063 -1.9948,2.0052 0,0 0,0 0,0 z"/><path id="path3308" fill="#000" fill-opacity="1" fill-rule="evenodd" stroke="none" d="M 519.5156,54.99217 516.5,49 l -2.9844,6.0078 z"/><g id="g3310" transform="matrix(7.874016e-5,0,0,-7.874016e-5,-17,367)"><path id="path3312" fill="none" stroke="#000" stroke-dasharray="none" stroke-linecap="butt" stroke-linejoin="round" stroke-miterlimit="10" stroke-opacity="1" stroke-width="19050" d="m 6929438,3581400 -1522,584200"/></g><path id="path3314" fill="#000" fill-opacity="1" fill-rule="evenodd" stroke="none" d="m 526.625,85.0052 v 0 c 0.003,1.10456 0.9006,1.99766 2.0052,1.99478 1.1046,-0.0029 1.9977,-0.90063 1.9948,-2.0052 -0.003,-1.10456 -0.9006,-1.99766 -2.0052,-1.99478 -1.1046,0.0029 -1.9977,0.90063 -1.9948,2.0052 0,0 0,0 0,0 z"/><path id="path3316" fill="#000" fill-opacity="1" fill-rule="evenodd" stroke="none" d="M 531.5156,42.99217 528.5,37 l -2.9844,6.0078 z"/><g id="g3318" transform="matrix(7.874016e-5,0,0,-7.874016e-5,-17,367)"><path id="path3320" fill="none" stroke="#000" stroke-dasharray="none" stroke-linecap="butt" stroke-linejoin="round" stroke-miterlimit="10" stroke-opacity="1" stroke-width="19050" d="m 7081838,3733800 -1522,584200"/></g><path id="path3322" fill="#000" fill-opacity="1" fill-rule="evenodd" stroke="none" d="m 538.625,73.0052 v 0 c 0.003,1.10456 0.9006,1.99766 2.0052,1.99478 1.1046,-0.0029 1.9977,-0.90063 1.9948,-2.0052 -0.003,-1.10456 -0.9006,-1.99766 -2.0052,-1.99478 -1.1046,0.0029 -1.9977,0.90063 -1.9948,2.0052 0,0 0,0 0,0 z"/><path id="path3324" fill="#000" fill-opacity="1" fill-rule="evenodd" stroke="none" d="M 543.5156,30.99217 540.5,25 l -2.9844,6.00779 z"/><g id="g3326" transform="matrix(7.874016e-5,0,0,-7.874016e-5,-17,367)"><path id="path3328" fill="none" stroke="#000" stroke-dasharray="none" stroke-linecap="butt" stroke-linejoin="round" stroke-miterlimit="10" stroke-opacity="1" stroke-width="19050" d="m 7234238,3886200 -1522,584200"/></g><path id="path3330" fill="#000" fill-opacity="1" fill-rule="evenodd" stroke="none" d="m 550.625,61.0052 v 0 c 0.003,1.10457 0.9006,1.99766 2.0052,1.99479 1.1046,-0.0029 1.9977,-0.90064 1.9948,-2.0052 -0.003,-1.10457 -0.9006,-1.99766 -2.0052,-1.99479 -1.1046,0.0029 -1.9977,0.90064 -1.9948,2.0052 0,0 0,0 0,10e-6 z"/><path id="path3332" fill="#000" fill-opacity="1" fill-rule="evenodd" stroke="none" d="M 555.5156,18.99217 552.5,13 l -2.9844,6.0078 z"/><g id="g3334" transform="matrix(7.874016e-5,0,0,-7.874016e-5,-17,367)"><path id="path3336" fill="none" stroke="#000" stroke-dasharray="none" stroke-linecap="butt" stroke-linejoin="round" stroke-miterlimit="10" stroke-opacity="1" stroke-width="19050" d="m 7691438,2819400 -1456,279400"/></g><path id="path3338" fill="#000" fill-opacity="1" fill-rule="evenodd" stroke="none" d="m 586.625,145.0104 v 0 c 0.006,1.1046 0.9059,1.9953 2.0104,1.9896 1.1046,-0.006 1.9953,-0.9059 1.9896,-2.0104 -0.006,-1.1046 -0.9059,-1.9953 -2.0104,-1.9896 -1.1046,0.006 -1.9953,0.9059 -1.9896,2.0104 0,0 0,0 0,0 z"/><path id="path3340" fill="#000" fill-opacity="1" fill-rule="evenodd" stroke="none" d="M 591.5312,126.9843 588.5,121 l -2.9687,6.0155 z"/><g id="g3342" transform="matrix(7.874016e-5,0,0,-7.874016e-5,-17,367)"><path id="path3344" fill="none" stroke="#000" stroke-dasharray="none" stroke-linecap="butt" stroke-linejoin="round" stroke-miterlimit="10" stroke-opacity="1" stroke-width="19050" d="m 7843838,2971800 -1456,279400"/></g><path id="path3346" fill="#000" fill-opacity="1" fill-rule="evenodd" stroke="none" d="m 598.625,133.0104 v 0 c 0.006,1.1046 0.9059,1.9953 2.0104,1.9896 1.1046,-0.006 1.9953,-0.9059 1.9896,-2.0104 -0.006,-1.1046 -0.9059,-1.9953 -2.0104,-1.9896 -1.1046,0.006 -1.9953,0.9059 -1.9896,2.0104 0,0 0,0 0,0 z"/><path id="path3348" fill="#000" fill-opacity="1" fill-rule="evenodd" stroke="none" d="M 603.5312,114.9843 600.5,109 l -2.9687,6.0155 z"/><g id="g3350" transform="matrix(7.874016e-5,0,0,-7.874016e-5,-17,367)"><path id="path3352" fill="none" stroke="#000" stroke-dasharray="none" stroke-linecap="butt" stroke-linejoin="round" stroke-miterlimit="10" stroke-opacity="1" stroke-width="19050" d="m 7692231,3428206 -1455,279400"/></g><path id="path3354" fill="#000" fill-opacity="1" fill-rule="evenodd" stroke="none" d="m 586.6875,97.07291 v 0 c 0.006,1.10455 0.9059,1.9953 2.0104,1.98955 1.1046,-0.0057 1.9953,-0.90583 1.9896,-2.01038 -0.006,-1.10455 -0.9059,-1.99531 -2.0104,-1.98956 -1.1046,0.0057 -1.9953,0.90583 -1.9896,2.01039 0,0 0,0 0,0 z"/><path id="path3356" fill="#000" fill-opacity="1" fill-rule="evenodd" stroke="none" d="m 591.5938,79.0468 -3.0313,-5.98429 -2.9687,6.01554 z"/><g id="g3358" transform="matrix(7.874016e-5,0,0,-7.874016e-5,-17,367)"><path id="path3360" fill="none" stroke="#000" stroke-dasharray="none" stroke-linecap="butt" stroke-linejoin="round" stroke-miterlimit="10" stroke-opacity="1" stroke-width="19050" d="m 7844631,3580606 -1455,279400"/></g><path id="path3362" fill="#000" fill-opacity="1" fill-rule="evenodd" stroke="none" d="m 598.6875,85.07291 v 0 c 0.006,1.10455 0.9059,1.9953 2.0104,1.98955 1.1046,-0.0057 1.9953,-0.90583 1.9896,-2.01038 -0.006,-1.10455 -0.9059,-1.99531 -2.0104,-1.98956 -1.1046,0.0057 -1.9953,0.90583 -1.9896,2.01039 0,0 0,0 0,0 z"/><path id="path3364" fill="#000" fill-opacity="1" fill-rule="evenodd" stroke="none" d="m 603.5938,67.0468 -3.0313,-5.9843 -2.9687,6.01555 z"/><g id="g3366" transform="matrix(7.874016e-5,0,0,-7.874016e-5,-17,367)"><path id="path3368" fill="none" stroke="#000" stroke-dasharray="none" stroke-linecap="butt" stroke-linejoin="round" stroke-miterlimit="10" stroke-opacity="1" stroke-width="19050" d="m 7693025,4037012 -1455,279401"/></g><path id="path3370" fill="#000" fill-opacity="1" fill-rule="evenodd" stroke="none" d="m 586.75,49.13541 v 0 c 0.006,1.10456 0.9059,1.99531 2.0104,1.98956 1.1046,-0.0057 1.9953,-0.90583 1.9896,-2.01039 -0.006,-1.10455 -0.9059,-1.99531 -2.0104,-1.98956 -1.1046,0.0058 -1.9953,0.90584 -1.9896,2.01039 0,0 0,0 0,0 z"/><path id="path3372" fill="#000" fill-opacity="1" fill-rule="evenodd" stroke="none" d="m 591.6562,31.10928 -3.0312,-5.9843 -2.9687,6.01554 z"/><g id="g3374" transform="matrix(7.874016e-5,0,0,-7.874016e-5,-17,367)"><path id="path3376" fill="none" stroke="#000" stroke-dasharray="none" stroke-linecap="butt" stroke-linejoin="round" stroke-miterlimit="10" stroke-opacity="1" stroke-width="19050" d="m 7845425,4189412 -1455,279401"/></g><path id="path3378" fill="#000" fill-opacity="1" fill-rule="evenodd" stroke="none" d="m 598.75,37.13541 v 0 c 0.006,1.10456 0.9059,1.99531 2.0104,1.98956 1.1046,-0.0057 1.9953,-0.90583 1.9896,-2.01039 -0.006,-1.10455 -0.9059,-1.99531 -2.0104,-1.98956 -1.1046,0.0058 -1.9953,0.90584 -1.9896,2.01039 0,0 0,0 0,0 z"/><path id="path3380" fill="#000" fill-opacity="1" fill-rule="evenodd" stroke="none" d="m 603.6562,19.10928 -3.0312,-5.9843 -2.9687,6.01554 z"/><g id="g3382" transform="matrix(7.874016e-5,0,0,-7.874016e-5,-17,367)"><path id="path3384" fill="none" stroke="#000" stroke-dasharray="none" stroke-linecap="butt" stroke-linejoin="round" stroke-miterlimit="10" stroke-opacity="1" stroke-width="19050" d="m 8224838,2514600 -1324,127002"/></g><path id="path3386" fill="#000" fill-opacity="1" fill-rule="evenodd" stroke="none" d="m 628.6251,169.0208 v 0 c 0.0115,1.1045 0.9162,1.9906 2.0207,1.9791 1.1046,-0.0115 1.9906,-0.9162 1.9791,-2.0207 -0.0115,-1.1045 -0.9162,-1.9906 -2.0207,-1.9791 -1.1046,0.0115 -1.9906,0.9162 -1.9791,2.0207 0,0 0,0 0,0 z"/><path id="path3388" fill="#000" fill-opacity="1" fill-rule="evenodd" stroke="none" d="M 633.5623,162.9684 630.5,157 l -2.9374,6.0309 z"/><g id="g3390" transform="matrix(7.874016e-5,0,0,-7.874016e-5,-17,367)"><path id="path3392" fill="none" stroke="#000" stroke-dasharray="none" stroke-linecap="butt" stroke-linejoin="round" stroke-miterlimit="10" stroke-opacity="1" stroke-width="19050" d="m 8225631,2818606 -1322,127002"/></g><path id="path3394" fill="#000" fill-opacity="1" fill-rule="evenodd" stroke="none" d="m 628.6876,145.0833 v 0 c 0.0115,1.1045 0.9162,1.9906 2.0207,1.9791 1.1045,-0.0115 1.9906,-0.9162 1.9791,-2.0207 -0.0115,-1.1045 -0.9162,-1.9906 -2.0207,-1.9791 -1.1045,0.0115 -1.9906,0.9162 -1.9791,2.0207 0,0 0,0 0,0 z"/><path id="path3396" fill="#000" fill-opacity="1" fill-rule="evenodd" stroke="none" d="m 633.6249,139.0309 -3.0623,-5.9684 -2.9374,6.0309 z"/><g id="g3398" transform="matrix(7.874016e-5,0,0,-7.874016e-5,-17,367)"><path id="path3400" fill="none" stroke="#000" stroke-dasharray="none" stroke-linecap="butt" stroke-linejoin="round" stroke-miterlimit="10" stroke-opacity="1" stroke-width="19050" d="m 8226425,3122612 -1323,127002"/></g><path id="path3402" fill="#000" fill-opacity="1" fill-rule="evenodd" stroke="none" d="m 628.7501,121.1458 v 0 c 0.0115,1.1045 0.9162,1.9906 2.0207,1.9791 1.1046,-0.0115 1.9906,-0.9162 1.9791,-2.0207 -0.0115,-1.1045 -0.9162,-1.9906 -2.0207,-1.9791 -1.1046,0.0115 -1.9906,0.9162 -1.9791,2.0207 0,0 0,0 0,0 z"/><path id="path3404" fill="#000" fill-opacity="1" fill-rule="evenodd" stroke="none" d="m 633.6873,115.0934 -3.0623,-5.9684 -2.9374,6.0309 z"/><g id="g3406" transform="matrix(7.874016e-5,0,0,-7.874016e-5,-17,367)"><path id="path3408" fill="none" stroke="#000" stroke-dasharray="none" stroke-linecap="butt" stroke-linejoin="round" stroke-miterlimit="10" stroke-opacity="1" stroke-width="19050" d="m 8227219,3426619 -1323,127001"/></g><path id="path3410" fill="#000" fill-opacity="1" fill-rule="evenodd" stroke="none" d="m 628.8126,97.20834 v 0 c 0.0115,1.1045 0.9162,1.99055 2.0207,1.97905 1.1046,-0.01152 1.9906,-0.91623 1.9791,-2.02074 -0.0115,-1.10451 -0.9162,-1.99056 -2.0207,-1.97905 -1.1046,0.01151 -1.9906,0.91622 -1.9791,2.02074 0,0 0,0 0,0 z"/><path id="path3412" fill="#000" fill-opacity="1" fill-rule="evenodd" stroke="none" d="m 633.7498,91.1559 -3.0623,-5.96842 -2.9373,6.03094 z"/><g id="g3414" transform="matrix(7.874016e-5,0,0,-7.874016e-5,-17,367)"><path id="path3416" fill="none" stroke="#000" stroke-dasharray="none" stroke-linecap="butt" stroke-linejoin="round" stroke-miterlimit="10" stroke-opacity="1" stroke-width="19050" d="m 8228012,3730625 -1322,127001"/></g><path id="path3418" fill="#000" fill-opacity="1" fill-rule="evenodd" stroke="none" d="m 628.8751,73.27083 v 0 c 0.0115,1.10451 0.9162,1.99056 2.0207,1.97906 1.1046,-0.01151 1.9906,-0.91622 1.9791,-2.02073 -0.0115,-1.10451 -0.9162,-1.99057 -2.0207,-1.97906 -1.1046,0.0115 -1.9906,0.91621 -1.9791,2.02073 0,0 0,0 0,0 z"/><path id="path3420" fill="#000" fill-opacity="1" fill-rule="evenodd" stroke="none" d="m 633.8123,67.21841 -3.0623,-5.96843 -2.9374,6.03093 z"/><g id="g3422" transform="matrix(7.874016e-5,0,0,-7.874016e-5,-17,367)"><path id="path3424" fill="none" stroke="#000" stroke-dasharray="none" stroke-linecap="butt" stroke-linejoin="round" stroke-miterlimit="10" stroke-opacity="1" stroke-width="19050" d="m 8228806,4034631 -1322,127002"/></g><path id="path3426" fill="#000" fill-opacity="1" fill-rule="evenodd" stroke="none" d="m 628.9376,49.33332 v 0 c 0.0115,1.10451 0.9162,1.99057 2.0207,1.97907 1.1045,-0.0115 1.9906,-0.91621 1.9791,-2.02072 -0.0115,-1.10451 -0.9162,-1.99057 -2.0207,-1.97907 -1.1045,0.0115 -1.9906,0.91621 -1.9791,2.02072 0,0 0,0 0,0 z"/><path id="path3428" fill="#000" fill-opacity="1" fill-rule="evenodd" stroke="none" d="m 633.8749,43.28092 -3.0623,-5.96844 -2.9374,6.03092 z"/><g id="g3430" transform="matrix(7.874016e-5,0,0,-7.874016e-5,-17,367)"><path id="path3432" fill="none" stroke="#000" stroke-dasharray="none" stroke-linecap="butt" stroke-linejoin="round" stroke-miterlimit="10" stroke-opacity="1" stroke-width="19050" d="m 8229600,4338638 -1323,127001"/></g><path id="path3434" fill="#000" fill-opacity="1" fill-rule="evenodd" stroke="none" d="m 629.0001,25.39583 v 0 c 0.0115,1.10451 0.9162,1.99056 2.0207,1.97906 1.1046,-0.01151 1.9906,-0.91622 1.9791,-2.02073 -0.0115,-1.10451 -0.9162,-1.99056 -2.0207,-1.97906 -1.1046,0.01151 -1.9906,0.91622 -1.9791,2.02073 0,0 0,0 0,0 z"/><path id="path3436" fill="#000" fill-opacity="1" fill-rule="evenodd" stroke="none" d="m 633.9373,19.34341 -3.0623,-5.96842 -2.9374,6.03092 z"/><path id="path3438" fill="#c5d7ea" fill-opacity="1" fill-rule="evenodd" stroke="none" d="M 193,103 H 349 V 205 H 193 Z"/><g id="g3440" transform="matrix(7.874016e-5,0,0,-7.874016e-5,-17,367)"><path id="path3442" fill="none" stroke="#919191" stroke-dasharray="none" stroke-linecap="butt" stroke-linejoin="round" stroke-miterlimit="10" stroke-opacity="1" stroke-width="12700" d="M 2667000,2057400 H 4648200 V 3352800 H 2667000 Z"/></g><path id="path3444" fill="#e2a8a5" fill-opacity="1" fill-rule="evenodd" stroke="none" d="m 325,157 h 12 v 12 h -12 z"/><g id="g3446" transform="matrix(7.874016e-5,0,0,-7.874016e-5,-17,367)"><path id="path3448" fill="none" stroke="#919191" stroke-dasharray="none" stroke-linecap="butt" stroke-linejoin="round" stroke-miterlimit="10" stroke-opacity="1" stroke-width="12700" d="m 4343400,2514600 h 152400 v 152400 h -152400 z"/></g><path id="path3450" fill="#e2a8a5" fill-opacity="1" fill-rule="evenodd" stroke="none" d="m 325,133 h 12 v 12 h -12 z"/><g id="g3452" transform="matrix(7.874016e-5,0,0,-7.874016e-5,-17,367)"><path id="path3454" fill="none" stroke="#919191" stroke-dasharray="none" stroke-linecap="butt" stroke-linejoin="round" stroke-miterlimit="10" stroke-opacity="1" stroke-width="12700" d="m 4343400,2819400 h 152400 v 152400 h -152400 z"/></g><path id="path3456" fill="#e2a8a5" fill-opacity="1" fill-rule="evenodd" stroke="none" d="m 325,109 h 12 v 12 h -12 z"/><g id="g3458" transform="matrix(7.874016e-5,0,0,-7.874016e-5,-17,367)"><path id="path3460" fill="none" stroke="#919191" stroke-dasharray="none" stroke-linecap="butt" stroke-linejoin="round" stroke-miterlimit="10" stroke-opacity="1" stroke-width="12700" d="m 4343400,3124200 h 152400 v 152400 h -152400 z"/></g><path id="path3462" fill="#e2a8a5" fill-opacity="1" fill-rule="evenodd" stroke="none" d="m 325,181 h 12 v 12 h -12 z"/><g id="g3464" transform="matrix(7.874016e-5,0,0,-7.874016e-5,-17,367)"><path id="path3466" fill="none" stroke="#919191" stroke-dasharray="none" stroke-linecap="butt" stroke-linejoin="round" stroke-miterlimit="10" stroke-opacity="1" stroke-width="12700" d="m 4343400,2209800 h 152400 v 152400 h -152400 z"/></g><path id="path3468" fill="#e2a8a5" fill-opacity="1" fill-rule="evenodd" stroke="none" d="m 277,109 h 36 v 36 h -36 z"/><g id="g3470" transform="matrix(7.874016e-5,0,0,-7.874016e-5,-17,367)"><path id="path3472" fill="none" stroke="#919191" stroke-dasharray="none" stroke-linecap="butt" stroke-linejoin="round" stroke-miterlimit="10" stroke-opacity="1" stroke-width="12700" d="m 3733800,2819400 h 457200 v 457200 h -457200 z"/></g><path id="path3474" fill="#e2a8a5" fill-opacity="1" fill-rule="evenodd" stroke="none" d="m 277,157 h 36 v 36 h -36 z"/><g id="g3476" transform="matrix(7.874016e-5,0,0,-7.874016e-5,-17,367)"><path id="path3478" fill="none" stroke="#919191" stroke-dasharray="none" stroke-linecap="butt" stroke-linejoin="round" stroke-miterlimit="10" stroke-opacity="1" stroke-width="12700" d="m 3733800,2209800 h 457200 v 457200 h -457200 z"/></g><path id="path3480" fill="#e2a8a5" fill-opacity="1" fill-rule="evenodd" stroke="none" d="m 205,109 h 60 v 84 h -60 z"/><g id="g3482" transform="matrix(7.874016e-5,0,0,-7.874016e-5,-17,367)"><path id="path3484" fill="none" stroke="#919191" stroke-dasharray="none" stroke-linecap="butt" stroke-linejoin="round" stroke-miterlimit="10" stroke-opacity="1" stroke-width="12700" d="m 2819400,2209800 h 762000 v 1066800 h -762000 z"/></g><g id="g3486" transform="matrix(7.874016e-5,0,0,-7.874016e-5,-17,367)"><path id="path3488" fill="none" stroke="#000" stroke-dasharray="none" stroke-linecap="butt" stroke-linejoin="round" stroke-miterlimit="10" stroke-opacity="1" stroke-width="19050" d="m 2967038,2209800 -1522,584200"/></g><path id="path3490" fill="#000" fill-opacity="1" fill-rule="evenodd" stroke="none" d="m 214.625,193.0052 v 0 c 0.003,1.1046 0.9007,1.9977 2.0052,1.9948 1.1046,-0.003 1.9977,-0.9007 1.9948,-2.0052 -0.003,-1.1046 -0.9007,-1.9977 -2.0052,-1.9948 -1.1046,0.003 -1.9977,0.9007 -1.9948,2.0052 0,0 0,0 0,0 z"/><path id="path3492" fill="#000" fill-opacity="1" fill-rule="evenodd" stroke="none" d="M 219.5156,150.9922 216.5,145 l -2.9844,6.0078 z"/><g id="g3494" transform="matrix(7.874016e-5,0,0,-7.874016e-5,-17,367)"><path id="path3496" fill="none" stroke="#000" stroke-dasharray="none" stroke-linecap="butt" stroke-linejoin="round" stroke-miterlimit="10" stroke-opacity="1" stroke-width="19050" d="m 3119438,2362200 -1522,584200"/></g><path id="path3498" fill="#000" fill-opacity="1" fill-rule="evenodd" stroke="none" d="m 226.625,181.0052 v 0 c 0.003,1.1046 0.9007,1.9977 2.0052,1.9948 1.1046,-0.003 1.9977,-0.9007 1.9948,-2.0052 -0.003,-1.1046 -0.9007,-1.9977 -2.0052,-1.9948 -1.1046,0.003 -1.9977,0.9007 -1.9948,2.0052 0,0 0,0 0,0 z"/><path id="path3500" fill="#000" fill-opacity="1" fill-rule="evenodd" stroke="none" d="M 231.5156,138.9922 228.5,133 l -2.9844,6.0078 z"/><g id="g3502" transform="matrix(7.874016e-5,0,0,-7.874016e-5,-17,367)"><path id="path3504" fill="none" stroke="#000" stroke-dasharray="none" stroke-linecap="butt" stroke-linejoin="round" stroke-miterlimit="10" stroke-opacity="1" stroke-width="19050" d="m 3271838,2514600 -1522,584200"/></g><path id="path3506" fill="#000" fill-opacity="1" fill-rule="evenodd" stroke="none" d="m 238.625,169.0052 v 0 c 0.003,1.1046 0.9007,1.9977 2.0052,1.9948 1.1046,-0.003 1.9977,-0.9007 1.9948,-2.0052 -0.003,-1.1046 -0.9007,-1.9977 -2.0052,-1.9948 -1.1046,0.003 -1.9977,0.9007 -1.9948,2.0052 0,0 0,0 0,0 z"/><path id="path3508" fill="#000" fill-opacity="1" fill-rule="evenodd" stroke="none" d="M 243.5156,126.9922 240.5,121 l -2.9844,6.0078 z"/><g id="g3510" transform="matrix(7.874016e-5,0,0,-7.874016e-5,-17,367)"><path id="path3512" fill="none" stroke="#000" stroke-dasharray="none" stroke-linecap="butt" stroke-linejoin="round" stroke-miterlimit="10" stroke-opacity="1" stroke-width="19050" d="m 3424238,2667000 -1522,584200"/></g><path id="path3514" fill="#000" fill-opacity="1" fill-rule="evenodd" stroke="none" d="m 250.625,157.0052 v 0 c 0.003,1.1046 0.9007,1.9977 2.0052,1.9948 1.1046,-0.003 1.9977,-0.9007 1.9948,-2.0052 -0.003,-1.1046 -0.9007,-1.9977 -2.0052,-1.9948 -1.1046,0.003 -1.9977,0.9007 -1.9948,2.0052 0,0 0,0 0,0 z"/><path id="path3516" fill="#000" fill-opacity="1" fill-rule="evenodd" stroke="none" d="M 255.5156,114.9922 252.5,109 l -2.9844,6.0078 z"/><g id="g3518" transform="matrix(7.874016e-5,0,0,-7.874016e-5,-17,367)"><path id="path3520" fill="none" stroke="#000" stroke-dasharray="none" stroke-linecap="butt" stroke-linejoin="round" stroke-miterlimit="10" stroke-opacity="1" stroke-width="19050" d="m 3880644,2210594 -1456,279400"/></g><path id="path3522" fill="#000" fill-opacity="1" fill-rule="evenodd" stroke="none" d="m 286.5625,192.9479 v 0 c 0.006,1.1046 0.9059,1.9953 2.0104,1.9896 1.1046,-0.006 1.9953,-0.9059 1.9896,-2.0104 -0.006,-1.1046 -0.9059,-1.9953 -2.0104,-1.9896 -1.1046,0.006 -1.9953,0.9059 -1.9896,2.0104 0,0 0,0 0,0 z"/><path id="path3524" fill="#000" fill-opacity="1" fill-rule="evenodd" stroke="none" d="m 291.4687,174.9218 -3.0312,-5.9843 -2.9687,6.0155 z"/><g id="g3526" transform="matrix(7.874016e-5,0,0,-7.874016e-5,-17,367)"><path id="path3528" fill="none" stroke="#000" stroke-dasharray="none" stroke-linecap="butt" stroke-linejoin="round" stroke-miterlimit="10" stroke-opacity="1" stroke-width="19050" d="m 4033044,2362994 -1456,279400"/></g><path id="path3530" fill="#000" fill-opacity="1" fill-rule="evenodd" stroke="none" d="m 298.5625,180.9479 v 0 c 0.006,1.1046 0.9059,1.9953 2.0104,1.9896 1.1046,-0.006 1.9953,-0.9059 1.9896,-2.0104 -0.006,-1.1046 -0.9059,-1.9953 -2.0104,-1.9896 -1.1046,0.006 -1.9953,0.9059 -1.9896,2.0104 0,0 0,0 0,0 z"/><path id="path3532" fill="#000" fill-opacity="1" fill-rule="evenodd" stroke="none" d="m 303.4687,162.9218 -3.0312,-5.9843 -2.9687,6.0155 z"/><g id="g3534" transform="matrix(7.874016e-5,0,0,-7.874016e-5,-17,367)"><path id="path3536" fill="none" stroke="#000" stroke-dasharray="none" stroke-linecap="butt" stroke-linejoin="round" stroke-miterlimit="10" stroke-opacity="1" stroke-width="19050" d="m 4414044,2210594 -1324,127001"/></g><path id="path3538" fill="#000" fill-opacity="1" fill-rule="evenodd" stroke="none" d="m 328.5627,192.9583 v 0 c 0.0115,1.1046 0.9162,1.9906 2.0207,1.9791 1.1045,-0.0115 1.9905,-0.9162 1.979,-2.0207 -0.0115,-1.1046 -0.9162,-1.9906 -2.0207,-1.9791 -1.1045,0.0115 -1.9906,0.9162 -1.979,2.0207 0,0 0,0 0,0 z"/><path id="path3540" fill="#000" fill-opacity="1" fill-rule="evenodd" stroke="none" d="m 333.4998,186.9059 -3.0623,-5.9684 -2.9373,6.0309 z"/><g id="g3542" transform="matrix(7.874016e-5,0,0,-7.874016e-5,-17,367)"><path id="path3544" fill="none" stroke="#000" stroke-dasharray="none" stroke-linecap="butt" stroke-linejoin="round" stroke-miterlimit="10" stroke-opacity="1" stroke-width="19050" d="m 3881438,2819400 -1456,279400"/></g><path id="path3546" fill="#000" fill-opacity="1" fill-rule="evenodd" stroke="none" d="m 286.625,145.0104 v 0 c 0.006,1.1046 0.9059,1.9953 2.0104,1.9896 1.1046,-0.006 1.9953,-0.9059 1.9896,-2.0104 -0.006,-1.1046 -0.9059,-1.9953 -2.0104,-1.9896 -1.1046,0.006 -1.9953,0.9059 -1.9896,2.0104 0,0 0,0 0,0 z"/><path id="path3548" fill="#000" fill-opacity="1" fill-rule="evenodd" stroke="none" d="M 291.5312,126.9843 288.5,121 l -2.9687,6.0155 z"/><g id="g3550" transform="matrix(7.874016e-5,0,0,-7.874016e-5,-17,367)"><path id="path3552" fill="none" stroke="#000" stroke-dasharray="none" stroke-linecap="butt" stroke-linejoin="round" stroke-miterlimit="10" stroke-opacity="1" stroke-width="19050" d="m 4033838,2971800 -1456,279400"/></g><path id="path3554" fill="#000" fill-opacity="1" fill-rule="evenodd" stroke="none" d="m 298.625,133.0104 v 0 c 0.006,1.1046 0.9059,1.9953 2.0104,1.9896 1.1046,-0.006 1.9953,-0.9059 1.9896,-2.0104 -0.006,-1.1046 -0.9059,-1.9953 -2.0104,-1.9896 -1.1046,0.006 -1.9953,0.9059 -1.9896,2.0104 0,0 0,0 0,0 z"/><path id="path3556" fill="#000" fill-opacity="1" fill-rule="evenodd" stroke="none" d="M 303.5312,114.9843 300.5,109 l -2.9687,6.0155 z"/><g id="g3558" transform="matrix(7.874016e-5,0,0,-7.874016e-5,-17,367)"><path id="path3560" fill="none" stroke="#000" stroke-dasharray="none" stroke-linecap="butt" stroke-linejoin="round" stroke-miterlimit="10" stroke-opacity="1" stroke-width="19050" d="m 4414838,2514600 -1324,127002"/></g><path id="path3562" fill="#000" fill-opacity="1" fill-rule="evenodd" stroke="none" d="m 328.6251,169.0208 v 0 c 0.0115,1.1045 0.9162,1.9906 2.0207,1.9791 1.1045,-0.0115 1.9906,-0.9162 1.9791,-2.0207 -0.0115,-1.1045 -0.9162,-1.9906 -2.0207,-1.9791 -1.1045,0.0115 -1.9906,0.9162 -1.9791,2.0207 0,0 0,0 0,0 z"/><path id="path3564" fill="#000" fill-opacity="1" fill-rule="evenodd" stroke="none" d="M 333.5623,162.9684 330.5,157 l -2.9373,6.0309 z"/><g id="g3566" transform="matrix(7.874016e-5,0,0,-7.874016e-5,-17,367)"><path id="path3568" fill="none" stroke="#000" stroke-dasharray="none" stroke-linecap="butt" stroke-linejoin="round" stroke-miterlimit="10" stroke-opacity="1" stroke-width="19050" d="m 4415631,2818606 -1323,127002"/></g><path id="path3570" fill="#000" fill-opacity="1" fill-rule="evenodd" stroke="none" d="m 328.6876,145.0833 v 0 c 0.0115,1.1045 0.9162,1.9906 2.0207,1.9791 1.1045,-0.0115 1.9906,-0.9162 1.9791,-2.0207 -0.0115,-1.1045 -0.9162,-1.9906 -2.0207,-1.9791 -1.1045,0.0115 -1.9906,0.9162 -1.9791,2.0207 0,0 0,0 0,0 z"/><path id="path3572" fill="#000" fill-opacity="1" fill-rule="evenodd" stroke="none" d="m 333.6248,139.0309 -3.0623,-5.9684 -2.9373,6.0309 z"/><g id="g3574" transform="matrix(7.874016e-5,0,0,-7.874016e-5,-17,367)"><path id="path3576" fill="none" stroke="#000" stroke-dasharray="none" stroke-linecap="butt" stroke-linejoin="round" stroke-miterlimit="10" stroke-opacity="1" stroke-width="19050" d="m 4416425,3122612 -1323,127002"/></g><path id="path3578" fill="#000" fill-opacity="1" fill-rule="evenodd" stroke="none" d="m 328.7501,121.1458 v 0 c 0.0115,1.1045 0.9162,1.9906 2.0207,1.9791 1.1045,-0.0115 1.9906,-0.9162 1.9791,-2.0207 -0.0115,-1.1045 -0.9162,-1.9906 -2.0207,-1.9791 -1.1045,0.0115 -1.9906,0.9162 -1.9791,2.0207 0,0 0,0 0,0 z"/><path id="path3580" fill="#000" fill-opacity="1" fill-rule="evenodd" stroke="none" d="m 333.6873,115.0934 -3.0623,-5.9684 -2.9373,6.0309 z"/><path id="path3582" fill="#ecc6c5" fill-opacity="1" fill-rule="evenodd" stroke="none" d="m 325,13.18755 h 12 v 12 h -12 z"/><g id="g3584" transform="matrix(7.874016e-5,0,0,-7.874016e-5,-17,367)"><path id="path3586" fill="none" stroke="#919191" stroke-dasharray="none" stroke-linecap="butt" stroke-linejoin="round" stroke-miterlimit="10" stroke-opacity="1" stroke-width="12700" d="m 4343400,4341018 h 152400 v 152400 h -152400 z"/></g><path id="path3588" fill="#ecc6c5" fill-opacity="1" fill-rule="evenodd" stroke="none" d="m 325,37.18755 h 12 v 12 h -12 z"/><g id="g3590" transform="matrix(7.874016e-5,0,0,-7.874016e-5,-17,367)"><path id="path3592" fill="none" stroke="#919191" stroke-dasharray="none" stroke-linecap="butt" stroke-linejoin="round" stroke-miterlimit="10" stroke-opacity="1" stroke-width="12700" d="m 4343400,4036218 h 152400 v 152400 h -152400 z"/></g><path id="path3594" fill="#ecc6c5" fill-opacity="1" fill-rule="evenodd" stroke="none" d="m 325,61.18755 h 12 v 12 h -12 z"/><g id="g3596" transform="matrix(7.874016e-5,0,0,-7.874016e-5,-17,367)"><path id="path3598" fill="none" stroke="#919191" stroke-dasharray="none" stroke-linecap="butt" stroke-linejoin="round" stroke-miterlimit="10" stroke-opacity="1" stroke-width="12700" d="m 4343400,3731418 h 152400 v 152400 h -152400 z"/></g><path id="path3600" fill="#ecc6c5" fill-opacity="1" fill-rule="evenodd" stroke="none" d="m 325,85.18755 h 12 v 12 h -12 z"/><g id="g3602" transform="matrix(7.874016e-5,0,0,-7.874016e-5,-17,367)"><path id="path3604" fill="none" stroke="#919191" stroke-dasharray="none" stroke-linecap="butt" stroke-linejoin="round" stroke-miterlimit="10" stroke-opacity="1" stroke-width="12700" d="m 4343400,3426618 h 152400 v 152400 h -152400 z"/></g><path id="path3606" fill="#ecc6c5" fill-opacity="1" fill-rule="evenodd" stroke="none" d="m 277,13.18755 h 36 v 36 h -36 z"/><g id="g3608" transform="matrix(7.874016e-5,0,0,-7.874016e-5,-17,367)"><path id="path3610" fill="none" stroke="#919191" stroke-dasharray="none" stroke-linecap="butt" stroke-linejoin="round" stroke-miterlimit="10" stroke-opacity="1" stroke-width="12700" d="m 3733800,4036218 h 457200 v 457200 h -457200 z"/></g><path id="path3612" fill="#ecc6c5" fill-opacity="1" fill-rule="evenodd" stroke="none" d="m 277,61.18755 h 36 v 36 h -36 z"/><g id="g3614" transform="matrix(7.874016e-5,0,0,-7.874016e-5,-17,367)"><path id="path3616" fill="none" stroke="#919191" stroke-dasharray="none" stroke-linecap="butt" stroke-linejoin="round" stroke-miterlimit="10" stroke-opacity="1" stroke-width="12700" d="m 3733800,3426618 h 457200 v 457200 h -457200 z"/></g><path id="path3618" fill="#ecc6c5" fill-opacity="1" fill-rule="evenodd" stroke="none" d="m 205,13.18755 h 60 v 84 h -60 z"/><g id="g3620" transform="matrix(7.874016e-5,0,0,-7.874016e-5,-17,367)"><path id="path3622" fill="none" stroke="#919191" stroke-dasharray="none" stroke-linecap="butt" stroke-linejoin="round" stroke-miterlimit="10" stroke-opacity="1" stroke-width="12700" d="m 2819400,3426618 h 762000 v 1066800 h -762000 z"/></g><g id="g3624" transform="matrix(7.874016e-5,0,0,-7.874016e-5,-17,367)"><path id="path3626" fill="none" stroke="#000" stroke-dasharray="none" stroke-linecap="butt" stroke-linejoin="round" stroke-miterlimit="10" stroke-opacity="1" stroke-width="19050" d="m 2967038,4493419 -1522,-584200"/></g><path id="path3628" fill="#000" fill-opacity="1" fill-rule="evenodd" stroke="none" d="m 218.625,13.19268 v 0 c 0.003,-1.10456 -0.8902,-2.00232 -1.9948,-2.0052 -1.1046,-0.0029 -2.0023,0.89022 -2.0052,1.99479 -0.003,1.10456 0.8902,2.00232 1.9948,2.0052 1.1046,0.0029 2.0023,-0.89022 2.0052,-1.99479 0,0 0,0 0,0 z"/><path id="path3630" fill="#000" fill-opacity="1" fill-rule="evenodd" stroke="none" d="m 213.5156,55.1797 2.9844,6.00779 3.0156,-5.99217 z"/><g id="g3632" transform="matrix(7.874016e-5,0,0,-7.874016e-5,-17,367)"><path id="path3634" fill="none" stroke="#000" stroke-dasharray="none" stroke-linecap="butt" stroke-linejoin="round" stroke-miterlimit="10" stroke-opacity="1" stroke-width="19050" d="m 3119438,4341019 -1522,-584200"/></g><path id="path3636" fill="#000" fill-opacity="1" fill-rule="evenodd" stroke="none" d="m 230.625,25.19268 v 0 c 0.003,-1.10456 -0.8902,-2.00232 -1.9948,-2.0052 -1.1046,-0.0029 -2.0023,0.89022 -2.0052,1.99479 -0.003,1.10456 0.8902,2.00232 1.9948,2.0052 1.1046,0.0029 2.0023,-0.89022 2.0052,-1.99479 0,0 0,0 0,0 z"/><path id="path3638" fill="#000" fill-opacity="1" fill-rule="evenodd" stroke="none" d="m 225.5156,67.1797 2.9844,6.00778 3.0156,-5.99216 z"/><g id="g3640" transform="matrix(7.874016e-5,0,0,-7.874016e-5,-17,367)"><path id="path3642" fill="none" stroke="#000" stroke-dasharray="none" stroke-linecap="butt" stroke-linejoin="round" stroke-miterlimit="10" stroke-opacity="1" stroke-width="19050" d="m 3271838,4188619 -1522,-584200"/></g><path id="path3644" fill="#000" fill-opacity="1" fill-rule="evenodd" stroke="none" d="m 242.625,37.1927 v 0 c 0.003,-1.10456 -0.8902,-2.00232 -1.9948,-2.0052 -1.1046,-0.0029 -2.0023,0.89022 -2.0052,1.99479 -0.003,1.10456 0.8902,2.00232 1.9948,2.0052 1.1046,0.0029 2.0023,-0.89022 2.0052,-1.99479 0,0 0,0 0,0 z"/><path id="path3646" fill="#000" fill-opacity="1" fill-rule="evenodd" stroke="none" d="m 237.5156,79.1797 2.9844,6.00778 3.0156,-5.99216 z"/><g id="g3648" transform="matrix(7.874016e-5,0,0,-7.874016e-5,-17,367)"><path id="path3650" fill="none" stroke="#000" stroke-dasharray="none" stroke-linecap="butt" stroke-linejoin="round" stroke-miterlimit="10" stroke-opacity="1" stroke-width="19050" d="m 3424238,4036219 -1522,-584200"/></g><path id="path3652" fill="#000" fill-opacity="1" fill-rule="evenodd" stroke="none" d="m 254.625,49.1927 v 0 c 0.003,-1.10456 -0.8902,-2.00232 -1.9948,-2.0052 -1.1046,-0.0029 -2.0023,0.89022 -2.0052,1.99479 -0.003,1.10456 0.8902,2.00232 1.9948,2.0052 1.1046,0.0029 2.0023,-0.89022 2.0052,-1.99479 0,0 0,0 0,0 z"/><path id="path3654" fill="#000" fill-opacity="1" fill-rule="evenodd" stroke="none" d="m 249.5156,91.1797 2.9844,6.00778 3.0156,-5.99216 z"/><g id="g3656" transform="matrix(7.874016e-5,0,0,-7.874016e-5,-17,367)"><path id="path3658" fill="none" stroke="#000" stroke-dasharray="none" stroke-linecap="butt" stroke-linejoin="round" stroke-miterlimit="10" stroke-opacity="1" stroke-width="19050" d="m 3882231,4494212 -1455,-279400"/></g><path id="path3660" fill="#000" fill-opacity="1" fill-rule="evenodd" stroke="none" d="m 290.6875,13.13541 v 0 c 0.006,-1.10455 -0.885,-2.00463 -1.9896,-2.01039 -1.1045,-0.0057 -2.0046,0.885 -2.0104,1.98956 -0.006,1.10455 0.885,2.00464 1.9896,2.01039 1.1045,0.0058 2.0046,-0.885 2.0104,-1.98956 0,0 0,0 0,0 z"/><path id="path3662" fill="#000" fill-opacity="1" fill-rule="evenodd" stroke="none" d="m 285.5938,31.10946 2.9687,6.01555 3.0312,-5.9843 z"/><g id="g3664" transform="matrix(7.874016e-5,0,0,-7.874016e-5,-17,367)"><path id="path3666" fill="none" stroke="#000" stroke-dasharray="none" stroke-linecap="butt" stroke-linejoin="round" stroke-miterlimit="10" stroke-opacity="1" stroke-width="19050" d="m 4034631,4341812 -1455,-279400"/></g><path id="path3668" fill="#000" fill-opacity="1" fill-rule="evenodd" stroke="none" d="m 302.6875,25.13541 v 0 c 0.006,-1.10455 -0.885,-2.00464 -1.9896,-2.01039 -1.1045,-0.0057 -2.0046,0.885 -2.0104,1.98956 -0.006,1.10455 0.885,2.00464 1.9896,2.01039 1.1045,0.0057 2.0046,-0.885 2.0104,-1.98956 0,0 0,0 0,0 z"/><path id="path3670" fill="#000" fill-opacity="1" fill-rule="evenodd" stroke="none" d="m 297.5938,43.10944 2.9687,6.01555 3.0312,-5.9843 z"/><g id="g3672" transform="matrix(7.874016e-5,0,0,-7.874016e-5,-17,367)"><path id="path3674" fill="none" stroke="#000" stroke-dasharray="none" stroke-linecap="butt" stroke-linejoin="round" stroke-miterlimit="10" stroke-opacity="1" stroke-width="19050" d="m 3883025,3885406 -1455,-279400"/></g><path id="path3676" fill="#000" fill-opacity="1" fill-rule="evenodd" stroke="none" d="m 290.75,61.07291 v 0 c 0.006,-1.10455 -0.885,-2.00463 -1.9896,-2.01039 -1.1045,-0.0057 -2.0046,0.88501 -2.0104,1.98956 -0.006,1.10456 0.885,2.00464 1.9896,2.01039 1.1045,0.0057 2.0046,-0.885 2.0104,-1.98956 0,0 0,0 0,0 z"/><path id="path3678" fill="#000" fill-opacity="1" fill-rule="evenodd" stroke="none" d="m 285.6563,79.04694 2.9687,6.01554 3.0312,-5.98429 z"/><g id="g3680" transform="matrix(7.874016e-5,0,0,-7.874016e-5,-17,367)"><path id="path3682" fill="none" stroke="#000" stroke-dasharray="none" stroke-linecap="butt" stroke-linejoin="round" stroke-miterlimit="10" stroke-opacity="1" stroke-width="19050" d="m 4035425,3733006 -1455,-279400"/></g><path id="path3684" fill="#000" fill-opacity="1" fill-rule="evenodd" stroke="none" d="m 302.75,73.07291 v 0 c 0.006,-1.10456 -0.885,-2.00463 -1.9896,-2.01039 -1.1045,-0.0058 -2.0046,0.885 -2.0104,1.98956 -0.006,1.10455 0.885,2.00463 1.9896,2.01038 1.1045,0.0058 2.0046,-0.88499 2.0104,-1.98955 0,0 0,0 0,0 z"/><path id="path3686" fill="#000" fill-opacity="1" fill-rule="evenodd" stroke="none" d="m 297.6563,91.04694 2.9687,6.01554 3.0312,-5.98429 z"/><g id="g3688" transform="matrix(7.874016e-5,0,0,-7.874016e-5,-17,367)"><path id="path3690" fill="none" stroke="#000" stroke-dasharray="none" stroke-linecap="butt" stroke-linejoin="round" stroke-miterlimit="10" stroke-opacity="1" stroke-width="19050" d="m 4417219,4495800 -1323,-127002"/></g><path id="path3692" fill="#000" fill-opacity="1" fill-rule="evenodd" stroke="none" d="m 332.8124,13.02084 v 0 c 0.0115,-1.10451 -0.8745,-2.00923 -1.979,-2.02074 -1.1045,-0.01151 -2.0092,0.87454 -2.0207,1.97905 -0.0116,1.10451 0.8745,2.00923 1.979,2.02074 1.1045,0.01151 2.0092,-0.87454 2.0207,-1.97905 0,0 0,0 0,0 z"/><path id="path3694" fill="#000" fill-opacity="1" fill-rule="evenodd" stroke="none" d="M 327.7502,18.96907 330.6875,25 l 3.0623,-5.96841 z"/><g id="g3696" transform="matrix(7.874016e-5,0,0,-7.874016e-5,-17,367)"><path id="path3698" fill="none" stroke="#000" stroke-dasharray="none" stroke-linecap="butt" stroke-linejoin="round" stroke-miterlimit="10" stroke-opacity="1" stroke-width="19050" d="m 4418012,4191794 -1322,-127002"/></g><path id="path3700" fill="#000" fill-opacity="1" fill-rule="evenodd" stroke="none" d="m 332.8749,36.95833 v 0 c 0.0115,-1.10451 -0.8746,-2.00922 -1.9791,-2.02073 -1.1045,-0.0115 -2.0092,0.87455 -2.0207,1.97906 -0.0115,1.10451 0.8746,2.00922 1.9791,2.02073 1.1045,0.0115 2.0092,-0.87455 2.0207,-1.97906 0,0 0,0 0,0 z"/><path id="path3702" fill="#000" fill-opacity="1" fill-rule="evenodd" stroke="none" d="m 327.8127,42.90658 2.9373,6.03093 3.0623,-5.96843 z"/><g id="g3704" transform="matrix(7.874016e-5,0,0,-7.874016e-5,-17,367)"><path id="path3706" fill="none" stroke="#000" stroke-dasharray="none" stroke-linecap="butt" stroke-linejoin="round" stroke-miterlimit="10" stroke-opacity="1" stroke-width="19050" d="m 4418806,3887788 -1322,-127002"/></g><path id="path3708" fill="#000" fill-opacity="1" fill-rule="evenodd" stroke="none" d="m 332.9374,60.89582 v 0 c 0.0115,-1.10451 -0.8746,-2.00922 -1.9791,-2.02072 -1.1045,-0.0115 -2.0092,0.87456 -2.0207,1.97907 -0.0115,1.10451 0.8746,2.00922 1.9791,2.02072 1.1045,0.0115 2.0092,-0.87456 2.0207,-1.97907 0,0 0,0 0,0 z"/><path id="path3710" fill="#000" fill-opacity="1" fill-rule="evenodd" stroke="none" d="m 327.8752,66.84409 2.9373,6.03092 3.0623,-5.96844 z"/><g id="g3712" transform="matrix(7.874016e-5,0,0,-7.874016e-5,-17,367)"><path id="path3714" fill="none" stroke="#000" stroke-dasharray="none" stroke-linecap="butt" stroke-linejoin="round" stroke-miterlimit="10" stroke-opacity="1" stroke-width="19050" d="m 4419600,3583781 -1323,-127001"/></g><path id="path3716" fill="#000" fill-opacity="1" fill-rule="evenodd" stroke="none" d="m 332.9999,84.83333 v 0 c 0.0115,-1.10452 -0.8746,-2.00923 -1.9791,-2.02073 -1.1045,-0.01151 -2.0092,0.87455 -2.0207,1.97906 -0.0115,1.10451 0.8746,2.00922 1.9791,2.02073 1.1045,0.0115 2.0092,-0.87455 2.0207,-1.97906 0,0 0,0 0,0 z"/><path id="path3718" fill="#000" fill-opacity="1" fill-rule="evenodd" stroke="none" d="m 327.9377,90.78158 2.9373,6.03093 3.0623,-5.96843 z"/><path id="path3720" fill="#dee8c9" fill-opacity="1" fill-rule="evenodd" stroke="none" d="m 85,0.9999962 h 84 V 54.999996 H 85 Z"/><g id="g3722" transform="matrix(7.874016e-5,0,0,-7.874016e-5,-17,367)"><path id="path3724" fill="none" stroke="#919191" stroke-dasharray="none" stroke-linecap="butt" stroke-linejoin="round" stroke-miterlimit="10" stroke-opacity="1" stroke-width="12700" d="m 1295400,3962400 h 1066800 v 685800 H 1295400 Z"/></g><path id="path3726" fill="#c5d7ea" fill-opacity="1" fill-rule="evenodd" stroke="none" d="m 85,151 h 84 v 54 H 85 Z"/><g id="g3728" transform="matrix(7.874016e-5,0,0,-7.874016e-5,-17,367)"><path id="path3730" fill="none" stroke="#919191" stroke-dasharray="none" stroke-linecap="butt" stroke-linejoin="round" stroke-miterlimit="10" stroke-opacity="1" stroke-width="12700" d="m 1295400,2057400 h 1066800 v 685800 H 1295400 Z"/></g><path id="path3732" fill="#e2a8a5" fill-opacity="1" fill-rule="evenodd" stroke="none" d="m 145,157 h 12 v 12 h -12 z"/><g id="g3734" transform="matrix(7.874016e-5,0,0,-7.874016e-5,-17,367)"><path id="path3736" fill="none" stroke="#919191" stroke-dasharray="none" stroke-linecap="butt" stroke-linejoin="round" stroke-miterlimit="10" stroke-opacity="1" stroke-width="12700" d="m 2057400,2514600 h 152400 v 152400 h -152400 z"/></g><path id="path3738" fill="#e2a8a5" fill-opacity="1" fill-rule="evenodd" stroke="none" d="m 145,181 h 12 v 12 h -12 z"/><g id="g3740" transform="matrix(7.874016e-5,0,0,-7.874016e-5,-17,367)"><path id="path3742" fill="none" stroke="#919191" stroke-dasharray="none" stroke-linecap="butt" stroke-linejoin="round" stroke-miterlimit="10" stroke-opacity="1" stroke-width="12700" d="m 2057400,2209800 h 152400 v 152400 h -152400 z"/></g><path id="path3744" fill="#e2a8a5" fill-opacity="1" fill-rule="evenodd" stroke="none" d="m 97,157 h 36 v 36 H 97 Z"/><g id="g3746" transform="matrix(7.874016e-5,0,0,-7.874016e-5,-17,367)"><path id="path3748" fill="none" stroke="#919191" stroke-dasharray="none" stroke-linecap="butt" stroke-linejoin="round" stroke-miterlimit="10" stroke-opacity="1" stroke-width="12700" d="m 1447800,2209800 h 457200 v 457200 h -457200 z"/></g><g id="g3750" transform="matrix(7.874016e-5,0,0,-7.874016e-5,-17,367)"><path id="path3752" fill="none" stroke="#000" stroke-dasharray="none" stroke-linecap="butt" stroke-linejoin="round" stroke-miterlimit="10" stroke-opacity="1" stroke-width="19050" d="m 1594644,2210594 -1456,279400"/></g><path id="path3754" fill="#000" fill-opacity="1" fill-rule="evenodd" stroke="none" d="m 106.5625,192.9479 v 0 c 0.006,1.1046 0.9059,1.9953 2.0104,1.9896 1.1046,-0.006 1.9953,-0.9059 1.9896,-2.0104 -0.006,-1.1046 -0.9059,-1.9953 -2.0104,-1.9896 -1.1046,0.006 -1.9953,0.9059 -1.9896,2.0104 0,0 0,0 0,0 z"/><path id="path3756" fill="#000" fill-opacity="1" fill-rule="evenodd" stroke="none" d="m 111.4687,174.9218 -3.0312,-5.9843 -2.9687,6.0155 z"/><g id="g3758" transform="matrix(7.874016e-5,0,0,-7.874016e-5,-17,367)"><path id="path3760" fill="none" stroke="#000" stroke-dasharray="none" stroke-linecap="butt" stroke-linejoin="round" stroke-miterlimit="10" stroke-opacity="1" stroke-width="19050" d="m 1747044,2362994 -1456,279400"/></g><path id="path3762" fill="#000" fill-opacity="1" fill-rule="evenodd" stroke="none" d="m 118.5625,180.9479 v 0 c 0.006,1.1046 0.9059,1.9953 2.0104,1.9896 1.1046,-0.006 1.9953,-0.9059 1.9896,-2.0104 -0.006,-1.1046 -0.9059,-1.9953 -2.0104,-1.9896 -1.1046,0.006 -1.9953,0.9059 -1.9896,2.0104 0,0 0,0 0,0 z"/><path id="path3764" fill="#000" fill-opacity="1" fill-rule="evenodd" stroke="none" d="m 123.4687,162.9218 -3.0312,-5.9843 -2.9687,6.0155 z"/><g id="g3766" transform="matrix(7.874016e-5,0,0,-7.874016e-5,-17,367)"><path id="path3768" fill="none" stroke="#000" stroke-dasharray="none" stroke-linecap="butt" stroke-linejoin="round" stroke-miterlimit="10" stroke-opacity="1" stroke-width="19050" d="m 2128044,2210594 -1323,127001"/></g><path id="path3770" fill="#000" fill-opacity="1" fill-rule="evenodd" stroke="none" d="m 148.5626,192.9583 v 0 c 0.0115,1.1045 0.9162,1.9906 2.0207,1.9791 1.1045,-0.0115 1.9906,-0.9162 1.9791,-2.0207 -0.0115,-1.1045 -0.9162,-1.9906 -2.0207,-1.9791 -1.1045,0.0115 -1.9906,0.9162 -1.9791,2.0207 0,0 0,0 0,0 z"/><path id="path3772" fill="#000" fill-opacity="1" fill-rule="evenodd" stroke="none" d="m 153.4998,186.9059 -3.0623,-5.9684 -2.9373,6.0309 z"/><g id="g3774" transform="matrix(7.874016e-5,0,0,-7.874016e-5,-17,367)"><path id="path3776" fill="none" stroke="#000" stroke-dasharray="none" stroke-linecap="butt" stroke-linejoin="round" stroke-miterlimit="10" stroke-opacity="1" stroke-width="19050" d="m 2128838,2514600 -1324,127002"/></g><path id="path3778" fill="#000" fill-opacity="1" fill-rule="evenodd" stroke="none" d="m 148.6251,169.0208 v 0 c 0.0115,1.1045 0.9162,1.9906 2.0207,1.9791 1.1045,-0.0115 1.9906,-0.9162 1.9791,-2.0207 -0.0115,-1.1045 -0.9162,-1.9906 -2.0207,-1.9791 -1.1045,0.0115 -1.9906,0.9162 -1.9791,2.0207 0,0 0,0 0,0 z"/><path id="path3780" fill="#000" fill-opacity="1" fill-rule="evenodd" stroke="none" d="M 153.5623,162.9684 150.5,157 l -2.9373,6.0309 z"/><path id="path3782" fill="#ecc6c5" fill-opacity="1" fill-rule="evenodd" stroke="none" d="m 145,109.0625 h 12 v 12 h -12 z"/><g id="g3784" transform="matrix(7.874016e-5,0,0,-7.874016e-5,-17,367)"><path id="path3786" fill="none" stroke="#919191" stroke-dasharray="none" stroke-linecap="butt" stroke-linejoin="round" stroke-miterlimit="10" stroke-opacity="1" stroke-width="12700" d="m 2057400,3123406 h 152400 v 152400 h -152400 z"/></g><path id="path3788" fill="#ecc6c5" fill-opacity="1" fill-rule="evenodd" stroke="none" d="m 145,133.0625 h 12 v 12 h -12 z"/><g id="g3790" transform="matrix(7.874016e-5,0,0,-7.874016e-5,-17,367)"><path id="path3792" fill="none" stroke="#919191" stroke-dasharray="none" stroke-linecap="butt" stroke-linejoin="round" stroke-miterlimit="10" stroke-opacity="1" stroke-width="12700" d="m 2057400,2818606 h 152400 v 152400 h -152400 z"/></g><path id="path3794" fill="#ecc6c5" fill-opacity="1" fill-rule="evenodd" stroke="none" d="m 97,109.0625 h 36 v 36 H 97 Z"/><g id="g3796" transform="matrix(7.874016e-5,0,0,-7.874016e-5,-17,367)"><path id="path3798" fill="none" stroke="#919191" stroke-dasharray="none" stroke-linecap="butt" stroke-linejoin="round" stroke-miterlimit="10" stroke-opacity="1" stroke-width="12700" d="m 1447800,2818606 h 457200 v 457200 h -457200 z"/></g><g id="g3800" transform="matrix(7.874016e-5,0,0,-7.874016e-5,-17,367)"><path id="path3802" fill="none" stroke="#000" stroke-dasharray="none" stroke-linecap="butt" stroke-linejoin="round" stroke-miterlimit="10" stroke-opacity="1" stroke-width="19050" d="m 1595438,3275806 -1456,-279400"/></g><path id="path3804" fill="#000" fill-opacity="1" fill-rule="evenodd" stroke="none" d="m 110.625,109.0729 v 0 c 0.006,-1.1045 -0.885,-2.0046 -1.9896,-2.0104 -1.1045,-0.006 -2.0046,0.885 -2.0104,1.9896 -0.006,1.1045 0.885,2.0046 1.9896,2.0104 1.1045,0.006 2.0046,-0.885 2.0104,-1.9896 0,0 0,0 0,0 z"/><path id="path3806" fill="#000" fill-opacity="1" fill-rule="evenodd" stroke="none" d="m 105.5313,127.0469 2.9687,6.0156 3.0312,-5.9843 z"/><g id="g3808" transform="matrix(7.874016e-5,0,0,-7.874016e-5,-17,367)"><path id="path3810" fill="none" stroke="#000" stroke-dasharray="none" stroke-linecap="butt" stroke-linejoin="round" stroke-miterlimit="10" stroke-opacity="1" stroke-width="19050" d="m 1747838,3123406 -1456,-279400"/></g><path id="path3812" fill="#000" fill-opacity="1" fill-rule="evenodd" stroke="none" d="m 122.625,121.0729 v 0 c 0.006,-1.1045 -0.885,-2.0046 -1.9896,-2.0104 -1.1045,-0.006 -2.0046,0.885 -2.0104,1.9896 -0.006,1.1045 0.885,2.0046 1.9896,2.0104 1.1045,0.006 2.0046,-0.885 2.0104,-1.9896 0,0 0,0 0,0 z"/><path id="path3814" fill="#000" fill-opacity="1" fill-rule="evenodd" stroke="none" d="m 117.5313,139.047 2.9687,6.0155 3.0312,-5.9843 z"/><g id="g3816" transform="matrix(7.874016e-5,0,0,-7.874016e-5,-17,367)"><path id="path3818" fill="none" stroke="#000" stroke-dasharray="none" stroke-linecap="butt" stroke-linejoin="round" stroke-miterlimit="10" stroke-opacity="1" stroke-width="19050" d="m 2129631,3276600 -1323,-127002"/></g><path id="path3820" fill="#000" fill-opacity="1" fill-rule="evenodd" stroke="none" d="m 152.6874,109.0208 v 0 c 0.0115,-1.1045 -0.8746,-2.0092 -1.9791,-2.0207 -1.1045,-0.0115 -2.0092,0.8746 -2.0207,1.9791 -0.0115,1.1045 0.8746,2.0092 1.9791,2.0207 1.1045,0.0115 2.0092,-0.8746 2.0207,-1.9791 0,0 0,0 0,0 z"/><path id="path3822" fill="#000" fill-opacity="1" fill-rule="evenodd" stroke="none" d="m 147.6252,114.9691 2.9373,6.0309 3.0623,-5.9684 z"/><g id="g3824" transform="matrix(7.874016e-5,0,0,-7.874016e-5,-17,367)"><path id="path3826" fill="none" stroke="#000" stroke-dasharray="none" stroke-linecap="butt" stroke-linejoin="round" stroke-miterlimit="10" stroke-opacity="1" stroke-width="19050" d="m 2130425,2972594 -1323,-127002"/></g><path id="path3828" fill="#000" fill-opacity="1" fill-rule="evenodd" stroke="none" d="m 152.7499,132.9583 v 0 c 0.0115,-1.1045 -0.8746,-2.0092 -1.9791,-2.0207 -1.1045,-0.0115 -2.0092,0.8746 -2.0207,1.9791 -0.0115,1.1045 0.8746,2.0092 1.9791,2.0207 1.1045,0.0115 2.0092,-0.8746 2.0207,-1.9791 0,0 0,0 0,0 z"/><path id="path3830" fill="#000" fill-opacity="1" fill-rule="evenodd" stroke="none" d="m 147.6877,138.9066 2.9373,6.0309 3.0623,-5.9684 z"/><path id="path3832" fill="#ecc6c5" fill-opacity="1" fill-rule="evenodd" stroke="none" d="m 145,13.18755 h 12 v 12 h -12 z"/><g id="g3834" transform="matrix(7.874016e-5,0,0,-7.874016e-5,-17,367)"><path id="path3836" fill="none" stroke="#919191" stroke-dasharray="none" stroke-linecap="butt" stroke-linejoin="round" stroke-miterlimit="10" stroke-opacity="1" stroke-width="12700" d="m 2057400,4341018 h 152400 v 152400 h -152400 z"/></g><path id="path3838" fill="#ecc6c5" fill-opacity="1" fill-rule="evenodd" stroke="none" d="m 145,37.18755 h 12 v 12 h -12 z"/><g id="g3840" transform="matrix(7.874016e-5,0,0,-7.874016e-5,-17,367)"><path id="path3842" fill="none" stroke="#919191" stroke-dasharray="none" stroke-linecap="butt" stroke-linejoin="round" stroke-miterlimit="10" stroke-opacity="1" stroke-width="12700" d="m 2057400,4036218 h 152400 v 152400 h -152400 z"/></g><path id="path3844" fill="#ecc6c5" fill-opacity="1" fill-rule="evenodd" stroke="none" d="m 97,13.18755 h 36 v 36 H 97 Z"/><g id="g3846" transform="matrix(7.874016e-5,0,0,-7.874016e-5,-17,367)"><path id="path3848" fill="none" stroke="#919191" stroke-dasharray="none" stroke-linecap="butt" stroke-linejoin="round" stroke-miterlimit="10" stroke-opacity="1" stroke-width="12700" d="m 1447800,4036218 h 457200 v 457200 h -457200 z"/></g><g id="g3850" transform="matrix(7.874016e-5,0,0,-7.874016e-5,-17,367)"><path id="path3852" fill="none" stroke="#000" stroke-dasharray="none" stroke-linecap="butt" stroke-linejoin="round" stroke-miterlimit="10" stroke-opacity="1" stroke-width="19050" d="m 1596231,4494212 -1455,-279400"/></g><path id="path3854" fill="#000" fill-opacity="1" fill-rule="evenodd" stroke="none" d="m 110.6875,13.13541 v 0 c 0.006,-1.10455 -0.885,-2.00463 -1.9896,-2.01039 -1.1045,-0.0057 -2.0046,0.885 -2.0104,1.98956 -0.006,1.10455 0.885,2.00464 1.9896,2.01039 1.1045,0.0058 2.0046,-0.885 2.0104,-1.98956 0,0 0,0 0,0 z"/><path id="path3856" fill="#000" fill-opacity="1" fill-rule="evenodd" stroke="none" d="m 105.5938,31.10946 2.9687,6.01555 3.0312,-5.9843 z"/><g id="g3858" transform="matrix(7.874016e-5,0,0,-7.874016e-5,-17,367)"><path id="path3860" fill="none" stroke="#000" stroke-dasharray="none" stroke-linecap="butt" stroke-linejoin="round" stroke-miterlimit="10" stroke-opacity="1" stroke-width="19050" d="m 1748631,4341812 -1455,-279400"/></g><path id="path3862" fill="#000" fill-opacity="1" fill-rule="evenodd" stroke="none" d="m 122.6875,25.13541 v 0 c 0.006,-1.10455 -0.885,-2.00464 -1.9896,-2.01039 -1.1045,-0.0057 -2.0046,0.885 -2.0104,1.98956 -0.006,1.10455 0.885,2.00464 1.9896,2.01039 1.1045,0.0057 2.0046,-0.885 2.0104,-1.98956 0,0 0,0 0,0 z"/><path id="path3864" fill="#000" fill-opacity="1" fill-rule="evenodd" stroke="none" d="m 117.5938,43.10944 2.9687,6.01555 3.0312,-5.9843 z"/><g id="g3866" transform="matrix(7.874016e-5,0,0,-7.874016e-5,-17,367)"><path id="path3868" fill="none" stroke="#000" stroke-dasharray="none" stroke-linecap="butt" stroke-linejoin="round" stroke-miterlimit="10" stroke-opacity="1" stroke-width="19050" d="m 2131219,4495800 -1323,-127002"/></g><path id="path3870" fill="#000" fill-opacity="1" fill-rule="evenodd" stroke="none" d="m 152.8124,13.02083 v 0 c 0.0115,-1.10451 -0.8746,-2.00922 -1.9791,-2.02073 -1.1045,-0.0115 -2.0092,0.87455 -2.0207,1.97906 -0.0115,1.10451 0.8746,2.00922 1.9791,2.02073 1.1045,0.0115 2.0092,-0.87455 2.0207,-1.97906 0,0 0,0 0,0 z"/><path id="path3872" fill="#000" fill-opacity="1" fill-rule="evenodd" stroke="none" d="M 147.7502,18.96908 150.6875,25 l 3.0623,-5.96842 z"/><g id="g3874" transform="matrix(7.874016e-5,0,0,-7.874016e-5,-17,367)"><path id="path3876" fill="none" stroke="#000" stroke-dasharray="none" stroke-linecap="butt" stroke-linejoin="round" stroke-miterlimit="10" stroke-opacity="1" stroke-width="19050" d="m 2132012,4191794 -1322,-127002"/></g><path id="path3878" fill="#000" fill-opacity="1" fill-rule="evenodd" stroke="none" d="m 152.8749,36.95833 v 0 c 0.0115,-1.10451 -0.8746,-2.00922 -1.9791,-2.02073 -1.1045,-0.0115 -2.0092,0.87455 -2.0207,1.97906 -0.0115,1.10451 0.8746,2.00922 1.9791,2.02073 1.1045,0.0115 2.0092,-0.87455 2.0207,-1.97906 0,0 0,0 0,0 z"/><path id="path3880" fill="#000" fill-opacity="1" fill-rule="evenodd" stroke="none" d="m 147.8127,42.90658 2.9373,6.03093 3.0623,-5.96843 z"/><path id="path3882" fill="#c5d7ea" fill-opacity="1" fill-rule="evenodd" stroke="none" d="m 85,55 h 84 v 48 H 85 Z"/><g id="g3884" transform="matrix(7.874016e-5,0,0,-7.874016e-5,-17,367)"><path id="path3886" fill="none" stroke="#919191" stroke-dasharray="none" stroke-linecap="butt" stroke-linejoin="round" stroke-miterlimit="10" stroke-opacity="1" stroke-width="12700" d="m 1295400,3352800 h 1066800 v 609599.9 H 1295400 Z"/></g><path id="path3888" fill="#e2a8a5" fill-opacity="1" fill-rule="evenodd" stroke="none" d="m 145,84.81244 h 12 v 12 h -12 z"/><g id="g3890" transform="matrix(7.874016e-5,0,0,-7.874016e-5,-17,367)"><path id="path3892" fill="none" stroke="#919191" stroke-dasharray="none" stroke-linecap="butt" stroke-linejoin="round" stroke-miterlimit="10" stroke-opacity="1" stroke-width="12700" d="m 2057400,3431382 h 152400 v 152400 h -152400 z"/></g><path id="path3894" fill="#e2a8a5" fill-opacity="1" fill-rule="evenodd" stroke="none" d="m 145,60.81244 h 12 v 12 h -12 z"/><g id="g3896" transform="matrix(7.874016e-5,0,0,-7.874016e-5,-17,367)"><path id="path3898" fill="none" stroke="#919191" stroke-dasharray="none" stroke-linecap="butt" stroke-linejoin="round" stroke-miterlimit="10" stroke-opacity="1" stroke-width="12700" d="m 2057400,3736182 h 152400 v 152400 h -152400 z"/></g><path id="path3900" fill="#e2a8a5" fill-opacity="1" fill-rule="evenodd" stroke="none" d="m 97,60.81244 h 36 v 36 H 97 Z"/><g id="g3902" transform="matrix(7.874016e-5,0,0,-7.874016e-5,-17,367)"><path id="path3904" fill="none" stroke="#919191" stroke-dasharray="none" stroke-linecap="butt" stroke-linejoin="round" stroke-miterlimit="10" stroke-opacity="1" stroke-width="12700" d="m 1447800,3431382 h 457200 v 457200.1 h -457200 z"/></g><g id="g3906" transform="matrix(7.874016e-5,0,0,-7.874016e-5,-17,367)"><path id="path3908" fill="none" stroke="#000" stroke-dasharray="none" stroke-linecap="butt" stroke-linejoin="round" stroke-miterlimit="10" stroke-opacity="1" stroke-width="19050" d="m 1597025,3429794 -1455,279400"/></g><path id="path3910" fill="#000" fill-opacity="1" fill-rule="evenodd" stroke="none" d="m 106.75,96.94791 v 0 c 0.006,1.10456 0.9059,1.99531 2.0104,1.98955 1.1046,-0.0058 1.9953,-0.90583 1.9896,-2.01038 -0.006,-1.10456 -0.9059,-1.99532 -2.0104,-1.98956 -1.1046,0.0058 -1.9953,0.90583 -1.9896,2.01039 0,0 0,0 0,0 z"/><path id="path3912" fill="#000" fill-opacity="1" fill-rule="evenodd" stroke="none" d="m 111.6562,78.9218 -3.0312,-5.98429 -2.9687,6.01554 z"/><g id="g3914" transform="matrix(7.874016e-5,0,0,-7.874016e-5,-17,367)"><path id="path3916" fill="none" stroke="#000" stroke-dasharray="none" stroke-linecap="butt" stroke-linejoin="round" stroke-miterlimit="10" stroke-opacity="1" stroke-width="19050" d="m 1749425,3582194 -1455,279400"/></g><path id="path3918" fill="#000" fill-opacity="1" fill-rule="evenodd" stroke="none" d="m 118.75,84.94791 v 0 c 0.006,1.10456 0.9059,1.99531 2.0104,1.98955 1.1046,-0.0058 1.9953,-0.90583 1.9896,-2.01038 -0.006,-1.10456 -0.9059,-1.99532 -2.0104,-1.98956 -1.1046,0.0058 -1.9953,0.90583 -1.9896,2.01039 0,0 0,0 0,0 z"/><path id="path3920" fill="#000" fill-opacity="1" fill-rule="evenodd" stroke="none" d="m 123.6562,66.9218 -3.0312,-5.9843 -2.9687,6.01555 z"/><g id="g3922" transform="matrix(7.874016e-5,0,0,-7.874016e-5,-17,367)"><path id="path3924" fill="none" stroke="#000" stroke-dasharray="none" stroke-linecap="butt" stroke-linejoin="round" stroke-miterlimit="10" stroke-opacity="1" stroke-width="19050" d="m 2132806,3427412 -1323,127002"/></g><path id="path3926" fill="#000" fill-opacity="1" fill-rule="evenodd" stroke="none" d="m 148.9376,97.14583 v 0 c 0.0115,1.10451 0.9162,1.99056 2.0207,1.97906 1.1045,-0.01151 1.9906,-0.91622 1.9791,-2.02073 -0.0115,-1.10451 -0.9162,-1.99057 -2.0207,-1.97906 -1.1045,0.0115 -1.9906,0.91621 -1.9791,2.02073 0,0 0,0 0,0 z"/><path id="path3928" fill="#000" fill-opacity="1" fill-rule="evenodd" stroke="none" d="m 153.8748,91.09341 -3.0623,-5.96843 -2.9373,6.03093 z"/><g id="g3930" transform="matrix(7.874016e-5,0,0,-7.874016e-5,-17,367)"><path id="path3932" fill="none" stroke="#000" stroke-dasharray="none" stroke-linecap="butt" stroke-linejoin="round" stroke-miterlimit="10" stroke-opacity="1" stroke-width="19050" d="m 2133600,3731419 -1323,127001"/></g><path id="path3934" fill="#000" fill-opacity="1" fill-rule="evenodd" stroke="none" d="m 149.0001,73.20833 v 0 c 0.0115,1.10451 0.9162,1.99056 2.0207,1.97906 1.1045,-0.01151 1.9906,-0.91622 1.9791,-2.02073 -0.0115,-1.10451 -0.9162,-1.99057 -2.0207,-1.97906 -1.1045,0.0115 -1.9906,0.91621 -1.9791,2.02073 0,0 0,0 0,0 z"/><path id="path3936" fill="#000" fill-opacity="1" fill-rule="evenodd" stroke="none" d="m 153.9373,67.15591 -3.0623,-5.96843 -2.9373,6.03093 z"/><path id="path3938" fill="#ecc6c5" fill-opacity="1" fill-rule="evenodd" stroke="none" d="m 37,157 h 12 v 12 H 37 Z"/><g id="g3940" transform="matrix(7.874016e-5,0,0,-7.874016e-5,-17,367)"><path id="path3942" fill="none" stroke="#919191" stroke-dasharray="none" stroke-linecap="butt" stroke-linejoin="round" stroke-miterlimit="10" stroke-opacity="1" stroke-width="12700" d="m 685800,2514600 h 152400 v 152400 H 685800 Z"/></g><path id="path3944" fill="#e2a8a5" fill-opacity="1" fill-rule="evenodd" stroke="none" d="m 37,133 h 12 v 12 H 37 Z"/><g id="g3946" transform="matrix(7.874016e-5,0,0,-7.874016e-5,-17,367)"><path id="path3948" fill="none" stroke="#919191" stroke-dasharray="none" stroke-linecap="butt" stroke-linejoin="round" stroke-miterlimit="10" stroke-opacity="1" stroke-width="12700" d="m 685800,2819400 h 152400 v 152400 H 685800 Z"/></g><path id="path3950" fill="#ecc6c5" fill-opacity="1" fill-rule="evenodd" stroke="none" d="m 37,109 h 12 v 12 H 37 Z"/><g id="g3952" transform="matrix(7.874016e-5,0,0,-7.874016e-5,-17,367)"><path id="path3954" fill="none" stroke="#919191" stroke-dasharray="none" stroke-linecap="butt" stroke-linejoin="round" stroke-miterlimit="10" stroke-opacity="1" stroke-width="12700" d="m 685800,3124200 h 152400 v 152400 H 685800 Z"/></g><path id="path3956" fill="#e2a8a5" fill-opacity="1" fill-rule="evenodd" stroke="none" d="m 37,181 h 12 v 12 H 37 Z"/><g id="g3958" transform="matrix(7.874016e-5,0,0,-7.874016e-5,-17,367)"><path id="path3960" fill="none" stroke="#919191" stroke-dasharray="none" stroke-linecap="butt" stroke-linejoin="round" stroke-miterlimit="10" stroke-opacity="1" stroke-width="12700" d="m 685800,2209800 h 152400 v 152400 H 685800 Z"/></g><g id="g3962" transform="matrix(7.874016e-5,0,0,-7.874016e-5,-17,367)"><path id="path3964" fill="none" stroke="#000" stroke-dasharray="none" stroke-linecap="butt" stroke-linejoin="round" stroke-miterlimit="10" stroke-opacity="1" stroke-width="19050" d="m 756443.8,2210594 -1323,127001"/></g><path id="path3966" fill="#000" fill-opacity="1" fill-rule="evenodd" stroke="none" d="m 40.56261,192.9583 v 0 c 0.0115,1.1045 0.91621,1.9906 2.02072,1.9791 1.10451,-0.0115 1.99057,-0.9162 1.97906,-2.0207 -0.0115,-1.1045 -0.91621,-1.9906 -2.02072,-1.9791 -1.10451,0.0115 -1.99057,0.9162 -1.97906,2.0207 0,0 0,0 0,0 z"/><path id="path3968" fill="#000" fill-opacity="1" fill-rule="evenodd" stroke="none" d="m 45.49983,186.9059 -3.06233,-5.9684 -2.93734,6.0309 z"/><g id="g3970" transform="matrix(7.874016e-5,0,0,-7.874016e-5,-17,367)"><path id="path3972" fill="none" stroke="#000" stroke-dasharray="none" stroke-linecap="butt" stroke-linejoin="round" stroke-miterlimit="10" stroke-opacity="1" stroke-width="19050" d="m 757237.5,2667000 -1322.9,-127002"/></g><path id="path3974" fill="#000" fill-opacity="1" fill-rule="evenodd" stroke="none" d="m 44.62489,157.0208 v 0 c 0.01151,-1.1045 -0.87455,-2.0092 -1.97906,-2.0207 -1.10451,-0.0115 -2.00922,0.8746 -2.02072,1.9791 -0.01151,1.1045 0.87455,2.0092 1.97906,2.0207 1.10451,0.0115 2.00922,-0.8746 2.02072,-1.9791 0,0 0,0 0,0 z"/><path id="path3976" fill="#000" fill-opacity="1" fill-rule="evenodd" stroke="none" d="M 39.56266,162.9691 42.5,169 l 3.06234,-5.9684 z"/><g id="g3978" transform="matrix(7.874016e-5,0,0,-7.874016e-5,-17,367)"><path id="path3980" fill="none" stroke="#000" stroke-dasharray="none" stroke-linecap="butt" stroke-linejoin="round" stroke-miterlimit="10" stroke-opacity="1" stroke-width="19050" d="m 758031.2,2818606 -1322.9,127002"/></g><path id="path3982" fill="#000" fill-opacity="1" fill-rule="evenodd" stroke="none" d="m 40.68761,145.0833 v 0 c 0.0115,1.1045 0.91621,1.9906 2.02072,1.9791 1.10451,-0.0115 1.99057,-0.9162 1.97906,-2.0207 -0.0115,-1.1045 -0.91621,-1.9906 -2.02072,-1.9791 -1.10451,0.0115 -1.99057,0.9162 -1.97906,2.0207 0,0 0,0 0,0 z"/><path id="path3984" fill="#000" fill-opacity="1" fill-rule="evenodd" stroke="none" d="m 45.62483,139.0309 -3.06233,-5.9684 -2.93734,6.0309 z"/><g id="g3986" transform="matrix(7.874016e-5,0,0,-7.874016e-5,-17,367)"><path id="path3988" fill="none" stroke="#000" stroke-dasharray="none" stroke-linecap="butt" stroke-linejoin="round" stroke-miterlimit="10" stroke-opacity="1" stroke-width="19050" d="m 758825,3275012 -1322.9,-127001"/></g><path id="path3990" fill="#000" fill-opacity="1" fill-rule="evenodd" stroke="none" d="m 44.74989,109.1458 v 0 c 0.01151,-1.1045 -0.87455,-2.0092 -1.97906,-2.0207 -1.10451,-0.0115 -2.00922,0.8746 -2.02072,1.9791 -0.01151,1.1045 0.87455,2.0092 1.97906,2.0207 1.10451,0.0115 2.00922,-0.8746 2.02072,-1.9791 0,0 0,0 0,0 z"/><path id="path3992" fill="#000" fill-opacity="1" fill-rule="evenodd" stroke="none" d="m 39.68766,115.0941 2.93734,6.0309 3.06234,-5.9684 z"/><path id="path3994" fill="#ecc6c5" fill-opacity="1" fill-rule="evenodd" stroke="none" d="m 37,13.18755 h 12 v 12 H 37 Z"/><g id="g3996" transform="matrix(7.874016e-5,0,0,-7.874016e-5,-17,367)"><path id="path3998" fill="none" stroke="#919191" stroke-dasharray="none" stroke-linecap="butt" stroke-linejoin="round" stroke-miterlimit="10" stroke-opacity="1" stroke-width="12700" d="m 685800,4341018 h 152400 v 152400 H 685800 Z"/></g><path id="path4000" fill="#e2a8a5" fill-opacity="1" fill-rule="evenodd" stroke="none" d="m 37,37.18755 h 12 v 12 H 37 Z"/><g id="g4002" transform="matrix(7.874016e-5,0,0,-7.874016e-5,-17,367)"><path id="path4004" fill="none" stroke="#919191" stroke-dasharray="none" stroke-linecap="butt" stroke-linejoin="round" stroke-miterlimit="10" stroke-opacity="1" stroke-width="12700" d="m 685800,4036218 h 152400 v 152400 H 685800 Z"/></g><path id="path4006" fill="#ecc6c5" fill-opacity="1" fill-rule="evenodd" stroke="none" d="m 37,61.18755 h 12 v 12 H 37 Z"/><g id="g4008" transform="matrix(7.874016e-5,0,0,-7.874016e-5,-17,367)"><path id="path4010" fill="none" stroke="#919191" stroke-dasharray="none" stroke-linecap="butt" stroke-linejoin="round" stroke-miterlimit="10" stroke-opacity="1" stroke-width="12700" d="m 685800,3731418 h 152400 v 152400 H 685800 Z"/></g><path id="path4012" fill="#e2a8a5" fill-opacity="1" fill-rule="evenodd" stroke="none" d="m 37,85.18755 h 12 v 12 H 37 Z"/><g id="g4014" transform="matrix(7.874016e-5,0,0,-7.874016e-5,-17,367)"><path id="path4016" fill="none" stroke="#919191" stroke-dasharray="none" stroke-linecap="butt" stroke-linejoin="round" stroke-miterlimit="10" stroke-opacity="1" stroke-width="12700" d="m 685800,3426618 h 152400 v 152400 H 685800 Z"/></g><g id="g4018" transform="matrix(7.874016e-5,0,0,-7.874016e-5,-17,367)"><path id="path4020" fill="none" stroke="#000" stroke-dasharray="none" stroke-linecap="butt" stroke-linejoin="round" stroke-miterlimit="10" stroke-opacity="1" stroke-width="19050" d="m 759618.8,4495800 -1323,-127002"/></g><path id="path4022" fill="#000" fill-opacity="1" fill-rule="evenodd" stroke="none" d="m 44.81239,13.02083 v 0 c 0.01151,-1.10451 -0.87455,-2.00922 -1.97906,-2.02073 -1.10451,-0.0115 -2.00922,0.87455 -2.02072,1.97906 -0.01151,1.10451 0.87455,2.00922 1.97906,2.02073 1.10451,0.0115 2.00922,-0.87455 2.02072,-1.97906 0,0 0,0 0,0 z"/><path id="path4024" fill="#000" fill-opacity="1" fill-rule="evenodd" stroke="none" d="M 39.75016,18.96908 42.6875,25 45.74984,19.03158 Z"/><g id="g4026" transform="matrix(7.874016e-5,0,0,-7.874016e-5,-17,367)"><path id="path4028" fill="none" stroke="#000" stroke-dasharray="none" stroke-linecap="butt" stroke-linejoin="round" stroke-miterlimit="10" stroke-opacity="1" stroke-width="19050" d="m 760412.5,4039394 -1322.9,127001"/></g><path id="path4030" fill="#000" fill-opacity="1" fill-rule="evenodd" stroke="none" d="m 40.87511,48.95833 v 0 c 0.0115,1.10451 0.91621,1.99056 2.02072,1.97906 1.10451,-0.01151 1.99057,-0.91622 1.97906,-2.02073 -0.0115,-1.10451 -0.91621,-1.99056 -2.02072,-1.97906 -1.10451,0.01151 -1.99057,0.91622 -1.97906,2.02073 0,0 0,0 0,0 z"/><path id="path4032" fill="#000" fill-opacity="1" fill-rule="evenodd" stroke="none" d="M 45.81233,42.90591 42.75,36.93748 39.81266,42.96841 Z"/><g id="g4034" transform="matrix(7.874016e-5,0,0,-7.874016e-5,-17,367)"><path id="path4036" fill="none" stroke="#000" stroke-dasharray="none" stroke-linecap="butt" stroke-linejoin="round" stroke-miterlimit="10" stroke-opacity="1" stroke-width="19050" d="m 761206.2,3887788 -1322.9,-127002"/></g><path id="path4038" fill="#000" fill-opacity="1" fill-rule="evenodd" stroke="none" d="m 44.93739,60.89583 v 0 c 0.01151,-1.10451 -0.87455,-2.00922 -1.97906,-2.02073 -1.10451,-0.0115 -2.00922,0.87455 -2.02072,1.97906 -0.01151,1.10451 0.87455,2.00922 1.97906,2.02073 1.10451,0.0115 2.00922,-0.87455 2.02072,-1.97906 0,0 0,0 0,0 z"/><path id="path4040" fill="#000" fill-opacity="1" fill-rule="evenodd" stroke="none" d="m 39.87516,66.84409 2.93734,6.03092 3.06234,-5.96843 z"/><g id="g4042" transform="matrix(7.874016e-5,0,0,-7.874016e-5,-17,367)"><path id="path4044" fill="none" stroke="#000" stroke-dasharray="none" stroke-linecap="butt" stroke-linejoin="round" stroke-miterlimit="10" stroke-opacity="1" stroke-width="19050" d="m 762000,3431381 -1322.9,127002"/></g><path id="path4046" fill="#000" fill-opacity="1" fill-rule="evenodd" stroke="none" d="m 41.00011,96.83333 v 0 c 0.0115,1.10451 0.91621,1.99056 2.02072,1.97906 1.10451,-0.01151 1.99057,-0.91622 1.97906,-2.02073 -0.0115,-1.10451 -0.91621,-1.99057 -2.02072,-1.97906 -1.10451,0.0115 -1.99057,0.91621 -1.97906,2.02073 0,0 0,0 0,0 z"/><path id="path4048" fill="#000" fill-opacity="1" fill-rule="evenodd" stroke="none" d="M 45.93733,90.78091 42.875,84.81248 39.93766,90.84341 Z"/><g id="g4050" transform="matrix(7.874016e-5,0,0,-7.874016e-5,-17,367)"><path id="path4052" fill="none" stroke="#000" stroke-dasharray="none" stroke-linecap="butt" stroke-linejoin="round" stroke-miterlimit="10" stroke-opacity="1" stroke-width="12700" d="m 228600,4495800 8534400,1588"/></g><g id="g4054" transform="matrix(7.874016e-5,0,0,-7.874016e-5,-17,367)"><path id="path4056" fill="none" stroke="#000" stroke-dasharray="none" stroke-linecap="butt" stroke-linejoin="round" stroke-miterlimit="10" stroke-opacity="1" stroke-width="12700" d="m 228600,4343400 8534400,1588"/></g><g id="g4058" transform="matrix(7.874016e-5,0,0,-7.874016e-5,-17,367)"><path id="path4060" fill="none" stroke="#000" stroke-dasharray="none" stroke-linecap="butt" stroke-linejoin="round" stroke-miterlimit="10" stroke-opacity="1" stroke-width="12700" d="m 228600,4191000 8534400,1588"/></g><g id="g4062" transform="matrix(7.874016e-5,0,0,-7.874016e-5,-17,367)"><path id="path4064" fill="none" stroke="#000" stroke-dasharray="none" stroke-linecap="butt" stroke-linejoin="round" stroke-miterlimit="10" stroke-opacity="1" stroke-width="12700" d="m 228600,4038600 8534400,1588"/></g><g id="g4066" transform="matrix(7.874016e-5,0,0,-7.874016e-5,-17,367)"><path id="path4068" fill="none" stroke="#000" stroke-dasharray="none" stroke-linecap="butt" stroke-linejoin="round" stroke-miterlimit="10" stroke-opacity="1" stroke-width="12700" d="m 228600,3886200 8534400,1588"/></g><g id="g4070" transform="matrix(7.874016e-5,0,0,-7.874016e-5,-17,367)"><path id="path4072" fill="none" stroke="#000" stroke-dasharray="none" stroke-linecap="butt" stroke-linejoin="round" stroke-miterlimit="10" stroke-opacity="1" stroke-width="12700" d="m 228600,3733800 8534400,1588"/></g><g id="g4074" transform="matrix(7.874016e-5,0,0,-7.874016e-5,-17,367)"><path id="path4076" fill="none" stroke="#000" stroke-dasharray="none" stroke-linecap="butt" stroke-linejoin="round" stroke-miterlimit="10" stroke-opacity="1" stroke-width="12700" d="m 228600,3581400 8534400,1588"/></g><g id="g4078" transform="matrix(7.874016e-5,0,0,-7.874016e-5,-17,367)"><path id="path4080" fill="none" stroke="#000" stroke-dasharray="none" stroke-linecap="butt" stroke-linejoin="round" stroke-miterlimit="10" stroke-opacity="1" stroke-width="12700" d="m 228600,3429000 8534400,1588"/></g><g id="g4082" transform="matrix(7.874016e-5,0,0,-7.874016e-5,-17,367)"><path id="path4084" fill="none" stroke="#000" stroke-dasharray="none" stroke-linecap="butt" stroke-linejoin="round" stroke-miterlimit="10" stroke-opacity="1" stroke-width="12700" d="m 228600,3276600 8534400,1588"/></g><g id="g4086" transform="matrix(7.874016e-5,0,0,-7.874016e-5,-17,367)"><path id="path4088" fill="none" stroke="#000" stroke-dasharray="none" stroke-linecap="butt" stroke-linejoin="round" stroke-miterlimit="10" stroke-opacity="1" stroke-width="12700" d="m 228600,3124200 8534400,1588"/></g><g id="g4090" transform="matrix(7.874016e-5,0,0,-7.874016e-5,-17,367)"><path id="path4092" fill="none" stroke="#000" stroke-dasharray="none" stroke-linecap="butt" stroke-linejoin="round" stroke-miterlimit="10" stroke-opacity="1" stroke-width="12700" d="m 228600,2971800 8534400,1588"/></g><g id="g4094" transform="matrix(7.874016e-5,0,0,-7.874016e-5,-17,367)"><path id="path4096" fill="none" stroke="#000" stroke-dasharray="none" stroke-linecap="butt" stroke-linejoin="round" stroke-miterlimit="10" stroke-opacity="1" stroke-width="12700" d="m 228600,2819400 8534400,1588"/></g><g id="g4098" transform="matrix(7.874016e-5,0,0,-7.874016e-5,-17,367)"><path id="path4100" fill="none" stroke="#000" stroke-dasharray="none" stroke-linecap="butt" stroke-linejoin="round" stroke-miterlimit="10" stroke-opacity="1" stroke-width="12700" d="m 228600,2667000 8534400,1588"/></g><g id="g4102" transform="matrix(7.874016e-5,0,0,-7.874016e-5,-17,367)"><path id="path4104" fill="none" stroke="#000" stroke-dasharray="none" stroke-linecap="butt" stroke-linejoin="round" stroke-miterlimit="10" stroke-opacity="1" stroke-width="12700" d="m 228600,2514600 8534400,1588"/></g><g id="g4106" transform="matrix(7.874016e-5,0,0,-7.874016e-5,-17,367)"><path id="path4108" fill="none" stroke="#000" stroke-dasharray="none" stroke-linecap="butt" stroke-linejoin="round" stroke-miterlimit="10" stroke-opacity="1" stroke-width="12700" d="m 228600,2362200 8534400,1588"/></g><g id="g4110" transform="matrix(7.874016e-5,0,0,-7.874016e-5,-17,367)"><path id="path4112" fill="none" stroke="#000" stroke-dasharray="none" stroke-linecap="butt" stroke-linejoin="round" stroke-miterlimit="10" stroke-opacity="1" stroke-width="12700" d="m 228600,2209800 8534400,1588"/></g></g></g></g></svg>