<svg xmlns="http://www.w3.org/2000/svg" xmlns:svg="http://www.w3.org/2000/svg" id="Layer_1" width="245.936" height="226.546" enable-background="new 0 0 641.003 590.463" overflow="visible" version="1.0" viewBox="0 0 641.003 590.463" xml:space="preserve"><metadata id="metadata40"/><g id="g3" transform="matrix(0.9945619,0,0,0.9945619,-1.4495115e-4,-2.6616885e-4)"><path id="path5" fill="#007dc5" fill-rule="evenodd" d="M 543.168,88.286 L 553.379,16.815 C 553.379,16.815 467.688,-14.91 340.063,8.794 C 213.528,31.038 118.356,106.518 77.516,146.629 C 37.77,186.375 -7.082,258.94 0.94,355.936 C 8.235,454.022 69.493,522.577 134.764,556.124 C 200.037,589.671 311.618,604.991 411.532,572.538 C 441.067,562.327 564.68,526.593 617.919,408.077 C 663.864,307.804 627.036,223.206 627.036,223.206 C 627.036,223.206 587.29,99.59 435.961,83.182 L 435.961,141.526 C 435.961,141.526 524.934,143.348 574.891,206.796 C 623.024,268.056 627.036,327.491 593.489,394.585 C 579.997,418.288 510.716,543.726 308.337,553.21 C 294.116,553.21 155.187,559.046 74.601,465.327 C 8.235,386.569 22.456,323.116 26.467,300.874 C 28.655,293.581 34.488,276.079 38.863,266.964 C 54.908,229.403 97.937,163.038 173.416,124.021 C 286.092,66.773 363.398,45.259 467.687,59.845 C 478.989,61.667 522.747,70.055 543.168,88.286 L 543.168,88.286 z M 444.348,117.823 C 444.348,107.612 453.465,98.497 463.676,98.497 C 474.977,98.497 484.094,107.612 484.094,117.823 C 484.094,129.126 474.977,138.243 463.676,138.243 C 453.465,138.243 444.348,129.125 444.348,117.823 L 444.348,117.823 z" clip-rule="evenodd"/><path id="path7" fill="#007dc5" fill-rule="evenodd" d="M 463.676,254.93 C 463.676,254.93 463.676,253.834 463.676,252.741 C 464.77,251.647 466.59,249.823 469.871,248.731 C 476.801,247.637 484.094,246.542 493.211,252.741 C 493.211,252.741 493.211,252.741 494.305,252.741 C 494.305,252.741 494.305,253.835 495.399,253.835 C 496.493,254.931 496.493,256.753 495.399,260.034 C 495.399,265.868 491.387,427.405 491.387,427.405 L 491.387,427.405 L 491.387,428.499 C 490.293,429.593 489.199,429.593 487.012,430.327 C 484.094,431.413 474.977,429.593 472.789,428.499 L 472.789,428.499 C 471.695,427.405 471.695,427.405 471.695,427.405 C 470.968,426.311 469.871,425.217 469.871,424.491 L 469.871,401.882 C 469.871,401.882 469.871,401.882 469.871,400.788 L 469.871,399.694 C 468.777,398.96 466.59,398.96 464.769,401.882 C 464.769,401.882 462.581,405.89 459.664,409.905 C 456.383,415.007 453.465,420.116 451.277,422.303 C 451.277,422.303 443.254,429.592 435.234,425.217 C 435.234,425.217 435.234,425.217 433.043,424.49 C 431.949,424.49 430.855,422.302 429.035,420.115 C 425.75,416.099 421.742,409.17 420.648,396.779 C 417.73,372.341 421.742,336.607 435.961,323.115 C 435.961,323.115 437.055,322.388 438.149,321.295 C 439.243,320.202 441.067,318.014 444.348,316.186 C 448.36,312.178 455.653,307.803 464.77,306.709 C 464.77,306.709 465.864,306.709 465.864,305.975 L 463.676,255.659 C 463.676,255.659 463.676,255.659 463.676,254.93 L 463.676,254.93 z M 464.77,332.6 C 463.676,331.506 462.582,331.506 460.758,334.42 C 459.664,334.42 446.172,347.912 445.442,382.553 C 445.442,383.647 445.442,385.475 445.442,388.756 C 445.442,391.67 445.442,395.678 446.172,396.779 C 447.266,396.779 450.547,396.779 455.652,391.67 C 456.382,389.482 458.57,388.756 459.664,387.662 C 460.758,385.474 461.488,384.373 462.582,382.553 C 464.77,379.272 465.863,375.264 465.863,370.155 L 465.863,335.514 C 465.863,335.514 465.863,335.514 465.863,334.42 C 465.864,334.42 465.864,333.327 464.77,332.6 L 464.77,332.6 z" clip-rule="evenodd"/><path id="path9" fill="#007dc5" fill-rule="evenodd" d="M 532.227,339.53 C 530.039,340.624 528.946,341.71 528.946,343.538 C 528.946,345.726 528.946,349.733 528.946,353.022 C 528.946,357.03 528.946,361.038 530.04,363.225 C 530.04,363.225 530.04,363.225 530.04,363.959 C 531.134,365.053 531.134,365.053 532.228,366.147 C 534.052,367.241 536.24,368.335 540.251,366.147 C 540.251,366.147 540.251,366.147 541.345,365.053 C 542.439,363.959 544.263,363.225 545.357,362.131 C 548.275,359.943 551.556,355.936 553.38,351.92 C 553.38,350.826 559.575,342.811 569.786,349.732 C 569.786,349.732 569.786,349.732 570.88,350.826 C 571.978,350.826 571.978,351.92 573.068,353.021 C 573.798,354.841 574.892,358.123 573.068,363.959 C 571.978,366.147 570.88,367.24 569.787,368.334 C 568.693,370.154 568.693,371.248 567.967,372.342 C 565.776,376.358 562.862,379.272 559.576,382.553 C 553.381,387.662 544.263,391.67 530.041,389.483 C 528.947,389.483 527.853,389.483 524.936,388.756 C 522.748,387.662 518.741,385.475 515.823,381.459 C 508.53,374.17 501.6,362.131 502.331,338.436 C 502.331,338.436 506.706,293.581 524.936,280.454 C 524.936,279.36 526.03,279.36 527.124,277.173 C 528.948,276.079 531.136,275.349 534.054,273.161 C 540.253,270.973 548.277,270.243 557.757,274.255 C 575.987,282.276 568.695,304.89 565.777,312.905 C 562.863,321.296 553.382,337.702 539.16,339.53 L 534.055,339.53 C 534.055,339.53 534.055,339.53 532.961,339.53 L 532.227,339.53 L 532.227,339.53 z M 551.555,301.6 C 552.649,298.686 552.649,294.674 549.367,292.487 C 549.367,292.487 543.168,290.665 536.238,304.889 C 528.945,320.202 532.226,328.225 532.226,328.225 C 532.956,328.225 532.956,328.225 532.956,328.225 C 532.956,328.225 545.354,324.209 550.46,308.897 C 550.461,308.897 551.555,305.975 551.555,301.6 L 551.555,301.6 z" clip-rule="evenodd"/><path id="path11" fill="#007dc5" fill-rule="evenodd" d="M 411.532,331.506 C 411.532,332.6 411.532,332.6 411.532,332.6 C 412.626,333.327 412.626,333.327 412.626,334.42 C 412.626,336.608 410.438,431.412 410.438,431.412 C 410.438,431.412 410.438,437.615 407.52,438.709 C 403.508,439.803 392.204,439.803 388.922,436.521 L 388.922,436.521 C 388.192,436.521 388.192,435.427 387.098,435.427 C 387.098,434.7 386.004,432.513 386.004,431.411 L 383.086,326.395 L 399.133,326.395 L 411.532,331.506 L 411.532,331.506 z" clip-rule="evenodd"/><path id="path13" fill="#007dc5" fill-rule="evenodd" d="M 371.786,336.608 C 371.786,335.514 371.786,336.608 371.786,336.608 C 371.786,337.702 371.786,337.702 371.786,338.436 C 371.786,340.624 371.786,341.709 369.598,343.538 C 369.598,343.538 367.774,345.726 365.586,348.64 C 363.398,350.828 361.574,353.749 359.387,358.124 C 354.282,363.96 349.176,370.155 346.258,373.437 L 346.258,373.437 C 345.164,373.437 345.164,374.171 345.164,374.171 C 345.164,375.265 344.07,376.359 344.07,378.546 C 344.07,380.366 345.164,382.554 347.351,383.648 C 352.456,385.476 366.679,395.679 373.605,409.171 C 373.605,409.171 373.605,409.905 373.605,410.999 C 374.703,412.093 374.703,414.28 375.796,417.194 C 375.796,421.21 375.796,428.499 371.784,434.702 C 368.503,440.53 362.667,448.921 357.561,455.85 C 353.186,462.045 349.174,467.155 349.174,467.155 C 348.08,468.249 338.963,475.538 332.037,470.436 C 332.037,470.436 330.943,469.342 329.849,468.248 C 328.751,468.248 326.931,466.06 325.837,465.326 C 323.648,462.045 321.825,458.037 324.741,454.021 L 347.348,421.208 C 347.348,421.208 348.078,420.114 349.172,418.286 C 350.266,416.098 350.266,413.184 347.348,409.903 C 342.246,405.887 319.635,382.551 319.635,380.364 L 319.635,380.364 C 319.635,379.27 318.543,379.27 318.543,378.544 C 317.447,377.45 317.447,376.356 316.719,374.169 C 315.625,370.153 314.531,366.146 317.448,361.036 C 322.553,354.841 327.661,346.817 332.762,339.528 C 338.961,332.598 346.254,325.301 353.184,323.114 C 353.184,323.114 354.278,322.387 356.465,322.387 C 358.289,321.293 361.57,321.293 362.664,322.387 C 366.68,323.116 369.598,330.413 371.786,336.608 L 371.786,336.608 z" clip-rule="evenodd"/><path id="path15" fill="#007dc5" fill-rule="evenodd" d="M 264.579,386.569 L 264.579,386.569 L 265.309,387.663 C 266.401,388.757 267.497,387.663 268.59,386.569 L 269.684,386.569 L 269.684,385.475 C 269.684,385.475 269.684,384.373 269.684,383.647 C 269.684,381.459 270.413,379.272 271.508,377.452 C 273.696,372.343 276.613,367.241 282.811,365.054 C 282.811,365.054 300.315,359.945 306.514,373.437 C 306.514,373.437 307.243,374.171 307.243,376.359 C 308.337,379.273 310.524,383.648 311.618,389.484 C 313.442,402.976 316.723,428.5 314.536,469.343 C 314.536,469.343 314.536,477.359 309.431,480.648 C 309.431,480.648 309.431,480.648 308.337,480.648 C 308.337,480.648 307.243,481.742 305.419,481.742 C 303.231,481.742 300.315,480.648 296.304,478.461 L 295.21,478.461 C 295.21,477.359 294.116,477.359 294.116,477.359 C 293.022,476.632 291.198,474.445 291.198,471.164 C 291.198,471.164 283.905,408.078 282.811,401.883 C 282.811,397.875 280.987,395.68 278.799,394.586 C 277.705,393.859 275.883,393.859 273.695,396.781 C 273.695,396.781 270.412,401.883 266.4,409.906 C 263.484,417.195 259.474,427.406 259.474,437.617 C 260.203,458.039 261.296,470.437 261.296,470.437 C 261.296,470.437 261.296,470.437 261.296,471.164 L 261.296,472.258 C 261.296,473.352 260.202,475.539 259.474,476.633 C 256.191,478.461 247.076,481.742 240.876,478.461 C 240.876,477.359 240.876,477.359 239.782,477.359 C 239.782,477.359 239.052,477.359 239.052,476.632 C 237.958,475.538 236.864,474.444 236.864,471.163 L 232.854,359.944 L 264.577,359.944 L 264.577,386.569 L 264.579,386.569 z" clip-rule="evenodd"/><path id="path17" fill="#007dc5" fill-rule="evenodd" d="M 210.247,379.272 C 209.153,379.272 208.425,379.272 206.235,379.272 C 203.319,377.452 192.014,368.334 192.014,368.334 C 192.014,368.334 192.014,368.334 190.922,368.334 C 190.922,368.334 190.922,367.24 189.826,367.24 C 189.826,366.146 188.732,363.959 190.922,362.131 C 193.838,358.123 200.037,348.639 201.131,347.912 C 202.225,346.818 203.319,345.724 205.143,347.912 C 208.424,348.639 222.645,358.123 222.645,358.123 C 222.645,358.123 222.645,358.85 223.739,359.943 C 223.739,361.037 223.739,362.131 223.739,363.224 C 221.551,366.146 211.341,378.544 211.341,378.544 L 211.341,378.544 L 210.247,379.272 L 210.247,379.272 z" clip-rule="evenodd"/><path id="path19" fill="#007dc5" fill-rule="evenodd" d="M 218.633,391.67 C 218.633,391.67 218.633,391.67 219.363,391.67 C 219.363,392.764 219.363,393.858 219.363,393.858 C 219.363,395.678 218.633,489.756 218.633,489.756 C 218.633,489.756 218.633,495.959 214.258,497.053 C 210.246,497.78 200.037,498.873 196.026,495.959 L 196.026,494.865 C 194.932,494.865 194.932,493.771 193.838,493.771 C 193.108,492.677 192.014,490.849 192.014,489.755 L 189.826,386.567 L 206.234,386.567 L 218.633,391.67 L 218.633,391.67 z" clip-rule="evenodd"/><path id="path21" fill="#007dc5" fill-rule="evenodd" d="M 465.864,120.01 C 468.778,118.916 471.696,117.822 471.696,113.811 C 471.696,108.707 467.688,107.612 463.676,107.612 L 457.477,107.612 L 457.477,128.032 L 459.665,128.032 L 459.665,120.011 L 463.677,120.011 L 468.779,128.032 L 472.791,128.032 L 465.864,120.01 L 465.864,120.01 z M 459.665,117.823 L 459.665,109.8 L 462.583,109.8 C 466.591,109.8 468.778,110.896 468.778,113.812 C 468.778,116.73 466.59,117.824 463.676,117.824 L 459.665,117.824 L 459.665,117.823 z" clip-rule="evenodd"/><path id="path23" fill="#007dc5" fill-rule="evenodd" d="M 302.137,233.415 C 301.408,233.415 300.315,234.509 300.315,236.333 C 300.315,239.614 299.219,242.532 299.219,246.542 C 299.219,249.823 299.219,253.835 300.315,255.659 C 300.315,255.659 300.315,256.753 301.409,256.753 C 301.409,257.847 302.138,258.941 302.138,258.941 C 304.326,260.035 307.243,260.765 310.525,260.035 C 310.525,260.035 311.619,258.941 312.349,257.847 C 313.443,257.847 314.537,256.753 315.63,255.659 C 318.548,252.741 321.829,249.823 323.651,244.72 C 323.651,244.72 329.852,235.238 340.063,243.626 C 340.063,243.626 340.063,243.626 341.153,243.626 C 342.251,244.72 342.977,245.448 342.977,246.542 C 345.165,248.731 345.165,251.647 342.977,256.753 C 342.25,258.941 341.153,260.034 341.153,261.858 C 340.063,262.952 338.965,264.046 337.872,265.868 C 336.052,269.151 333.86,272.067 329.852,275.348 C 323.651,280.453 314.536,284.465 300.315,283.371 C 300.315,283.371 298.127,282.275 295.21,281.183 C 293.022,280.453 289.011,278.265 286.093,274.253 C 278.8,268.054 271.509,254.929 273.697,232.319 C 273.697,232.319 276.615,186.374 295.211,173.247 C 295.211,173.247 296.305,172.153 298.129,171.059 C 299.221,169.965 302.139,168.141 304.326,167.047 C 310.525,163.766 318.549,163.035 327.666,167.047 C 346.26,176.162 338.967,198.772 336.053,206.793 C 332.768,214.814 323.653,230.131 309.432,232.318 L 304.327,233.412 L 304.327,233.412 C 303.231,232.321 303.231,232.321 302.137,233.415 L 302.137,233.415 z M 322.557,195.491 C 322.557,192.575 322.557,187.47 320.735,185.282 C 319.639,185.282 313.442,183.46 307.243,197.68 C 300.315,212.996 303.231,221.016 303.231,221.016 C 303.231,221.016 303.231,222.11 304.325,221.016 C 304.325,221.016 315.63,217.004 320.735,201.69 C 320.735,201.69 321.829,198.774 322.557,195.491 L 322.557,195.491 z" clip-rule="evenodd"/><path id="path25" fill="#007dc5" fill-rule="evenodd" d="M 230.667,137.149 C 230.667,136.419 230.667,136.419 230.667,135.325 C 231.761,134.231 232.856,133.137 235.772,134.231 L 257.286,133.137 C 257.286,133.137 263.485,133.137 263.485,140.43 C 263.485,147.36 263.485,156.838 263.485,156.838 C 263.485,156.838 263.485,156.838 263.485,157.934 C 263.485,157.934 263.485,157.934 263.485,158.663 C 264.579,159.757 265.309,159.757 267.497,158.663 C 270.413,157.934 283.905,152.829 283.905,152.829 L 284.999,152.829 C 286.093,152.829 286.093,151.735 286.823,151.735 C 287.917,151.735 290.104,151.735 291.928,153.557 C 295.209,156.838 294.116,163.037 294.116,163.037 C 294.116,163.037 294.116,165.955 291.198,168.142 C 289.01,168.871 263.485,179.081 263.485,179.081 C 262.393,179.081 262.393,179.081 262.393,180.175 L 260.204,309.989 C 260.204,309.989 260.204,309.989 260.204,311.083 C 260.204,311.083 260.204,311.083 260.204,312.177 C 260.204,312.904 260.204,313.997 258.382,313.997 C 258.382,313.997 257.286,315.091 256.193,315.091 C 255.099,316.185 253.277,317.279 251.088,318.013 C 247.078,319.107 241.971,319.107 237.961,315.091 C 237.961,315.091 233.951,312.177 233.951,307.802 L 231.762,194.398 C 231.762,193.668 230.668,193.668 230.668,193.668 L 204.049,204.607 C 202.227,202.783 186.912,193.668 186.912,185.281 L 186.912,184.187 L 186.912,183.458 C 186.912,183.458 186.912,182.362 188.006,182.362 C 188.735,182.362 200.039,179.081 210.248,176.163 C 220.459,172.153 230.668,168.87 230.668,168.87 C 230.668,168.87 231.762,168.87 231.762,168.141 L 230.667,137.149 L 230.667,137.149 L 230.667,137.149 z" clip-rule="evenodd"/><path id="path27" fill="#007dc5" fill-rule="evenodd" d="M 168.313,238.52 L 168.313,238.52 L 168.313,239.614 C 169.407,239.614 169.407,239.614 171.594,238.52 C 171.594,237.426 171.594,236.332 171.594,235.237 C 172.69,233.415 173.416,231.227 174.512,229.403 C 176.7,224.299 179.616,219.194 186.91,217.005 C 186.91,217.005 188.004,217.005 188.732,215.913 C 190.921,215.913 193.837,215.913 196.025,215.913 C 201.13,215.913 205.142,218.101 208.423,223.206 C 209.152,223.206 210.245,227.218 212.433,230.134 C 215.351,239.614 220.456,262.952 218.632,319.109 C 218.632,319.109 218.632,321.297 217.538,324.211 C 216.444,327.492 215.35,329.32 212.433,331.508 C 213.527,331.508 212.433,331.508 212.433,331.508 C 212.433,331.508 212.433,331.508 211.339,331.508 C 211.339,331.508 210.245,332.602 208.423,332.602 C 206.234,332.602 202.224,332.602 198.212,329.321 C 198.212,329.321 193.837,327.493 193.107,322.391 C 193.107,322.391 186.91,260.036 184.722,253.836 C 183.626,247.639 179.615,244.721 177.792,248.732 C 177.792,248.732 173.415,253.836 170.499,261.859 C 166.489,269.152 162.478,279.361 163.206,289.57 C 164.3,309.992 164.3,321.297 164.3,321.297 C 164.3,321.297 165.394,322.391 164.3,323.117 C 164.3,324.211 164.3,326.398 162.478,327.492 C 159.195,329.32 150.08,332.601 142.787,329.32 C 142.787,329.32 142.787,328.226 142.057,328.226 C 142.057,328.226 140.963,328.226 140.963,327.492 C 139.871,326.398 137.682,324.211 138.775,322.39 L 135.859,211.902 L 167.582,210.806 L 168.313,238.52 L 168.313,238.52 z" clip-rule="evenodd"/><path id="path29" fill="#007dc5" fill-rule="evenodd" d="M 123.461,262.952 C 123.461,262.952 123.461,262.952 123.461,264.046 C 124.555,264.046 124.555,265.14 124.555,265.14 C 124.555,266.964 122.367,358.124 122.367,358.124 C 122.367,358.124 122.367,358.851 121.638,361.038 C 121.638,362.132 120.542,363.96 119.45,363.96 C 115.438,365.054 104.134,366.148 100.852,363.226 L 100.852,363.226 C 100.852,363.226 100.852,363.226 100.123,362.132 C 100.123,362.132 100.123,362.132 99.027,362.132 C 99.027,361.038 97.935,359.944 97.935,358.124 L 95.02,258.94 L 111.063,257.846 L 123.461,262.952 L 123.461,262.952 z" clip-rule="evenodd"/><path id="path31" fill="#007dc5" fill-rule="evenodd" d="M 109.241,246.542 L 109.241,246.542 C 109.241,247.638 109.241,247.638 108.147,247.638 C 107.053,247.638 105.958,247.638 105.229,246.542 C 103.041,244.72 91.737,232.321 89.915,230.134 L 89.915,229.404 C 89.915,228.31 89.915,227.218 90.644,227.218 C 91.738,226.122 104.136,214.818 104.136,214.818 C 105.23,214.818 105.23,214.818 105.23,214.818 C 105.23,214.818 105.23,214.089 105.959,214.089 C 107.055,214.089 108.148,214.089 110.336,214.818 C 111.065,217.006 113.254,219.195 116.17,221.017 C 118.358,223.206 121.641,226.122 123.463,229.404 C 123.463,230.134 123.463,230.134 124.557,231.228 C 124.557,231.228 124.557,232.322 123.463,233.416 C 122.369,233.416 119.453,237.428 116.17,240.344 C 112.159,243.625 109.241,246.542 109.241,246.542 L 109.241,246.542 L 109.241,246.542 z" clip-rule="evenodd"/><path id="path33" fill="#007dc5" fill-rule="evenodd" d="M 394.028,287.383 L 395.122,287.383 C 395.122,287.383 395.122,287.383 396.216,287.383 C 397.31,286.287 398.404,286.287 400.228,288.475 C 401.322,288.475 402.416,289.569 403.509,290.664 C 404.239,291.393 406.427,292.486 407.521,293.58 C 410.439,295.769 413.72,297.592 415.541,300.873 L 415.541,301.6 C 415.541,301.6 416.639,301.6 416.639,302.694 C 416.639,302.694 416.639,303.788 415.541,304.889 C 414.451,304.889 411.533,308.897 408.615,312.905 C 406.427,316.186 403.51,319.108 403.51,319.108 C 403.51,320.202 400.229,321.296 398.405,319.108 C 396.217,317.28 383.819,307.803 383.089,306.71 C 381.999,306.71 381.999,305.976 381.999,304.89 C 381.999,304.89 381.999,303.788 383.089,302.695 C 383.819,302.695 387.101,298.687 388.925,294.675 C 392.204,291.393 394.028,288.475 394.028,287.383 L 394.028,287.383 z" clip-rule="evenodd"/><path id="path35" fill="#007dc5" fill-rule="evenodd" d="M 344.071,97.403 C 344.071,93.391 344.071,91.204 349.176,90.475 C 353.188,88.286 367.774,88.286 377.985,91.204 C 377.985,91.204 380.899,93.392 380.899,99.591 C 380.899,106.519 379.805,268.056 379.805,268.056 C 379.805,268.056 377.985,275.349 374.703,276.079 C 372.879,278.267 363.398,279.36 360.48,277.173 C 360.48,277.173 355.375,276.079 355.375,269.152 C 355.375,262.952 344.071,97.403 344.071,97.403 L 344.071,97.403 z" clip-rule="evenodd"/></g></svg>