<?xml version="1.0" encoding="UTF-8" standalone="no"?>
<svg
   xmlns:dc="http://purl.org/dc/elements/1.1/"
   xmlns:cc="http://creativecommons.org/ns#"
   xmlns:rdf="http://www.w3.org/1999/02/22-rdf-syntax-ns#"
   xmlns:svg="http://www.w3.org/2000/svg"
   xmlns="http://www.w3.org/2000/svg"
   xmlns:sodipodi="http://sodipodi.sourceforge.net/DTD/sodipodi-0.dtd"
   xmlns:inkscape="http://www.inkscape.org/namespaces/inkscape"
   sodipodi:docname="troll-face.svg"
   inkscape:version="1.0beta1 (fe3e306, 2019-09-17)"
   id="svg279"
   version="1.1"
   viewBox="0 0 50.158024 46.784069"
   height="46.784069mm"
   width="50.158024mm">
  <defs
     id="defs273" />
  <sodipodi:namedview
     inkscape:window-maximized="1"
     inkscape:window-y="-11"
     inkscape:window-x="129"
     inkscape:window-height="2126"
     inkscape:window-width="3700"
     fit-margin-bottom="0"
     fit-margin-right="0"
     fit-margin-left="0"
     fit-margin-top="0"
     showgrid="false"
     inkscape:document-rotation="0"
     inkscape:current-layer="layer1"
     inkscape:document-units="mm"
     inkscape:cy="319.83942"
     inkscape:cx="149.07251"
     inkscape:zoom="0.35"
     inkscape:pageshadow="2"
     inkscape:pageopacity="0.0"
     borderopacity="1.0"
     bordercolor="#666666"
     pagecolor="#ffffff"
     id="base" />
  <metadata
     id="metadata276">
    <rdf:RDF>
      <cc:Work
         rdf:about="">
        <dc:format>image/svg+xml</dc:format>
        <dc:type
           rdf:resource="http://purl.org/dc/dcmitype/StillImage" />
        <dc:title></dc:title>
      </cc:Work>
    </rdf:RDF>
  </metadata>
  <g
     transform="translate(-66.391231,-63.542487)"
     id="layer1"
     inkscape:groupmode="layer"
     inkscape:label="Layer 1">
    <g
       transform="matrix(0.26458333,0,0,0.26458333,42.438497,381.9717)"
       id="g220">
      <path
         d="m 247.652,-1155.68 c -1.807,-0.905 0.064,-2.043 2.371,-1.445 1.453,0.376 4.096,0.575 7.675,0.575 5.185,0 5.803,0.21 8.804,3.001 2.079,1.932 3.784,3.354 4.645,3.874 1.092,0.654 3.398,6.034 3.772,8.796 0.338,2.505 -0.722,9.403 -2.085,13.563 -0.405,1.229 -0.612,1.617 -1.146,2.134 -1.519,1.465 -7.722,4.674 -9.786,5.062 -0.464,0.087 -0.581,0.058 -0.581,-0.137 0,-0.491 1.761,-1.717 5.375,-3.737 4.642,-2.598 5.023,-3.103 6.09,-8.063 0.715,-3.313 0.928,-5.357 0.806,-7.663 -0.26,-4.861 -1.527,-7.529 -4.558,-9.581 -0.948,-0.643 -2.195,-1.731 -3.523,-3.074 -2.015,-2.038 -2.759,-2.586 -3.871,-2.84 -0.304,-0.07 -3.433,-0.131 -6.953,-0.137 -6.075,-0.012 -6.434,-0.03 -7.035,-0.328 z"
         id="path170"
         inkscape:connector-curvature="0" />
      <path
         d="m 263.308,-1147.64 c -1.688,-0.937 -3.036,-2.096 -2.89,-2.481 0.058,-0.146 0.236,-0.266 0.399,-0.266 0.47,0 2.05,0.583 3.437,1.27 2.198,1.089 3.111,2.266 3.698,4.776 0.71,3.021 1.188,9.882 0.809,11.575 -0.233,1.045 -1.106,2.42 -2.326,3.664 -1.384,1.41 -2.85,2.257 -3.127,1.804 -0.189,-0.304 0.511,-1.375 1.915,-2.931 2.435,-2.706 2.659,-3.161 2.627,-5.383 -0.02,-1.649 -0.408,-4.855 -0.857,-7.088 -0.535,-2.677 -1.183,-3.545 -3.685,-4.94 z"
         id="path172"
         inkscape:connector-curvature="0" />
      <path
         d="m 248.994,-1050.197 c 9.751,-6.647 10.147,-7.065 10.652,-11.158 0.123,-1.007 0.26,-1.865 0.301,-1.906 0.135,-0.134 0.304,4.636 0.19,5.336 -0.149,0.899 -0.76,2.02 -1.48,2.712 -0.735,0.709 -3.278,2.525 -8.055,5.76 l -3.792,2.569 -1.635,-0.026 h -0.14 l 0.009,-0.853 c 0.243,0 1.767,-0.942 3.95,-2.431 z"
         id="path174"
         inkscape:connector-curvature="0" />
      <path
         d="m 251.362,-1064.881 c -0.613,2.137 -5.384,6.297 -9.719,8.478 -2.338,1.173 -4.91,1.787 -9.062,2.16 -2.565,0.233 -8.375,0.371 -12.742,0.304 -4.721,-0.073 -14.897,-0.552 -21.332,-1.007 -4.055,-0.283 -7,-0.636 -9.939,-1.316 l 0.143,-0.616 1.895,0.105 c 1.045,0.059 3.142,0.175 4.662,0.26 5.739,0.318 17.279,0.937 20.701,1.106 1.956,0.099 6.115,0.181 9.245,0.187 6.25,0.01 8.979,-0.201 11.87,-0.899 4.169,-1.01 6.413,-2.353 10.331,-6.177 2.242,-2.189 3.337,-3.074 3.804,-3.074 0.242,0 0.263,0.072 0.143,0.489 z"
         id="path176"
         inkscape:connector-curvature="0" />
      <path
         d="m 247.345,-1137.545 c -0.54,1.305 -1.092,1.924 -1.915,2.154 -0.989,0.274 -4.972,0.19 -6.784,-0.143 -2.323,-0.426 -3.211,-0.779 -4.279,-1.699 -1.142,-0.981 -1.854,-2.809 -1.504,-3.862 0.552,-1.673 1.594,-1.664 4.957,0.046 2.423,1.229 2.888,1.15 5.567,-0.963 4.755,-3.748 5.675,-4.174 9.432,-4.37 4.277,-0.222 8.44,0.937 10.335,2.875 1.272,1.305 1.497,2.995 0.534,4.029 -0.806,0.861 -2.228,0.616 -4.05,-0.692 -3.019,-2.169 -7.219,-2.374 -9.957,-0.487 -1.008,0.692 -1.732,1.658 -2.336,3.112 z"
         id="path178"
         inkscape:connector-curvature="0" />
      <path
         d="m 244.922,-1171.917 c 0.511,1.416 0.59,4.306 0.117,4.306 -0.085,0 -0.295,-0.304 -0.462,-0.671 -0.167,-0.367 -0.522,-1.387 -0.782,-2.259 -0.812,-2.701 -2.02,-4.151 -5.277,-6.335 -2.28,-1.527 -4.254,-2.502 -5.726,-2.829 -1.019,-0.228 -1.661,-0.26 -3.544,-0.178 -4.442,0.192 -10.854,1.024 -14.196,1.842 -2.163,0.528 -2.75,0.578 -3.016,0.257 -0.753,-0.905 2.361,-1.854 8.595,-2.613 7.511,-0.914 11,-1.077 12.88,-0.598 1.255,0.321 4.154,1.763 6.049,3.013 2.63,1.727 4.606,3.963 5.362,6.065 z"
         id="path180"
         inkscape:connector-curvature="0" />
      <path
         d="m 245.045,-1047.765 -0.009,0.853 -9.395,-0.14 c -12.252,-0.187 -21.021,-0.604 -26.309,-1.255 -15.589,-1.924 -34.649,-6.945 -47.804,-12.588 -4.852,-2.084 -13.755,-6.893 -21.095,-11.4 -4.636,-2.844 -8.218,-5.339 -8.218,-5.719 0,-0.645 3.401,1.101 10.667,5.474 8.061,4.852 10.259,6.098 14.611,8.276 9.173,4.592 17.574,7.4 32.874,10.985 14.915,3.495 20.47,4.207 38.164,4.89 3.39,0.128 6.945,0.271 7.899,0.315 2.637,0.116 8.168,0.315 8.615,0.309 z"
         id="path182"
         inkscape:connector-curvature="0" />
      <path
         d="m 144.198,-1113.729 c 0.11,0 0.312,-0.257 0.443,-0.572 0.289,-0.689 0.315,-3.404 0.067,-6.772 -0.088,-1.217 -0.164,-2.333 -0.164,-2.479 -0.003,-0.283 -0.254,-0.441 -6.717,-4.166 -9.593,-5.526 -11.891,-6.183 -11.814,-3.38 0.032,1.135 1.016,4.198 1.977,6.154 1.104,2.242 3.161,4.096 7.23,6.519 3.364,2.001 8.499,4.687 8.978,4.696 z m 0.204,15.603 c 0.295,-0.195 0.659,-0.604 0.812,-0.908 0.563,-1.118 0.23,-5.41 -0.549,-7.074 -0.724,-1.55 -2.484,-2.843 -7.094,-5.208 -2.812,-1.445 -4.078,-2 -4.222,-1.856 -0.411,0.412 6.945,11.63 9.61,14.655 0.365,0.415 0.718,0.75 0.782,0.75 0.069,0 0.367,-0.16 0.661,-0.359 z m 20.844,-7.663 c 4.727,2.189 5.389,2.368 5.981,1.614 0.175,-0.222 0.4,-0.809 0.499,-1.305 0.1,-0.494 0.453,-2.178 0.782,-3.743 0.704,-3.331 0.681,-3.506 -0.566,-4.309 -0.794,-0.508 -3.03,-1.442 -5.117,-2.14 -3.993,-1.334 -9.091,-3.1 -12.168,-4.221 -3.923,-1.428 -5.359,-1.722 -5.657,-1.162 -0.292,0.546 -0.333,1.784 -0.094,2.712 0.465,1.781 2.321,4.723 4.351,6.898 1.482,1.588 2.235,2.09 3.562,2.371 2.007,0.43 3.573,1.04 8.427,3.285 z m -15.446,1.451 -0.085,2.458 c -0.119,3.328 -0.505,4.755 -1.877,6.921 -0.884,1.404 0.053,2.388 8.32,8.731 2.087,1.603 4.822,3.71 6.084,4.688 1.261,0.975 2.364,1.778 2.452,1.781 0.088,0 0.782,-1.451 1.541,-3.223 2.797,-6.557 3.521,-10.063 2.464,-11.955 -0.528,-0.946 -0.937,-1.194 -3.237,-1.959 -2.986,-0.996 -5.666,-2.225 -11.613,-5.331 z m 84.163,31.449 c 0.537,-0.061 1.024,-0.19 1.086,-0.286 0.062,-0.096 0.117,-0.747 0.126,-1.442 0.021,-1.804 0.355,-2.765 3.103,-8.898 0.17,-0.377 0.286,-0.742 0.257,-0.809 -0.029,-0.067 -0.86,0.114 -1.856,0.406 -0.992,0.294 -2.271,0.613 -2.834,0.712 -1.206,0.21 -1.401,0.389 -2.144,1.953 -0.522,1.098 -2.773,8.337 -2.773,8.916 0,0.555 0.167,0.549 2.625,-0.076 0.79,-0.201 1.876,-0.414 2.41,-0.476 z m -0.806,-26.615 c 0.779,-0.476 0.765,-0.864 -0.157,-4.513 -0.748,-2.957 -0.87,-3.308 -1.15,-3.281 -0.458,0.038 -13.423,2.14 -13.476,2.184 -0.1,0.082 0.467,5.503 0.616,5.894 0.198,0.522 0.59,0.972 1.007,1.159 0.47,0.207 6.382,0.032 8.297,-0.245 2.169,-0.319 4.262,-0.833 4.863,-1.198 z m -58.274,23.749 c 6.796,2.455 15.551,4.317 16.899,3.594 0.464,-0.248 0.776,-1.288 0.946,-3.115 0.184,-2.017 0.563,-11.878 0.458,-11.983 -0.041,-0.038 -1.419,-0.458 -3.065,-0.931 -5.547,-1.594 -8.36,-2.607 -14.678,-5.296 l -1.912,-0.803 c 0,0 -0.064,1.162 -0.123,2.578 -0.134,3.451 -0.481,4.799 -2.049,7.961 -2.519,5.084 -2.137,5.948 3.524,7.995 z m 66.805,-24.307 c 0.911,-0.114 1.226,-0.412 1.682,-1.585 1.042,-2.694 1.249,-6.516 0.49,-9.035 -0.432,-1.445 -0.896,-1.437 -3.635,0.073 -3.296,1.813 -3.5,2.178 -2.866,5.132 0.228,1.068 0.487,2.677 0.575,3.57 0.213,2.219 0.502,2.677 1.488,2.37 l 0.961,-0.283 c 0.263,-0.075 0.85,-0.183 1.305,-0.242 z m -45.098,2.272 0.607,0.023 -0.102,-1.621 c -0.056,-0.89 -0.17,-2.578 -0.251,-3.751 -0.081,-1.173 -0.164,-2.505 -0.179,-2.96 -0.018,-0.455 -0.073,-0.89 -0.122,-0.966 -0.049,-0.076 -0.447,-0.219 -0.879,-0.315 -0.436,-0.094 -2.321,-0.531 -4.189,-0.972 -12.716,-2.992 -13.647,-3.15 -14.063,-2.376 -0.204,0.385 -1.214,4.703 -1.444,6.186 -0.298,1.909 0.041,2.823 1.272,3.451 0.823,0.42 4.32,1.477 6.492,1.959 2.929,0.654 6.192,1.071 9.321,1.2 z m 48.951,21.964 c 0.926,-0.493 2.823,-2.084 2.823,-2.37 0,-0.094 -0.418,-0.111 -1.104,-0.044 -0.885,0.087 -1.183,0.059 -1.495,-0.146 -0.809,-0.531 -0.809,-1.845 -0.009,-5.009 0.604,-2.379 0.508,-3.153 -0.324,-2.607 -1.109,0.727 -3.001,3.979 -4.463,7.672 -1.717,4.338 -1.693,4.551 0.408,3.728 0.537,-0.213 1.489,-0.464 2.113,-0.561 0.688,-0.105 1.499,-0.368 2.051,-0.663 z m -38.631,5.057 3.821,0.023 0.166,-0.829 c 0.091,-0.455 0.233,-1.255 0.315,-1.778 0.082,-0.523 0.403,-2.423 0.716,-4.23 0.788,-4.574 0.744,-5.698 -0.243,-6.206 -0.511,-0.266 -1.903,-0.482 -4.565,-0.707 -2.727,-0.231 -5.804,-0.724 -7.558,-1.211 -1.279,-0.354 -1.507,-0.377 -1.702,-0.181 -0.383,0.385 -0.672,2.283 -0.864,5.742 -0.263,4.639 -0.021,8.271 0.578,8.717 0.526,0.391 3.854,0.628 9.336,0.66 z m 43.851,-63.156 c 0.449,-2.184 1.033,-3.036 1.93,-2.811 0.753,0.19 1.278,1.407 1.655,3.836 0.245,1.585 0.753,2.84 1.459,3.605 0.748,0.812 1.109,1.644 1.632,3.742 2.07,8.332 2.386,26.557 0.637,37.061 -1.862,11.21 -6.332,16.325 -16.663,19.075 -4.75,1.267 -12.08,2.259 -20.543,2.785 -2.721,0.169 -15.524,0.333 -17.224,0.219 l -4.154,-0.222 c -11.681,-0.586 -21.416,-2.438 -29.266,-5.561 -7.999,-3.185 -17.872,-9.996 -25.369,-17.501 -5.713,-5.719 -9.192,-10.387 -14.851,-19.918 -2.998,-5.056 -4.863,-7.949 -5.896,-9.155 -0.853,-0.993 -1.01,-1.583 -0.724,-2.697 0.282,-1.101 0.003,-2.721 -0.733,-4.222 -0.853,-1.743 -1.567,-2.096 -4.259,-2.102 -3.06,-0.01 -5.004,-0.742 -5.106,-1.927 -0.04,-0.491 0.026,-0.625 0.477,-0.958 0.286,-0.213 1.231,-0.654 2.102,-0.984 2.107,-0.794 4.09,-1.825 5.057,-2.625 1.465,-1.211 2.113,-2.414 2.775,-5.155 0.771,-3.179 2.248,-4.899 3.302,-3.842 0.274,0.271 0.587,1.144 0.855,2.379 0.704,3.238 10.118,8.589 26.975,15.332 9.257,3.705 22.791,8.504 28.944,10.262 7.444,2.128 14.766,3.562 22.321,4.376 3.237,0.347 13.449,0.4 16.117,0.082 8.539,-1.021 14.272,-2.942 19.912,-6.679 5.437,-3.603 7.418,-6.819 8.131,-13.184 0.095,-0.87 0.326,-2.312 0.507,-3.211 z m -1.01,53.251 c -0.479,1.792 -0.202,2.207 0.58,0.87 0.981,-1.673 3.325,-7.856 3.626,-9.561 0.436,-2.47 -3.266,5.178 -4.206,8.691 z m 2.776,-40.047 c 0.298,1.868 1.162,3.629 1.577,3.214 0.122,-0.123 0.119,-0.38 -0.021,-0.923 -0.248,-0.966 -1.15,-2.759 -1.437,-2.852 -0.174,-0.055 -0.201,0.059 -0.119,0.561 z m -44.458,22.954 c 6.516,0 6.95,-0.018 6.95,-0.274 0,-0.4 -0.735,-4.499 -1.048,-5.865 -0.204,-0.873 -0.351,-1.194 -0.599,-1.299 -0.402,-0.169 -3.529,-0.634 -7.832,-1.165 -1.784,-0.219 -3.506,-0.443 -3.833,-0.493 l -0.593,-0.096 v 4.598 4.595 h 6.955 z m 13.321,26.621 c 1.177,-0.359 1.673,-0.928 2.841,-3.267 0.809,-1.623 3.275,-7.646 3.275,-8.001 0,-0.208 -3.206,-0.42 -6.163,-0.412 -3.657,0.01 -3.751,0.076 -4.571,3.267 -0.351,1.366 -1.591,8.188 -1.591,8.752 0,0.055 1.19,0.064 2.645,0.021 1.897,-0.056 2.907,-0.158 3.564,-0.36 z m 30.159,-33.215 c 0.7,-0.657 0.765,-0.777 0.765,-1.445 -0.003,-0.995 -0.467,-2.843 -1.352,-5.392 -1.153,-3.308 -2.187,-5.363 -2.528,-5.021 -0.411,0.412 -0.476,4.391 -0.131,8.384 0.399,4.656 0.622,5.149 1.991,4.443 0.269,-0.14 0.835,-0.575 1.255,-0.969 z"
         id="path184"
         inkscape:connector-curvature="0" />
      <path
         d="m 216.675,-1172.553 c -0.934,1.807 -1.509,4.122 -2.043,8.259 -0.234,1.778 -0.45,3.264 -0.485,3.299 -0.035,0.035 -0.084,-0.853 -0.107,-1.971 -0.152,-6.895 0.631,-10.603 2.435,-11.534 0.505,-0.263 0.917,-0.143 0.917,0.266 -0.001,0.163 -0.323,0.919 -0.717,1.681 z"
         id="path186"
         inkscape:connector-curvature="0" />
      <path
         d="m 234.987,-1158.073 c 0.663,-0.056 1.209,-0.158 1.209,-0.225 0,-0.192 -1.229,-0.347 -2.765,-0.347 -1.649,0 -3.083,0.169 -3.083,0.365 10e-4,0.227 2.868,0.356 4.639,0.207 z m -2.503,5.391 c -10.162,1.112 -15.665,2.922 -16.34,5.377 -0.213,0.779 -0.219,2.219 -0.012,4.186 0.359,3.43 0.855,4.242 3.974,6.487 3.657,2.63 6.168,4.788 8.883,7.628 2.826,2.955 3.903,3.784 5.272,4.064 1.302,0.263 2.712,0.978 4.04,2.046 1.014,0.814 2.003,1.933 2.003,2.262 0,0.348 -1.06,0 -2.376,-0.768 -1.965,-1.153 -5.664,-2.963 -6.901,-3.377 -1.731,-0.578 -2.172,-0.435 -3.139,1.021 -0.738,1.115 -1.139,1.229 -1.962,0.566 -0.966,-0.776 -1.363,-0.674 -2.901,0.742 -0.876,0.806 -2.131,2.151 -3.488,3.748 -1.425,1.676 -3.597,3.778 -4.373,4.233 -1.36,0.797 -3.068,1.045 -4.986,0.724 -1.259,-0.21 -2.511,-0.738 -3.045,-1.284 -0.566,-0.581 -1.118,-1.941 -1.118,-2.765 0,-0.318 0.144,-0.873 0.318,-1.235 0.563,-1.165 1.585,-1.337 2.785,-0.467 1.67,1.211 2.473,1.279 4.221,0.356 1.878,-0.989 4.721,-4.303 6.288,-7.333 0.76,-1.468 0.823,-2.566 0.231,-3.903 -0.675,-1.529 -1.58,-2.312 -2.94,-2.545 -1.83,-0.313 -3.929,-3.457 -4.662,-6.974 -0.14,-0.689 -0.315,-2.543 -0.385,-4.125 -0.185,-4.055 -0.271,-4.212 -3.431,-6.09 -1.722,-1.024 -2.814,-2.017 -2.992,-2.721 -0.169,-0.683 0.053,-1.167 0.687,-1.489 0.732,-0.371 1.182,-0.461 2.881,-0.575 2.525,-0.172 4.078,-0.846 6.224,-2.712 3.848,-3.342 6.565,-4.633 11.318,-5.372 2.65,-0.412 9.205,-0.412 10.956,0 2.169,0.508 3.316,1.15 5.155,2.887 1.279,1.206 1.927,2.189 1.95,2.96 0.064,2.32 -3.01,3.447 -12.135,4.448 z"
         id="path188"
         inkscape:connector-curvature="0" />
      <path
         d="m 221.501,-1061.086 c -1.256,0.125 -17.028,0.12 -18.57,-0.01 l -1.104,-0.09 1.186,-0.12 c 1.529,-0.158 16.518,-0.161 18.217,0 l 1.299,0.12 z"
         id="path190"
         inkscape:connector-curvature="0" />
      <path
         d="m 151.633,-1159.626 c -1.202,0.409 -2.565,1.804 -2.256,2.306 0.128,0.21 1.19,0.062 2.505,-0.347 1.681,-0.526 2.744,-1.431 2.3,-1.965 -0.26,-0.313 -1.62,-0.31 -2.549,0.01 z m 39.743,7 c -0.715,1.468 -4.335,4.84 -6.235,5.801 -0.928,0.473 -0.867,0.47 -1.644,0.017 h -0.003 c -2.078,-1.206 -6.188,-3.485 -7.266,-4.025 -6.811,-3.424 -14.372,-4.204 -22.604,-2.33 -4.323,0.981 -7.152,0.875 -8.731,-0.33 -1.503,-1.147 -1.249,-3.631 0.669,-6.516 3.287,-4.948 10.202,-7.987 19.842,-8.723 6.551,-0.499 11.961,0.648 16.886,3.576 3.064,1.822 7.473,5.526 8.605,7.229 1.15,1.734 1.316,3.578 0.481,5.301 z m -6.64,-0.351 c 0.63,-0.043 0.867,-0.154 1.331,-0.619 0.391,-0.391 0.563,-0.707 0.563,-1.031 0,-0.931 -2.116,-3.231 -4.361,-4.741 -3.679,-2.473 -9.82,-5.24 -10.381,-4.68 -0.188,0.187 -1.112,4.435 -1.112,5.109 0,0.779 0.432,1.13 1.582,1.279 1.711,0.228 3.182,0.803 7.438,2.916 3.214,1.596 3.902,1.844 4.94,1.767 z"
         id="path192"
         inkscape:connector-curvature="0" />
      <path
         d="m 198.774,-1125.868 c 2.188,1.007 2.698,2.496 1.093,3.176 -0.234,0.1 -2.138,0.222 -4.44,0.286 -2.383,0.067 -4.286,0.19 -4.653,0.304 -0.348,0.105 -0.879,0.458 -1.186,0.788 -0.484,0.52 -1.145,0.99 -1.302,0.932 l -0.365,-0.094 c -0.963,-0.236 -1.529,-1.459 -1.515,-3.275 0.009,-1.509 0.072,-1.749 0.615,-2.335 0.742,-0.803 1.679,-0.993 4.85,-0.984 3.24,0.01 4.974,0.312 6.903,1.202 z"
         id="path194"
         inkscape:connector-curvature="0" />
      <path
         d="m 188.539,-1167.532 -0.123,-2.117 c -0.201,-3.424 -0.942,-5.494 -3.173,-8.836 -1.188,-1.781 -1.475,-2.388 -1.278,-2.707 0.178,-0.289 1.246,0.391 2.166,1.384 1.048,1.133 2.017,3.054 2.484,4.919 0.379,1.518 0.414,3.272 0.113,5.777 z"
         id="path196"
         inkscape:connector-curvature="0" />
      <path
         d="m 184.945,-1183.418 c 2.555,0.28 3.748,0.765 2.63,1.06 -0.575,0.152 -3.946,0.161 -8.425,0.018 -6.445,-0.205 -12.322,0.461 -17.696,2.008 -5.352,1.542 -8.601,3.655 -14.381,9.359 -2.216,2.184 -3.786,3.521 -4.137,3.521 -0.073,0 -0.131,-0.131 -0.131,-0.292 0,-0.999 3.173,-4.577 7,-7.899 3.349,-2.905 5.681,-4.224 9.958,-5.637 3.538,-1.168 6.601,-1.743 10.933,-2.046 l 2.408,-0.181 c 2.004,-0.157 10.172,-0.096 11.841,0.089 z"
         id="path198"
         inkscape:connector-curvature="0" />
      <path
         d="m 183.191,-1118.582 c -0.379,0.38 -1.155,0.336 -1.938,-0.108 -0.904,-0.52 -2.055,-1.413 -2.429,-1.889 -0.596,-0.756 -1.243,-2.399 -1.474,-3.734 -0.409,-2.373 -0.041,-5.52 0.85,-7.266 1.048,-2.049 3.062,-3.118 6.197,-3.278 4.058,-0.21 6.168,1.121 4.896,3.086 -0.348,0.54 -1.191,0.896 -2.872,1.211 -4.14,0.776 -5.057,1.418 -5.057,3.538 0,1.325 0.479,2.517 1.434,3.562 0.913,0.999 1.252,1.722 1.249,2.657 -0.007,0.724 -0.409,1.778 -0.856,2.221 z"
         id="path200"
         inkscape:connector-curvature="0" />
      <path
         d="m 160.365,-1129.371 c -0.855,-0.181 -0.967,-0.283 -0.607,-0.546 0.484,-0.356 2.577,-0.575 6.831,-0.715 5.532,-0.184 7.503,-0.604 8.352,-1.775 0.307,-0.423 0.31,-0.446 0.023,-1.281 -0.344,-1.016 -0.254,-1.372 0.351,-1.369 0.525,0 0.727,0.125 0.97,0.581 0.476,0.905 -0.085,2.841 -1.084,3.743 -0.715,0.648 -1.173,0.791 -3.634,1.127 -2.137,0.288 -10.154,0.46 -11.202,0.235 z"
         id="path202"
         inkscape:connector-curvature="0" />
      <path
         d="m 161.255,-1150.042 c 1.895,-1.918 2.432,-2.216 3.48,-1.936 0.931,0.251 1.223,0.666 1.211,1.726 -0.032,2.782 -4.595,7.374 -9.134,9.189 -4.896,1.962 -10.495,1.831 -16.979,-0.394 -3.641,-1.247 -9.039,-3.804 -10.215,-4.837 -0.704,-0.616 -1.349,-0.864 -2.826,-1.089 -2.119,-0.318 -5.441,0.049 -7.85,0.867 -2.117,0.721 -3.165,1.506 -4.615,3.457 -1.212,1.632 -2.064,3.109 -2.669,4.621 -1.482,3.699 -1.597,5.196 -0.688,8.989 1.142,4.773 1.369,5.993 1.393,7.456 0.021,1.247 -0.023,1.509 -0.31,1.895 -0.406,0.552 -0.938,0.627 -1.576,0.23 -0.537,-0.33 -1.404,-1.349 -1.921,-2.257 -1.162,-2.041 -2.097,-6.907 -2.097,-10.93 0.003,-5.021 1.311,-9.292 3.906,-12.749 0.882,-1.173 2.741,-2.992 3.886,-3.801 3.415,-2.412 10.833,-3.244 15.904,-1.784 0.855,0.248 2.274,0.893 3.949,1.795 4.599,2.476 9.004,4.274 12.378,5.053 2.894,0.668 5.415,0.286 8.919,-1.349 2.319,-1.081 3.98,-2.258 5.854,-4.152 z"
         id="path204"
         inkscape:connector-curvature="0" />
      <path
         d="m 188.711,-1056.879 -0.143,0.616 c -3.218,-0.745 -6.429,-1.886 -11.076,-3.775 -6.965,-2.832 -16.342,-7.386 -25.613,-12.439 -3.865,-2.105 -8.221,-4.732 -8.975,-5.412 -0.639,-0.575 -0.645,-0.587 -0.236,-0.593 0.738,-0.012 5.182,2.163 11.753,5.754 6.291,3.436 13.888,7.193 20.003,9.894 0.817,0.359 4.367,1.848 7.889,3.305 z"
         id="path206"
         inkscape:connector-curvature="0" />
      <path
         d="m 141.664,-1152.859 c 0.192,0.189 0.148,0.28 -0.307,0.625 -0.841,0.642 -2.067,0.966 -2.396,0.636 -0.059,-0.058 -0.105,-0.306 -0.105,-0.555 0,-0.683 0.785,-1.124 1.807,-1.013 0.429,0.046 0.881,0.184 1.001,0.307 z"
         id="path208"
         inkscape:connector-curvature="0" />
      <path
         d="m 139.898,-1154.611 c 0.219,0.216 -3.628,0.1 -4.507,-0.134 -0.961,-0.26 -1.658,-0.648 -2.201,-1.229 -0.745,-0.788 -0.132,-1.261 2.268,-1.743 1.746,-0.35 6.429,-1.068 6.499,-0.999 0.032,0.032 -1.095,0.572 -2.508,1.197 -2.528,1.121 -3.45,1.641 -3.255,1.836 0.056,0.056 0.885,0.292 1.845,0.528 0.96,0.236 1.798,0.483 1.859,0.544 z"
         id="path210"
         inkscape:connector-curvature="0" />
      <path
         d="m 243.465,-1185.818 c 0,0.534 -0.014,0.546 -0.514,0.447 -0.283,-0.056 -0.989,-0.42 -1.57,-0.806 -0.581,-0.386 -1.506,-0.855 -2.055,-1.042 -0.92,-0.312 -1.209,-0.333 -3.764,-0.248 -1.521,0.053 -3.617,0.202 -4.662,0.336 -3.859,0.493 -9.14,0.884 -13.813,1.027 -2.646,0.082 -4.855,0.117 -4.913,0.082 -0.058,-0.035 -1.309,-0.076 -2.776,-0.091 -4.998,-0.049 -10.381,-0.627 -15.552,-1.667 -8.302,-1.667 -16.189,-1.734 -24.02,-0.204 -11.056,2.157 -20.298,6.936 -26.919,13.922 -2.078,2.189 -4.533,4.458 -5.22,4.82 l -0.455,0.239 0.114,-0.449 c 0.236,-0.958 3.646,-5.085 5.812,-7.036 6.379,-5.745 14.865,-10.288 22.508,-12.048 4.677,-1.077 8.86,-1.527 14.827,-1.597 6.347,-0.07 9.138,0.178 14.459,1.293 5.892,1.235 9.556,1.556 17.697,1.553 6.893,0 8.979,-0.12 16.041,-0.899 7.34,-0.812 11.511,-0.689 13.426,0.394 0.794,0.447 1.349,1.258 1.349,1.974 z"
         id="path212"
         inkscape:connector-curvature="0" />
      <path
         d="m 123.684,-1155.948 2.292,-0.207 -1.264,-0.079 c -2.502,-0.161 -11.981,-0.061 -13.035,0.134 -2.694,0.502 -4.706,1.515 -6.285,3.156 -1.729,1.801 -3.845,5.421 -4.458,7.634 -0.52,1.88 -0.688,4.908 -0.58,10.411 0.26,13.146 1.503,16.03 8.483,19.658 1.118,0.581 2.408,1.188 2.869,1.352 0.785,0.28 1.55,0.406 1.55,0.257 0,-0.49 -1.019,-1.25 -4.268,-3.176 -2.951,-1.752 -3.921,-2.575 -5.051,-4.283 -1.958,-2.969 -2.627,-7.409 -2.492,-16.549 0.063,-4.388 0.107,-5.063 0.408,-6.189 0.409,-1.533 1.387,-3.547 2.794,-5.766 2.809,-4.423 3.751,-4.864 12.164,-5.684 1.825,-0.178 3.603,-0.353 3.95,-0.391 0.347,-0.038 1.665,-0.162 2.923,-0.278 z m 11.707,1.202 c 0.879,0.234 4.726,0.351 4.507,0.134 -0.061,-0.061 -0.898,-0.306 -1.859,-0.543 -0.961,-0.237 -1.789,-0.473 -1.845,-0.528 -0.195,-0.195 0.727,-0.715 3.255,-1.836 1.413,-0.625 2.54,-1.165 2.508,-1.197 -0.07,-0.07 -4.753,0.648 -6.499,0.999 -2.399,0.481 -3.013,0.955 -2.268,1.743 0.543,0.58 1.24,0.969 2.201,1.228 z m 5.271,1.58 c -1.021,-0.111 -1.807,0.33 -1.807,1.013 0,0.249 0.047,0.497 0.105,0.555 0.329,0.33 1.556,0.01 2.396,-0.636 0.455,-0.344 0.499,-0.435 0.307,-0.625 -0.119,-0.123 -0.571,-0.261 -1.001,-0.307 z m 19.096,23.249 c -0.359,0.263 -0.248,0.365 0.607,0.546 1.048,0.225 9.064,0.053 11.201,-0.236 2.461,-0.336 2.919,-0.479 3.634,-1.127 0.999,-0.902 1.56,-2.837 1.084,-3.743 -0.243,-0.455 -0.444,-0.578 -0.97,-0.581 -0.604,0 -0.694,0.353 -0.351,1.369 0.286,0.835 0.283,0.858 -0.023,1.281 -0.849,1.171 -2.819,1.591 -8.352,1.775 -4.253,0.141 -6.346,0.36 -6.83,0.716 z m 1.497,-20.125 c -1.874,1.895 -3.535,3.071 -5.853,4.154 -3.504,1.635 -6.025,2.017 -8.919,1.349 -3.374,-0.779 -7.779,-2.578 -12.378,-5.053 -1.675,-0.902 -3.094,-1.547 -3.949,-1.795 -5.071,-1.46 -12.489,-0.628 -15.904,1.784 -1.145,0.809 -3.004,2.627 -3.886,3.801 -2.596,3.457 -3.903,7.728 -3.906,12.749 0,4.023 0.935,8.889 2.097,10.93 0.517,0.908 1.384,1.927 1.921,2.257 0.639,0.397 1.17,0.321 1.576,-0.23 0.286,-0.386 0.33,-0.648 0.31,-1.895 -0.023,-1.462 -0.251,-2.683 -1.393,-7.456 -0.908,-3.792 -0.794,-5.29 0.688,-8.989 0.604,-1.512 1.457,-2.989 2.669,-4.621 1.45,-1.95 2.498,-2.735 4.615,-3.457 2.408,-0.817 5.73,-1.185 7.85,-0.867 1.478,0.225 2.122,0.473 2.826,1.089 1.176,1.033 6.574,3.59 10.215,4.837 6.483,2.225 12.082,2.356 16.979,0.394 4.539,-1.815 9.102,-6.408 9.134,-9.189 0.012,-1.06 -0.28,-1.475 -1.211,-1.726 -1.049,-0.282 -1.586,0.016 -3.481,1.934 z m 99.163,-0.079 c -0.146,0.385 1.202,1.544 2.89,2.481 2.502,1.396 3.15,2.263 3.685,4.939 0.449,2.233 0.838,5.439 0.857,7.088 0.032,2.222 -0.192,2.677 -2.627,5.383 -1.404,1.556 -2.104,2.627 -1.915,2.931 0.277,0.453 1.743,-0.394 3.127,-1.804 1.22,-1.244 2.093,-2.619 2.326,-3.664 0.38,-1.693 -0.099,-8.554 -0.809,-11.575 -0.587,-2.51 -1.5,-3.687 -3.698,-4.776 -1.387,-0.686 -2.967,-1.27 -3.437,-1.27 -0.163,10e-4 -0.341,0.121 -0.399,0.267 z m -75.277,3.296 c 1.9,-0.96 5.521,-4.333 6.235,-5.801 0.835,-1.723 0.669,-3.567 -0.481,-5.301 -1.133,-1.702 -5.541,-5.407 -8.605,-7.229 -4.925,-2.928 -10.335,-4.075 -16.886,-3.576 -9.64,0.736 -16.555,3.775 -19.842,8.723 -1.918,2.884 -2.172,5.369 -0.669,6.516 1.579,1.206 4.408,1.311 8.731,0.33 8.232,-1.875 15.794,-1.095 22.604,2.33 1.077,0.54 5.188,2.82 7.266,4.025 h 0.003 c 0.777,0.453 0.716,0.455 1.644,-0.017 z m 2.434,-35.534 c 1.118,-0.295 -0.075,-0.78 -2.63,-1.06 -1.67,-0.184 -9.838,-0.246 -11.841,-0.091 l -2.408,0.181 c -4.332,0.304 -7.395,0.878 -10.933,2.046 -4.277,1.413 -6.609,2.732 -9.958,5.637 -3.827,3.322 -7,6.901 -7,7.899 0,0.161 0.058,0.292 0.131,0.292 0.351,0 1.921,-1.337 4.137,-3.521 5.78,-5.705 9.029,-7.818 14.381,-9.359 5.374,-1.547 11.251,-2.213 17.696,-2.008 4.479,0.145 7.85,0.136 8.425,-0.016 z m -1.155,51.8 c 1.681,-0.315 2.524,-0.671 2.872,-1.211 1.272,-1.965 -0.838,-3.296 -4.896,-3.086 -3.136,0.161 -5.149,1.229 -6.197,3.278 -0.891,1.746 -1.259,4.893 -0.85,7.266 0.23,1.334 0.878,2.978 1.474,3.734 0.374,0.476 1.524,1.369 2.429,1.889 0.783,0.444 1.56,0.488 1.938,0.108 0.447,-0.443 0.85,-1.498 0.855,-2.221 0.003,-0.935 -0.336,-1.658 -1.249,-2.657 -0.955,-1.045 -1.434,-2.236 -1.434,-3.562 0.001,-2.12 0.918,-2.762 5.058,-3.538 z m 1.996,-39.089 0.123,2.117 0.189,-1.58 c 0.301,-2.505 0.266,-4.259 -0.113,-5.777 -0.468,-1.865 -1.437,-3.786 -2.484,-4.919 -0.92,-0.993 -1.988,-1.673 -2.166,-1.384 -0.196,0.318 0.09,0.926 1.278,2.707 2.231,3.341 2.972,5.411 3.173,8.836 z m 54.535,-15.724 c 0.5,0.099 0.514,0.087 0.514,-0.447 0,-0.715 -0.555,-1.527 -1.349,-1.974 -1.915,-1.083 -6.086,-1.206 -13.426,-0.394 -7.062,0.78 -9.148,0.896 -16.041,0.899 -8.142,0 -11.806,-0.318 -17.697,-1.553 -5.321,-1.115 -8.112,-1.363 -14.459,-1.293 -5.967,0.07 -10.15,0.52 -14.827,1.597 -7.643,1.76 -16.129,6.303 -22.508,12.048 -2.166,1.95 -5.575,6.078 -5.812,7.036 l -0.114,0.449 0.455,-0.239 c 0.687,-0.362 3.142,-2.63 5.22,-4.82 6.621,-6.986 15.863,-11.765 26.919,-13.922 7.83,-1.53 15.718,-1.463 24.02,0.204 5.171,1.04 10.554,1.618 15.552,1.667 1.468,0.015 2.718,0.056 2.776,0.091 0.058,0.035 2.268,0 4.913,-0.082 4.674,-0.143 9.954,-0.534 13.813,-1.027 1.045,-0.134 3.142,-0.283 4.662,-0.336 2.555,-0.084 2.844,-0.064 3.764,0.248 0.549,0.187 1.471,0.657 2.055,1.042 0.584,0.385 1.287,0.751 1.57,0.806 z m -43.085,62.68 c 1.605,-0.68 1.095,-2.169 -1.093,-3.176 -1.929,-0.891 -3.663,-1.194 -6.903,-1.203 -3.171,-0.01 -4.107,0.181 -4.85,0.984 -0.543,0.587 -0.606,0.826 -0.615,2.335 -0.015,1.816 0.552,3.039 1.515,3.275 0.175,0.041 0.339,0.085 0.365,0.094 0.157,0.058 0.817,-0.412 1.302,-0.932 0.307,-0.33 0.838,-0.683 1.186,-0.788 0.367,-0.114 2.271,-0.236 4.653,-0.304 2.303,-0.063 4.206,-0.185 4.44,-0.285 z m 44.711,-45.59 c 0.167,0.368 0.377,0.671 0.462,0.671 0.473,0 0.394,-2.89 -0.117,-4.306 -0.756,-2.102 -2.732,-4.338 -5.362,-6.066 -1.895,-1.25 -4.794,-2.692 -6.049,-3.013 -1.88,-0.479 -5.369,-0.315 -12.88,0.598 -6.233,0.759 -9.348,1.708 -8.595,2.613 0.266,0.321 0.853,0.271 3.016,-0.257 3.343,-0.817 9.754,-1.649 14.196,-1.842 1.883,-0.082 2.525,-0.05 3.544,0.178 1.472,0.327 3.445,1.302 5.726,2.829 3.258,2.184 4.466,3.634 5.277,6.335 0.26,0.873 0.613,1.889 0.782,2.26 z m -41.646,107.187 c 1.542,0.128 17.314,0.134 18.57,0.01 l 1.027,-0.102 -1.299,-0.12 c -1.699,-0.158 -16.688,-0.155 -18.217,0 l -1.186,0.12 z m 49.76,-75.641 c -0.896,-0.225 -1.48,0.627 -1.93,2.811 -0.181,0.899 -0.412,2.341 -0.508,3.211 -0.713,6.364 -2.694,9.581 -8.131,13.184 -5.64,3.737 -11.373,5.658 -19.912,6.679 -2.668,0.318 -12.88,0.266 -16.117,-0.082 -7.556,-0.814 -14.877,-2.248 -22.321,-4.376 -6.153,-1.758 -19.688,-6.557 -28.944,-10.262 -16.856,-6.743 -26.271,-12.094 -26.975,-15.332 -0.269,-1.235 -0.581,-2.107 -0.855,-2.379 -1.054,-1.057 -2.53,0.663 -3.302,3.842 -0.662,2.741 -1.311,3.944 -2.775,5.155 -0.967,0.8 -2.949,1.831 -5.057,2.625 -0.87,0.33 -1.815,0.771 -2.102,0.984 -0.45,0.333 -0.517,0.467 -0.477,0.958 0.103,1.185 2.047,1.921 5.106,1.927 2.691,0.01 3.406,0.359 4.259,2.102 0.736,1.5 1.016,3.121 0.733,4.222 -0.286,1.115 -0.129,1.705 0.724,2.697 1.033,1.206 2.898,4.099 5.896,9.155 5.658,9.531 9.138,14.199 14.851,19.918 7.497,7.505 17.37,14.316 25.369,17.501 7.85,3.124 17.585,4.975 29.266,5.561 1.807,0.091 3.675,0.19 4.154,0.222 1.699,0.114 14.503,-0.05 17.224,-0.219 8.463,-0.525 15.793,-1.518 20.543,-2.785 10.331,-2.75 14.801,-7.865 16.663,-19.075 1.749,-10.503 1.434,-28.729 -0.637,-37.061 -0.522,-2.099 -0.884,-2.931 -1.632,-3.742 -0.706,-0.765 -1.214,-2.021 -1.459,-3.605 -0.376,-2.429 -0.901,-3.646 -1.654,-3.836 z m -38.652,-26.23 c 0.023,1.118 0.073,2.006 0.107,1.971 0.035,-0.035 0.251,-1.521 0.485,-3.299 0.534,-4.137 1.109,-6.452 2.043,-8.259 0.395,-0.762 0.716,-1.518 0.716,-1.681 0,-0.409 -0.412,-0.529 -0.917,-0.266 -1.803,0.931 -2.586,4.639 -2.434,11.534 z m 12.077,-31.637 c -0.354,0.354 -3.065,0.479 -8.329,0.385 -9.593,-0.169 -18.675,-0.89 -24.178,-1.915 -11.104,-2.07 -21.754,-1.387 -32.104,2.058 -5.552,1.845 -9.729,4.029 -15.936,8.323 -7.748,5.359 -14.206,10.702 -13.631,11.277 0.248,0.248 2.321,-1.167 5.095,-3.477 7.54,-6.283 19.95,-13.3 28.244,-15.972 5.24,-1.688 10.786,-2.324 17.271,-1.979 4.107,0.216 7.899,0.598 14.932,1.503 6.096,0.785 7.503,0.937 11.141,1.203 3.149,0.23 10.275,0.266 16.908,0.082 8.425,-0.23 12.567,0.333 17.46,2.382 5.716,2.394 13.604,7.94 16.588,11.663 1.862,2.327 2.499,4.151 2.697,7.745 0.356,6.437 1.921,9.759 6.965,14.813 1.451,1.454 3.001,3.124 3.445,3.713 0.922,1.226 1.903,3.135 2.376,4.624 0.841,2.651 1.232,7.412 0.97,11.826 -0.315,5.339 -0.681,6.46 -5.567,17.215 l -2.853,6.277 0.173,19.752 c 0.198,22.575 0.361,27.867 1.139,36.976 0.254,2.98 0.116,5.397 -0.395,6.918 -0.455,1.36 -1.856,4.239 -2.688,5.523 -2.584,3.997 -6.131,7.027 -10.866,9.28 -3.584,1.711 -5.684,2.213 -11.586,2.782 -2.926,0.283 -13.059,0.432 -15.493,0.228 -2.467,-0.207 -2.969,-0.327 -11.779,-2.855 -14.418,-4.134 -19.272,-5.421 -24.323,-6.446 -1.705,-0.344 -2.794,-0.677 -4.265,-1.299 -2.841,-1.203 -9.482,-4.563 -13.432,-6.796 -7.792,-4.411 -16.325,-8.947 -19.279,-10.252 -4.399,-1.941 -15.589,-8.875 -21.282,-13.184 -7.957,-6.022 -15.314,-15.212 -18.631,-23.275 -1.786,-4.341 -4.317,-8.954 -6.312,-11.502 -1.503,-1.927 -2.049,-2.747 -1.912,-2.884 0.062,-0.059 0.587,0.026 1.171,0.19 1.554,0.432 2.245,0.49 2.245,0.187 0,-0.335 -1.775,-1.576 -3.205,-2.236 -3.767,-1.74 -6.668,-4.867 -9.041,-9.745 -2.932,-6.02 -3.9,-12.644 -2.604,-17.779 1.174,-4.647 8.513,-15.02 11.698,-16.523 1.854,-0.879 5.707,-1.632 11.42,-2.236 1.982,-0.21 3.649,-0.423 3.701,-0.476 0.052,-0.053 -0.609,-0.097 -1.474,-0.097 -2.493,0 -10.568,-0.192 -10.632,-0.251 -0.032,-0.026 0.402,-0.604 0.966,-1.281 0.564,-0.677 1.328,-1.693 1.696,-2.26 0.96,-1.474 3.06,-5.847 4.74,-9.876 3.79,-9.082 7.632,-15.396 12.15,-19.968 1.883,-1.903 2.686,-2.549 5.859,-4.694 l 2.753,-1.862 20.079,-0.029 c 11.043,-0.018 22.104,0.023 24.583,0.09 6.685,0.178 10.652,0.307 12.246,0.391 l 3.398,0.161 c 10.985,0.479 21.801,1.553 25.669,2.546 1.252,0.321 2.232,0.824 2.019,1.036 z m -6.49,68.134 c -1.567,3.03 -4.41,6.344 -6.288,7.333 -1.748,0.923 -2.551,0.855 -4.221,-0.356 -1.2,-0.87 -2.222,-0.698 -2.785,0.467 -0.175,0.362 -0.318,0.917 -0.318,1.235 0,0.823 0.552,2.184 1.118,2.765 0.534,0.546 1.786,1.074 3.045,1.284 1.918,0.321 3.626,0.073 4.986,-0.724 0.776,-0.455 2.948,-2.557 4.373,-4.233 1.357,-1.597 2.612,-2.942 3.488,-3.748 1.538,-1.416 1.936,-1.518 2.901,-0.742 0.823,0.663 1.224,0.549 1.962,-0.566 0.967,-1.457 1.407,-1.6 3.139,-1.021 1.237,0.415 4.937,2.224 6.901,3.377 1.316,0.771 2.376,1.115 2.376,0.768 0,-0.33 -0.989,-1.448 -2.003,-2.262 -1.328,-1.068 -2.738,-1.784 -4.04,-2.046 -1.369,-0.28 -2.446,-1.109 -5.272,-4.064 -2.715,-2.84 -5.226,-4.998 -8.883,-7.628 -3.118,-2.245 -3.614,-3.057 -3.974,-6.487 -0.207,-1.967 -0.201,-3.407 0.012,-4.186 0.675,-2.455 6.178,-4.265 16.34,-5.377 9.125,-1.001 12.199,-2.128 12.135,-4.446 -0.023,-0.771 -0.671,-1.755 -1.95,-2.96 -1.839,-1.737 -2.986,-2.379 -5.155,-2.887 -1.751,-0.412 -8.306,-0.412 -10.956,0 -4.753,0.739 -7.471,2.029 -11.318,5.372 -2.146,1.866 -3.698,2.54 -6.224,2.712 -1.699,0.114 -2.148,0.205 -2.881,0.575 -0.634,0.321 -0.855,0.806 -0.687,1.489 0.178,0.704 1.271,1.696 2.992,2.721 3.159,1.877 3.246,2.035 3.431,6.09 0.069,1.582 0.245,3.436 0.385,4.125 0.733,3.518 2.832,6.662 4.662,6.974 1.36,0.233 2.266,1.016 2.94,2.545 0.592,1.335 0.529,2.432 -0.231,3.901 z m 27.719,-11.076 c 0.604,-1.454 1.328,-2.42 2.336,-3.112 2.738,-1.886 6.938,-1.682 9.957,0.487 1.822,1.308 3.244,1.553 4.05,0.692 0.963,-1.034 0.738,-2.724 -0.534,-4.029 -1.895,-1.938 -6.058,-3.097 -10.335,-2.875 -3.757,0.196 -4.677,0.622 -9.432,4.37 -2.68,2.114 -3.145,2.192 -5.567,0.963 -3.363,-1.71 -4.405,-1.719 -4.957,-0.046 -0.351,1.054 0.362,2.881 1.504,3.862 1.068,0.919 1.956,1.272 4.279,1.699 1.813,0.333 5.795,0.417 6.784,0.143 0.823,-0.23 1.375,-0.849 1.915,-2.154 z m 12.302,76.191 c -0.505,4.093 -0.901,4.51 -10.652,11.158 -2.184,1.489 -3.707,2.426 -3.949,2.432 -0.447,0.01 -5.979,-0.193 -8.612,-0.31 -0.954,-0.044 -4.51,-0.187 -7.899,-0.315 -17.694,-0.683 -23.249,-1.395 -38.164,-4.89 -15.3,-3.585 -23.701,-6.393 -32.874,-10.985 -4.353,-2.178 -6.551,-3.424 -14.611,-8.276 -7.266,-4.374 -10.667,-6.119 -10.667,-5.474 0,0.38 3.582,2.875 8.218,5.719 7.34,4.507 16.243,9.315 21.095,11.4 13.154,5.643 32.215,10.664 47.804,12.588 5.287,0.651 14.057,1.068 26.309,1.255 l 9.395,0.14 h 0.14 l 1.635,0.026 3.792,-2.569 c 4.776,-3.234 7.319,-5.05 8.055,-5.76 0.721,-0.692 1.331,-1.813 1.48,-2.712 0.113,-0.701 -0.056,-5.471 -0.19,-5.336 -0.046,0.04 -0.182,0.898 -0.305,1.906 z m -18.003,4.951 c 4.335,-2.181 9.105,-6.341 9.719,-8.478 0.119,-0.417 0.099,-0.491 -0.144,-0.491 -0.467,0 -1.562,0.885 -3.804,3.074 -3.918,3.824 -6.162,5.167 -10.331,6.177 -2.891,0.698 -5.62,0.905 -11.87,0.899 -3.13,-0.01 -7.289,-0.087 -9.245,-0.187 -3.422,-0.169 -14.962,-0.789 -20.701,-1.106 -1.521,-0.085 -3.617,-0.202 -4.662,-0.26 l -1.895,-0.105 -6.398,-2.65 c -3.521,-1.457 -7.071,-2.946 -7.889,-3.305 -6.115,-2.701 -13.712,-6.458 -20.003,-9.894 -6.571,-3.591 -11.015,-5.766 -11.753,-5.754 -0.408,0.01 -0.402,0.018 0.236,0.593 0.754,0.68 5.109,3.307 8.975,5.412 9.271,5.053 18.648,9.607 25.613,12.439 4.647,1.889 7.858,3.03 11.076,3.775 2.939,0.68 5.885,1.033 9.939,1.316 6.435,0.456 16.611,0.934 21.332,1.007 4.367,0.067 10.177,-0.07 12.742,-0.304 4.153,-0.372 6.725,-0.985 9.063,-2.158 z m 31.14,-75.654 c -1.066,4.96 -1.448,5.465 -6.09,8.063 -3.614,2.02 -5.375,3.246 -5.375,3.737 0,0.195 0.117,0.225 0.581,0.137 2.064,-0.388 8.268,-3.597 9.786,-5.062 0.534,-0.517 0.741,-0.905 1.146,-2.134 1.363,-4.16 2.423,-11.058 2.085,-13.563 -0.374,-2.762 -2.681,-8.142 -3.772,-8.796 -0.86,-0.52 -2.565,-1.941 -4.645,-3.874 -3.001,-2.791 -3.619,-3.001 -8.804,-3.001 -3.579,0 -6.222,-0.198 -7.675,-0.575 -2.307,-0.599 -4.178,0.54 -2.371,1.445 0.602,0.298 0.961,0.315 7.033,0.327 3.521,0.01 6.649,0.067 6.953,0.137 1.112,0.254 1.856,0.803 3.871,2.84 1.328,1.343 2.575,2.432 3.523,3.074 3.03,2.052 4.298,4.72 4.558,9.581 0.124,2.307 -0.089,4.351 -0.804,7.664 z"
         fill="#6dbe45"
         id="path214"
         inkscape:connector-curvature="0" />
      <path
         d="m 271.73,-1044.633 c -3.591,6.411 -5.882,9.091 -10.24,11.986 -2.873,1.913 -7.412,4.026 -10.439,4.861 -3.752,1.039 -9.223,1.296 -20.307,0.952 -2.26,-0.067 -5.033,-0.201 -6.163,-0.292 -2.128,-0.169 -3.036,-0.4 -17.469,-4.434 -6.385,-1.784 -13.131,-3.424 -16.205,-3.941 -1.171,-0.198 -2.446,-0.537 -3.38,-0.908 -2.43,-0.955 -9.152,-4.373 -15.012,-7.634 -8.495,-4.727 -13.931,-7.617 -18.599,-9.894 -6.828,-3.328 -12.965,-7.036 -19.802,-11.966 -4.271,-3.08 -6.507,-4.992 -10.19,-8.711 -6.606,-6.671 -10.218,-11.853 -13.274,-19.042 -2.484,-5.851 -5.103,-10.098 -8.621,-13.986 -1.807,-1.994 -4.061,-4.884 -5.491,-7.033 -1.588,-2.385 -3.459,-6.116 -4.2,-8.375 -1.638,-4.995 -2.269,-12.238 -1.451,-16.669 0.858,-4.656 3.354,-8.857 9.397,-15.802 0.832,-0.958 1.55,-1.775 1.594,-1.819 0.295,-0.286 2.269,-2.598 3.617,-4.239 3.629,-4.414 5.783,-8.022 8.319,-13.934 3.495,-8.151 7.048,-14.016 11.654,-19.247 2.411,-2.744 3.906,-4 8.378,-7.047 l 2.499,-1.705 25.155,0.096 c 13.835,0.053 26.009,0.128 27.054,0.167 l 6.398,0.239 c 25.529,0.966 41.312,3.679 52.323,8.992 6.25,3.016 12.914,8.153 16.088,12.401 1.774,2.379 2.854,5.15 2.854,7.322 0,3.792 1.106,7.888 2.841,10.524 1.083,1.646 1.868,2.467 3.717,3.895 3.272,2.525 5.103,5.342 6.171,9.491 0.885,3.433 1.275,8.355 1.127,14.223 -0.181,7.155 -0.345,7.721 -5.638,19.357 l -2.732,6.005 0.1,16.511 c 0.056,9.082 0.135,17.475 0.175,18.646 0.04,1.171 0.114,3.486 0.164,5.138 0.181,6.107 0.315,8.863 0.885,17.892 l 0.32,5.097 z m -53.943,-149.584 c 5.264,0.094 7.976,-0.032 8.329,-0.385 0.213,-0.213 -0.768,-0.715 -2.018,-1.036 -3.868,-0.993 -14.684,-2.067 -25.669,-2.546 l -3.398,-0.161 c -1.594,-0.084 -5.562,-0.213 -12.246,-0.391 -2.479,-0.067 -13.54,-0.108 -24.583,-0.09 l -20.079,0.029 -2.753,1.862 c -3.174,2.146 -3.977,2.791 -5.859,4.694 -4.519,4.572 -8.36,10.886 -12.15,19.968 -1.681,4.029 -3.78,8.402 -4.74,9.876 -0.368,0.566 -1.133,1.583 -1.696,2.26 -0.563,0.677 -0.998,1.255 -0.966,1.281 0.063,0.059 8.139,0.248 10.632,0.251 0.864,0 1.523,0.044 1.474,0.097 -0.049,0.053 -1.719,0.266 -3.701,0.476 -5.713,0.604 -9.566,1.357 -11.42,2.236 -3.186,1.503 -10.524,11.875 -11.698,16.523 -1.296,5.135 -0.327,11.759 2.604,17.779 2.373,4.878 5.274,8.004 9.041,9.745 1.43,0.66 3.205,1.9 3.205,2.236 0,0.304 -0.691,0.246 -2.245,-0.187 -0.584,-0.164 -1.109,-0.249 -1.171,-0.19 -0.137,0.137 0.409,0.958 1.912,2.884 1.994,2.548 4.525,7.161 6.312,11.502 3.316,8.063 10.674,17.253 18.631,23.275 5.693,4.309 16.883,11.242 21.282,13.184 2.954,1.305 11.487,5.841 19.279,10.252 3.949,2.233 10.591,5.593 13.432,6.796 1.471,0.622 2.56,0.955 4.265,1.299 5.051,1.025 9.905,2.312 24.323,6.446 8.811,2.528 9.313,2.648 11.779,2.855 2.435,0.205 12.567,0.056 15.493,-0.228 5.902,-0.569 8.002,-1.071 11.586,-2.782 4.735,-2.253 8.282,-5.284 10.866,-9.28 0.832,-1.285 2.233,-4.163 2.688,-5.523 0.511,-1.521 0.648,-3.938 0.395,-6.918 -0.777,-9.108 -0.94,-14.401 -1.139,-36.976 l -0.173,-19.752 2.853,-6.277 c 4.887,-10.754 5.252,-11.875 5.567,-17.215 0.263,-4.414 -0.129,-9.175 -0.97,-11.826 -0.473,-1.489 -1.454,-3.398 -2.376,-4.624 -0.444,-0.59 -1.994,-2.259 -3.445,-3.713 -5.044,-5.053 -6.608,-8.375 -6.965,-14.813 -0.198,-3.594 -0.835,-5.418 -2.697,-7.745 -2.983,-3.722 -10.872,-9.269 -16.588,-11.663 -4.893,-2.049 -9.035,-2.613 -17.46,-2.382 -6.633,0.184 -13.759,0.149 -16.908,-0.082 -3.638,-0.266 -5.045,-0.417 -11.141,-1.203 -7.032,-0.905 -10.824,-1.288 -14.932,-1.503 -6.484,-0.345 -12.03,0.292 -17.271,1.979 -8.294,2.671 -20.704,9.689 -28.244,15.972 -2.773,2.309 -4.847,3.725 -5.095,3.477 -0.575,-0.575 5.883,-5.917 13.631,-11.277 6.206,-4.294 10.384,-6.478 15.936,-8.323 10.35,-3.445 20.999,-4.128 32.104,-2.058 5.502,1.025 14.584,1.746 24.177,1.915 z"
         id="path216"
         inkscape:connector-curvature="0" />
      <path
         d="m 120.762,-1155.671 c -0.348,0.038 -2.125,0.213 -3.95,0.391 -8.413,0.82 -9.355,1.261 -12.164,5.684 -1.407,2.219 -2.385,4.233 -2.794,5.766 -0.301,1.126 -0.345,1.801 -0.408,6.189 -0.135,9.14 0.534,13.58 2.492,16.549 1.13,1.708 2.1,2.531 5.051,4.283 3.249,1.926 4.268,2.686 4.268,3.176 0,0.149 -0.765,0.023 -1.55,-0.257 -0.461,-0.164 -1.751,-0.771 -2.869,-1.352 -6.98,-3.628 -8.224,-6.513 -8.483,-19.658 -0.108,-5.503 0.061,-8.53 0.58,-10.411 0.613,-2.212 2.729,-5.833 4.458,-7.634 1.579,-1.641 3.591,-2.653 6.285,-3.156 1.054,-0.195 10.533,-0.295 13.035,-0.134 l 1.264,0.079 -2.292,0.207 z"
         id="path218"
         inkscape:connector-curvature="0" />
    </g>
  </g>
</svg>
