<?xml version="1.0" encoding="UTF-8" standalone="no"?>
<svg
   xmlns:dc="http://purl.org/dc/elements/1.1/"
   xmlns:cc="http://creativecommons.org/ns#"
   xmlns:rdf="http://www.w3.org/1999/02/22-rdf-syntax-ns#"
   xmlns:svg="http://www.w3.org/2000/svg"
   xmlns="http://www.w3.org/2000/svg"
   xmlns:sodipodi="http://sodipodi.sourceforge.net/DTD/sodipodi-0.dtd"
   xmlns:inkscape="http://www.inkscape.org/namespaces/inkscape"
   width="1922.9812"
   height="83.259827"
   version="1.1"
   id="svg4260"
   sodipodi:docname="qs-sorted.svg"
   inkscape:version="0.92.4 (5da689c313, 2019-01-14)">
  <metadata
     id="metadata4266">
    <rdf:RDF>
      <cc:Work
         rdf:about="">
        <dc:format>image/svg+xml</dc:format>
        <dc:type
           rdf:resource="http://purl.org/dc/dcmitype/StillImage" />
        <dc:title></dc:title>
      </cc:Work>
    </rdf:RDF>
  </metadata>
  <defs
     id="defs4264" />
  <sodipodi:namedview
     pagecolor="#ffffff"
     bordercolor="#666666"
     borderopacity="1"
     objecttolerance="10"
     gridtolerance="10"
     guidetolerance="10"
     inkscape:pageopacity="0"
     inkscape:pageshadow="2"
     inkscape:window-width="2560"
     inkscape:window-height="1385"
     id="namedview4262"
     showgrid="false"
     fit-margin-top="0"
     fit-margin-left="0"
     fit-margin-right="0"
     fit-margin-bottom="0"
     inkscape:zoom="1.33"
     inkscape:cx="523.18368"
     inkscape:cy="41.630227"
     inkscape:window-x="0"
     inkscape:window-y="27"
     inkscape:window-maximized="1"
     inkscape:current-layer="svg4260" />
  <style
     id="style1677">
@import url('https://fonts.googleapis.com/css?family=Lato');

body {
  padding: 10px 0;
}
svg {
  float: left;
}
.line {
  stroke: #000;
  stroke-linecap: round;
}
.line--pivot {
  stroke: #f00;
  stroke-width: 3px;
}
.line--inactive {
  stroke: #000;
  stroke-linecap: round;
}
</style>
  <g
     transform="matrix(1.5716003,0,0,0.99069193,92.395638,1.5065793)"
     id="g4258">
    <g
       class="line"
       id="g4256"
       style="stroke:#000000;stroke-linecap:round">
      <line
         transform="rotate(-45,97.775649,40.5)"
         class="line--inactive"
         y2="-81"
         id="line3856"
         x1="0"
         y1="0"
         x2="0"
         />
      <line
         transform="rotate(-44.547739,101.65652,33.715543)"
         class="line--inactive"
         y2="-81"
         id="line3858"
         x1="0"
         y1="0"
         x2="0"
         />
      <line
         transform="rotate(-44.095477,105.55884,26.776921)"
         class="line--inactive"
         y2="-81"
         id="line3860"
         x1="0"
         y1="0"
         x2="0"
         />
      <line
         transform="rotate(-43.643216,109.48326,19.67958)"
         class="line--inactive"
         y2="-81"
         id="line3862"
         x1="0"
         y1="0"
         x2="0"
         />
      <line
         transform="rotate(-43.190955,113.4305,12.418779)"
         class="line--inactive"
         y2="-81"
         id="line3864"
         x1="0"
         y1="0"
         x2="0"
         />
      <line
         transform="rotate(-42.738693,117.40126,4.9895744)"
         class="line--inactive"
         y2="-81"
         id="line3866"
         x1="0"
         y1="0"
         x2="0"
         />
      <line
         transform="rotate(-42.286432,121.39632,-2.6131899)"
         class="line--inactive"
         y2="-81"
         id="line3868"
         x1="0"
         y1="0"
         x2="0"
         />
      <line
         transform="rotate(-41.834171,125.41645,-10.394892)"
         class="line--inactive"
         y2="-81"
         id="line3870"
         x1="0"
         y1="0"
         x2="0"
         />
      <line
         transform="rotate(-41.38191,129.46249,-18.361148)"
         class="line--inactive"
         y2="-81"
         id="line3872"
         x1="0"
         y1="0"
         x2="0"
         />
      <line
         transform="rotate(-40.929648,133.53529,-26.517819)"
         class="line--inactive"
         y2="-81"
         id="line3874"
         x1="0"
         y1="0"
         x2="0"
         />
      <line
         transform="rotate(-40.477387,137.63575,-34.871031)"
         class="line--inactive"
         y2="-81"
         id="line3876"
         x1="0"
         y1="0"
         x2="0"
         />
      <line
         transform="rotate(-40.025126,141.76481,-43.427186)"
         class="line--inactive"
         y2="-81"
         id="line3878"
         x1="0"
         y1="0"
         x2="0"
         />
      <line
         transform="rotate(-39.572864,145.92345,-52.192981)"
         class="line--inactive"
         y2="-81"
         id="line3880"
         x1="0"
         y1="0"
         x2="0"
         />
      <line
         transform="rotate(-39.120603,150.1127,-61.175421)"
         class="line--inactive"
         y2="-81"
         id="line3882"
         x1="0"
         y1="0"
         x2="0"
         />
      <line
         transform="rotate(-38.668342,154.33363,-70.38184)"
         class="line--inactive"
         y2="-81"
         id="line3884"
         x1="0"
         y1="0"
         x2="0"
         />
      <line
         transform="rotate(-38.21608,158.58738,-79.819918)"
         class="line--inactive"
         y2="-81"
         id="line3886"
         x1="0"
         y1="0"
         x2="0"
         />
      <line
         transform="rotate(-37.763819,162.87512,-89.497707)"
         class="line--inactive"
         y2="-81"
         id="line3888"
         x1="0"
         y1="0"
         x2="0"
         />
      <line
         transform="rotate(-37.311558,167.19809,-99.423645)"
         class="line--inactive"
         y2="-81"
         id="line3890"
         x1="0"
         y1="0"
         x2="0"
         />
      <line
         transform="rotate(-36.859296,171.55758,-109.60659)"
         class="line--inactive"
         y2="-81"
         id="line3892"
         x1="0"
         y1="0"
         x2="0"
         />
      <line
         transform="rotate(-36.407035,175.95496,-120.05583)"
         class="line--inactive"
         y2="-81"
         id="line3894"
         x1="0"
         y1="0"
         x2="0"
         />
      <line
         transform="rotate(-35.954774,180.39167,-130.78114)"
         class="line--inactive"
         y2="-81"
         id="line3896"
         x1="0"
         y1="0"
         x2="0"
         />
      <line
         transform="rotate(-35.502513,184.86919,-141.79278)"
         class="line--inactive"
         y2="-81"
         id="line3898"
         x1="0"
         y1="0"
         x2="0"
         />
      <line
         transform="rotate(-35.050251,189.38913,-153.10152)"
         class="line--inactive"
         y2="-81"
         id="line3900"
         x1="0"
         y1="0"
         x2="0"
         />
      <line
         transform="rotate(-34.59799,193.95314,-164.71875)"
         class="line--inactive"
         y2="-81"
         id="line3902"
         x1="0"
         y1="0"
         x2="0"
         />
      <line
         transform="rotate(-34.145729,198.56297,-176.6564)"
         class="line--inactive"
         y2="-81"
         id="line3904"
         x1="0"
         y1="0"
         x2="0"
         />
      <line
         transform="rotate(-33.693467,203.22047,-188.92708)"
         class="line--inactive"
         y2="-81"
         id="line3906"
         x1="0"
         y1="0"
         x2="0"
         />
      <line
         transform="rotate(-33.241206,207.92759,-201.54408)"
         class="line--inactive"
         y2="-81"
         id="line3908"
         x1="0"
         y1="0"
         x2="0"
         />
      <line
         transform="rotate(-32.788945,212.68638,-214.52142)"
         class="line--inactive"
         y2="-81"
         id="line3910"
         x1="0"
         y1="0"
         x2="0"
         />
      <line
         transform="rotate(-32.336683,217.49901,-227.87389)"
         class="line--inactive"
         y2="-81"
         id="line3912"
         x1="0"
         y1="0"
         x2="0"
         />
      <line
         transform="rotate(-31.884422,222.36777,-241.61715)"
         class="line--inactive"
         y2="-81"
         id="line3914"
         x1="0"
         y1="0"
         x2="0"
         />
      <line
         transform="rotate(-31.432161,227.2951,-255.76775)"
         class="line--inactive"
         y2="-81"
         id="line3916"
         x1="0"
         y1="0"
         x2="0"
         />
      <line
         transform="rotate(-30.979899,232.28355,-270.34318)"
         class="line--inactive"
         y2="-81"
         id="line3918"
         x1="0"
         y1="0"
         x2="0"
         />
      <line
         transform="rotate(-30.527638,237.33584,-285.36201)"
         class="line--inactive"
         y2="-81"
         id="line3920"
         x1="0"
         y1="0"
         x2="0"
         />
      <line
         transform="rotate(-30.075377,242.45486,-300.8439)"
         class="line--inactive"
         y2="-81"
         id="line3922"
         x1="0"
         y1="0"
         x2="0"
         />
      <line
         transform="rotate(-29.623116,247.64365,-316.80972)"
         class="line--inactive"
         y2="-81"
         id="line3924"
         x1="0"
         y1="0"
         x2="0"
         />
      <line
         transform="rotate(-29.170854,252.90548,-333.28162)"
         class="line--inactive"
         y2="-81"
         id="line3926"
         x1="0"
         y1="0"
         x2="0"
         />
      <line
         transform="rotate(-28.718593,258.24379,-350.28317)"
         class="line--inactive"
         y2="-81"
         id="line3928"
         x1="0"
         y1="0"
         x2="0"
         />
      <line
         transform="rotate(-28.266332,263.66225,-367.83944)"
         class="line--inactive"
         y2="-81"
         id="line3930"
         x1="0"
         y1="0"
         x2="0"
         />
      <line
         transform="rotate(-27.81407,269.16477,-385.97711)"
         class="line--inactive"
         y2="-81"
         id="line3932"
         x1="0"
         y1="0"
         x2="0"
         />
      <line
         transform="rotate(-27.361809,274.75553,-404.72466)"
         class="line--inactive"
         y2="-81"
         id="line3934"
         x1="0"
         y1="0"
         x2="0"
         />
      <line
         transform="rotate(-26.909548,280.43897,-424.11246)"
         class="line--inactive"
         y2="-81"
         id="line3936"
         x1="0"
         y1="0"
         x2="0"
         />
      <line
         transform="rotate(-26.457286,286.21985,-444.17296)"
         class="line--inactive"
         y2="-81"
         id="line3938"
         x1="0"
         y1="0"
         x2="0"
         />
      <line
         transform="rotate(-26.005025,292.10325,-464.94088)"
         class="line--inactive"
         y2="-81"
         id="line3940"
         x1="0"
         y1="0"
         x2="0"
         />
      <line
         transform="rotate(-25.552764,298.09462,-486.45338)"
         class="line--inactive"
         y2="-81"
         id="line3942"
         x1="0"
         y1="0"
         x2="0"
         />
      <line
         transform="rotate(-25.100503,304.1998,-508.75031)"
         class="line--inactive"
         y2="-81"
         id="line3944"
         x1="0"
         y1="0"
         x2="0"
         />
      <line
         transform="rotate(-24.648241,310.42505,-531.87445)"
         class="line--inactive"
         y2="-81"
         id="line3946"
         x1="0"
         y1="0"
         x2="0"
         />
      <line
         transform="rotate(-24.19598,316.77711,-555.87177)"
         class="line--inactive"
         y2="-81"
         id="line3948"
         x1="0"
         y1="0"
         x2="0"
         />
      <line
         transform="rotate(-23.743719,323.26322,-580.79174)"
         class="line--inactive"
         y2="-81"
         id="line3950"
         x1="0"
         y1="0"
         x2="0"
         />
      <line
         transform="rotate(-23.291457,329.8912,-606.68768)"
         class="line--inactive"
         y2="-81"
         id="line3952"
         x1="0"
         y1="0"
         x2="0"
         />
      <line
         transform="rotate(-22.839196,336.66946,-633.61713)"
         class="line--inactive"
         y2="-81"
         id="line3954"
         x1="0"
         y1="0"
         x2="0"
         />
      <line
         transform="rotate(-22.386935,343.60714,-661.64228)"
         class="line--inactive"
         y2="-81"
         id="line3956"
         x1="0"
         y1="0"
         x2="0"
         />
      <line
         transform="rotate(-21.934673,350.71408,-690.83046)"
         class="line--inactive"
         y2="-81"
         id="line3958"
         x1="0"
         y1="0"
         x2="0"
         />
      <line
         transform="rotate(-21.482412,358.00097,-721.25466)"
         class="line--inactive"
         y2="-81"
         id="line3960"
         x1="0"
         y1="0"
         x2="0"
         />
      <line
         transform="rotate(-21.030151,365.47943,-752.99413)"
         class="line--inactive"
         y2="-81"
         id="line3962"
         x1="0"
         y1="0"
         x2="0"
         />
      <line
         transform="rotate(-20.577889,373.1621,-786.13513)"
         class="line--inactive"
         y2="-81"
         id="line3964"
         x1="0"
         y1="0"
         x2="0"
         />
      <line
         transform="rotate(-20.125628,381.06273,-820.77164)"
         class="line--inactive"
         y2="-81"
         id="line3966"
         x1="0"
         y1="0"
         x2="0"
         />
      <line
         transform="rotate(-19.673367,389.19636,-857.00629)"
         class="line--inactive"
         y2="-81"
         id="line3968"
         x1="0"
         y1="0"
         x2="0"
         />
      <line
         transform="rotate(-19.221106,397.57945,-894.95138)"
         class="line--inactive"
         y2="-81"
         id="line3970"
         x1="0"
         y1="0"
         x2="0"
         />
      <line
         transform="rotate(-18.768844,406.23002,-934.73003)"
         class="line--inactive"
         y2="-81"
         id="line3972"
         x1="0"
         y1="0"
         x2="0"
         />
      <line
         transform="rotate(-18.316583,415.16789,-976.47751)"
         class="line--inactive"
         y2="-81"
         id="line3974"
         x1="0"
         y1="0"
         x2="0"
         />
      <line
         transform="rotate(-17.864322,424.41488,-1020.3428)"
         class="line--inactive"
         y2="-81"
         id="line3976"
         x1="0"
         y1="0"
         x2="0"
         />
      <line
         transform="rotate(-17.41206,433.99508,-1066.4903)"
         class="line--inactive"
         y2="-81"
         id="line3978"
         x1="0"
         y1="0"
         x2="0"
         />
      <line
         transform="rotate(-16.959799,443.93515,-1115.1022)"
         class="line--inactive"
         y2="-81"
         id="line3980"
         x1="0"
         y1="0"
         x2="0"
         />
      <line
         transform="rotate(-16.507538,454.26466,-1166.3802)"
         y2="-81"
         class="line--inactive"
         id="line3982"
         x1="0"
         y1="0"
         x2="0"
         />
      <line
         transform="rotate(-16.055276,465.01654,-1220.5491)"
         class="line--inactive"
         y2="-81"
         id="line3984"
         x1="0"
         y1="0"
         x2="0"
         />
      <line
         transform="rotate(-15.603015,476.22751,-1277.8596)"
         class="line--inactive"
         y2="-81"
         id="line3986"
         x1="0"
         y1="0"
         x2="0"
         />
      <line
         transform="rotate(-15.150754,487.93868,-1338.5925)"
         class="line--inactive"
         y2="-81"
         id="line3988"
         x1="0"
         y1="0"
         x2="0"
         />
      <line
         transform="rotate(-14.698492,500.19622,-1403.0629)"
         class="line--inactive"
         y2="-81"
         id="line3990"
         x1="0"
         y1="0"
         x2="0"
         />
      <line
         transform="rotate(-14.246231,513.05218,-1471.6262)"
         class="line--inactive"
         y2="-81"
         id="line3992"
         x1="0"
         y1="0"
         x2="0"
         />
      <line
         transform="rotate(-13.79397,526.56541,-1544.6841)"
         class="line--inactive"
         y2="-81"
         id="line3994"
         x1="0"
         y1="0"
         x2="0"
         />
      <line
         transform="rotate(-13.341709,540.80277,-1622.6931)"
         class="line--inactive"
         y2="-81"
         id="line3996"
         x1="0"
         y1="0"
         x2="0"
         />
      <line
         transform="rotate(-12.889447,555.84046,-1706.1735)"
         class="line--inactive"
         y2="-81"
         id="line3998"
         x1="0"
         y1="0"
         x2="0"
         />
      <line
         transform="rotate(-12.437186,571.76581,-1795.7214)"
         class="line--inactive"
         y2="-81"
         id="line4000"
         x1="0"
         y1="0"
         x2="0"
         />
      <line
         transform="rotate(-11.984925,588.67931,-1892.0229)"
         class="line--inactive"
         y2="-81"
         id="line4002"
         x1="0"
         y1="0"
         x2="0"
         />
      <line
         transform="rotate(-11.532663,606.69721,-1995.8716)"
         class="line--inactive"
         y2="-81"
         id="line4004"
         x1="0"
         y1="0"
         x2="0"
         />
      <line
         transform="rotate(-11.080402,625.95473,-2108.1909)"
         class="line--inactive"
         y2="-81"
         id="line4006"
         x1="0"
         y1="0"
         x2="0"
         />
      <line
         transform="rotate(-10.628141,646.61015,-2230.061)"
         class="line--inactive"
         y2="-81"
         id="line4008"
         x1="0"
         y1="0"
         x2="0"
         />
      <line
         transform="rotate(-10.175879,668.84983,-2362.7546)"
         class="line--inactive"
         y2="-81"
         id="line4010"
         x1="0"
         y1="0"
         x2="0"
         />
      <line
         transform="rotate(-9.7236181,692.89485,-2507.7808)"
         class="line--inactive"
         y2="-81"
         id="line4012"
         x1="0"
         y1="0"
         x2="0"
         />
      <line
         transform="rotate(-9.2713568,719.0094,-2666.9434)"
         class="line--inactive"
         y2="-81"
         id="line4014"
         x1="0"
         y1="0"
         x2="0"
         />
      <line
         transform="rotate(-8.8190955,747.51187,-2842.416)"
         class="line--inactive"
         y2="-81"
         id="line4016"
         x1="0"
         y1="0"
         x2="0"
         />
      <line
         transform="rotate(-8.3668342,778.78949,-3036.8424)"
         class="line--inactive"
         y2="-81"
         id="line4018"
         x1="0"
         y1="0"
         x2="0"
         />
      <line
         transform="rotate(-7.9145729,813.31801,-3253.4705)"
         class="line--inactive"
         y2="-81"
         id="line4020"
         x1="0"
         y1="0"
         x2="0"
         />
      <line
         transform="rotate(-7.4623116,851.6885,-3496.3357)"
         class="line--inactive"
         y2="-81"
         id="line4022"
         x1="0"
         y1="0"
         x2="0"
         />
      <line
         transform="rotate(-7.0100503,894.64457,-3770.5146)"
         class="line--inactive"
         y2="-81"
         id="line4024"
         x1="0"
         y1="0"
         x2="0"
         />
      <line
         transform="rotate(-6.5577889,943.13495,-4082.4846)"
         class="line--inactive"
         y2="-81"
         id="line4026"
         x1="0"
         y1="0"
         x2="0"
         />
      <line
         transform="rotate(-6.1055276,998.38951,-4440.6419)"
         class="line--inactive"
         y2="-81"
         id="line4028"
         x1="0"
         y1="0"
         x2="0"
         />
      <line
         transform="rotate(-5.6532663,1062.0316,-4856.0698)"
         class="line--inactive"
         y2="-81"
         id="line4030"
         x1="0"
         y1="0"
         x2="0"
         />
      <line
         transform="rotate(-5.201005,1136.2494,-5343.7067)"
         class="line--inactive"
         y2="-81"
         id="line4032"
         x1="0"
         y1="0"
         x2="0"
         />
      <line
         transform="rotate(-4.7487437,1224.0644,-5924.1814)"
         class="line--inactive"
         y2="-81"
         id="line4034"
         x1="0"
         y1="0"
         x2="0"
         />
      <line
         transform="rotate(-4.2964824,1329.7705,-6626.8089)"
         class="line--inactive"
         y2="-81"
         id="line4036"
         x1="0"
         y1="0"
         x2="0"
         />
      <line
         transform="rotate(-3.8442211,1459.6823,-7494.6995)"
         class="line--inactive"
         y2="-81"
         id="line4038"
         x1="0"
         y1="0"
         x2="0"
         />
      <line
         transform="rotate(-3.3919598,1623.4819,-8593.9553)"
         class="line--inactive"
         y2="-81"
         id="line4040"
         x1="0"
         y1="0"
         x2="0"
         />
      <line
         transform="rotate(-2.9396985,1836.8099,-10031.357)"
         class="line--inactive"
         y2="-81"
         id="line4042"
         x1="0"
         y1="0"
         x2="0"
         />
      <line
         transform="rotate(-2.4874372,2126.682,-11991.344)"
         class="line--inactive"
         y2="-81"
         id="line4044"
         x1="0"
         y1="0"
         x2="0"
         />
      <line
         transform="rotate(-2.0351759,2544.1272,-14822.301)"
         class="line--inactive"
         y2="-81"
         id="line4046"
         x1="0"
         y1="0"
         x2="0"
         />
      <line
         transform="rotate(-1.5829146,3198.4943,-19270.769)"
         class="line--inactive"
         y2="-81"
         id="line4048"
         x1="0"
         y1="0"
         x2="0"
         />
      <line
         transform="rotate(-1.1306533,4374.0892,-27277.75)"
         class="line--inactive"
         y2="-81"
         id="line4050"
         x1="0"
         y1="0"
         x2="0"
         />
      <line
         transform="rotate(-0.67839196,7113.3678,-45960.259)"
         class="line--inactive"
         y2="-81"
         id="line4052"
         x1="0"
         y1="0"
         x2="0"
         />
      <line
         transform="rotate(-0.22613065,20798.432,-139371.41)"
         class="line--inactive"
         y2="-81"
         id="line4054"
         x1="0"
         y1="0"
         x2="0"
         />
      <line
         transform="rotate(0.22613065,-20245.432,140860.61)"
         class="line--inactive"
         y2="-81"
         id="line4056"
         x1="0"
         y1="0"
         x2="0"
         />
      <line
         transform="rotate(0.67839196,-6560.3678,47449.445)"
         class="line--inactive"
         y2="-81"
         id="line4058"
         x1="0"
         y1="0"
         x2="0"
         />
      <line
         transform="rotate(1.1306533,-3821.0892,28766.908)"
         class="line--inactive"
         y2="-81"
         id="line4060"
         x1="0"
         y1="0"
         x2="0"
         />
      <line
         transform="rotate(1.5829146,-2645.4943,20759.882)"
         class="line--inactive"
         y2="-81"
         id="line4062"
         x1="0"
         y1="0"
         x2="0"
         />
      <line
         transform="rotate(2.0351759,-1991.1272,16311.356)"
         class="line--inactive"
         y2="-81"
         id="line4064"
         x1="0"
         y1="0"
         x2="0"
         />
      <line
         transform="rotate(2.4874372,-1573.682,13480.326)"
         class="line--inactive"
         y2="-81"
         id="line4066"
         x1="0"
         y1="0"
         x2="0"
         />
      <line
         transform="rotate(2.9396985,-1283.8099,11520.251)"
         class="line--inactive"
         y2="-81"
         id="line4068"
         x1="0"
         y1="0"
         x2="0"
         />
      <line
         transform="rotate(3.3919598,-1070.4819,10082.747)"
         class="line--inactive"
         y2="-81"
         id="line4070"
         x1="0"
         y1="0"
         x2="0"
         />
      <line
         transform="rotate(3.8442211,-906.68225,8983.3741)"
         class="line--inactive"
         y2="-81"
         id="line4072"
         x1="0"
         y1="0"
         x2="0"
         />
      <line
         transform="rotate(4.2964824,-776.77051,8115.3519)"
         class="line--inactive"
         y2="-81"
         id="line4074"
         x1="0"
         y1="0"
         x2="0"
         />
      <line
         transform="rotate(4.7487437,-671.06439,7412.5781)"
         class="line--inactive"
         y2="-81"
         id="line4076"
         x1="0"
         y1="0"
         x2="0"
         />
      <line
         transform="rotate(5.201005,-583.24939,6831.9425)"
         class="line--inactive"
         y2="-81"
         id="line4078"
         x1="0"
         y1="0"
         x2="0"
         />
      <line
         transform="rotate(5.6532663,-509.03163,6344.1301)"
         class="line--inactive"
         y2="-81"
         id="line4080"
         x1="0"
         y1="0"
         x2="0"
         />
      <line
         transform="rotate(6.1055276,-445.38951,5928.512)"
         class="line--inactive"
         y2="-81"
         id="line4082"
         x1="0"
         y1="0"
         x2="0"
         />
      <line
         transform="rotate(6.5577889,-390.13495,5570.1499)"
         class="line--inactive"
         y2="-81"
         id="line4084"
         x1="0"
         y1="0"
         x2="0"
         />
      <line
         transform="rotate(7.0100503,-341.64457,5257.9605)"
         class="line--inactive"
         y2="-81"
         id="line4086"
         x1="0"
         y1="0"
         x2="0"
         />
      <line
         transform="rotate(7.4623116,-298.6885,4983.5474)"
         class="line--inactive"
         y2="-81"
         id="line4088"
         x1="0"
         y1="0"
         x2="0"
         />
      <line
         transform="rotate(7.9145729,-260.31801,4740.4335)"
         class="line--inactive"
         y2="-81"
         id="line4090"
         x1="0"
         y1="0"
         x2="0"
         />
      <line
         transform="rotate(8.3668342,-225.78949,4523.542)"
         class="line--inactive"
         y2="-81"
         id="line4092"
         x1="0"
         y1="0"
         x2="0"
         />
      <line
         transform="rotate(8.8190955,-194.51187,4328.8376)"
         class="line--inactive"
         y2="-81"
         id="line4094"
         x1="0"
         y1="0"
         x2="0"
         />
      <line
         transform="rotate(9.2713568,-166.0094,4153.0723)"
         class="line--inactive"
         y2="-81"
         id="line4096"
         x1="0"
         y1="0"
         x2="0"
         />
      <line
         transform="rotate(9.7236181,-139.89485,3993.6023)"
         class="line--inactive"
         y2="-81"
         id="line4098"
         x1="0"
         y1="0"
         x2="0"
         />
      <line
         transform="rotate(10.175879,-115.84983,3848.2541)"
         class="line--inactive"
         y2="-81"
         id="line4100"
         x1="0"
         y1="0"
         x2="0"
         />
      <line
         transform="rotate(10.628141,-93.610146,3715.2238)"
         class="line--inactive"
         y2="-81"
         id="line4102"
         x1="0"
         y1="0"
         x2="0"
         />
      <line
         transform="rotate(11.080402,-72.954733,3593.0022)"
         class="line--inactive"
         y2="-81"
         id="line4104"
         x1="0"
         y1="0"
         x2="0"
         />
      <line
         transform="rotate(11.532663,-53.697205,3480.3169)"
         class="line--inactive"
         y2="-81"
         id="line4106"
         x1="0"
         y1="0"
         x2="0"
         />
      <line
         transform="rotate(11.984925,-35.67931,3376.0874)"
         class="line--inactive"
         y2="-81"
         id="line4108"
         x1="0"
         y1="0"
         x2="0"
         />
      <line
         transform="rotate(12.437186,-18.765814,3279.3905)"
         class="line--inactive"
         y2="-81"
         id="line4110"
         x1="0"
         y1="0"
         x2="0"
         />
      <line
         transform="rotate(12.889447,-2.8404637,3189.4325)"
         class="line--inactive"
         y2="-81"
         id="line4112"
         x1="0"
         y1="0"
         x2="0"
         />
      <line
         transform="rotate(13.341709,12.197233,3105.5273)"
         class="line--inactive"
         y2="-81"
         id="line4114"
         x1="0"
         y1="0"
         x2="0"
         />
      <line
         transform="rotate(13.79397,26.434586,3027.0788)"
         class="line--inactive"
         y2="-81"
         id="line4116"
         x1="0"
         y1="0"
         x2="0"
         />
      <line
         transform="rotate(14.246231,39.94782,2953.5666)"
         class="line--inactive"
         y2="-81"
         id="line4118"
         x1="0"
         y1="0"
         x2="0"
         />
      <line
         transform="rotate(14.698492,52.803779,2884.5344)"
         class="line--inactive"
         y2="-81"
         id="line4120"
         x1="0"
         y1="0"
         x2="0"
         />
      <line
         transform="rotate(15.150754,65.061324,2819.5803)"
         class="line--inactive"
         y2="-81"
         id="line4122"
         x1="0"
         y1="0"
         x2="0"
         />
      <line
         transform="rotate(15.603015,76.772493,2758.349)"
         class="line--inactive"
         y2="-81"
         id="line4124"
         x1="0"
         y1="0"
         x2="0"
         />
      <line
         transform="rotate(16.055276,87.983459,2700.5254)"
         class="line--inactive"
         y2="-81"
         id="line4126"
         x1="0"
         y1="0"
         x2="0"
         />
      <line
         transform="rotate(16.507538,98.735336,2645.8286)"
         class="line--inactive"
         y2="-81"
         id="line4128"
         x1="0"
         y1="0"
         x2="0"
         />
      <line
         transform="rotate(16.959799,109.06485,2594.008)"
         class="line--inactive"
         y2="-81"
         id="line4130"
         x1="0"
         y1="0"
         x2="0"
         />
      <line
         transform="rotate(17.41206,119.00492,2544.8388)"
         class="line--inactive"
         y2="-81"
         id="line4132"
         x1="0"
         y1="0"
         x2="0"
         />
      <line
         transform="rotate(17.864322,128.58512,2498.1191)"
         class="line--inactive"
         y2="-81"
         id="line4134"
         x1="0"
         y1="0"
         x2="0"
         />
      <line
         transform="rotate(18.316583,137.83211,2453.667)"
         class="line--inactive"
         y2="-81"
         id="line4136"
         x1="0"
         y1="0"
         x2="0"
         />
      <line
         transform="rotate(18.768844,146.76998,2411.3178)"
         class="line--inactive"
         y2="-81"
         id="line4138"
         x1="0"
         y1="0"
         x2="0"
         />
      <line
         transform="rotate(19.221106,155.42055,2370.9227)"
         class="line--inactive"
         y2="-81"
         id="line4140"
         x1="0"
         y1="0"
         x2="0"
         />
      <line
         transform="rotate(19.673367,163.80364,2332.3464)"
         class="line--inactive"
         y2="-81"
         id="line4142"
         x1="0"
         y1="0"
         x2="0"
         />
      <line
         transform="rotate(20.125628,171.93727,2295.4657)"
         class="line--inactive"
         y2="-81"
         id="line4144"
         x1="0"
         y1="0"
         x2="0"
         />
      <line
         transform="rotate(20.577889,179.8379,2260.1684)"
         class="line--inactive"
         y2="-81"
         id="line4146"
         x1="0"
         y1="0"
         x2="0"
         />
      <line
         transform="rotate(21.030151,187.52057,2226.3518)"
         class="line--inactive"
         y2="-81"
         id="line4148"
         x1="0"
         y1="0"
         x2="0"
         />
      <line
         transform="rotate(21.482412,194.99903,2193.9218)"
         class="line--inactive"
         y2="-81"
         id="line4150"
         x1="0"
         y1="0"
         x2="0"
         />
      <line
         transform="rotate(21.934673,202.28592,2162.7923)"
         class="line--inactive"
         y2="-81"
         id="line4152"
         x1="0"
         y1="0"
         x2="0"
         />
      <line
         transform="rotate(22.386935,209.39286,2132.884)"
         class="line--inactive"
         y2="-81"
         id="line4154"
         x1="0"
         y1="0"
         x2="0"
         />
      <line
         transform="rotate(22.839196,216.33054,2104.1239)"
         class="line--inactive"
         y2="-81"
         id="line4156"
         x1="0"
         y1="0"
         x2="0"
         />
      <line
         transform="rotate(23.291457,223.1088,2076.4446)"
         class="line--inactive"
         y2="-81"
         id="line4158"
         x1="0"
         y1="0"
         x2="0"
         />
      <line
         transform="rotate(23.743719,229.73678,2049.7839)"
         class="line--inactive"
         y2="-81"
         id="line4160"
         x1="0"
         y1="0"
         x2="0"
         />
      <line
         transform="rotate(24.19598,236.22289,2024.0844)"
         class="line--inactive"
         y2="-81"
         id="line4162"
         x1="0"
         y1="0"
         x2="0"
         />
      <line
         transform="rotate(24.648241,242.57495,1999.2926)"
         class="line--inactive"
         y2="-81"
         id="line4164"
         x1="0"
         y1="0"
         x2="0"
         />
      <line
         transform="rotate(25.100503,248.8002,1975.3591)"
         class="line--inactive"
         y2="-81"
         id="line4166"
         x1="0"
         y1="0"
         x2="0"
         />
      <line
         transform="rotate(25.552764,254.90538,1952.2378)"
         class="line--inactive"
         y2="-81"
         id="line4168"
         x1="0"
         y1="0"
         x2="0"
         />
      <line
         transform="rotate(26.005025,260.89675,1929.8861)"
         class="line--inactive"
         y2="-81"
         id="line4170"
         x1="0"
         y1="0"
         x2="0"
         />
      <line
         transform="rotate(26.457286,266.78015,1908.2641)"
         class="line--inactive"
         y2="-81"
         id="line4172"
         x1="0"
         y1="0"
         x2="0"
         />
      <line
         transform="rotate(26.909548,272.56103,1887.3345)"
         class="line--inactive"
         y2="-81"
         id="line4174"
         x1="0"
         y1="0"
         x2="0"
         />
      <line
         transform="rotate(27.361809,278.24447,1867.0627)"
         class="line--inactive"
         y2="-81"
         id="line4176"
         x1="0"
         y1="0"
         x2="0"
         />
      <line
         transform="rotate(27.81407,283.83523,1847.4162)"
         class="line--inactive"
         y2="-81"
         id="line4178"
         x1="0"
         y1="0"
         x2="0"
         />
      <line
         transform="rotate(28.266332,289.33775,1828.3646)"
         class="line--inactive"
         y2="-81"
         id="line4180"
         x1="0"
         y1="0"
         x2="0"
         />
      <line
         transform="rotate(28.718593,294.75621,1809.8794)"
         class="line--inactive"
         y2="-81"
         id="line4182"
         x1="0"
         y1="0"
         x2="0"
         />
      <line
         transform="rotate(29.170854,300.09452,1791.9339)"
         class="line--inactive"
         y2="-81"
         id="line4184"
         x1="0"
         y1="0"
         x2="0"
         />
      <line
         transform="rotate(29.623116,305.35635,1774.503)"
         class="line--inactive"
         y2="-81"
         id="line4186"
         x1="0"
         y1="0"
         x2="0"
         />
      <line
         transform="rotate(30.075377,310.54514,1757.5633)"
         class="line--inactive"
         y2="-81"
         id="line4188"
         x1="0"
         y1="0"
         x2="0"
         />
      <line
         transform="rotate(30.527638,315.66416,1741.0924)"
         class="line--inactive"
         y2="-81"
         id="line4190"
         x1="0"
         y1="0"
         x2="0"
         />
      <line
         transform="rotate(30.979899,320.71645,1725.0695)"
         class="line--inactive"
         y2="-81"
         id="line4192"
         x1="0"
         y1="0"
         x2="0"
         />
      <line
         transform="rotate(31.432161,325.7049,1709.475)"
         class="line--inactive"
         y2="-81"
         id="line4194"
         x1="0"
         y1="0"
         x2="0"
         />
      <line
         transform="rotate(31.884422,330.63223,1694.2902)"
         class="line--inactive"
         y2="-81"
         id="line4196"
         x1="0"
         y1="0"
         x2="0"
         />
      <line
         transform="rotate(32.336683,335.50099,1679.4977)"
         class="line--inactive"
         y2="-81"
         id="line4198"
         x1="0"
         y1="0"
         x2="0"
         />
      <line
         transform="rotate(32.788945,340.31362,1665.0809)"
         class="line--inactive"
         y2="-81"
         id="line4200"
         x1="0"
         y1="0"
         x2="0"
         />
      <line
         transform="rotate(33.241206,345.07241,1651.0241)"
         class="line--inactive"
         y2="-81"
         id="line4202"
         x1="0"
         y1="0"
         x2="0"
         />
      <line
         transform="rotate(33.693467,349.77953,1637.3125)"
         class="line--inactive"
         y2="-81"
         id="line4204"
         x1="0"
         y1="0"
         x2="0"
         />
      <line
         transform="rotate(34.145729,354.43703,1623.9321)"
         class="line--inactive"
         y2="-81"
         id="line4206"
         x1="0"
         y1="0"
         x2="0"
         />
      <line
         transform="rotate(34.59799,359.04686,1610.8695)"
         class="line--inactive"
         y2="-81"
         id="line4208"
         x1="0"
         y1="0"
         x2="0"
         />
      <line
         transform="rotate(35.050251,363.61087,1598.1123)"
         class="line--inactive"
         y2="-81"
         id="line4210"
         x1="0"
         y1="0"
         x2="0"
         />
      <line
         transform="rotate(35.502513,368.13081,1585.6483)"
         class="line--inactive"
         y2="-81"
         id="line4212"
         x1="0"
         y1="0"
         x2="0"
         />
      <line
         transform="rotate(35.954774,372.60833,1573.4662)"
         class="line--inactive"
         y2="-81"
         id="line4214"
         x1="0"
         y1="0"
         x2="0"
         />
      <line
         transform="rotate(36.407035,377.04504,1561.5553)"
         class="line--inactive"
         y2="-81"
         id="line4216"
         x1="0"
         y1="0"
         x2="0"
         />
      <line
         transform="rotate(36.859296,381.44242,1549.9051)"
         class="line--inactive"
         y2="-81"
         id="line4218"
         x1="0"
         y1="0"
         x2="0"
         />
      <line
         transform="rotate(37.311558,385.80191,1538.5061)"
         class="line--inactive"
         y2="-81"
         id="line4220"
         x1="0"
         y1="0"
         x2="0"
         />
      <line
         transform="rotate(37.763819,390.12488,1527.3488)"
         class="line--inactive"
         y2="-81"
         id="line4222"
         x1="0"
         y1="0"
         x2="0"
         />
      <line
         transform="rotate(38.21608,394.41262,1516.4243)"
         class="line--inactive"
         y2="-81"
         id="line4224"
         x1="0"
         y1="0"
         x2="0"
         />
      <line
         transform="rotate(38.668342,398.66637,1505.7243)"
         class="line--inactive"
         y2="-81"
         id="line4226"
         x1="0"
         y1="0"
         x2="0"
         />
      <line
         transform="rotate(39.120603,402.8873,1495.2406)"
         class="line--inactive"
         y2="-81"
         id="line4228"
         x1="0"
         y1="0"
         x2="0"
         />
      <line
         transform="rotate(39.572864,407.07655,1484.9656)"
         class="line--inactive"
         y2="-81"
         id="line4230"
         x1="0"
         y1="0"
         x2="0"
         />
      <line
         transform="rotate(40.025126,411.23519,1474.8919)"
         class="line--inactive"
         y2="-81"
         id="line4232"
         x1="0"
         y1="0"
         x2="0"
         />
      <line
         transform="rotate(40.477387,415.36425,1465.0125)"
         class="line--inactive"
         y2="-81"
         id="line4234"
         x1="0"
         y1="0"
         x2="0"
         />
      <line
         transform="rotate(40.929648,419.46471,1455.3206)"
         class="line--inactive"
         y2="-81"
         id="line4236"
         x1="0"
         y1="0"
         x2="0"
         />
      <line
         transform="rotate(41.38191,423.53751,1445.8099)"
         class="line--inactive"
         y2="-81"
         id="line4238"
         x1="0"
         y1="0"
         x2="0"
         />
      <line
         transform="rotate(41.834171,427.58355,1436.4742)"
         class="line--inactive"
         y2="-81"
         id="line4240"
         x1="0"
         y1="0"
         x2="0"
         />
      <line
         transform="rotate(42.286432,431.60368,1427.3076)"
         class="line--inactive"
         y2="-81"
         id="line4242"
         x1="0"
         y1="0"
         x2="0"
         />
      <line
         transform="rotate(42.738693,435.59874,1418.3045)"
         class="line--inactive"
         y2="-81"
         id="line4244"
         x1="0"
         y1="0"
         x2="0"
         />
      <line
         transform="rotate(43.190955,439.5695,1409.4595)"
         class="line--inactive"
         y2="-81"
         id="line4246"
         x1="0"
         y1="0"
         x2="0"
         />
      <line
         transform="rotate(43.643216,443.51674,1400.7674)"
         class="line--inactive"
         y2="-81"
         id="line4248"
         x1="0"
         y1="0"
         x2="0"
         />
      <line
         transform="rotate(44.095477,447.44116,1392.2233)"
         class="line--inactive"
         y2="-81"
         id="line4250"
         x1="0"
         y1="0"
         x2="0"
         />
      <line
         transform="rotate(44.547739,451.34348,1383.8224)"
         class="line--inactive"
         y2="-81"
         id="line4252"
         x1="0"
         y1="0"
         x2="0"
         />
      <line
         transform="rotate(45,455.22435,1375.5601)"
         class="line--inactive"
         y2="-81"
         id="line4254"
         x1="0"
         y1="0"
         x2="0"
         />
    </g>
  </g>
</svg>
