<svg xmlns="http://www.w3.org/2000/svg" xmlns:svg="http://www.w3.org/2000/svg" id="svg4260" width="1922.981" height="83.26" version="1.1"><metadata id="metadata4266"/><style id="style1677">@import url(https://fonts.googleapis.com/css?family=Lato);svg{float:left}.line,.line--inactive{stroke:#000;stroke-linecap:round}</style><g id="g4258" transform="matrix(1.5716003,0,0,0.99069193,92.395638,1.5065793)"><g id="g4256" stroke="#000" stroke-linecap="round" class="line"><line id="line3856" x1="0" x2="0" y1="0" y2="-81" class="line--inactive" transform="rotate(-45,97.775649,40.5)"/><line id="line3858" x1="0" x2="0" y1="0" y2="-81" class="line--inactive" transform="rotate(-44.547739,101.65652,33.715543)"/><line id="line3860" x1="0" x2="0" y1="0" y2="-81" class="line--inactive" transform="rotate(-44.095477,105.55884,26.776921)"/><line id="line3862" x1="0" x2="0" y1="0" y2="-81" class="line--inactive" transform="rotate(-43.643216,109.48326,19.67958)"/><line id="line3864" x1="0" x2="0" y1="0" y2="-81" class="line--inactive" transform="rotate(-43.190955,113.4305,12.418779)"/><line id="line3866" x1="0" x2="0" y1="0" y2="-81" class="line--inactive" transform="rotate(-42.738693,117.40126,4.9895744)"/><line id="line3868" x1="0" x2="0" y1="0" y2="-81" class="line--inactive" transform="rotate(-42.286432,121.39632,-2.6131899)"/><line id="line3870" x1="0" x2="0" y1="0" y2="-81" class="line--inactive" transform="rotate(-41.834171,125.41645,-10.394892)"/><line id="line3872" x1="0" x2="0" y1="0" y2="-81" class="line--inactive" transform="rotate(-41.38191,129.46249,-18.361148)"/><line id="line3874" x1="0" x2="0" y1="0" y2="-81" class="line--inactive" transform="rotate(-40.929648,133.53529,-26.517819)"/><line id="line3876" x1="0" x2="0" y1="0" y2="-81" class="line--inactive" transform="rotate(-40.477387,137.63575,-34.871031)"/><line id="line3878" x1="0" x2="0" y1="0" y2="-81" class="line--inactive" transform="rotate(-40.025126,141.76481,-43.427186)"/><line id="line3880" x1="0" x2="0" y1="0" y2="-81" class="line--inactive" transform="rotate(-39.572864,145.92345,-52.192981)"/><line id="line3882" x1="0" x2="0" y1="0" y2="-81" class="line--inactive" transform="rotate(-39.120603,150.1127,-61.175421)"/><line id="line3884" x1="0" x2="0" y1="0" y2="-81" class="line--inactive" transform="rotate(-38.668342,154.33363,-70.38184)"/><line id="line3886" x1="0" x2="0" y1="0" y2="-81" class="line--inactive" transform="rotate(-38.21608,158.58738,-79.819918)"/><line id="line3888" x1="0" x2="0" y1="0" y2="-81" class="line--inactive" transform="rotate(-37.763819,162.87512,-89.497707)"/><line id="line3890" x1="0" x2="0" y1="0" y2="-81" class="line--inactive" transform="rotate(-37.311558,167.19809,-99.423645)"/><line id="line3892" x1="0" x2="0" y1="0" y2="-81" class="line--inactive" transform="rotate(-36.859296,171.55758,-109.60659)"/><line id="line3894" x1="0" x2="0" y1="0" y2="-81" class="line--inactive" transform="rotate(-36.407035,175.95496,-120.05583)"/><line id="line3896" x1="0" x2="0" y1="0" y2="-81" class="line--inactive" transform="rotate(-35.954774,180.39167,-130.78114)"/><line id="line3898" x1="0" x2="0" y1="0" y2="-81" class="line--inactive" transform="rotate(-35.502513,184.86919,-141.79278)"/><line id="line3900" x1="0" x2="0" y1="0" y2="-81" class="line--inactive" transform="rotate(-35.050251,189.38913,-153.10152)"/><line id="line3902" x1="0" x2="0" y1="0" y2="-81" class="line--inactive" transform="rotate(-34.59799,193.95314,-164.71875)"/><line id="line3904" x1="0" x2="0" y1="0" y2="-81" class="line--inactive" transform="rotate(-34.145729,198.56297,-176.6564)"/><line id="line3906" x1="0" x2="0" y1="0" y2="-81" class="line--inactive" transform="rotate(-33.693467,203.22047,-188.92708)"/><line id="line3908" x1="0" x2="0" y1="0" y2="-81" class="line--inactive" transform="rotate(-33.241206,207.92759,-201.54408)"/><line id="line3910" x1="0" x2="0" y1="0" y2="-81" class="line--inactive" transform="rotate(-32.788945,212.68638,-214.52142)"/><line id="line3912" x1="0" x2="0" y1="0" y2="-81" class="line--inactive" transform="rotate(-32.336683,217.49901,-227.87389)"/><line id="line3914" x1="0" x2="0" y1="0" y2="-81" class="line--inactive" transform="rotate(-31.884422,222.36777,-241.61715)"/><line id="line3916" x1="0" x2="0" y1="0" y2="-81" class="line--inactive" transform="rotate(-31.432161,227.2951,-255.76775)"/><line id="line3918" x1="0" x2="0" y1="0" y2="-81" class="line--inactive" transform="rotate(-30.979899,232.28355,-270.34318)"/><line id="line3920" x1="0" x2="0" y1="0" y2="-81" class="line--inactive" transform="rotate(-30.527638,237.33584,-285.36201)"/><line id="line3922" x1="0" x2="0" y1="0" y2="-81" class="line--inactive" transform="rotate(-30.075377,242.45486,-300.8439)"/><line id="line3924" x1="0" x2="0" y1="0" y2="-81" class="line--inactive" transform="rotate(-29.623116,247.64365,-316.80972)"/><line id="line3926" x1="0" x2="0" y1="0" y2="-81" class="line--inactive" transform="rotate(-29.170854,252.90548,-333.28162)"/><line id="line3928" x1="0" x2="0" y1="0" y2="-81" class="line--inactive" transform="rotate(-28.718593,258.24379,-350.28317)"/><line id="line3930" x1="0" x2="0" y1="0" y2="-81" class="line--inactive" transform="rotate(-28.266332,263.66225,-367.83944)"/><line id="line3932" x1="0" x2="0" y1="0" y2="-81" class="line--inactive" transform="rotate(-27.81407,269.16477,-385.97711)"/><line id="line3934" x1="0" x2="0" y1="0" y2="-81" class="line--inactive" transform="rotate(-27.361809,274.75553,-404.72466)"/><line id="line3936" x1="0" x2="0" y1="0" y2="-81" class="line--inactive" transform="rotate(-26.909548,280.43897,-424.11246)"/><line id="line3938" x1="0" x2="0" y1="0" y2="-81" class="line--inactive" transform="rotate(-26.457286,286.21985,-444.17296)"/><line id="line3940" x1="0" x2="0" y1="0" y2="-81" class="line--inactive" transform="rotate(-26.005025,292.10325,-464.94088)"/><line id="line3942" x1="0" x2="0" y1="0" y2="-81" class="line--inactive" transform="rotate(-25.552764,298.09462,-486.45338)"/><line id="line3944" x1="0" x2="0" y1="0" y2="-81" class="line--inactive" transform="rotate(-25.100503,304.1998,-508.75031)"/><line id="line3946" x1="0" x2="0" y1="0" y2="-81" class="line--inactive" transform="rotate(-24.648241,310.42505,-531.87445)"/><line id="line3948" x1="0" x2="0" y1="0" y2="-81" class="line--inactive" transform="rotate(-24.19598,316.77711,-555.87177)"/><line id="line3950" x1="0" x2="0" y1="0" y2="-81" class="line--inactive" transform="rotate(-23.743719,323.26322,-580.79174)"/><line id="line3952" x1="0" x2="0" y1="0" y2="-81" class="line--inactive" transform="rotate(-23.291457,329.8912,-606.68768)"/><line id="line3954" x1="0" x2="0" y1="0" y2="-81" class="line--inactive" transform="rotate(-22.839196,336.66946,-633.61713)"/><line id="line3956" x1="0" x2="0" y1="0" y2="-81" class="line--inactive" transform="rotate(-22.386935,343.60714,-661.64228)"/><line id="line3958" x1="0" x2="0" y1="0" y2="-81" class="line--inactive" transform="rotate(-21.934673,350.71408,-690.83046)"/><line id="line3960" x1="0" x2="0" y1="0" y2="-81" class="line--inactive" transform="rotate(-21.482412,358.00097,-721.25466)"/><line id="line3962" x1="0" x2="0" y1="0" y2="-81" class="line--inactive" transform="rotate(-21.030151,365.47943,-752.99413)"/><line id="line3964" x1="0" x2="0" y1="0" y2="-81" class="line--inactive" transform="rotate(-20.577889,373.1621,-786.13513)"/><line id="line3966" x1="0" x2="0" y1="0" y2="-81" class="line--inactive" transform="rotate(-20.125628,381.06273,-820.77164)"/><line id="line3968" x1="0" x2="0" y1="0" y2="-81" class="line--inactive" transform="rotate(-19.673367,389.19636,-857.00629)"/><line id="line3970" x1="0" x2="0" y1="0" y2="-81" class="line--inactive" transform="rotate(-19.221106,397.57945,-894.95138)"/><line id="line3972" x1="0" x2="0" y1="0" y2="-81" class="line--inactive" transform="rotate(-18.768844,406.23002,-934.73003)"/><line id="line3974" x1="0" x2="0" y1="0" y2="-81" class="line--inactive" transform="rotate(-18.316583,415.16789,-976.47751)"/><line id="line3976" x1="0" x2="0" y1="0" y2="-81" class="line--inactive" transform="rotate(-17.864322,424.41488,-1020.3428)"/><line id="line3978" x1="0" x2="0" y1="0" y2="-81" class="line--inactive" transform="rotate(-17.41206,433.99508,-1066.4903)"/><line id="line3980" x1="0" x2="0" y1="0" y2="-81" class="line--inactive" transform="rotate(-16.959799,443.93515,-1115.1022)"/><line id="line3982" x1="0" x2="0" y1="0" y2="-81" class="line--inactive" transform="rotate(-16.507538,454.26466,-1166.3802)"/><line id="line3984" x1="0" x2="0" y1="0" y2="-81" class="line--inactive" transform="rotate(-16.055276,465.01654,-1220.5491)"/><line id="line3986" x1="0" x2="0" y1="0" y2="-81" class="line--inactive" transform="rotate(-15.603015,476.22751,-1277.8596)"/><line id="line3988" x1="0" x2="0" y1="0" y2="-81" class="line--inactive" transform="rotate(-15.150754,487.93868,-1338.5925)"/><line id="line3990" x1="0" x2="0" y1="0" y2="-81" class="line--inactive" transform="rotate(-14.698492,500.19622,-1403.0629)"/><line id="line3992" x1="0" x2="0" y1="0" y2="-81" class="line--inactive" transform="rotate(-14.246231,513.05218,-1471.6262)"/><line id="line3994" x1="0" x2="0" y1="0" y2="-81" class="line--inactive" transform="rotate(-13.79397,526.56541,-1544.6841)"/><line id="line3996" x1="0" x2="0" y1="0" y2="-81" class="line--inactive" transform="rotate(-13.341709,540.80277,-1622.6931)"/><line id="line3998" x1="0" x2="0" y1="0" y2="-81" class="line--inactive" transform="rotate(-12.889447,555.84046,-1706.1735)"/><line id="line4000" x1="0" x2="0" y1="0" y2="-81" class="line--inactive" transform="rotate(-12.437186,571.76581,-1795.7214)"/><line id="line4002" x1="0" x2="0" y1="0" y2="-81" class="line--inactive" transform="rotate(-11.984925,588.67931,-1892.0229)"/><line id="line4004" x1="0" x2="0" y1="0" y2="-81" class="line--inactive" transform="rotate(-11.532663,606.69721,-1995.8716)"/><line id="line4006" x1="0" x2="0" y1="0" y2="-81" class="line--inactive" transform="rotate(-11.080402,625.95473,-2108.1909)"/><line id="line4008" x1="0" x2="0" y1="0" y2="-81" class="line--inactive" transform="rotate(-10.628141,646.61015,-2230.061)"/><line id="line4010" x1="0" x2="0" y1="0" y2="-81" class="line--inactive" transform="rotate(-10.175879,668.84983,-2362.7546)"/><line id="line4012" x1="0" x2="0" y1="0" y2="-81" class="line--inactive" transform="rotate(-9.7236181,692.89485,-2507.7808)"/><line id="line4014" x1="0" x2="0" y1="0" y2="-81" class="line--inactive" transform="rotate(-9.2713568,719.0094,-2666.9434)"/><line id="line4016" x1="0" x2="0" y1="0" y2="-81" class="line--inactive" transform="rotate(-8.8190955,747.51187,-2842.416)"/><line id="line4018" x1="0" x2="0" y1="0" y2="-81" class="line--inactive" transform="rotate(-8.3668342,778.78949,-3036.8424)"/><line id="line4020" x1="0" x2="0" y1="0" y2="-81" class="line--inactive" transform="rotate(-7.9145729,813.31801,-3253.4705)"/><line id="line4022" x1="0" x2="0" y1="0" y2="-81" class="line--inactive" transform="rotate(-7.4623116,851.6885,-3496.3357)"/><line id="line4024" x1="0" x2="0" y1="0" y2="-81" class="line--inactive" transform="rotate(-7.0100503,894.64457,-3770.5146)"/><line id="line4026" x1="0" x2="0" y1="0" y2="-81" class="line--inactive" transform="rotate(-6.5577889,943.13495,-4082.4846)"/><line id="line4028" x1="0" x2="0" y1="0" y2="-81" class="line--inactive" transform="rotate(-6.1055276,998.38951,-4440.6419)"/><line id="line4030" x1="0" x2="0" y1="0" y2="-81" class="line--inactive" transform="rotate(-5.6532663,1062.0316,-4856.0698)"/><line id="line4032" x1="0" x2="0" y1="0" y2="-81" class="line--inactive" transform="rotate(-5.201005,1136.2494,-5343.7067)"/><line id="line4034" x1="0" x2="0" y1="0" y2="-81" class="line--inactive" transform="rotate(-4.7487437,1224.0644,-5924.1814)"/><line id="line4036" x1="0" x2="0" y1="0" y2="-81" class="line--inactive" transform="rotate(-4.2964824,1329.7705,-6626.8089)"/><line id="line4038" x1="0" x2="0" y1="0" y2="-81" class="line--inactive" transform="rotate(-3.8442211,1459.6823,-7494.6995)"/><line id="line4040" x1="0" x2="0" y1="0" y2="-81" class="line--inactive" transform="rotate(-3.3919598,1623.4819,-8593.9553)"/><line id="line4042" x1="0" x2="0" y1="0" y2="-81" class="line--inactive" transform="rotate(-2.9396985,1836.8099,-10031.357)"/><line id="line4044" x1="0" x2="0" y1="0" y2="-81" class="line--inactive" transform="rotate(-2.4874372,2126.682,-11991.344)"/><line id="line4046" x1="0" x2="0" y1="0" y2="-81" class="line--inactive" transform="rotate(-2.0351759,2544.1272,-14822.301)"/><line id="line4048" x1="0" x2="0" y1="0" y2="-81" class="line--inactive" transform="rotate(-1.5829146,3198.4943,-19270.769)"/><line id="line4050" x1="0" x2="0" y1="0" y2="-81" class="line--inactive" transform="rotate(-1.1306533,4374.0892,-27277.75)"/><line id="line4052" x1="0" x2="0" y1="0" y2="-81" class="line--inactive" transform="rotate(-0.67839196,7113.3678,-45960.259)"/><line id="line4054" x1="0" x2="0" y1="0" y2="-81" class="line--inactive" transform="rotate(-0.22613065,20798.432,-139371.41)"/><line id="line4056" x1="0" x2="0" y1="0" y2="-81" class="line--inactive" transform="rotate(0.22613065,-20245.432,140860.61)"/><line id="line4058" x1="0" x2="0" y1="0" y2="-81" class="line--inactive" transform="rotate(0.67839196,-6560.3678,47449.445)"/><line id="line4060" x1="0" x2="0" y1="0" y2="-81" class="line--inactive" transform="rotate(1.1306533,-3821.0892,28766.908)"/><line id="line4062" x1="0" x2="0" y1="0" y2="-81" class="line--inactive" transform="rotate(1.5829146,-2645.4943,20759.882)"/><line id="line4064" x1="0" x2="0" y1="0" y2="-81" class="line--inactive" transform="rotate(2.0351759,-1991.1272,16311.356)"/><line id="line4066" x1="0" x2="0" y1="0" y2="-81" class="line--inactive" transform="rotate(2.4874372,-1573.682,13480.326)"/><line id="line4068" x1="0" x2="0" y1="0" y2="-81" class="line--inactive" transform="rotate(2.9396985,-1283.8099,11520.251)"/><line id="line4070" x1="0" x2="0" y1="0" y2="-81" class="line--inactive" transform="rotate(3.3919598,-1070.4819,10082.747)"/><line id="line4072" x1="0" x2="0" y1="0" y2="-81" class="line--inactive" transform="rotate(3.8442211,-906.68225,8983.3741)"/><line id="line4074" x1="0" x2="0" y1="0" y2="-81" class="line--inactive" transform="rotate(4.2964824,-776.77051,8115.3519)"/><line id="line4076" x1="0" x2="0" y1="0" y2="-81" class="line--inactive" transform="rotate(4.7487437,-671.06439,7412.5781)"/><line id="line4078" x1="0" x2="0" y1="0" y2="-81" class="line--inactive" transform="rotate(5.201005,-583.24939,6831.9425)"/><line id="line4080" x1="0" x2="0" y1="0" y2="-81" class="line--inactive" transform="rotate(5.6532663,-509.03163,6344.1301)"/><line id="line4082" x1="0" x2="0" y1="0" y2="-81" class="line--inactive" transform="rotate(6.1055276,-445.38951,5928.512)"/><line id="line4084" x1="0" x2="0" y1="0" y2="-81" class="line--inactive" transform="rotate(6.5577889,-390.13495,5570.1499)"/><line id="line4086" x1="0" x2="0" y1="0" y2="-81" class="line--inactive" transform="rotate(7.0100503,-341.64457,5257.9605)"/><line id="line4088" x1="0" x2="0" y1="0" y2="-81" class="line--inactive" transform="rotate(7.4623116,-298.6885,4983.5474)"/><line id="line4090" x1="0" x2="0" y1="0" y2="-81" class="line--inactive" transform="rotate(7.9145729,-260.31801,4740.4335)"/><line id="line4092" x1="0" x2="0" y1="0" y2="-81" class="line--inactive" transform="rotate(8.3668342,-225.78949,4523.542)"/><line id="line4094" x1="0" x2="0" y1="0" y2="-81" class="line--inactive" transform="rotate(8.8190955,-194.51187,4328.8376)"/><line id="line4096" x1="0" x2="0" y1="0" y2="-81" class="line--inactive" transform="rotate(9.2713568,-166.0094,4153.0723)"/><line id="line4098" x1="0" x2="0" y1="0" y2="-81" class="line--inactive" transform="rotate(9.7236181,-139.89485,3993.6023)"/><line id="line4100" x1="0" x2="0" y1="0" y2="-81" class="line--inactive" transform="rotate(10.175879,-115.84983,3848.2541)"/><line id="line4102" x1="0" x2="0" y1="0" y2="-81" class="line--inactive" transform="rotate(10.628141,-93.610146,3715.2238)"/><line id="line4104" x1="0" x2="0" y1="0" y2="-81" class="line--inactive" transform="rotate(11.080402,-72.954733,3593.0022)"/><line id="line4106" x1="0" x2="0" y1="0" y2="-81" class="line--inactive" transform="rotate(11.532663,-53.697205,3480.3169)"/><line id="line4108" x1="0" x2="0" y1="0" y2="-81" class="line--inactive" transform="rotate(11.984925,-35.67931,3376.0874)"/><line id="line4110" x1="0" x2="0" y1="0" y2="-81" class="line--inactive" transform="rotate(12.437186,-18.765814,3279.3905)"/><line id="line4112" x1="0" x2="0" y1="0" y2="-81" class="line--inactive" transform="rotate(12.889447,-2.8404637,3189.4325)"/><line id="line4114" x1="0" x2="0" y1="0" y2="-81" class="line--inactive" transform="rotate(13.341709,12.197233,3105.5273)"/><line id="line4116" x1="0" x2="0" y1="0" y2="-81" class="line--inactive" transform="rotate(13.79397,26.434586,3027.0788)"/><line id="line4118" x1="0" x2="0" y1="0" y2="-81" class="line--inactive" transform="rotate(14.246231,39.94782,2953.5666)"/><line id="line4120" x1="0" x2="0" y1="0" y2="-81" class="line--inactive" transform="rotate(14.698492,52.803779,2884.5344)"/><line id="line4122" x1="0" x2="0" y1="0" y2="-81" class="line--inactive" transform="rotate(15.150754,65.061324,2819.5803)"/><line id="line4124" x1="0" x2="0" y1="0" y2="-81" class="line--inactive" transform="rotate(15.603015,76.772493,2758.349)"/><line id="line4126" x1="0" x2="0" y1="0" y2="-81" class="line--inactive" transform="rotate(16.055276,87.983459,2700.5254)"/><line id="line4128" x1="0" x2="0" y1="0" y2="-81" class="line--inactive" transform="rotate(16.507538,98.735336,2645.8286)"/><line id="line4130" x1="0" x2="0" y1="0" y2="-81" class="line--inactive" transform="rotate(16.959799,109.06485,2594.008)"/><line id="line4132" x1="0" x2="0" y1="0" y2="-81" class="line--inactive" transform="rotate(17.41206,119.00492,2544.8388)"/><line id="line4134" x1="0" x2="0" y1="0" y2="-81" class="line--inactive" transform="rotate(17.864322,128.58512,2498.1191)"/><line id="line4136" x1="0" x2="0" y1="0" y2="-81" class="line--inactive" transform="rotate(18.316583,137.83211,2453.667)"/><line id="line4138" x1="0" x2="0" y1="0" y2="-81" class="line--inactive" transform="rotate(18.768844,146.76998,2411.3178)"/><line id="line4140" x1="0" x2="0" y1="0" y2="-81" class="line--inactive" transform="rotate(19.221106,155.42055,2370.9227)"/><line id="line4142" x1="0" x2="0" y1="0" y2="-81" class="line--inactive" transform="rotate(19.673367,163.80364,2332.3464)"/><line id="line4144" x1="0" x2="0" y1="0" y2="-81" class="line--inactive" transform="rotate(20.125628,171.93727,2295.4657)"/><line id="line4146" x1="0" x2="0" y1="0" y2="-81" class="line--inactive" transform="rotate(20.577889,179.8379,2260.1684)"/><line id="line4148" x1="0" x2="0" y1="0" y2="-81" class="line--inactive" transform="rotate(21.030151,187.52057,2226.3518)"/><line id="line4150" x1="0" x2="0" y1="0" y2="-81" class="line--inactive" transform="rotate(21.482412,194.99903,2193.9218)"/><line id="line4152" x1="0" x2="0" y1="0" y2="-81" class="line--inactive" transform="rotate(21.934673,202.28592,2162.7923)"/><line id="line4154" x1="0" x2="0" y1="0" y2="-81" class="line--inactive" transform="rotate(22.386935,209.39286,2132.884)"/><line id="line4156" x1="0" x2="0" y1="0" y2="-81" class="line--inactive" transform="rotate(22.839196,216.33054,2104.1239)"/><line id="line4158" x1="0" x2="0" y1="0" y2="-81" class="line--inactive" transform="rotate(23.291457,223.1088,2076.4446)"/><line id="line4160" x1="0" x2="0" y1="0" y2="-81" class="line--inactive" transform="rotate(23.743719,229.73678,2049.7839)"/><line id="line4162" x1="0" x2="0" y1="0" y2="-81" class="line--inactive" transform="rotate(24.19598,236.22289,2024.0844)"/><line id="line4164" x1="0" x2="0" y1="0" y2="-81" class="line--inactive" transform="rotate(24.648241,242.57495,1999.2926)"/><line id="line4166" x1="0" x2="0" y1="0" y2="-81" class="line--inactive" transform="rotate(25.100503,248.8002,1975.3591)"/><line id="line4168" x1="0" x2="0" y1="0" y2="-81" class="line--inactive" transform="rotate(25.552764,254.90538,1952.2378)"/><line id="line4170" x1="0" x2="0" y1="0" y2="-81" class="line--inactive" transform="rotate(26.005025,260.89675,1929.8861)"/><line id="line4172" x1="0" x2="0" y1="0" y2="-81" class="line--inactive" transform="rotate(26.457286,266.78015,1908.2641)"/><line id="line4174" x1="0" x2="0" y1="0" y2="-81" class="line--inactive" transform="rotate(26.909548,272.56103,1887.3345)"/><line id="line4176" x1="0" x2="0" y1="0" y2="-81" class="line--inactive" transform="rotate(27.361809,278.24447,1867.0627)"/><line id="line4178" x1="0" x2="0" y1="0" y2="-81" class="line--inactive" transform="rotate(27.81407,283.83523,1847.4162)"/><line id="line4180" x1="0" x2="0" y1="0" y2="-81" class="line--inactive" transform="rotate(28.266332,289.33775,1828.3646)"/><line id="line4182" x1="0" x2="0" y1="0" y2="-81" class="line--inactive" transform="rotate(28.718593,294.75621,1809.8794)"/><line id="line4184" x1="0" x2="0" y1="0" y2="-81" class="line--inactive" transform="rotate(29.170854,300.09452,1791.9339)"/><line id="line4186" x1="0" x2="0" y1="0" y2="-81" class="line--inactive" transform="rotate(29.623116,305.35635,1774.503)"/><line id="line4188" x1="0" x2="0" y1="0" y2="-81" class="line--inactive" transform="rotate(30.075377,310.54514,1757.5633)"/><line id="line4190" x1="0" x2="0" y1="0" y2="-81" class="line--inactive" transform="rotate(30.527638,315.66416,1741.0924)"/><line id="line4192" x1="0" x2="0" y1="0" y2="-81" class="line--inactive" transform="rotate(30.979899,320.71645,1725.0695)"/><line id="line4194" x1="0" x2="0" y1="0" y2="-81" class="line--inactive" transform="rotate(31.432161,325.7049,1709.475)"/><line id="line4196" x1="0" x2="0" y1="0" y2="-81" class="line--inactive" transform="rotate(31.884422,330.63223,1694.2902)"/><line id="line4198" x1="0" x2="0" y1="0" y2="-81" class="line--inactive" transform="rotate(32.336683,335.50099,1679.4977)"/><line id="line4200" x1="0" x2="0" y1="0" y2="-81" class="line--inactive" transform="rotate(32.788945,340.31362,1665.0809)"/><line id="line4202" x1="0" x2="0" y1="0" y2="-81" class="line--inactive" transform="rotate(33.241206,345.07241,1651.0241)"/><line id="line4204" x1="0" x2="0" y1="0" y2="-81" class="line--inactive" transform="rotate(33.693467,349.77953,1637.3125)"/><line id="line4206" x1="0" x2="0" y1="0" y2="-81" class="line--inactive" transform="rotate(34.145729,354.43703,1623.9321)"/><line id="line4208" x1="0" x2="0" y1="0" y2="-81" class="line--inactive" transform="rotate(34.59799,359.04686,1610.8695)"/><line id="line4210" x1="0" x2="0" y1="0" y2="-81" class="line--inactive" transform="rotate(35.050251,363.61087,1598.1123)"/><line id="line4212" x1="0" x2="0" y1="0" y2="-81" class="line--inactive" transform="rotate(35.502513,368.13081,1585.6483)"/><line id="line4214" x1="0" x2="0" y1="0" y2="-81" class="line--inactive" transform="rotate(35.954774,372.60833,1573.4662)"/><line id="line4216" x1="0" x2="0" y1="0" y2="-81" class="line--inactive" transform="rotate(36.407035,377.04504,1561.5553)"/><line id="line4218" x1="0" x2="0" y1="0" y2="-81" class="line--inactive" transform="rotate(36.859296,381.44242,1549.9051)"/><line id="line4220" x1="0" x2="0" y1="0" y2="-81" class="line--inactive" transform="rotate(37.311558,385.80191,1538.5061)"/><line id="line4222" x1="0" x2="0" y1="0" y2="-81" class="line--inactive" transform="rotate(37.763819,390.12488,1527.3488)"/><line id="line4224" x1="0" x2="0" y1="0" y2="-81" class="line--inactive" transform="rotate(38.21608,394.41262,1516.4243)"/><line id="line4226" x1="0" x2="0" y1="0" y2="-81" class="line--inactive" transform="rotate(38.668342,398.66637,1505.7243)"/><line id="line4228" x1="0" x2="0" y1="0" y2="-81" class="line--inactive" transform="rotate(39.120603,402.8873,1495.2406)"/><line id="line4230" x1="0" x2="0" y1="0" y2="-81" class="line--inactive" transform="rotate(39.572864,407.07655,1484.9656)"/><line id="line4232" x1="0" x2="0" y1="0" y2="-81" class="line--inactive" transform="rotate(40.025126,411.23519,1474.8919)"/><line id="line4234" x1="0" x2="0" y1="0" y2="-81" class="line--inactive" transform="rotate(40.477387,415.36425,1465.0125)"/><line id="line4236" x1="0" x2="0" y1="0" y2="-81" class="line--inactive" transform="rotate(40.929648,419.46471,1455.3206)"/><line id="line4238" x1="0" x2="0" y1="0" y2="-81" class="line--inactive" transform="rotate(41.38191,423.53751,1445.8099)"/><line id="line4240" x1="0" x2="0" y1="0" y2="-81" class="line--inactive" transform="rotate(41.834171,427.58355,1436.4742)"/><line id="line4242" x1="0" x2="0" y1="0" y2="-81" class="line--inactive" transform="rotate(42.286432,431.60368,1427.3076)"/><line id="line4244" x1="0" x2="0" y1="0" y2="-81" class="line--inactive" transform="rotate(42.738693,435.59874,1418.3045)"/><line id="line4246" x1="0" x2="0" y1="0" y2="-81" class="line--inactive" transform="rotate(43.190955,439.5695,1409.4595)"/><line id="line4248" x1="0" x2="0" y1="0" y2="-81" class="line--inactive" transform="rotate(43.643216,443.51674,1400.7674)"/><line id="line4250" x1="0" x2="0" y1="0" y2="-81" class="line--inactive" transform="rotate(44.095477,447.44116,1392.2233)"/><line id="line4252" x1="0" x2="0" y1="0" y2="-81" class="line--inactive" transform="rotate(44.547739,451.34348,1383.8224)"/><line id="line4254" x1="0" x2="0" y1="0" y2="-81" class="line--inactive" transform="rotate(45,455.22435,1375.5601)"/></g></g></svg>