<svg xmlns="http://www.w3.org/2000/svg" xmlns:svg="http://www.w3.org/2000/svg" id="svg2083" width="1920" height="300" version="1.1"><metadata id="metadata2089"/><defs id="defs2087"><marker id="marker2657" orient="auto" overflow="visible" refX="0" refY="0"><path id="path2655" fill="#000" fill-opacity="1" fill-rule="evenodd" stroke="#000" stroke-opacity="1" stroke-width="1pt" d="M 0.0,0.0 L 5.0,-5.0 L -12.5,0.0 L 5.0,5.0 L 0.0,0.0 z" transform="scale(0.8) rotate(180) translate(12.5,0)"/></marker><marker id="Arrow1Lend" orient="auto" overflow="visible" refX="0" refY="0"><path id="path2098" fill="#000" fill-opacity="1" fill-rule="evenodd" stroke="#000" stroke-opacity="1" stroke-width="1pt" d="M 0.0,0.0 L 5.0,-5.0 L -12.5,0.0 L 5.0,5.0 L 0.0,0.0 z" transform="scale(0.8) rotate(180) translate(12.5,0)"/></marker><marker id="Arrow1Lstart" orient="auto" overflow="visible" refX="0" refY="0"><path id="path2095" fill="#000" fill-opacity="1" fill-rule="evenodd" stroke="#000" stroke-opacity="1" stroke-width="1pt" d="M 0.0,0.0 L 5.0,-5.0 L -12.5,0.0 L 5.0,5.0 L 0.0,0.0 z" transform="scale(0.8) translate(12.5,0)"/></marker><marker id="Arrow1Lstart-0" orient="auto" overflow="visible" refX="0" refY="0"><path id="path2095-0" fill="#000" fill-opacity="1" fill-rule="evenodd" stroke="#000" stroke-opacity="1" stroke-width="1.333" d="M 0,0 5,-5 -12.5,0 5,5 Z" transform="matrix(0.8,0,0,0.8,10,0)"/></marker><marker id="Arrow1Lstart-0-7" orient="auto" overflow="visible" refX="0" refY="0"><path id="path2095-0-5" fill="#000" fill-opacity="1" fill-rule="evenodd" stroke="#000" stroke-opacity="1" stroke-width="1.333" d="M 0,0 5,-5 -12.5,0 5,5 Z" transform="matrix(0.8,0,0,0.8,10,0)"/></marker></defs><style id="style1677">@import url(https://fonts.googleapis.com/css?family=Lato);svg{float:left}.line{stroke:#000;stroke-linecap:round}.line--inactive,.line--pivot{stroke-width:3px}.line--pivot{stroke:red}.line--inactive{stroke:#0f0}</style><g id="g2081" transform="translate(50,217)"><g id="g2079" stroke="#000" stroke-linecap="round" class="line"><line id="line1679" x1="0" x2="0" y1="0" y2="-81" transform="rotate(-41.38191,107.23133,40.5)"/><line id="line1681" x1="0" x2="0" y1="0" y2="-81" transform="rotate(-31.884422,146.3527,24.491606)"/><line id="line1683" x1="0" x2="0" y1="0" y2="-81" transform="rotate(-25.552764,187.74789,0.16797806)"/><line id="line1685" x1="0" x2="0" y1="0" y2="-81" transform="rotate(-43.190955,116.03351,5.8427971)"/><line id="line1687" x1="0" x2="0" y1="0" y2="-81" transform="rotate(-34.59799,148.33002,-18.230737)"/><line id="line1689" x1="0" x2="0" y1="0" y2="-81" transform="rotate(-34.145729,154.73382,-33.947078)"/><line id="line1691" x1="0" x2="0" y1="0" y2="-81" transform="rotate(-32.336683,167.12715,-54.134555)"/><line id="line1693" x1="0" x2="0" y1="0" y2="-81" transform="rotate(-35.050251,160.2635,-60.867887)"/><line id="line1695" x1="0" x2="0" y1="0" y2="-81" transform="rotate(-42.738693,140.0897,-52.995804)"/><line id="line1697" x1="0" x2="0" y1="0" y2="-81" transform="rotate(-28.266332,201.99893,-122.94753)"/><line id="line1699" x1="0" x2="0" y1="0" y2="-81" transform="rotate(-29.170854,201.37282,-135.23819)"/><line id="line1701" x1="0" x2="0" y1="0" y2="-81" transform="rotate(-38.668342,165.73062,-102.8644)"/><line id="line1703" x1="0" x2="0" y1="0" y2="-81" transform="rotate(-40.477387,164.72118,-108.33393)"/><line id="line1705" x1="0" x2="0" y1="0" y2="-81" transform="rotate(-33.693467,193.19534,-155.81988)"/><line id="line1707" x1="0" x2="0" y1="0" y2="-81" transform="rotate(-28.718593,222.22369,-209.57925)"/><line id="line1709" x1="0" x2="0" y1="0" y2="-81" transform="rotate(-26.457286,240.87814,-251.29138)"/><line id="line1711" x1="0" x2="0" y1="0" y2="-81" transform="rotate(-40.929648,181.69107,-155.55775)"/><line id="line1713" x1="0" x2="0" y1="0" y2="-81" transform="rotate(-39.120603,191.72576,-178.29521)"/><line id="line1715" x1="0" x2="0" y1="0" y2="-81" transform="rotate(-24.648241,267.68636,-336.2528)"/><line id="line1717" x1="0" x2="0" y1="0" y2="-81" transform="rotate(-39.572864,199.46114,-201.01019)"/><line id="line1719" x1="0" x2="0" y1="0" y2="-81" transform="rotate(-36.407035,214.61325,-237.61137)"/><line id="line1721" x1="0" x2="0" y1="0" y2="-81" transform="rotate(-32.788945,233.68638,-285.89872)"/><line id="line1723" x1="0" x2="0" y1="0" y2="-81" transform="rotate(-26.005025,275.9927,-395.17237)"/><line id="line1725" x1="0" x2="0" y1="0" y2="-81" stroke="red" stroke-width="3" class="line--pivot" transform="rotate(-27.361809,271.55452,-391.57457)"/><line id="line1727" x1="0" x2="0" y1="0" y2="-81" transform="rotate(-27.81407,273.31552,-402.7407)"/><line id="line1729" x1="0" x2="0" y1="0" y2="-81" transform="rotate(-36.859296,235.85909,-302.57062)"/><line id="line1731" x1="0" x2="0" y1="0" y2="-81" transform="rotate(-44.547739,217.7721,-249.77169)"/><line id="line1733" x1="0" x2="0" y1="0" y2="-81" transform="rotate(-43.643216,224.61392,-267.85306)"/><line id="line1735" x1="0" x2="0" y1="0" y2="-81" transform="rotate(-42.286432,232.76315,-290.58019)"/><line id="line1737" x1="0" x2="0" y1="0" y2="-81" transform="rotate(-33.241206,268.28939,-403.75812)"/><line id="line1739" x1="0" x2="0" y1="0" y2="-81" transform="rotate(-25.100503,319.11437,-575.74747)"/><line id="line1741" x1="0" x2="0" y1="0" y2="-81" transform="rotate(-24.19598,330.70676,-620.8589)"/><line id="line1743" x1="0" x2="0" y1="0" y2="-81" transform="rotate(-30.075377,297.083,-504.18379)"/><line id="line1745" x1="0" x2="0" y1="0" y2="-81" transform="rotate(-38.21608,267.80849,-395.08856)"/><line id="line1747" x1="0" x2="0" y1="0" y2="-81" transform="rotate(-31.432161,299.40565,-512.0331)"/><line id="line1749" x1="0" x2="0" y1="0" y2="-81" transform="rotate(-29.623116,313.21149,-564.77149)"/><line id="line1751" x1="0" x2="0" y1="0" y2="-81" transform="rotate(-44.095477,264.62416,-365.98109)"/><line id="line1753" x1="0" x2="0" y1="0" y2="-81" transform="rotate(-40.025126,280.39295,-424.04519)"/><line id="line1755" x1="0" x2="0" y1="0" y2="-81" transform="rotate(-35.502513,300.28125,-502.31272)"/><line id="line1757" x1="0" x2="0" y1="0" y2="-81" transform="rotate(-45,276.11736,-390.05497)"/><line id="line1759" x1="0" x2="0" y1="0" y2="-81" transform="rotate(-37.763819,301.32738,-494.30069)"/><line id="line1761" x1="0" x2="0" y1="0" y2="-81" transform="rotate(-30.979899,333.62526,-636.01865)"/><line id="line1763" x1="0" x2="0" y1="0" y2="-81" transform="rotate(-35.954774,316.87408,-551.39559)"/><line id="line1765" x1="0" x2="0" y1="0" y2="-81" transform="rotate(-26.909548,365.91635,-781.39356)"/><line id="line1767" x1="0" x2="0" y1="0" y2="-81" transform="rotate(-41.834171,307.17022,-485.93542)"/><line id="line1769" x1="0" x2="0" y1="0" y2="-81" transform="rotate(-30.527638,354.19011,-713.57151)"/><line id="line1771" x1="0" x2="0" y1="0" y2="-81" transform="rotate(-37.311558,330.30864,-582.54051)"/><line id="line1773" x1="0" x2="0" y1="0" y2="-81" stroke="#0f0" stroke-width="3" class="line--inactive" transform="rotate(-23.743719,407.5798,-981.87881)"/><line id="line1775" x1="0" x2="0" y1="0" y2="-81" transform="rotate(16.959799,-52.146202,1512.7249)"/><line id="line1777" x1="0" x2="0" y1="0" y2="-81" transform="rotate(11.532663,-176.98866,2259.3996)"/><line id="line1779" x1="0" x2="0" y1="0" y2="-81" transform="rotate(32.788945,90.986991,817.63981)"/><line id="line1781" x1="0" x2="0" y1="0" y2="-81" transform="rotate(6.5577889,-473.71284,4111.2949)"/><line id="line1783" x1="0" x2="0" y1="0" y2="-81" transform="rotate(13.341709,-108.49121,2073.6257)"/><line id="line1785" x1="0" x2="0" y1="0" y2="-81" transform="rotate(-20.577889,465.4636,-1294.5952)"/><line id="line1787" x1="0" x2="0" y1="0" y2="-81" transform="rotate(35.050251,118.68122,822.48084)"/><line id="line1789" x1="0" x2="0" y1="0" y2="-81" transform="rotate(8.3668342,-302.1915,3479.0057)"/><line id="line1791" x1="0" x2="0" y1="0" y2="-81" transform="rotate(-10.628141,691.49457,-2712.612)"/><line id="line1793" x1="0" x2="0" y1="0" y2="-81" transform="rotate(2.4874372,-1604.8126,12046.42)"/><line id="line1795" x1="0" x2="0" y1="0" y2="-81" transform="rotate(2.9396985,-1313.1466,10376.937)"/><line id="line1797" x1="0" x2="0" y1="0" y2="-81" transform="rotate(16.507538,-9.3953172,1900.4097)"/><line id="line1799" x1="0" x2="0" y1="0" y2="-81" transform="rotate(45,176.59621,702.89226)"/><line id="line1801" x1="0" x2="0" y1="0" y2="-81" transform="rotate(39.120603,164.95765,825.58869)"/><line id="line1803" x1="0" x2="0" y1="0" y2="-81" transform="rotate(-17.41206,548.0001,-1810.9925)"/><line id="line1805" x1="0" x2="0" y1="0" y2="-81" transform="rotate(33.693467,154.34235,991.89635)"/><line id="line1807" x1="0" x2="0" y1="0" y2="-81" transform="rotate(27.361809,126.28467,1242.7944)"/><line id="line1809" x1="0" x2="0" y1="0" y2="-81" transform="rotate(26.457286,124.95101,1304.9293)"/><line id="line1811" x1="0" x2="0" y1="0" y2="-81" transform="rotate(31.884422,160.02921,1097.054)"/><line id="line1813" x1="0" x2="0" y1="0" y2="-81" transform="rotate(27.81407,142.81513,1277.8803)"/><line id="line1815" x1="0" x2="0" y1="0" y2="-81" transform="rotate(0.67839196,-6530.0814,52565.262)"/><line id="line1817" x1="0" x2="0" y1="0" y2="-81" transform="rotate(41.834171,209.56345,866.04645)"/><line id="line1819" x1="0" x2="0" y1="0" y2="-81" transform="rotate(14.698492,6.0902114,2522.3482)"/><line id="line1821" x1="0" x2="0" y1="0" y2="-81" transform="rotate(41.38191,217.44203,900.13353)"/><line id="line1823" x1="0" x2="0" y1="0" y2="-81" transform="rotate(23.291457,132.74197,1637.9886)"/><line id="line1825" x1="0" x2="0" y1="0" y2="-81" transform="rotate(36.859296,212.28162,1042.2662)"/><line id="line1827" x1="0" x2="0" y1="0" y2="-81" transform="rotate(33.241206,202.71563,1174.1242)"/><line id="line1829" x1="0" x2="0" y1="0" y2="-81" transform="rotate(4.7487437,-633.77796,8311.8189)"/><line id="line1831" x1="0" x2="0" y1="0" y2="-81" transform="rotate(1.1306533,-3756.9988,35262.256)"/><line id="line1833" x1="0" x2="0" y1="0" y2="-81" transform="rotate(-2.9396985,1930.4833,-13682.011)"/><line id="line1835" x1="0" x2="0" y1="0" y2="-81" transform="rotate(-10.175879,811.55837,-3965.5828)"/><line id="line1837" x1="0" x2="0" y1="0" y2="-81" transform="rotate(24.648241,175.88148,1694.0262)"/><line id="line1839" x1="0" x2="0" y1="0" y2="-81" transform="rotate(28.266332,204.986,1493.367)"/><line id="line1841" x1="0" x2="0" y1="0" y2="-81" transform="rotate(24.19598,181.45405,1768.5668)"/><line id="line1843" x1="0" x2="0" y1="0" y2="-81" transform="rotate(7.9145729,-210.47379,5460.9578)"/><line id="line1845" x1="0" x2="0" y1="0" y2="-81" transform="rotate(30.527638,231.13652,1431.343)"/><line id="line1847" x1="0" x2="0" y1="0" y2="-81" transform="rotate(6.1055276,-375.28398,7243.0419)"/><line id="line1849" x1="0" x2="0" y1="0" y2="-81" transform="rotate(-9.2713568,888.1702,-4753.1628)"/><line id="line1851" x1="0" x2="0" y1="0" y2="-81" transform="rotate(-17.864322,650.94754,-2461.6566)"/><line id="line1853" x1="0" x2="0" y1="0" y2="-81" transform="rotate(18.768844,152.78506,2447.7134)"/><line id="line1855" x1="0" x2="0" y1="0" y2="-81" transform="rotate(29.170854,246.76789,1586.9961)"/><line id="line1857" x1="0" x2="0" y1="0" y2="-81" transform="rotate(-23.291457,603.48919,-1934.1734)"/><line id="line1859" x1="0" x2="0" y1="0" y2="-81" transform="rotate(10.175879,-43.317168,4662.9032)"/><line id="line1861" x1="0" x2="0" y1="0" y2="-81" transform="rotate(-1.5829146,3347.8511,-30082.432)"/><line id="line1863" x1="0" x2="0" y1="0" y2="-81" transform="rotate(31.432161,276.77525,1535.5896)"/><line id="line1865" x1="0" x2="0" y1="0" y2="-81" transform="rotate(21.934673,216.28592,2235.0359)"/><line id="line1867" x1="0" x2="0" y1="0" y2="-81" transform="rotate(40.025126,318.65228,1220.6959)"/><line id="line1869" x1="0" x2="0" y1="0" y2="-81" transform="rotate(44.095477,334.42106,1113.1584)"/><line id="line1871" x1="0" x2="0" y1="0" y2="-81" transform="rotate(30.075377,288.24364,1674.5514)"/><line id="line1873" x1="0" x2="0" y1="0" y2="-81" transform="rotate(-22.839196,644.07147,-2155.4744)"/><line id="line1875" x1="0" x2="0" y1="0" y2="-81" transform="rotate(5.201005,-443.56597,9907.415)"/><line id="line1877" x1="0" x2="0" y1="0" y2="-81" transform="rotate(43.190955,350.39865,1184.1877)"/><line id="line1879" x1="0" x2="0" y1="0" y2="-81" transform="rotate(23.743719,264.63125,2215.7741)"/><line id="line1881" x1="0" x2="0" y1="0" y2="-81" transform="rotate(10.628141,26.44513,5005.9341)"/><line id="line1883" x1="0" x2="0" y1="0" y2="-81" transform="rotate(42.738693,362.92537,1232.5715)"/><line id="line1885" x1="0" x2="0" y1="0" y2="-81" transform="rotate(21.482412,257.50657,2523.4345)"/><line id="line1887" x1="0" x2="0" y1="0" y2="-81" transform="rotate(-11.984925,861.3979,-4490.0548)"/><line id="line1889" x1="0" x2="0" y1="0" y2="-81" transform="rotate(-11.080402,897.6884,-4909.6486)"/><line id="line1891" x1="0" x2="0" y1="0" y2="-81" transform="rotate(-4.7487437,1461.4664,-11649.631)"/><line id="line1893" x1="0" x2="0" y1="0" y2="-81" transform="rotate(-7.4623116,1110.3367,-7462.5325)"/><line id="line1895" x1="0" x2="0" y1="0" y2="-81" transform="rotate(19.673367,260.29107,2888.8247)"/><line id="line1897" x1="0" x2="0" y1="0" y2="-81" transform="rotate(-5.201005,1390.1489,-10933.926)"/><line id="line1899" x1="0" x2="0" y1="0" y2="-81" transform="rotate(-12.889447,861.55403,-4412.5988)"/><line id="line1901" x1="0" x2="0" y1="0" y2="-81" transform="rotate(1.5829146,-2424.1325,36783.856)"/><line id="line1903" x1="0" x2="0" y1="0" y2="-81" transform="rotate(-4.2964824,1591.8308,-13612.948)"/><line id="line1905" x1="0" x2="0" y1="0" y2="-81" transform="rotate(11.080402,99.196021,5367.8027)"/><line id="line1907" x1="0" x2="0" y1="0" y2="-81" transform="rotate(-16.959799,792.95022,-3456.0341)"/><line id="line1909" x1="0" x2="0" y1="0" y2="-81" transform="rotate(-21.030151,744.07742,-2792.7308)"/><line id="line1911" x1="0" x2="0" y1="0" y2="-81" transform="rotate(8.8190955,5.251949,6919.3566)"/><line id="line1913" x1="0" x2="0" y1="0" y2="-81" transform="rotate(-18.768844,780.07926,-3196.7869)"/><line id="line1915" x1="0" x2="0" y1="0" y2="-81" transform="rotate(0.22613065,-19983.724,273481.07)"/><line id="line1917" x1="0" x2="0" y1="0" y2="-81" transform="rotate(11.984925,158.35084,5224.5002)"/><line id="line1919" x1="0" x2="0" y1="0" y2="-81" transform="rotate(7.4623116,-72.296543,8455.1159)"/><line id="line1921" x1="0" x2="0" y1="0" y2="-81" transform="rotate(2.0351759,-1726.8157,31191.981)"/><line id="line1923" x1="0" x2="0" y1="0" y2="-81" transform="rotate(17.41206,293.40693,3683.7594)"/><line id="line1925" x1="0" x2="0" y1="0" y2="-81" transform="rotate(38.21608,445.55835,1664.0574)"/><line id="line1927" x1="0" x2="0" y1="0" y2="-81" stroke="red" stroke-width="3" class="line--pivot" transform="rotate(-2.4874372,2432.5011,-26077.642)"/><line id="line1929" x1="0" x2="0" y1="0" y2="-81" transform="rotate(-7.9145729,1157.0567,-8222.393)"/><line id="line1931" x1="0" x2="0" y1="0" y2="-81" transform="rotate(37.311558,456.22403,1747.0892)"/><line id="line1933" x1="0" x2="0" y1="0" y2="-81" transform="rotate(-16.507538,859.94808,-3963.0345)"/><line id="line1935" x1="0" x2="0" y1="0" y2="-81" transform="rotate(39.572864,472.74992,1667.516)"/><line id="line1937" x1="0" x2="0" y1="0" y2="-81" transform="rotate(20.577889,366.7977,3290.0713)"/><line id="line1939" x1="0" x2="0" y1="0" y2="-81" transform="rotate(40.477387,484.62556,1652.8676)"/><line id="line1941" x1="0" x2="0" y1="0" y2="-81" transform="rotate(-22.386935,803.70764,-2986.7109)"/><line id="line1943" x1="0" x2="0" y1="0" y2="-81" transform="rotate(42.286432,498.89514,1601.3066)"/><line id="line1945" x1="0" x2="0" y1="0" y2="-81" transform="rotate(-5.6532663,1428.4588,-12277.511)"/><line id="line1947" x1="0" x2="0" y1="0" y2="-81" transform="rotate(19.221106,373.58136,3659.3237)"/><line id="line1949" x1="0" x2="0" y1="0" y2="-81" transform="rotate(-0.22613065,21140.658,-312794.05)"/><line id="line1951" x1="0" x2="0" y1="0" y2="-81" transform="rotate(-7.0100503,1283.127,-10113.017)"/><line id="line1953" x1="0" x2="0" y1="0" y2="-81" transform="rotate(-19.221106,865.66488,-3659.3421)"/><line id="line1955" x1="0" x2="0" y1="0" y2="-81" transform="rotate(21.030151,412.85725,3440.3769)"/><line id="line1957" x1="0" x2="0" y1="0" y2="-81" transform="rotate(29.623116,482.4669,2444.2925)"/><line id="line1959" x1="0" x2="0" y1="0" y2="-81" transform="rotate(26.909548,470.91782,2716.4325)"/><line id="line1961" x1="0" x2="0" y1="0" y2="-81" transform="rotate(15.603015,349.1745,4746.5431)"/><line id="line1963" x1="0" x2="0" y1="0" y2="-81" transform="rotate(34.59799,519.30817,2125.4411)"/><line id="line1965" x1="0" x2="0" y1="0" y2="-81" transform="rotate(-2.0351759,2934.0519,-36774.887)"/><line id="line1967" x1="0" x2="0" y1="0" y2="-81" transform="rotate(34.145729,526.62296,2184.5758)"/><line id="line1969" x1="0" x2="0" y1="0" y2="-81" transform="rotate(-20.125628,891.28886,-3695.9719)"/><line id="line1971" x1="0" x2="0" y1="0" y2="-81" transform="rotate(35.954774,542.82442,2098.0418)"/><line id="line1973" x1="0" x2="0" y1="0" y2="-81" transform="rotate(43.643216,571.06448,1719.3111)"/><line id="line1975" x1="0" x2="0" y1="0" y2="-81" transform="rotate(-0.67839196,7517.8201,-114278.1)"/><line id="line1977" x1="0" x2="0" y1="0" y2="-81" transform="rotate(36.407035,558.20082,2112.4297)"/><line id="line1979" x1="0" x2="0" y1="0" y2="-81" transform="rotate(12.889447,327.39069,6112.9074)"/><line id="line1981" x1="0" x2="0" y1="0" y2="-81" transform="rotate(-13.341709,1036.7827,-5863.3844)"/><line id="line1983" x1="0" x2="0" y1="0" y2="-81" transform="rotate(-19.673367,928.65365,-3968.2532)"/><line id="line1985" x1="0" x2="0" y1="0" y2="-81" transform="rotate(15.150754,395.1166,5301.3649)"/><line id="line1987" x1="0" x2="0" y1="0" y2="-81" transform="rotate(18.316583,453.00799,4408.6377)"/><line id="line1989" x1="0" x2="0" y1="0" y2="-81" transform="rotate(37.763819,590.38116,2112.8527)"/><line id="line1991" x1="0" x2="0" y1="0" y2="-81" transform="rotate(3.8442211,-493.43602,21297.121)"/><line id="line1993" x1="0" x2="0" y1="0" y2="-81" transform="rotate(4.2964824,-361.73031,19179.709)"/><line id="line1995" x1="0" x2="0" y1="0" y2="-81" transform="rotate(13.79397,387.69087,6013.6576)"/><line id="line1997" x1="0" x2="0" y1="0" y2="-81" transform="rotate(22.839196,526.58179,3640.0869)"/><line id="line1999" x1="0" x2="0" y1="0" y2="-81" transform="rotate(-3.8442211,1938.4611,-21761.162)"/><line id="line2001" x1="0" x2="0" y1="0" y2="-81" transform="rotate(14.246231,412.1438,5931.9372)"/><line id="line2003" x1="0" x2="0" y1="0" y2="-81" transform="rotate(-1.1306533,4845.3405,-75037.453)"/><line id="line2005" x1="0" x2="0" y1="0" y2="-81" transform="rotate(-8.3668342,1299.0759,-10149.981)"/><line id="line2007" x1="0" x2="0" y1="0" y2="-81" transform="rotate(30.979899,603.81193,2746.5746)"/><line id="line2009" x1="0" x2="0" y1="0" y2="-81" transform="rotate(17.864322,496.8414,4841.1494)"/><line id="line2011" x1="0" x2="0" y1="0" y2="-81" transform="rotate(9.7236181,282.9544,8964.859)"/><line id="line2013" x1="0" x2="0" y1="0" y2="-81" transform="rotate(35.502513,637.15593,2426.0191)"/><line id="line2015" x1="0" x2="0" y1="0" y2="-81" transform="rotate(3.3919598,-599.58238,25986.634)"/><line id="line2017" x1="0" x2="0" y1="0" y2="-81" transform="rotate(12.437186,401.12866,7132.9374)"/><line id="line2019" x1="0" x2="0" y1="0" y2="-81" transform="rotate(40.929648,668.8617,2123.6136)"/><line id="line2021" x1="0" x2="0" y1="0" y2="-81" transform="rotate(22.386935,577.29739,3992.0501)"/><line id="line2023" x1="0" x2="0" y1="0" y2="-81" transform="rotate(26.005025,611.14298,3446.6658)"/><line id="line2025" x1="0" x2="0" y1="0" y2="-81" transform="rotate(-16.055276,1078.2728,-5568.8737)"/><line id="line2027" x1="0" x2="0" y1="0" y2="-81" transform="rotate(25.100503,613.74995,3614.7353)"/><line id="line2029" x1="0" x2="0" y1="0" y2="-81" transform="rotate(28.718593,642.04767,3166.4906)"/><line id="line2031" x1="0" x2="0" y1="0" y2="-81" transform="rotate(-9.7236181,1280.9652,-9421.471)"/><line id="line2033" x1="0" x2="0" y1="0" y2="-81" transform="rotate(7.0100503,148.17955,13255.004)"/><line id="line2035" x1="0" x2="0" y1="0" y2="-81" transform="rotate(-21.482412,1027.4683,-4250.3965)"/><line id="line2037" x1="0" x2="0" y1="0" y2="-81" transform="rotate(-14.698492,1132.553,-6305.9404)"/><line id="line2039" x1="0" x2="0" y1="0" y2="-81" transform="rotate(-12.437186,1194.801,-7513.5754)"/><line id="line2041" x1="0" x2="0" y1="0" y2="-81" transform="rotate(38.668342,712.25933,2399.4961)"/><line id="line2043" x1="0" x2="0" y1="0" y2="-81" transform="rotate(32.336683,692.57134,2911.0815)"/><line id="line2045" x1="0" x2="0" y1="0" y2="-81" transform="rotate(16.055276,549.66688,5974.1149)"/><line id="line2047" x1="0" x2="0" y1="0" y2="-81" transform="rotate(-11.532663,1242.466,-8291.6945)"/><line id="line2049" x1="0" x2="0" y1="0" y2="-81" transform="rotate(-18.316583,1097.193,-5206.9381)"/><line id="line2051" x1="0" x2="0" y1="0" y2="-81" transform="rotate(-14.246231,1174.6401,-6765.7567)"/><line id="line2053" x1="0" x2="0" y1="0" y2="-81" transform="rotate(-13.79397,1189.9473,-7028.9966)"/><line id="line2055" x1="0" x2="0" y1="0" y2="-81" transform="rotate(9.2713568,360.22176,10642.954)"/><line id="line2057" x1="0" x2="0" y1="0" y2="-81" transform="rotate(5.6532663,44.003546,17545.043)"/><line id="line2059" x1="0" x2="0" y1="0" y2="-81" transform="rotate(-21.934673,1077.8347,-4442.9605)"/><line id="line2061" x1="0" x2="0" y1="0" y2="-81" transform="rotate(-15.603015,1169.0165,-6334.3528)"/><line id="line2063" x1="0" x2="0" y1="0" y2="-81" transform="rotate(-15.150754,1182.5216,-6561.3696)"/><line id="line2065" x1="0" x2="0" y1="0" y2="-81" transform="rotate(20.125628,654.33928,5013.8729)"/><line id="line2067" x1="0" x2="0" y1="0" y2="-81" transform="rotate(25.552764,708.53352,3952.7061)"/><line id="line2069" x1="0" x2="0" y1="0" y2="-81" transform="rotate(-3.3919598,2259.5321,-30075.549)"/><line id="line2071" x1="0" x2="0" y1="0" y2="-81" transform="rotate(-6.1055276,1655.686,-16765.431)"/><line id="line2073" x1="0" x2="0" y1="0" y2="-81" transform="rotate(-6.5577889,1607.7832,-15683.943)"/><line id="line2075" x1="0" x2="0" y1="0" y2="-81" transform="rotate(44.547739,806.54951,2251.0305)"/><line id="line2077" x1="0" x2="0" y1="0" y2="-81" transform="rotate(-8.8190955,1435.2003,-11760.297)"/></g></g><path id="path2653" fill="none" stroke="#000" stroke-linecap="butt" stroke-linejoin="miter" stroke-opacity="1" stroke-width=".899" marker-start="url(#Arrow1Lstart)" d="M 220.9589,216.00982 185.24787,97.734758"/><flowRoot id="flowRoot1057" fill="#000" fill-opacity="1" stroke="none" font-family="sans-serif" font-size="40" font-style="normal" font-weight="normal" letter-spacing="0" word-spacing="0" xml:space="preserve" style="line-height:1.25"><flowRegion id="flowRegion1059"><rect id="rect1061" width="212.372" height="40.36" x="79.76" y="42.462"/></flowRegion><flowPara id="flowPara1063"/></flowRoot><text font-style="normal" style="line-height:1.25;-inkscape-font-specification:'sans-serif, Normal';font-variant-ligatures:normal;font-variant-caps:normal;font-variant-numeric:normal;font-feature-settings:normal;text-align:center" id="text1067" x="186.426" y="40.541" fill="#000" fill-opacity="1" stroke="none" font-family="sans-serif" font-size="40" font-stretch="normal" font-variant="normal" font-weight="normal" letter-spacing="0" text-anchor="middle" word-spacing="0" writing-mode="lr-tb" xml:space="preserve"><tspan id="tspan1069" x="186.426" y="40.541">Selected</tspan></text><path id="path2653-4" fill="none" stroke="#000" stroke-linecap="butt" stroke-linejoin="miter" stroke-opacity="1" stroke-width=".899" marker-start="url(#Arrow1Lstart-0)" d="M 442.9589,216.00981 407.24787,97.734758"/><text font-style="normal" style="line-height:1.25;-inkscape-font-specification:'sans-serif, Normal';font-variant-ligatures:normal;font-variant-caps:normal;font-variant-numeric:normal;font-feature-settings:normal;text-align:center" id="text1067-6" x="408.426" y="40.541" fill="#000" fill-opacity="1" stroke="none" font-family="sans-serif" font-size="40" font-stretch="normal" font-variant="normal" font-weight="normal" letter-spacing="0" text-anchor="middle" word-spacing="0" writing-mode="lr-tb" xml:space="preserve"><tspan id="tspan4399" x="408.426" y="40.541">Previous</tspan></text><path id="path2653-4-6" fill="none" stroke="#000" stroke-linecap="butt" stroke-linejoin="miter" stroke-opacity="1" stroke-width=".899" marker-start="url(#Arrow1Lstart-0-7)" d="M 920.53425,214.32759 966.6522,99.7091"/><text font-style="normal" style="line-height:1.25;-inkscape-font-specification:'sans-serif, Normal';font-variant-ligatures:normal;font-variant-caps:normal;font-variant-numeric:normal;font-feature-settings:normal;text-align:center" id="text1067-6-9" x="962.426" y="40.541" fill="#000" fill-opacity="1" stroke="none" font-family="sans-serif" font-size="40" font-stretch="normal" font-variant="normal" font-weight="normal" letter-spacing="0" text-anchor="middle" word-spacing="0" writing-mode="lr-tb" xml:space="preserve"><tspan id="tspan6547" x="962.426" y="40.541">Angle (-45°..+45°) represents</tspan></text><text id="text6553" x="781.987" y="94.354" fill="#000" fill-opacity="1" stroke="none" font-family="sans-serif" font-size="40" font-style="normal" font-weight="normal" letter-spacing="0" word-spacing="0" xml:space="preserve" style="line-height:1.25"><tspan id="tspan6551" x="781.987" y="94.354">items in the array</tspan></text><text id="text6559" x="334.012" y="90.511" fill="#000" fill-opacity="1" stroke="none" font-family="sans-serif" font-size="40" font-style="normal" font-weight="normal" letter-spacing="0" word-spacing="0" xml:space="preserve" style="line-height:1.25"><tspan id="tspan6557" x="334.012" y="90.511">Pivot(s)</tspan></text><text id="text6559-2" x="110.538" y="90.577" fill="#000" fill-opacity="1" stroke="none" font-family="sans-serif" font-size="40" font-style="normal" font-weight="normal" letter-spacing="0" word-spacing="0" xml:space="preserve" style="line-height:1.25"><tspan id="tspan6557-8" x="110.538" y="90.577">Pivot(s)</tspan></text></svg>