<svg xmlns="http://www.w3.org/2000/svg" height="147.353" width="867.9" xmlns:v="https://vecta.io/nano"><style><![CDATA[.H{pointer-events:none}.I{fill-rule:evenodd}.J{font-family:Cascadia Code}.K{writing-mode:lr-tb}.L{stroke-dasharray:11, 4, 4, 4, 4, 4}]]></style><defs><style>@import url('/assets/css/cascadia.css'); </style><marker id="A" refX="0" refY="0" orient="auto" overflow="visible"><path transform="matrix(1.1 0 0 1.1 1.1 0)" d="M8.72 4.034L-2.207.016 8.72-4.002c-1.745 2.372-1.735 5.617 0 8.035z" fill="#000" fill-opacity="1" stroke="#000" stroke-width=".625" stroke-linejoin="round" stroke-opacity="1" class="H I"/></marker></defs><g fill="#bdd7ee" class="I H"><path d="M11.1 64.324H112v24.1H11.1z"/><path d="M110.8 64.324h100.9v24.1H110.8z"/><path d="M210.5 64.324h100.8v24.1H210.5z"/><path d="M310.2 64.324h32.1v24.1h-32.1z"/><path d="M341.1 64.324h32.1v24.1h-32.1z"/><path d="M372.1 64.324h32.1v24.1h-32.1z"/></g><g fill="#ffd966" class="H I"><path d="M403 64.324h32.1v24.1H403z"/><path d="M433.9 64.324H466v24.1h-32.1z"/><path d="M464.9 64.324H497v24.1h-32.1z"/><path d="M495.8 64.324h32.1v24.1h-32.1z"/></g><g fill="#ddebf7" class="H I"><path d="M526.8 64.324h32v24.1h-32z"/><path d="M557.7 64.324h100.8v24.1H557.7z"/><path d="M657.4 64.324h100.8v24.1H657.4z"/><path d="M757.1 64.324h100.8v24.1H757.1z"/></g><text x="338.285" y="22.38" dx="0 -0.30000001 0 -0.1 0.80000001 0 -0.1 -0.1 0.80000001 0 0.40000001 -0.1 0 0.80000001 0.80000001 0.80000001 0 0" font-size="16.809" class="J K">Cacheline Boundary</text><g fill="none" stroke="#000" stroke-width="1.145" stroke-linejoin="bevel" stroke-miterlimit="2" class="H"><path d="M404.2 65.424v21.8" class="L"/><path d="M433.874 25.653v44.1m0 24.1v43.5" stroke-dasharray="11, 4, 4, 4"/><path d="M527.9 65.424v21.8" class="L"/></g><g class="I H"><path d="M12.3 63.224h845.6v2.2H12.3zm0 22.9h420.5v2.3H12.3z"/><path d="M435.1 86.124h420.5v2.3H435.1zM10 63.224h2.3v25.2H10z"/><path d="M432.8 64.324h2.3v24.1h-2.3zm422.8 0h2.3v24.1h-2.3z"/></g><path d="M421.574 108.65l-128.704 9.26" fill="none" stroke="#000" marker-start="url(#A)" class="H"/><text y="124.38" x="154.526" font-size="16.809" class="J K">ptr % 64 == 0</text></svg>