<?xml version="1.0" encoding="UTF-8" standalone="no"?>
<svg
   xmlns:dc="http://purl.org/dc/elements/1.1/"
   xmlns:cc="http://creativecommons.org/ns#"
   xmlns:rdf="http://www.w3.org/1999/02/22-rdf-syntax-ns#"
   xmlns:svg="http://www.w3.org/2000/svg"
   xmlns="http://www.w3.org/2000/svg"
   xmlns:sodipodi="http://sodipodi.sourceforge.net/DTD/sodipodi-0.dtd"
   xmlns:inkscape="http://www.inkscape.org/namespaces/inkscape"
   inkscape:version="1.0beta2 (2b71d25, 2019-12-03)"
   sodipodi:docname="help.svg"
   id="svg10"
   version="1.1"
   viewbox="0 0 40 40"
   height="64"
   width="64">
  <sodipodi:namedview
     inkscape:current-layer="g8"
     inkscape:window-maximized="1"
     inkscape:window-y="1360"
     inkscape:window-x="2880"
     inkscape:cy="31.949546"
     inkscape:cx="32"
     inkscape:zoom="15.78125"
     showgrid="false"
     id="namedview265"
     inkscape:window-height="1175"
     inkscape:window-width="1920"
     inkscape:pageshadow="2"
     inkscape:pageopacity="0"
     guidetolerance="10"
     gridtolerance="10"
     objecttolerance="10"
     borderopacity="1"
     inkscape:document-rotation="0"
     bordercolor="#666666"
     pagecolor="#ffffff" />
  <metadata
     id="metadata16">
    <rdf:RDF>
      <cc:Work
         rdf:about="">
        <dc:format>image/svg+xml</dc:format>
        <dc:type
           rdf:resource="http://purl.org/dc/dcmitype/StillImage" />
        <dc:title></dc:title>
      </cc:Work>
    </rdf:RDF>
  </metadata>
  <defs
     id="defs14" />
  <g
     transform="matrix(3,0,0,3,-28,-28)"
     id="g8">
    <circle
       style="fill:none;stroke:#444a46;stroke-width:4.50208902"
       id="circle2"
       r="5"
       cy="20"
       cx="20">
      <animate
         repeatCount="indefinite"
         begin="0s"
         dur="3s"
         to="10"
         from="3"
         attributeName="r" />
      <animate
         repeatCount="indefinite"
         begin="0s"
         dur="3s"
         to="0"
         from="1"
         attributeName="opacity" />
    </circle>
    <circle
       style="fill:#ba0000;fill-opacity:1"
       id="circle4"
       r="5"
       cy="20"
       cx="20" />
    <g
       transform="translate(-0.027647,-0.0012875)"
       style="font-style:normal;font-weight:normal;font-size:13.3333px;line-height:1.25;font-family:sans-serif;letter-spacing:0px;word-spacing:0px;fill:#000000;fill-opacity:1;stroke:none;stroke-width:0.333333"
       id="text269"
       aria-label="?">
      <path
         inkscape:connector-curvature="0"
         id="path1097"
         style="font-style:normal;font-variant:normal;font-weight:normal;font-stretch:normal;font-size:6.66667px;font-family:'Cascadia Code';-inkscape-font-specification:'Cascadia Code Normal';font-variant-ligatures:normal;font-variant-caps:normal;font-variant-numeric:normal;font-variant-east-asian:normal;fill:#ffffff;stroke-width:0.333333"
         d="m 19.630512,20.515611 q 0,-0.644532 0.533854,-0.983074 0.527344,-0.341797 0.527344,-0.807292 0,-0.227864 -0.172526,-0.354818 -0.172526,-0.126953 -0.485026,-0.126953 -0.348308,0 -0.540365,0.159506 -0.188802,0.159505 -0.188802,0.452474 h -0.657553 q 0,-0.38737 0.162761,-0.664063 0.166016,-0.276693 0.478516,-0.419922 0.3125,-0.146485 0.751953,-0.146485 0.429688,0 0.735678,0.126954 0.309245,0.123698 0.46875,0.364583 0.16276,0.240886 0.16276,0.576172 0,0.738933 -0.722656,1.217449 -0.416667,0.270182 -0.416667,0.651042 v 0.266927 h -0.638021 z m 0.332031,1.86198 q -0.130208,0 -0.240885,-0.0651 -0.110678,-0.0651 -0.175782,-0.175782 -0.0651,-0.110677 -0.0651,-0.240885 0,-0.130209 0.0651,-0.240886 0.0651,-0.110677 0.175782,-0.175781 0.110677,-0.0651 0.240885,-0.0651 0.130209,0 0.240886,0.0651 0.110677,0.0651 0.175781,0.175781 0.0651,0.110677 0.0651,0.240886 0,0.130208 -0.0651,0.240885 -0.0651,0.110677 -0.175781,0.175782 -0.110677,0.0651 -0.240886,0.0651 z" />
    </g>
  </g>
</svg>
