<svg xmlns="http://www.w3.org/2000/svg" xmlns:svg="http://www.w3.org/2000/svg" id="svg10" width="64" height="64" version="1.1" viewbox="0 0 40 40"><metadata id="metadata16"/><g id="g8" transform="matrix(3,0,0,3,-28,-28)"><circle id="circle2" cx="20" cy="20" r="5" fill="none" stroke="#444a46" stroke-width="4.502"><animate attributeName="r" begin="0s" dur="3s" from="3" repeatCount="indefinite" to="10"/><animate attributeName="opacity" begin="0s" dur="3s" from="1" repeatCount="indefinite" to="0"/></circle><circle id="circle4" cx="20" cy="20" r="5" fill="#ba0000" fill-opacity="1"/><g id="text269" fill="#000" fill-opacity="1" stroke="none" stroke-width=".333" aria-label="?" font-family="sans-serif" font-size="13.333" font-style="normal" font-weight="normal" letter-spacing="0" transform="translate(-0.027647,-0.0012875)" word-spacing="0" style="line-height:1.25"><path id="path1097" fill="#fff" stroke-width=".333" d="m 19.630512,20.515611 q 0,-0.644532 0.533854,-0.983074 0.527344,-0.341797 0.527344,-0.807292 0,-0.227864 -0.172526,-0.354818 -0.172526,-0.126953 -0.485026,-0.126953 -0.348308,0 -0.540365,0.159506 -0.188802,0.159505 -0.188802,0.452474 h -0.657553 q 0,-0.38737 0.162761,-0.664063 0.166016,-0.276693 0.478516,-0.419922 0.3125,-0.146485 0.751953,-0.146485 0.429688,0 0.735678,0.126954 0.309245,0.123698 0.46875,0.364583 0.16276,0.240886 0.16276,0.576172 0,0.738933 -0.722656,1.217449 -0.416667,0.270182 -0.416667,0.651042 v 0.266927 h -0.638021 z m 0.332031,1.86198 q -0.130208,0 -0.240885,-0.0651 -0.110678,-0.0651 -0.175782,-0.175782 -0.0651,-0.110677 -0.0651,-0.240885 0,-0.130209 0.0651,-0.240886 0.0651,-0.110677 0.175782,-0.175781 0.110677,-0.0651 0.240885,-0.0651 0.130209,0 0.240886,0.0651 0.110677,0.0651 0.175781,0.175781 0.0651,0.110677 0.0651,0.240886 0,0.130208 -0.0651,0.240885 -0.0651,0.110677 -0.175781,0.175782 -0.110677,0.0651 -0.240886,0.0651 z" font-family="Cascadia Code" font-size="6.667" font-stretch="normal" font-style="normal" font-variant="normal" font-weight="normal" style="-inkscape-font-specification:'Cascadia Code Normal';font-variant-ligatures:normal;font-variant-caps:normal;font-variant-numeric:normal;font-variant-east-asian:normal"/></g></g></svg>