<?xml version="1.0" encoding="UTF-8" standalone="no"?>
<svg
   xmlns:dc="http://purl.org/dc/elements/1.1/"
   xmlns:cc="http://creativecommons.org/ns#"
   xmlns:rdf="http://www.w3.org/1999/02/22-rdf-syntax-ns#"
   xmlns:svg="http://www.w3.org/2000/svg"
   xmlns="http://www.w3.org/2000/svg"
   xmlns:xlink="http://www.w3.org/1999/xlink"
   id="svg278"
   version="1.1"
   height="452.49042"
   width="905.92609">
  <metadata
     id="metadata284">
    <rdf:RDF>
      <cc:Work
         rdf:about="">
        <dc:format>image/svg+xml</dc:format>
        <dc:type
           rdf:resource="http://purl.org/dc/dcmitype/StillImage" />
        <dc:title></dc:title>
      </cc:Work>
    </rdf:RDF>
  </metadata>
  <defs
     id="defs282" />
  <g
     transform="matrix(0.74249103,0,0,0.75873811,7.0029086,0)"
     id="g276">
    <path
       style="fill:#bf6969"
       id="path199"
       title="16"
       d="m 0,207.16123 c 0,0 145.37371,-62.35805 224.06224,-74.75905 78.68852,-12.40099 166.76855,0.65161 248.06891,0.35309 81.30036,-0.29853 158.4329,-0.25209 239.73326,-2.14423 81.30036,-1.89214 166.71297,-7.44567 248.0689,-9.20859 C 1041.2892,119.63953 1200,120.03352 1200,120.03352 V 0 C 1200,0 1041.2892,0 959.93331,0 878.57738,0 793.16477,0 711.86441,0 630.56405,0 553.43151,0 472.13115,0 390.83079,0 302.75076,0 224.06224,0 145.37371,0 0,0 0,0 Z"
       class="layer" />
    <path
       style="fill:#aebf69"
       id="path201"
       title="24"
       d="m 0,305.53147 c 0,0 145.37371,65.13671 224.06224,55.95019 78.68852,-9.18652 166.76855,-91.9267 248.06891,-111.0693 81.30036,-19.1426 158.4329,-20.74702 239.73326,-3.78632 81.30036,16.9607 166.71297,88.05818 248.0689,105.55052 C 1041.2892,369.6689 1200,351.58007 1200,351.58007 V 236.48071 c 0,0 -158.7108,18.38372 -240.06669,0.73878 C 878.57738,219.57454 793.16477,148.02174 711.86441,130.61104 630.56405,113.20034 553.43151,113.10908 472.13115,132.75527 390.83079,152.40145 302.75076,236.08715 224.06224,248.48815 145.37371,260.88914 0,207.16123 0,207.16123 Z"
       class="layer" />
    <path
       style="fill:#69bf8b"
       id="path203"
       title="32"
       d="m 0,400.51388 c 0,0 145.37371,-164.17963 224.06224,-152.02573 78.68852,12.1539 166.76855,206.53488 248.06891,224.94912 81.30036,18.41424 158.4329,-132.22415 239.73326,-114.4637 C 793.16477,376.73403 878.57738,543.16226 959.93331,580 1041.2892,616.83774 1200,580 1200,580 V 466.63193 c 0,0 -158.7108,36.76514 -240.06669,0.0975 C 878.57738,430.06178 793.16477,263.808 711.86441,246.62604 630.56405,229.44407 553.43151,382.67495 472.13115,363.63764 390.83079,344.60034 302.75076,142.08655 224.06224,132.40218 145.37371,122.71782 0,305.53147 0,305.53147 Z"
       class="layer" />
    <path
       style="fill:#698bbf"
       id="path205"
       title="40"
       d="m 0,580 c 0,0 145.37371,36.06039 224.06224,0 78.68852,-36.06039 166.76855,-198.02819 248.06891,-216.36236 81.30036,-18.33417 158.4329,127.42703 239.73326,106.35734 C 793.16477,448.92529 878.57738,237.78 959.93331,237.21949 1041.2892,236.65898 1200,466.63193 1200,466.63193 V 351.58007 c 0,0 -158.7108,-231.40987 -240.06669,-230.17762 C 878.57738,122.6347 793.16477,337.47192 711.86441,358.97357 630.56405,380.47522 553.43151,231.28449 472.13115,250.41236 390.83079,269.54023 302.75076,433.35627 224.06224,473.74077 145.37371,514.12527 0,492.71934 0,492.71934 Z"
       class="layer" />
    <path
       style="fill:#ae69bf"
       id="path207"
       title="48"
       d="m 0,492.71934 c 0,0 145.37371,-33.52535 224.06224,-18.97857 78.68852,14.54678 166.76855,88.54936 248.06891,106.25923 81.30036,17.70987 158.4329,18.87843 239.73326,0 81.30036,-18.87843 166.71297,-56.01736 248.0689,-113.27058 C 1041.2892,409.47621 1200,236.48071 1200,236.48071 V 120.03352 c 0,0 -158.7108,173.81613 -240.06669,232.14304 -81.35593,58.32691 -166.76854,97.6083 -248.0689,117.81842 -81.30036,20.21012 -158.4329,21.52784 -239.73326,3.44229 C 390.83079,455.35172 302.75076,373.63556 224.06224,361.48166 145.37371,349.32776 0,400.51388 0,400.51388 Z"
       class="layer" />
    <g
       id="g247"
       style="font-size:10px;font-family:Arial, Helvetica;text-anchor:middle;fill:none;stroke-width:1px"
       font-size="10"
       transform="translate(0,580)"
       class="x axis">
      <path
         id="path209"
         style="fill:none;stroke:#cccccc"
         d="M 0.5,6 V 0.5 h 1200 V 6"
         class="domain" />
      <g
         style="opacity:1"
         id="g215"
         transform="translate(0.5)"
         class="tick">
        <line
           x2="0"
           y1="0"
           x1="0"
           id="line211"
           style="fill:none;stroke:#cccccc"
           y2="6" />
        <text
           style="fill:#000000;font-weight:bold;font-size:18px;font-family:Arial, Helvetica;text-anchor:start"
           id="text213"
           dy="0.70999998em"
           y="9">10^2</text>
      </g>
      <g
         style="opacity:1"
         id="g221"
         transform="translate(224.56224)"
         class="tick">
        <line
           x2="0"
           y1="0"
           x1="0"
           id="line217"
           style="fill:none;stroke:#cccccc"
           y2="6" />
        <text
           style="fill:#000000;font-weight:bold;font-size:18px;font-family:Arial, Helvetica;text-anchor:start"
           id="text219"
           dy="0.70999998em"
           y="9">10^3</text>
      </g>
      <g
         style="opacity:1"
         id="g227"
         transform="translate(472.63115)"
         class="tick">
        <line
           x2="0"
           y1="0"
           x1="0"
           id="line223"
           style="fill:none;stroke:#cccccc"
           y2="6" />
        <text
           style="fill:#000000;font-weight:bold;font-size:18px;font-family:Arial, Helvetica;text-anchor:start"
           id="text225"
           dy="0.70999998em"
           y="9">10^4</text>
      </g>
      <g
         style="opacity:1"
         id="g233"
         transform="translate(712.36441)"
         class="tick">
        <line
           x2="0"
           y1="0"
           x1="0"
           id="line229"
           style="fill:none;stroke:#cccccc"
           y2="6" />
        <text
           style="fill:#000000;font-weight:bold;font-size:18px;font-family:Arial, Helvetica;text-anchor:start"
           id="text231"
           dy="0.70999998em"
           y="9">10^5</text>
      </g>
      <g
         style="opacity:1"
         id="g239"
         transform="translate(960.43331)"
         class="tick">
        <line
           x2="0"
           y1="0"
           x1="0"
           id="line235"
           style="fill:none;stroke:#cccccc"
           y2="6" />
        <text
           style="fill:#000000;font-weight:bold;font-size:18px;font-family:Arial, Helvetica;text-anchor:start" id="text237"
           dy="0.70999998em"
           y="9">10^6</text>
      </g>
      <g
         style="opacity:1"
         id="g245"
         transform="translate(1200.5)"
         class="tick">
        <line
           x2="0"
           y1="0"
           x1="0"
           id="line241"
           style="fill:none;stroke:#cccccc"
           y2="6" />
        <text
           style="fill:#000000;font-weight:bold;font-size:18px;font-family:Arial, Helvetica;text-anchor:center" id="text243"
           dy="0.70999998em"
           y="9">10^7</text>
      </g>
    </g>
    <defs
       id="defs254">
      <path
         d="m 0,103.58062 c 0,0 145.37371,-31.179031 224.06224,-37.379529 78.68852,-6.200497 166.76855,0.325804 248.06891,0.176543 81.30036,-0.149262 158.4329,-0.126045 239.73326,-1.072114 81.30036,-0.946068 166.71297,-3.722837 248.0689,-4.604296 C 1041.2892,59.819764 1200,60.016762 1200,60.016762"
         id="path-0" />
      <path
         d="m 0,256.34635 c 0,0 145.37371,59.43231 224.06224,48.63855 78.68852,-10.79375 166.76855,-94.00669 248.06891,-113.40109 81.30036,-19.39439 158.4329,-20.15097 239.73326,-2.96527 81.30036,17.1857 166.71297,88.51084 248.0689,106.07948 C 1041.2892,312.26666 1200,294.03039 1200,294.03039"
         id="path-1" />
      <path
         d="m 0,353.02267 c 0,0 145.37371,-173.49664 224.06224,-162.5775 78.68852,10.91913 166.76855,209.36651 248.06891,228.09229 81.30036,18.72577 158.4329,-133.20886 239.73326,-115.73766 81.30036,17.47121 166.71297,183.81222 248.0689,220.56491 C 1041.2892,560.11741 1200,523.31597 1200,523.31597"
         id="path-2" />
      <path
         d="m 0,536.35967 c 0,0 145.37371,28.73316 224.06224,-9.48928 C 302.75076,488.64794 390.83079,325.75602 472.13115,307.025 553.43151,288.29398 630.56405,435.76995 711.86441,414.48427 793.16477,393.1986 878.57738,180.20735 959.93331,179.31097 1041.2892,178.41459 1200,409.106 1200,409.106"
         id="path-3" />
      <path
         d="m 0,446.61661 c 0,0 145.37371,-42.35573 224.06224,-29.00539 78.68852,13.35033 166.76855,91.2097 248.06891,109.10742 81.30036,17.89771 158.4329,17.82312 239.73326,-1.72115 81.30036,-19.54428 166.71297,-57.75444 248.0689,-115.5445 C 1041.2892,351.66293 1200,178.25711 1200,178.25711"
         id="path-4" />
    </defs>
    <text
       id="text258"
       class="label"
       dy="0.5ex">
      <textPath
         id="textPath256"
         style="font-weight:normal;font-size:18px;font-family:Arial, Helvetica;text-anchor:start"
         startOffset="5.0000001%"
         xlink:href="#path-0">16</textPath>
    </text>
    <text
       id="text262"
       class="label"
       dy="0.5ex">
      <textPath
         id="textPath260"
         style="font-weight:normal;font-size:18px;font-family:Arial, Helvetica;text-anchor:middle"
         startOffset="33.000001%"
         xlink:href="#path-1">24</textPath>
    </text>
    <text
       id="text266"
       class="label"
       dy="0.5ex">
      <textPath
         id="textPath264"
         style="font-weight:normal;font-size:18px;font-family:Arial, Helvetica;text-anchor:middle"
         startOffset="17%"
         xlink:href="#path-2">32</textPath>
    </text>
    <text
       id="text270"
       class="label"
       dy="0.5ex">
      <textPath
         id="textPath268"
         style="font-weight:normal;font-size:18px;font-family:Arial, Helvetica;text-anchor:middle"
         startOffset="67.000002%"
         xlink:href="#path-3">40</textPath>
    </text>
    <text
       id="text274"
       class="label"
       dy="0.5ex">
      <textPath
         id="textPath272"
         style="font-weight:normal;font-size:18px;font-family:Arial, Helvetica;text-anchor:middle"
         startOffset="82.999998%"
         xlink:href="#path-4">48</textPath>
    </text>
  </g>
</svg>
