<?xml version="1.0" encoding="UTF-8" standalone="no"?>
<svg
   xmlns:dc="http://purl.org/dc/elements/1.1/"
   xmlns:cc="http://creativecommons.org/ns#"
   xmlns:rdf="http://www.w3.org/1999/02/22-rdf-syntax-ns#"
   xmlns:svg="http://www.w3.org/2000/svg"
   xmlns="http://www.w3.org/2000/svg"
   width="64"
   height="64"
   viewbox="0 0 40 40"
   version="1.1"
   id="svg10">
  <metadata
     id="metadata16">
    <rdf:RDF>
      <cc:Work
         rdf:about="">
        <dc:format>image/svg+xml</dc:format>
        <dc:type
           rdf:resource="http://purl.org/dc/dcmitype/StillImage" />
        <dc:title></dc:title>
      </cc:Work>
    </rdf:RDF>
  </metadata>
  <defs
     id="defs14" />
  <g
     id="g8"
     transform="matrix(3,0,0,3,-28,-28)">
    <circle
       cx="20"
       cy="20"
       r="5"
       id="circle2"
       style="fill:none;stroke:#444a46;stroke-width:4.50208902">
      <animate
         attributeName="r"
         from="3"
         to="10"
         dur="3s"
         begin="0s"
         repeatCount="indefinite" />
      <animate
         attributeName="opacity"
         from="1"
         to="0"
         dur="3s"
         begin="0s"
         repeatCount="indefinite" />
    </circle>
    <circle
       cx="20"
       cy="20"
       r="5"
       id="circle4"
       style="fill:#ba0000;fill-opacity:1" />
    <path
       style="fill:#ffffff;fill-opacity:1;stroke-width:0.1;stroke-miterlimit:4;stroke-dasharray:none"
       d="m 20.158928,22.714393 c -0.01831,0 -0.03647,-0.0035 -0.05382,-0.01043 -0.03591,-0.01428 -0.06446,-0.04245 -0.07952,-0.07817 l -0.541602,-1.283301 -0.643664,0.568989 c -0.02704,0.02778 -0.07549,0.04767 -0.125673,0.04767 -0.105386,0 -0.191265,-0.08609 -0.191265,-0.192043 v -3.492887 c 0,-0.105953 0.08588,-0.192043 0.191265,-0.192043 0.0446,0 0.08782,0.01562 0.124507,0.04534 l 2.524722,2.560099 c 0.0394,0.04842 0.05464,0.09107 0.05464,0.135462 0,0.105776 -0.08588,0.192043 -0.191265,0.192043 h -0.857549 l 0.521916,1.237781 c 0.03085,0.07316 -0.0029,0.157303 -0.07567,0.188969 l -0.599312,0.260533 c -0.01834,0.0079 -0.03803,0.01198 -0.05771,0.01198 z m -0.619739,-1.758496 c 0.01081,0 0.02142,0.0012 0.03223,0.0037 0.04534,0.01039 0.08319,0.04188 0.101146,0.08492 l 0.562981,1.33405 0.333725,-0.145145 -0.551036,-1.306838 c -0.01891,-0.0446 -0.0141,-0.09595 0.01272,-0.136275 0.02686,-0.04032 0.0722,-0.06467 0.120655,-0.06467 h 0.844401 l -2.183117,-2.213616 v 3.037768 l 0.630377,-0.557575 c 0.02661,-0.02357 0.06096,-0.03629 0.09592,-0.03629 z m -0.886492,0.735552 c -0.0041,0.0031 -0.0077,0.0064 -0.0112,0.0098 z m 2.494435,-0.81256 h 0.0019 z m 0,0"
       id="path871" />
  </g>
</svg>
